<svg width="60" height="60" viewBox="0 0 60 60" fill="none" xmlns="http://www.w3.org/2000/svg">
<path fill-rule="evenodd" clip-rule="evenodd" d="M50.5456 47.9388C52.6023 46.3754 52.4379 43.413 51.3678 40.863L45.9398 28.3611L44.5408 25.0707C44.1293 24.0015 42.733 23.3447 41.4149 23.5909C39.8524 23.9188 39.0285 25.2343 39.5226 26.4697L40.8381 29.5965H40.3457L36.7274 21.288C36.3149 20.2196 34.916 19.5592 33.6014 19.8045C32.038 20.1343 31.215 21.5342 31.7083 22.6843L35.1639 31.4043H34.7524L29.8987 21.04C29.4063 19.8872 28.0073 19.2304 26.6918 19.5592C25.1284 19.8872 24.3072 21.2053 24.8014 22.4372L28.9956 32.143L28.5015 32.39L19.8649 13.7171C19.4525 12.6505 18.0526 11.9928 16.7381 12.2372C15.1756 12.567 14.3517 13.8833 14.8458 15.117L24.5534 37.6553L25.2111 39.3005C25.9515 40.5342 25.54 42.0976 23.4841 41.191C22.0034 40.4524 20.5226 38.4757 19.289 36.7505L16.4092 33.2131C15.588 32.0603 13.7784 31.815 12.5447 32.5563C11.3928 33.2957 11.2284 34.6112 11.967 35.6013C11.967 35.6013 17.1496 42.7553 19.0419 45.0609C24.3072 51.4763 30.8879 55.5888 36.81 54.931C42.3206 54.2724 46.762 50.815 50.5456 47.9388Z" fill="#4D5969"/>
<path fill-rule="evenodd" clip-rule="evenodd" d="M10.652 13.6356C7.69055 11.1701 9.8299 6.97402 14.0251 6.97402C17.0674 6.97402 19.2886 9.27692 18.6309 11.7451C19.4521 11.9922 20.1116 12.4846 20.5222 13.1414C21.5924 11.0047 21.0155 8.29035 18.9597 6.72605C17.5607 5.6577 16.08 5 14.0251 5C12.051 5 10.3223 5.6577 9.08952 6.72605C4.40107 10.5924 8.18383 17.1748 14.681 16.6789L13.9424 14.7884C12.6261 14.7893 11.4742 14.3787 10.652 13.6356Z" fill="#0A6B37"/>
</svg>
