<svg width="560" height="560" viewBox="0 0 560 560" fill="none" xmlns="http://www.w3.org/2000/svg">
<path fill-rule="evenodd" clip-rule="evenodd" d="M373.493 82.9358C377.465 84.0545 381.906 86.1027 382.108 90.5609C382.321 95.2529 378.346 98.5029 374.273 100.124C370.084 101.791 365.005 102.264 362.308 98.4404C359.613 94.6203 361.16 89.2523 363.913 85.436C366.157 82.3252 369.991 81.9494 373.493 82.9358Z" fill="#FD70FD"/>
<path fill-rule="evenodd" clip-rule="evenodd" d="M427.193 137.718C432.236 139.146 436.167 142.815 436.856 146.543C437.559 150.345 435.067 153.724 430.242 154.212C426.049 154.637 422.198 151.309 419.259 148.323C416.867 145.893 415.655 143.069 417.217 140.981C419.138 138.413 422.716 136.45 427.193 137.718Z" fill="#FD70FD"/>
<path fill-rule="evenodd" clip-rule="evenodd" d="M454.041 108.843C455.42 109.271 455.61 111.355 455.592 113.157C455.573 115.049 455.417 117.35 453.949 118.059C452.485 118.767 451.289 117.141 450.501 115.617C449.886 114.427 449.943 112.903 450.618 111.612C451.437 110.045 452.674 108.418 454.041 108.843Z" fill="#FD70FD"/>
<path d="M391.543 105.093C391.543 116.569 400.846 125.873 412.322 125.873C423.798 125.873 433.102 116.569 433.102 105.093C433.102 93.6163 423.798 84.3127 412.322 84.3127C400.846 84.3127 391.543 93.6163 391.543 105.093Z" fill="#30B47A"/>
<path d="M393.868 106.965C393.868 118.441 403.171 127.745 414.647 127.745C426.123 127.745 435.426 118.441 435.426 106.965C435.426 95.4883 426.123 86.1848 414.647 86.1848C403.171 86.1848 393.868 95.4883 393.868 106.965Z" stroke="#0C8563" stroke-width="2" stroke-miterlimit="10"/>
<path d="M402.195 110.038L407.649 115.118L423.76 100.108" stroke="white" stroke-width="2" stroke-miterlimit="10"/>
<path fill-rule="evenodd" clip-rule="evenodd" d="M134.009 402.943C134.134 407.07 133.563 411.896 129.64 413.274C125.512 414.724 121.486 411.753 118.887 408.256C116.213 404.658 114.353 399.886 117.003 396.271C119.65 392.658 124.88 392.725 129.065 394.367C132.477 395.706 133.898 399.304 134.009 402.943Z" fill="#FD70FD"/>
<path fill-rule="evenodd" clip-rule="evenodd" d="M160.992 411.984C161.145 417.227 158.983 421.991 155.85 423.645C152.655 425.332 148.933 423.825 147.132 419.302C145.567 415.371 147.447 410.774 149.281 407.147C150.773 404.195 152.951 402.278 155.256 403.23C158.092 404.401 160.857 407.33 160.992 411.984Z" fill="#FD70FD"/>
<path fill-rule="evenodd" clip-rule="evenodd" d="M108.337 440.076C108.278 443.772 106.477 447.319 102.872 448.631C98.65 450.167 93.5429 449.909 90.8314 446.445C88.0128 442.845 88.7996 437.855 91.6155 434.252C94.2969 430.822 98.9568 429.212 103.159 430.675C106.999 432.013 108.399 436.158 108.337 440.076Z" fill="#FD70FD"/>
<path fill-rule="evenodd" clip-rule="evenodd" d="M155.219 449.295C155.227 450.738 153.421 451.474 151.807 451.935C150.113 452.419 148.015 452.88 146.967 451.652C145.92 450.428 147.033 448.843 148.171 447.679C149.059 446.77 150.435 446.42 151.779 446.729C153.409 447.102 155.212 447.863 155.219 449.295Z" fill="#FD70FD"/>
<path d="M119.106 444.078C125.035 450.007 134.616 450.038 140.507 444.147C146.397 438.257 146.366 428.675 140.438 422.747C134.509 416.818 124.928 416.787 119.037 422.677C113.146 428.568 113.177 438.149 119.106 444.078Z" fill="#FF5940"/>
<path d="M121.201 443.785C127.13 449.714 136.711 449.745 142.602 443.854C148.492 437.964 148.461 428.383 142.532 422.454C136.604 416.525 127.022 416.494 121.132 422.385C115.241 428.275 115.272 437.857 121.201 443.785Z" stroke="#D15036" stroke-width="1.7593" stroke-miterlimit="10"/>
<path d="M130.731 436.622C133.824 436.705 136.399 434.281 136.482 431.208C136.565 428.134 134.124 425.575 131.031 425.492C127.937 425.409 125.362 427.833 125.28 430.906C125.197 433.98 127.638 436.539 130.731 436.622Z" stroke="white" stroke-width="2" stroke-miterlimit="10"/>
<path d="M135.011 435.003L139.532 439.743" stroke="white" stroke-width="2" stroke-miterlimit="10"/>
<path fill-rule="evenodd" clip-rule="evenodd" d="M153.969 93.6124C154.125 98.8291 151.92 103.57 148.726 105.216C145.469 106.894 141.674 105.395 139.838 100.894C138.242 96.9827 140.159 92.4087 142.028 88.8C143.549 85.8625 145.77 83.9544 148.121 84.9018C151.012 86.0671 153.831 88.9816 153.969 93.6124Z" fill="#FD70FD"/>
<path fill-rule="evenodd" clip-rule="evenodd" d="M115.094 160.882C115.033 164.56 113.198 168.089 109.523 169.394C105.217 170.923 100.01 170.666 97.2459 167.22C94.3722 163.637 95.1744 158.672 98.0453 155.087C100.779 151.674 105.53 150.072 109.815 151.528C113.73 152.859 115.157 156.984 115.094 160.882Z" fill="#FD70FD"/>
<path fill-rule="evenodd" clip-rule="evenodd" d="M155 150.637C155.008 152.073 153.166 152.806 151.521 153.264C149.794 153.746 147.655 154.204 146.586 152.983C145.519 151.764 146.653 150.187 147.813 149.029C148.719 148.125 150.122 147.777 151.492 148.084C153.154 148.456 154.992 149.213 155 150.637Z" fill="#FD70FD"/>
<path d="M105.211 125.589C105.211 136.538 114.248 145.415 125.395 145.415C136.543 145.415 145.58 136.538 145.58 125.589C145.58 114.639 136.543 105.763 125.395 105.763C114.248 105.763 105.211 114.639 105.211 125.589Z" fill="#7A7AFC"/>
<path d="M107.469 127.253C107.469 138.203 116.506 147.079 127.654 147.079C138.801 147.079 147.838 138.203 147.838 127.253C147.838 116.303 138.801 107.427 127.654 107.427C116.506 107.427 107.469 116.303 107.469 127.253Z" fill="#7A7AFC" stroke="#00008B" stroke-width="2" stroke-miterlimit="10"/>
<path d="M123.072 139.229C124.138 139.186 125.206 139.142 126.272 139.1C127.8 139.038 129.328 138.975 130.855 138.915C131.55 138.886 132.279 138.949 132.649 138.217C133.037 137.444 132.289 135.583 131.727 135.008C131.653 134.933 131.53 134.884 131.378 134.855C131.379 134.849 131.378 134.842 131.377 134.837C131.48 132.809 132.332 130.887 133.746 129.467C133.775 129.436 133.907 129.307 133.847 129.251C131.005 126.618 128.613 123.046 127.691 119.269C127.682 119.226 127.657 119.211 127.614 119.213C127.355 119.223 127.1 119.234 126.84 119.246L127.192 130.305C127.221 130.307 127.25 130.311 127.28 130.318C127.884 130.422 128.31 131.002 128.369 131.588C128.447 132.403 127.697 132.77 127 132.65C126.399 132.542 125.971 131.964 125.915 131.378C125.906 130.683 126.376 130.302 126.981 130.294L125.946 119.283C125.854 119.286 125.761 119.289 125.67 119.293C125.511 119.3 125.289 119.463 125.266 119.628C124.77 123.424 122.806 127.136 120.29 129.957C120.27 129.982 120.19 130.084 120.237 130.124C121.85 131.469 122.959 133.321 123.3 135.402L123.286 135.41C123.001 135.569 122.798 135.838 122.627 136.315C122.622 136.334 122.621 136.342 122.619 136.356C122.62 136.358 122.616 136.361 122.616 136.364C122.502 137.018 121.681 139.284 123.072 139.229Z" fill="#00008B"/>
<path d="M118.449 124.273C118.425 123.836 118.136 123.475 117.748 123.34C118.192 119.184 121.236 116.014 125.272 115.416C125.414 115.85 125.826 116.157 126.296 116.139C126.769 116.12 127.145 115.778 127.238 115.334C131.296 115.596 134.587 118.77 135.562 122.637C135.212 122.812 134.98 123.184 135.004 123.606C135.036 124.175 135.518 124.62 136.084 124.596C136.648 124.575 137.08 124.093 137.049 123.523C137.02 122.992 136.597 122.575 136.083 122.538C135.111 118.236 131.485 115.202 127.244 114.944C127.156 114.435 126.707 114.052 126.183 114.073C125.657 114.094 125.251 114.514 125.222 115.032C125.206 115.034 125.191 115.035 125.176 115.037C121.006 115.672 117.917 119.208 117.329 123.287C116.785 123.33 116.372 123.799 116.403 124.356C116.434 124.925 116.918 125.37 117.482 125.347C118.048 125.324 118.48 124.842 118.449 124.273Z" fill="#00008B"/>
<path d="M120.237 130.123C120.191 130.084 120.27 129.982 120.29 129.957C122.806 127.135 124.77 123.424 125.267 119.627C125.289 119.463 125.512 119.3 125.67 119.293C125.761 119.289 125.854 119.286 125.946 119.283L126.981 130.294C126.377 130.302 125.906 130.683 125.915 131.378C125.971 131.964 126.399 132.542 127 132.65C127.697 132.77 128.448 132.403 128.369 131.588C128.311 131.001 127.884 130.422 127.28 130.318C127.25 130.311 127.222 130.307 127.192 130.305L126.841 119.246C127.101 119.234 127.356 119.223 127.614 119.212C127.657 119.211 127.682 119.226 127.691 119.269C128.613 123.045 131.005 126.618 133.847 129.251C133.908 129.307 133.776 129.436 133.746 129.467C132.333 130.887 131.481 132.809 131.378 134.837L123.286 135.409L123.3 135.401C122.959 133.321 121.851 131.469 120.237 130.123Z" fill="white"/>
<path d="M135.107 124.141C134.803 123.615 134.976 122.947 135.492 122.649C136.009 122.35 136.674 122.535 136.978 123.061C137.282 123.587 137.109 124.256 136.593 124.554C136.076 124.852 135.411 124.668 135.107 124.141Z" fill="white"/>
<path d="M116.537 124.896C116.234 124.37 116.406 123.701 116.923 123.403C117.44 123.105 118.105 123.289 118.408 123.816C118.712 124.342 118.54 125.01 118.023 125.309C117.506 125.607 116.841 125.422 116.537 124.896Z" fill="white"/>
<path d="M125.305 115.645C125.001 115.119 125.173 114.45 125.69 114.152C126.207 113.854 126.872 114.038 127.176 114.565C127.479 115.091 127.307 115.759 126.79 116.058C126.274 116.356 125.608 116.171 125.305 115.645Z" fill="white"/>
<path fill-rule="evenodd" clip-rule="evenodd" d="M429.755 468.159C429.881 472.268 429.308 477.073 425.378 478.445C421.242 479.89 417.207 476.932 414.603 473.45C411.923 469.867 410.06 465.116 412.715 461.516C415.367 457.919 420.607 457.986 424.802 459.621C428.221 460.954 429.644 464.536 429.755 468.159Z" fill="#FD70FD"/>
<path fill-rule="evenodd" clip-rule="evenodd" d="M458.925 394.291C459.078 399.511 456.912 404.255 453.773 405.901C450.571 407.581 446.842 406.081 445.037 401.577C443.468 397.663 445.353 393.087 447.19 389.476C448.685 386.536 450.867 384.627 453.177 385.575C456.019 386.741 458.79 389.657 458.925 394.291Z" fill="#FD70FD"/>
<path fill-rule="evenodd" clip-rule="evenodd" d="M416.696 422.262C416.637 425.942 414.833 429.474 411.221 430.78C406.99 432.309 401.872 432.052 399.155 428.604C396.331 425.019 397.119 420.05 399.941 416.464C402.628 413.048 407.297 411.445 411.508 412.902C415.356 414.233 416.758 418.361 416.696 422.262Z" fill="#FD70FD"/>
<path fill-rule="evenodd" clip-rule="evenodd" d="M471 431.44C471.008 432.877 469.198 433.61 467.581 434.069C465.883 434.551 463.781 435.009 462.73 433.787C461.682 432.568 462.797 430.99 463.937 429.831C464.827 428.926 466.206 428.578 467.552 428.885C469.186 429.257 470.992 430.015 471 431.44Z" fill="#FD70FD"/>
<path d="M427.359 445.644C433.41 451.693 443.22 451.694 449.27 445.645C455.321 439.596 455.32 429.789 449.269 423.739C443.219 417.69 433.409 417.69 427.358 423.739C421.308 429.787 421.308 439.595 427.359 445.644Z" fill="#F6A915"/>
<path d="M429.572 445.02C435.623 451.071 445.433 451.071 451.484 445.021C457.534 438.971 457.534 429.161 451.483 423.11C445.432 417.059 435.622 417.059 429.571 423.109C423.521 429.159 423.521 438.969 429.572 445.02Z" stroke="#F67215" stroke-width="1.3979" stroke-miterlimit="10"/>
<path d="M446.471 432.647C446.471 435.472 445.22 437.836 442.896 439.088C441.85 439.652 440.894 443.958 440.894 443.958L436.359 443.867C436.359 443.867 435.613 439.291 434.819 438.738C432.894 437.398 431.635 435.17 431.635 432.647C431.635 428.55 434.956 425.23 439.052 425.23C443.15 425.23 446.471 428.551 446.471 432.647Z" stroke="white" stroke-miterlimit="10"/>
<path d="M436.995 438.699L435.816 431.988L438.718 433.62L441.529 431.988L440.441 438.699" stroke="white" stroke-miterlimit="10"/>
</svg>
