<svg width="560" height="560" viewBox="0 0 560 560" fill="none" xmlns="http://www.w3.org/2000/svg">
<path fill-rule="evenodd" clip-rule="evenodd" d="M207.128 75.0235C210.728 73.0062 215.316 71.3144 218.612 74.3238C222.08 77.4909 221.567 82.6 219.833 86.6256C218.05 90.767 214.793 94.6928 210.182 93.8962C205.576 93.1004 202.874 88.2111 202.122 83.5657C201.509 79.7791 203.955 76.8023 207.128 75.0235Z" fill="#FD70FD"/>
<path fill-rule="evenodd" clip-rule="evenodd" d="M283.836 75.7892C288.413 73.2328 293.786 73.0473 296.91 75.1961C300.095 77.3877 300.722 81.5397 297.656 85.2961C294.991 88.5611 289.915 88.9309 285.725 88.8981C282.315 88.8714 279.462 87.7311 279.09 85.1506C278.632 81.9762 279.774 78.0585 283.836 75.7892Z" fill="#FD70FD"/>
<path fill-rule="evenodd" clip-rule="evenodd" d="M282.403 36.3866C283.681 35.7146 285.289 37.0538 286.55 38.3406C287.875 39.692 289.392 41.4287 288.855 42.9685C288.32 44.5045 286.325 44.2008 284.69 43.6797C283.414 43.273 282.377 42.1556 281.941 40.765C281.412 39.0781 281.136 37.0531 282.403 36.3866Z" fill="#FD70FD"/>
<path d="M235.559 77.9278C243.674 86.0429 256.831 86.0431 264.946 77.9283C273.06 69.8134 273.06 56.6565 264.945 48.5414C256.83 40.4263 243.673 40.4261 235.558 48.5409C227.443 56.6558 227.444 69.8127 235.559 77.9278Z" fill="#30B47A"/>
<path d="M238.526 77.6078C246.641 85.7229 259.798 85.7231 267.913 77.6083C276.028 69.4934 276.028 56.3365 267.913 48.2214C259.798 40.1063 246.641 40.1061 238.526 48.2209C230.411 56.3358 230.411 69.4927 238.526 77.6078Z" stroke="#0C8563" stroke-width="2" stroke-miterlimit="10"/>
<path d="M241.715 66.9781L247.169 72.0581L263.28 57.048" stroke="white" stroke-width="2" stroke-miterlimit="10"/>
<path fill-rule="evenodd" clip-rule="evenodd" d="M264.066 470.644C267.073 473.473 270.081 477.29 268.283 481.038C266.389 484.982 261.442 485.729 257.131 485.094C252.696 484.44 248.006 482.381 247.324 477.951C246.641 473.525 250.386 469.874 254.507 468.076C257.866 466.61 261.415 468.149 264.066 470.644Z" fill="#FD70FD"/>
<path fill-rule="evenodd" clip-rule="evenodd" d="M289.539 457.956C293.355 461.556 295.195 466.453 294.149 469.838C293.083 473.29 289.385 474.856 284.914 472.932C281.027 471.259 279.106 466.679 277.838 462.818C276.806 459.675 276.99 456.78 279.293 455.822C282.127 454.645 286.153 454.761 289.539 457.956Z" fill="#FD70FD"/>
<path fill-rule="evenodd" clip-rule="evenodd" d="M272.17 515.054C274.742 517.709 275.977 521.491 274.356 524.967C272.457 529.039 268.662 532.467 264.296 531.936C259.757 531.383 256.785 527.298 256.229 522.76C255.699 518.438 257.856 514.004 261.862 512.068C265.523 510.298 269.444 512.24 272.17 515.054Z" fill="#FD70FD"/>
<path fill-rule="evenodd" clip-rule="evenodd" d="M311.84 488.421C312.866 489.436 312.11 491.234 311.295 492.701C310.439 494.242 309.281 496.05 307.671 495.924C306.066 495.798 305.732 493.891 305.713 492.263C305.699 490.992 306.425 489.772 307.593 489.04C309.01 488.151 310.822 487.415 311.84 488.421Z" fill="#FD70FD"/>
<path d="M271.54 505.153C277.468 511.082 287.05 511.113 292.94 505.222C298.831 499.332 298.8 489.75 292.871 483.821C286.942 477.893 277.361 477.862 271.47 483.752C265.58 489.643 265.611 499.224 271.54 505.153Z" fill="#FF5940"/>
<path d="M273.634 504.86C279.563 510.789 289.144 510.82 295.035 504.929C300.925 499.039 300.894 489.457 294.966 483.529C289.037 477.6 279.456 477.569 273.565 483.459C267.675 489.35 267.706 498.931 273.634 504.86Z" stroke="#D15036" stroke-width="1.7593" stroke-miterlimit="10"/>
<path d="M283.164 497.697C286.258 497.78 288.833 495.356 288.915 492.283C288.998 489.209 286.557 486.65 283.464 486.567C280.371 486.484 277.796 488.908 277.713 491.981C277.63 495.055 280.071 497.614 283.164 497.697Z" stroke="white" stroke-width="2" stroke-miterlimit="10"/>
<path d="M287.445 496.078L291.966 500.818" stroke="white" stroke-width="2" stroke-miterlimit="10"/>
<path fill-rule="evenodd" clip-rule="evenodd" d="M59.4507 237.8C63.2495 241.379 65.0429 246.29 63.9482 249.712C62.8316 253.203 59.088 254.825 54.6073 252.942C50.7129 251.304 48.8344 246.714 47.6043 242.841C46.603 239.688 46.8239 236.769 49.1559 235.776C52.0245 234.556 56.0786 234.623 59.4507 237.8Z" fill="#FD70FD"/>
<path fill-rule="evenodd" clip-rule="evenodd" d="M79.5282 312.856C82.0866 315.499 83.2842 319.293 81.6083 322.815C79.6452 326.94 75.7812 330.44 71.3896 329.958C66.8244 329.457 63.8804 325.378 63.376 320.814C62.8956 316.467 65.1221 311.974 69.1812 309.975C72.8907 308.147 76.817 310.055 79.5282 312.856Z" fill="#FD70FD"/>
<path fill-rule="evenodd" clip-rule="evenodd" d="M100.502 277.394C101.523 278.403 100.739 280.224 99.8999 281.711C99.0188 283.273 97.8307 285.11 96.2109 285.002C94.595 284.895 94.2821 282.978 94.2834 281.338C94.2844 280.059 95.0304 278.821 96.2162 278.069C97.6546 277.156 99.4892 276.392 100.502 277.394Z" fill="#FD70FD"/>
<path d="M47.5846 294.888C55.3272 302.63 67.9938 302.517 75.8762 294.635C83.7586 286.752 83.8719 274.086 76.1293 266.343C68.3867 258.601 55.7202 258.714 47.8378 266.596C39.9554 274.479 39.842 287.145 47.5846 294.888Z" fill="#7A7AFC"/>
<path d="M50.3581 294.468C58.1007 302.21 70.7672 302.097 78.6496 294.215C86.532 286.332 86.6453 273.666 78.9027 265.923C71.1602 258.181 58.4936 258.294 50.6112 266.176C42.7288 274.059 42.6155 286.725 50.3581 294.468Z" fill="#7A7AFC" stroke="#00008B" stroke-width="2" stroke-miterlimit="10"/>
<path d="M60.0561 292.29C61.122 292.247 62.19 292.203 63.2559 292.16C64.7842 292.097 66.3125 292.035 67.8388 291.974C68.5338 291.946 69.2636 292.009 69.6331 291.276C70.0214 290.504 69.2738 288.643 68.7114 288.067C68.6372 287.993 68.5147 287.944 68.3619 287.915C68.3635 287.909 68.362 287.902 68.3617 287.896C68.4649 285.869 69.3171 283.947 70.7306 282.526C70.7602 282.496 70.8921 282.367 70.8313 282.311C67.99 279.678 65.5981 276.106 64.676 272.329C64.667 272.287 64.6426 272.271 64.5988 272.273C64.3407 272.283 64.0857 272.295 63.8257 272.306L64.1763 283.365C64.2059 283.367 64.2348 283.371 64.2647 283.378C64.8688 283.482 65.2949 284.062 65.3537 284.648C65.4319 285.463 64.6811 285.83 63.9843 285.71C63.383 285.602 62.9549 285.024 62.8993 284.438C62.8903 283.743 63.3609 283.362 63.9656 283.354L62.9315 272.343C62.839 272.346 62.7465 272.349 62.6551 272.354C62.4965 272.36 62.2742 272.523 62.2516 272.688C61.7547 276.484 59.7909 280.196 57.2742 283.018C57.2544 283.042 57.1747 283.144 57.2212 283.184C58.8348 284.529 59.9435 286.382 60.284 288.462L60.2702 288.47C59.9854 288.629 59.7824 288.898 59.6107 289.375C59.6058 289.394 59.6054 289.402 59.6033 289.417C59.6044 289.419 59.6005 289.421 59.5997 289.424C59.4857 290.078 58.6649 292.344 60.0561 292.29Z" fill="#00008B"/>
<path d="M55.4333 277.333C55.4094 276.897 55.1203 276.536 54.7322 276.401C55.1769 272.245 58.2213 269.075 62.2571 268.476C62.3991 268.91 62.8108 269.217 63.2815 269.199C63.7539 269.18 64.1306 268.838 64.2233 268.394C68.2811 268.656 71.5718 271.829 72.5464 275.697C72.1966 275.871 71.9648 276.243 71.9884 276.665C72.0207 277.235 72.5026 277.68 73.0683 277.656C73.6327 277.634 74.0652 277.152 74.0342 276.582C74.0047 276.051 73.5818 275.635 73.0678 275.598C72.0966 271.296 68.4703 268.261 64.2292 268.005C64.1413 267.495 63.6926 267.112 63.1685 267.133C62.6426 267.154 62.2362 267.575 62.2073 268.092C62.1915 268.095 62.1766 268.095 62.161 268.097C57.9907 268.733 54.9017 272.269 54.3137 276.347C53.77 276.391 53.3564 276.859 53.3875 277.417C53.4183 277.986 53.9026 278.431 54.4668 278.407C55.0325 278.385 55.4644 277.903 55.4333 277.333Z" fill="#00008B"/>
<path d="M57.2212 283.184C57.1747 283.144 57.2545 283.042 57.2742 283.018C59.7909 280.196 61.7547 276.484 62.2517 272.688C62.2742 272.523 62.4966 272.36 62.6551 272.354C62.7465 272.349 62.839 272.346 62.9316 272.343L63.9656 283.354C63.361 283.362 62.8903 283.743 62.8993 284.438C62.955 285.024 63.383 285.602 63.9843 285.71C64.6812 285.83 65.4319 285.463 65.3537 284.648C65.295 284.062 64.8689 283.482 64.2648 283.378C64.2348 283.371 64.206 283.367 64.1763 283.365L63.8257 272.306C64.0858 272.295 64.3408 272.283 64.5989 272.273C64.6426 272.271 64.6671 272.287 64.676 272.329C65.5981 276.105 67.99 279.678 70.8314 282.311C70.8922 282.366 70.7602 282.496 70.7307 282.526C69.3171 283.947 68.465 285.869 68.3617 287.896L60.2703 288.47L60.284 288.462C59.9436 286.382 58.8349 284.529 57.2212 283.184Z" fill="white"/>
<path d="M72.0911 277.202C71.7874 276.676 71.9601 276.008 72.477 275.709C72.9939 275.411 73.659 275.595 73.9628 276.122C74.2665 276.648 74.0937 277.316 73.5769 277.614C73.0602 277.913 72.3948 277.728 72.0911 277.202Z" fill="white"/>
<path d="M53.5218 277.957C53.218 277.43 53.3908 276.762 53.9077 276.464C54.4245 276.165 55.0897 276.35 55.3934 276.876C55.6972 277.402 55.5244 278.07 55.0075 278.369C54.4907 278.667 53.8255 278.483 53.5218 277.957Z" fill="white"/>
<path d="M62.2889 268.705C61.9851 268.179 62.1579 267.511 62.6748 267.213C63.1916 266.914 63.8568 267.099 64.1605 267.625C64.4643 268.151 64.2915 268.819 63.7746 269.118C63.2579 269.416 62.5926 269.232 62.2889 268.705Z" fill="white"/>
<path fill-rule="evenodd" clip-rule="evenodd" d="M519.305 307.634C522.3 310.451 525.293 314.254 523.484 318.003C521.58 321.949 516.636 322.71 512.332 322.09C507.904 321.451 503.227 319.409 502.559 314.986C501.891 310.568 505.644 306.909 509.766 305.1C513.126 303.625 516.665 305.151 519.305 307.634Z" fill="#FD70FD"/>
<path fill-rule="evenodd" clip-rule="evenodd" d="M487.699 234.775C491.498 238.358 493.321 243.245 492.265 246.629C491.189 250.08 487.491 251.656 483.031 249.748C479.154 248.09 477.25 243.521 475.996 239.669C474.975 236.533 475.168 233.64 477.471 232.677C480.305 231.492 484.327 231.595 487.699 234.775Z" fill="#FD70FD"/>
<path fill-rule="evenodd" clip-rule="evenodd" d="M477.617 284.414C480.177 287.059 481.399 290.832 479.768 294.309C477.858 298.383 474.057 301.819 469.698 301.302C465.166 300.764 462.21 296.693 461.669 292.162C461.154 287.847 463.322 283.412 467.33 281.465C470.992 279.685 474.903 281.612 477.617 284.414Z" fill="#FD70FD"/>
<path fill-rule="evenodd" clip-rule="evenodd" d="M522.506 252.506C523.527 253.516 522.766 255.314 521.947 256.782C521.087 258.323 519.925 260.134 518.318 260.013C516.714 259.892 516.387 257.988 516.374 256.362C516.363 255.093 517.092 253.872 518.261 253.137C519.68 252.245 521.492 251.503 522.506 252.506Z" fill="#FD70FD"/>
<path d="M490.19 288.177C496.241 294.228 506.051 294.228 512.101 288.178C518.151 282.127 518.151 272.317 512.1 266.267C506.049 260.216 496.239 260.215 490.189 266.266C484.138 272.316 484.139 282.126 490.19 288.177Z" fill="#F6A915"/>
<path d="M492.403 287.556C498.454 293.607 508.264 293.607 514.314 287.557C520.365 281.506 520.364 271.696 514.313 265.645C508.262 259.594 498.452 259.594 492.402 265.644C486.352 271.695 486.352 281.505 492.403 287.556Z" stroke="#F67215" stroke-width="1.3979" stroke-miterlimit="10"/>
<path d="M509.302 275.183C509.302 278.008 508.051 280.371 505.727 281.624C504.681 282.188 503.724 286.494 503.724 286.494L499.19 286.403C499.19 286.403 498.444 281.826 497.649 281.273C495.725 279.933 494.466 277.705 494.466 275.183C494.466 271.086 497.787 267.766 501.883 267.766C505.981 267.766 509.302 271.087 509.302 275.183Z" stroke="white" stroke-miterlimit="10"/>
<path d="M499.825 281.234L498.647 274.524L501.548 276.156L504.36 274.524L503.271 281.234" stroke="white" stroke-miterlimit="10"/>
</svg>
