<svg width="137" height="40" viewBox="0 0 137 40" fill="none" xmlns="http://www.w3.org/2000/svg">
<g filter="url(#filter0_ii_619_1462)">
<rect width="40" height="40" rx="8" fill="#8A2BE2"/>
<path d="M8.60529 19.3947V31H5.10529C4.36845 31 4.06143 30.2631 4.00003 29.8947V17C9.95617 16.9386 22.1632 16.8526 23.3421 17C24.8158 17.1842 26.6579 18.2894 26.8421 20.6842C26.9895 22.6 25.5527 24.1842 24.8158 24.7368L28.5 31H23.8948C23.4527 31 22.8509 30.3859 22.6053 30.0789L20.7632 26.9473H16.3421V24.5526H20.3948C22.9737 22.7105 20.9474 19.3947 20.3948 19.3947H8.60529Z" fill="white"/>
<path d="M10.6315 29.5263V20.3158H15.2368V30.8158C14.5614 30.8772 12.9526 30.9631 11.921 30.8158C10.8894 30.6684 10.6315 29.8947 10.6315 29.5263Z" fill="white"/>
<path d="M10.6315 10V15.8947H15.421V14.7895H25.5526C27.7631 15.8947 28.6842 16.2632 29.6052 19.2105C30.3421 21.5684 28.1929 23.7544 27.0263 24.5526C27.8859 26.0877 29.7157 29.3421 30.1578 30.0789C30.6 30.8158 31.3245 31 31.6315 31H36.0526L31.6315 23.2632C32.921 22.5263 35.2421 20.0211 34.2105 15.8947C33.1789 11.7684 29.3596 10.2456 27.5789 10H10.6315Z" fill="white"/>
</g>
<path d="M59.8516 8.39453L60.4492 8.44141L60.332 8.82812L60.7656 9.03906L60.9297 8.875L61.0469 9.03906L61.7383 9.20312L61.9609 8.99219L62.125 9.26172L62.5117 9.42578H62.7812L62.9453 9.51953L63.1094 9.37891L63.3789 9.51953L64.5742 9.73047L64.6914 9.8125C64.9727 9.8125 65.3164 9.78516 65.7227 9.73047C65.9258 9.84766 66.2148 9.94531 66.5898 10.0234L66.6602 10.293L66.543 10.6211L66.7656 11.0547L65.6758 12.4258L65.3008 12.5664L63.8359 13.7734L63.332 14.1016L61.7383 15.0391L61.5273 15.2617L61.3164 15.1328L60.7656 15.4727L60.543 15.9062L60.6133 16.668L61.0469 18.4023L62.418 20.418L62.9922 21.0859L62.8516 21.4023L63.332 21.6836L63.6367 21.9062C63.6836 21.9375 63.7422 21.957 63.8125 21.9648L64.0938 22L64.5273 22.5508H64.7969L65.1719 22.6445V22.5039L65.4648 22.5977H65.6758L66.0625 22.8203L66.543 22.9375L67.2695 23.5352H67.4102L67.5273 23.9688L67.6914 24.0625V24.2852L67.0234 24.7891L66.4961 24.8828L66.1562 24.7891V24.7305L65.5117 24.5664L64.6914 24.1797L64.1406 23.6992L63.7773 23.5117C63.6523 23.4492 63.5039 23.3281 63.332 23.1484H62.9922L62.6758 22.7734L62.418 22.7148V22.5977L61.9609 22.4336L61.8203 22.5039C61.5312 22.2539 61.3633 22.0859 61.3164 22L60.8359 21.9531L60.7656 21.5664L60.4961 21.3555L59.9453 21.3086L59.6758 20.9688L59.3477 20.8516V20.6992H59.8516C59.5 20.6289 59.2031 20.5352 58.9609 20.418L58.8203 20.1016L58.6445 20.0312L58.5977 19.668L58.2109 19.293L58.6445 18.5195L58.4805 18.3555L58 18.3086L57.8828 17.875L57.4961 17.6523L57.4492 17.7578L57.1094 17.875L57.0625 18.2617L56.8047 18.4727V18.7891L56.6289 19.1641L56.8984 19.5039L56.7227 19.5508C56.668 19.9727 56.582 20.3164 56.4648 20.582L56.5117 20.8047L56.3711 20.9688L56.418 21.3086H56.3008L56.3711 21.8359L56.1953 22.7148V23.582L56.0781 23.7578L55.9844 24.4492L55.8672 25L55.8203 25.4336L55.4805 26.0312L55.4453 26.2656C55.4375 26.3359 55.3594 26.4727 55.2109 26.6758L55.2695 26.7578L54.9531 27.4961L54.707 27.6602L54.4609 28.1875C54.4219 28.2734 54.3633 28.3477 54.2852 28.4102L53.9688 28.6914V28.8672L53.6289 28.9141L53.6758 29.1953L53.5352 29.6289L52.6445 30.2852L52.0469 30.1797L51.8828 30.0156L51.9531 29.8984H51.8359L51.9531 29.6289L51.6133 29.3711L51.6602 28.8672L51.5195 28.7734L51.6133 28.5039C51.6445 28.4258 51.7578 28.2891 51.9531 28.0938L51.8828 27.9531C52.0625 27.6328 52.3164 27.3594 52.6445 27.1328L53.3008 27.2852H53.582L53.5352 27.4492L53.7578 27.2266V26.9688L54.0156 26.8516V26.5352L54.1094 26.418L54.1797 26.4648V25.9375H54.3555L54.4492 25.6445L54.2852 25.3867L54.4961 25.0469L54.6133 24.1797H54.707V24.0156L54.8828 23.9219L54.707 23.4648L54.9531 23.1484L55.0938 23.1016L54.9531 22.4336L55.0469 22.5039L55.1641 22.0469L55.0938 21.9062L55.2344 21.3438C55.2578 21.2656 55.3398 21.1406 55.4805 20.9688L55.3867 20.5352H55.5273L55.4336 20.1484H55.4805L55.9844 17.7578L56.3008 17.5352L56.2422 17.1953L56.418 16.668L56.3711 16.457L56.418 16.1172L56.6289 16L56.582 15.6367L56.7227 15.4727L56.6758 15.0391L56.8047 14.6992L56.582 14.4414L56.8516 14.2773V14.1016L56.4648 13.8906L56.3711 13.6211V13.5508L56.1953 13.457L56.418 13.1641L56.0312 13.2344L55.7617 13.5391C55.6523 13.6562 55.5508 13.7461 55.457 13.8086L55.0469 14.0547H54.6133L54.4961 13.7734L54.2266 13.668L54.6602 12.8594L55.1641 12.5195C55.1953 12.4023 55.2461 12.2969 55.3164 12.2031L55.4805 12.1328C55.543 12.0391 55.6719 11.8945 55.8672 11.6992L55.5977 11.3242L55.75 10.9961C55.7969 10.8945 55.8359 10.6602 55.8672 10.293L55.7734 10.1172L55.9141 9.95312L56.0781 9.90625L56.1719 9.77734C56.1875 9.74609 56.3984 9.61328 56.8047 9.37891L56.8516 9.26172C57.2031 9.07422 57.6016 8.91406 58.0469 8.78125L58.3164 8.92188L58.5977 8.82812L58.7383 8.92188L59.0312 8.60547H59.3477L59.418 8.44141L59.8516 8.39453ZM62.0781 10.7148L61.6914 10.8906V11.1484L61.2695 11.3242L59.6289 11.2773L59.125 11.3711L58.9141 11.6523L58.9609 12.1328L58.4336 13.3398L58 13.457V13.668L58.2695 13.8906L58.1406 14.2773L58.2695 14.3242L57.8828 14.7578V15.0391L57.6133 15.5664L57.4961 16.293L57.9297 16.1641L58.0469 16L58.2109 15.9531L58.3867 15.4727L58.6328 15.3906C58.7031 15.3672 58.8125 15.2812 58.9609 15.1328L59.3477 15.0859L59.418 14.8281L59.9453 14.582L60.2266 14.875L61.8672 13.8438L62.3008 13.6211L62.6289 13.3398L62.8398 13.2695C62.9102 13.2461 63 13.1797 63.1094 13.0703L63.332 13.1172L63.4492 12.8125L63.9766 12.5195L64.2695 12.2031L64.4805 12.0508C64.543 11.9961 64.6289 11.8789 64.7383 11.6992C64.7383 11.6133 64.6367 11.4531 64.4336 11.2188L62.3477 11.0547L62.0781 10.8906V10.7148ZM77.8867 13.5039C77.9414 13.4883 78.0938 13.4961 78.3438 13.5273C78.5938 13.5586 78.7539 13.6133 78.8242 13.6914L79.2227 13.5977L79.4453 13.6211L79.6094 13.9375L79.5859 14.1719C79.4297 14.2969 79.3242 14.4336 79.2695 14.582H79.1523L79.0234 14.7227C78.9844 14.7617 78.8203 14.8281 78.5312 14.9219L78.5078 17.1016L78.6953 18.2266L78.7188 19.3867L78.8945 20.8047L79.6328 22.8203C79.7656 22.9688 79.8555 23.0859 79.9023 23.1719C80.293 22.9531 80.5391 22.8438 80.6406 22.8438C80.9609 22.4766 81.168 22.2852 81.2617 22.2695V22.1406L82.5859 21.0156L82.6094 20.8047C82.6953 20.7891 82.8633 20.6367 83.1133 20.3477L83.5469 20.4414L83.7812 20.9688L83.6875 21.4258L83.4531 21.332L83.3359 21.5898H83.1133C83.0273 21.8242 82.8984 22.0156 82.7266 22.1641V22.293L82.082 22.8906L81.9648 23.1953C81.8164 23.2969 81.5664 23.4336 81.2148 23.6055L81.1211 23.7812L81.0977 23.7227L80.957 23.9688L80.6406 24.0625L80.5938 24.2266H80.4297L80.5 24.4023L80.3125 24.7656L80.1367 24.8125C80.1523 24.9375 80.0234 25.168 79.75 25.5039L79.1992 25.5273L79.082 25.8672L78.7422 25.9609C78.4844 25.8906 78.2773 25.7305 78.1211 25.4805L77.3359 24.2031L76.5859 22.5273L76.6562 21.9062L76.4922 21.3555L76.6094 21.332C76.3828 20.8789 76.2695 20.5352 76.2695 20.3008L76.3281 19.8672L75.9648 19.6445L75.7188 19.7969V19.7383L75.6016 19.7969L75.2852 20.6055L75.1211 20.5352L75.0742 20.6992L74.957 20.6523V20.7578H74.9102C74.9023 20.8047 74.7891 21.0039 74.5703 21.3555L74.4766 21.3086L74.4062 21.8125L74.1602 21.9414C73.9961 22.0273 73.8906 22.1289 73.8438 22.2461L73.75 22.4805L73.8555 22.6211L73.5859 22.7148L73.4688 23.1953L73.2695 23.3008L73.3281 23.3945C73.1406 23.5352 72.9883 23.6289 72.8711 23.6758L72.7656 23.8516L72.6719 23.7227L72.5078 24.1328H72.3672L72.168 24.8125L71.957 24.8828L71.9336 25.2344H71.5938L71.2539 26.0078L71.0898 26.125H70.9492L70.9023 26.3477L70.1523 26.6289L69.3672 26.6523L69.0273 24.4258L69.168 24.1328L69.2031 23.8984C69.2109 23.8359 69.3047 23.6016 69.4844 23.1953L69.4375 23.0312C69.5781 22.7109 69.6719 22.5195 69.7188 22.457L69.625 22.4102L69.8477 21.8359L69.8594 21.6133C69.8672 21.5508 69.9258 21.4062 70.0352 21.1797C69.9727 20.8047 69.9102 20.5898 69.8477 20.5352L69.9414 20.3711L70.2461 20.418C70.4258 20.1758 70.5391 20.0469 70.5859 20.0312L70.6562 19.8203H70.7031L70.5391 19.5742L70.6797 18.9531L70.7734 19C70.8672 18.7578 70.9258 18.6367 70.9492 18.6367L70.9023 18.332L71.2305 17.7227V17.5586L71.1602 17.418L71.6406 16.3867L72.1914 15.6367C72.3789 15.4727 72.5391 15.2891 72.6719 15.0859L73.082 14.9219L73.6328 14.3477L74.1602 14.0312H74.4766L74.7344 13.9609H75.0977L75.2617 13.6914L75.6016 13.7148H75.9414V13.6211C76.0352 13.6289 76.1367 13.668 76.2461 13.7383L76.6094 13.5977L76.8789 13.668L76.9492 13.5742L77.2305 13.668L77.8867 13.5039ZM74.8633 15.3555L74.5703 15.4023L74.207 15.3789L74.0898 15.5898V15.7656C73.9648 15.8281 73.8281 15.8828 73.6797 15.9297L73.4688 16.457C73.3594 16.9258 73.293 17.1641 73.2695 17.1719H73.1523L72.9883 17.5586L72.9062 17.8867C72.8828 17.9883 72.8047 18.0703 72.6719 18.1328L72.5547 18.543L72.3672 18.8945C72.2969 19.0273 72.2617 19.168 72.2617 19.3164V19.4102L72.1445 19.3164V19.5039H72.0742L72.0977 19.6211L72.0039 19.8203L71.8633 20.4414L71.6172 20.9453L71.5703 21.6602L71.5 21.7656H71.4531L71.4062 21.9766L71.5 22.0703L71.3828 22.5039H71.3359L71.3828 22.6445H71.207L71.2305 23.5117L71.3359 23.9219H71.3828L71.6406 23.6758L72.3203 22.7148L73.5391 21.1094L73.9023 20.7227L74.7109 19.4102L75.5547 18.2852L75.625 18.0391L75.4609 17.8281L75.7656 17.3008L75.8359 16.9023C75.8438 16.8633 75.9102 16.7617 76.0352 16.5977L76.0586 15.6602L75.7422 15.6367H75.4844L75.1445 15.4023L75.0742 15.5195L74.8633 15.3555ZM90.9766 31.457V31.7734L90.8594 31.8438L90.9062 32.1484L90.6484 32.1953L90.6016 32.4883L90.6953 32.6992L90.6016 32.9688L90.6484 33.1797L90.2617 34.293L90.2148 34.2109C90.0508 34.6328 89.9609 34.875 89.9453 34.9375L89.2305 35.6289L89.0664 35.9219V36.1328H88.9609L88.8438 36.4023L88.7969 36.3555L88.6328 36.7305L88.3633 36.8359L88.082 37.3047C88.043 37.3594 87.8984 37.457 87.6484 37.5977L87.4961 37.9844L87.0742 38.207C87.0195 38.2305 86.9141 38.3477 86.7578 38.5586L86.4883 38.6055L86.1602 38.5586L86.0078 38.7812C85.8359 38.8828 85.6758 38.9883 85.5273 39.0977C85.3867 39.2148 85.293 39.3633 85.2461 39.543C84.9961 39.6289 84.8281 39.7031 84.7422 39.7656L84.6016 39.6602L84.6484 39.5898L84.3086 39.3789L84.2617 39.1094C84.3164 38.9688 84.4609 38.7148 84.6953 38.3477L85.1289 38.3008C85.1992 38.1211 85.293 37.9531 85.4102 37.7969C85.8477 37.6953 86.2148 37.5977 86.5117 37.5039L86.7578 37.0703C87.2578 36.7109 87.6016 36.4414 87.7891 36.2617L87.9297 36.4023L87.8828 36.1094C88.1328 35.7344 88.3242 35.5039 88.457 35.418L88.4102 35.2773C88.457 35.168 88.625 35.0391 88.9141 34.8906L88.7969 34.668L88.9141 34.1641L89.2305 33.7891C89.2617 33.7109 89.332 33.6367 89.4414 33.5664L89.7344 31.9375C89.7734 31.9375 89.8867 31.7148 90.0742 31.2695L90.1445 30.707L90.332 30.2852V30.0156L90.3789 29.8047L90.2852 29.582V29.3711L90.168 29.2422L90.2148 28.9844L90.168 28.8203L90.332 28.7734L90.2148 28.3164L90.2852 28.0469L90.4258 27.9531L90.332 27.5664L90.4961 27.4961L90.332 27.0625C90.293 26.7578 90.2539 26.5977 90.2148 26.582L90.332 26.3711L89.9922 24.6602L90.0742 24.2852L89.8516 22.4336L89.5703 22.2695L89.3008 22.3867L89.2539 22.3398L89.1367 22.5039H88.9141V22.7734L88.5859 22.8672C88.4141 22.9609 88.2383 23.0156 88.0586 23.0312L87.9297 23.1953L87.0742 24.5664L86.1836 25.8203L85.9141 26.0312L85.8203 25.9844V26.1953L85.5859 26.4648H85.4336L85.2227 26.5352V26.7578L84.7656 26.8516V26.8984L84.625 26.8516L84.4492 26.9688L84.332 26.7578L84.4492 26.418L84.2383 26.2422L84.4023 26.0781L84.2852 25.9844L84.332 25.7734L84.1211 25.7148L84.168 25.5977L84.1211 25.3867V25.0469L84.2383 24.8828C84.1523 24.4766 84.0977 24.2578 84.0742 24.2266L84.168 24.1328L84.1211 23.9688L84.168 23.6992V23.3711L84.0156 23.3242L84.1211 23.1484L84.0156 22.8203H84.0742L84.0156 22.6445C84.0859 22.5898 84.1367 22.5039 84.168 22.3867L84.2852 22.3398V22.0469C84.418 21.7031 84.4883 21.5039 84.4961 21.4492H84.332L84.4023 21.3086H84.4961L84.7656 20.3242L84.9531 19.8789C85.0234 19.7383 85.0742 19.5586 85.1055 19.3398L85.3164 19.0703C85.4102 18.5312 85.5547 18.1641 85.75 17.9688L86.5117 17.1953L86.8516 17.1016C86.9141 16.9297 87.1172 16.7109 87.4609 16.4453L88.1055 15.9414C88.1914 15.8789 88.3008 15.8281 88.4336 15.7891L88.4805 15.6367H88.7969L89.0898 15.3555C89.3867 15.2227 89.5469 15.1328 89.5703 15.0859L90.1211 15.0391L90.4961 14.9688H90.7188L90.7656 14.9219L90.9297 15.0391V14.9688L91.1992 15.0391L91.2695 14.9219L91.5859 15.0391L91.7969 14.9688L91.8672 15.1797L92.0078 15.1328L92.1367 15.1797L92.0898 15.2617L92.3008 15.1797L92.3945 15.4023L92.3477 15.5664L92.6172 15.7305C92.7031 16.043 92.7578 16.2852 92.7812 16.457L92.8281 16.5039L93.2148 16.3867L93.2852 16.1172L93.6016 16H93.8125L94.1523 16.3398L93.5547 17.2773L93.2148 17.3242L92.8984 17.7578H92.7344L92.8281 18.3555L92.7812 18.6836L92.6172 21.1328L92.5117 21.6836V21.9062L92.1836 22.3398L92.3008 23.1016L92.2305 23.418L92.1367 23.4648L92.3008 23.6992H92.1367L92.0078 24.3555L92.1367 24.6602L91.9609 24.7891C91.8359 25.2109 91.7656 25.5391 91.75 25.7734L91.6328 25.8672V26.0312L91.4805 26.0781L91.5859 26.418C91.5859 26.8477 91.5273 27.1367 91.4102 27.2852C91.4883 27.6289 91.5859 27.9375 91.7031 28.2109L91.4102 28.2695L91.3164 28.5508H91.1992L91.3633 28.7734L91.2695 28.9844H91.1992L91.3164 29.1953L91.4102 29.8047L91.3633 30.0156L91.4805 30.4492L91.3633 30.6602H91.1992L90.9766 31.457ZM89.9453 16.9375L89.7344 17.1016L89.5117 17.0547L89.3945 17.1484H89.0078L88.8672 17.0547L88.7031 17.1953H88.5391C88.375 17.3438 88.2305 17.418 88.1055 17.418H87.8828L87.332 18.1328C87.1602 18.4375 87.0469 18.5977 86.9922 18.6133L87.0742 18.9062L86.8984 19.293V19.3398L86.5703 19.3867V20.1484C86.4688 20.3672 86.418 20.6406 86.418 20.9688C86.418 21.3125 86.4922 21.6406 86.6406 21.9531L86.5117 22.5977L86.6875 22.8203H86.8984L87.0742 22.5508C87.4883 22.207 87.7031 22.0078 87.7188 21.9531C87.8516 21.9141 88.125 21.7305 88.5391 21.4023L88.7031 21.5195C88.9531 21.1367 89.2578 20.9375 89.6172 20.9219L89.8984 20.582L89.6875 19.8906C89.8516 19.6719 89.9375 19.543 89.9453 19.5039L90.332 19.293L90.5547 18.9062L90.6719 18.7891L90.7188 18.6133L90.9297 18.4023V18.1797C90.7578 17.8047 90.6484 17.5898 90.6016 17.5352V17.3711L89.9453 16.9375ZM103.059 5.82812L103.234 5.69922L103.492 5.875L103.715 5.82812L103.879 6.03906L104.219 5.94531C104.383 5.94531 104.508 6.03125 104.594 6.20312L105.027 7.02344C105.027 7.45313 104.902 7.66797 104.652 7.66797H104.523L103.996 8.27734L104.043 8.39453L103.926 8.32422C103.848 8.49609 103.688 8.58984 103.445 8.60547V8.69922C103.273 8.48047 102.836 8.22656 102.133 7.9375L101.98 8.05469L101.91 7.9375C101.801 8.07031 101.695 8.26953 101.594 8.53516C101.516 8.59766 101.477 8.66016 101.477 8.72266C101.477 8.76172 101.492 8.8125 101.523 8.875C101.422 8.97656 101.336 9.08594 101.266 9.20312V9.58984C101.219 9.80859 101.145 10.0234 101.043 10.2344H100.996C100.887 10.5078 100.832 10.7812 100.832 11.0547C100.738 11.0859 100.691 11.1758 100.691 11.3242C100.691 11.4023 100.699 11.457 100.715 11.4883C100.684 11.6758 100.633 11.8359 100.562 11.9688H100.492C100.352 12.25 100.281 12.4023 100.281 12.4258L100.234 12.3555V12.4727C100.062 12.8164 99.9492 13.1211 99.8945 13.3867L99.7539 14.1016V14.6523L99.8008 14.7578C99.7695 14.8203 99.7148 14.8906 99.6367 14.9688L99.5781 14.9219L99.4609 15.1797V15.6836L99.25 16.0703V16.7148L99.1562 17.1484V17.6523L98.8633 18.9062L98.8164 19.7734C98.7539 19.7734 98.7227 19.7969 98.7227 19.8438C98.7227 19.8828 98.7539 19.9141 98.8164 19.9375L98.7695 20.3242C98.8555 20.4961 98.9844 20.582 99.1562 20.582L99.2031 20.418L99.6367 19.8203H99.6836V19.7148C99.8008 19.5898 99.9414 19.3906 100.105 19.1172C100.27 18.8438 100.422 18.6992 100.562 18.6836L100.785 18.3555L100.879 18.4023C100.965 18.3008 101.02 18.2109 101.043 18.1328L101.09 18.1797L101.172 17.9219L101.266 17.9688L101.359 17.7344C101.375 17.6797 101.426 17.6172 101.512 17.5469L101.816 17.2773L102.508 16.9375L102.461 16.8906L103.492 16.1641L103.996 15.9062C104.09 15.8281 104.195 15.7695 104.312 15.7305L104.699 15.9531L105.074 16L105.203 16.0703C105.234 16.0859 105.266 16.1328 105.297 16.2109C105.328 16.2891 105.344 16.332 105.344 16.3398V16.5977L105.637 17.1953L105.555 17.6992L105.801 18.1797L105.848 18.7891L106.012 19.5508L105.637 19.9844L105.684 20.1953C106.113 20.4375 106.328 20.7812 106.328 21.2266L106.234 21.6133L106.445 22.1641L106.398 22.7148L106.492 23.4648C106.461 23.5039 106.418 23.5508 106.363 23.6055C106.316 23.6602 106.289 23.6914 106.281 23.6992C106.438 23.8398 106.621 23.9609 106.832 24.0625C106.918 23.9453 107.008 23.8594 107.102 23.8047C107.195 23.75 107.32 23.6367 107.477 23.4648H107.699L107.77 23.3477L107.887 23.3008V23.1719L108.203 22.9375C108.297 22.8906 108.41 22.8164 108.543 22.7148L108.941 22.4102C109.035 22.4023 109.137 22.3438 109.246 22.2344C109.355 22.125 109.438 22.0547 109.492 22.0234L109.832 22L109.879 21.8359L110.5 22.0234L110.453 22.2344L110.5 22.668C110.258 22.8477 110.113 23.0508 110.066 23.2773L110.02 23.2188L109.902 23.4414L109.691 23.5586L109.645 23.6992C109.441 23.7539 109.207 23.7969 108.941 23.8281V23.9219C108.684 24.0469 108.5 24.1094 108.391 24.1094L108.32 24.4727L108.074 24.6133C107.895 24.7773 107.688 24.8594 107.453 24.8594C107.281 25.1719 107.105 25.332 106.926 25.3398L106.586 25.7148L106.164 25.7734V25.8672C106.078 25.8672 105.844 25.9375 105.461 26.0781L105.414 26.1953L105.297 26.1484C105.25 26.3281 105.066 26.418 104.746 26.418C104.613 26.418 104.469 26.3008 104.312 26.0664C104.164 25.832 104.09 25.6914 104.09 25.6445V25.5508C104.027 25.0195 103.996 24.6523 103.996 24.4492L104.02 24.332L103.926 24.0156V23.418L103.621 22.9844L103.668 22.5977L103.539 21.2266L103.785 20.3711L103.281 19.7734C103.102 19.5703 103.012 19.2812 103.012 18.9062H102.965C103.027 18.7969 103.059 18.7148 103.059 18.6602C103.059 18.457 102.918 18.3398 102.637 18.3086L102.297 18.4727H102.074L102.027 18.6836L101.98 18.6133C101.957 18.9727 101.805 19.1719 101.523 19.2109V19.293C101.289 19.4336 101.172 19.5742 101.172 19.7148L101.195 19.8672C101.195 19.9141 101.188 19.9531 101.172 19.9844L100.996 20.0312L100.832 20.418L100.668 20.5352C100.652 20.7773 100.508 20.9922 100.234 21.1797C100.188 21.4141 100.059 21.5977 99.8477 21.7305C99.7305 22.0508 99.5703 22.3086 99.3672 22.5039L99.2031 23.1484L99.5312 23.418L99.1562 23.8047H99.0742L98.9336 24.2266V24.6133L98.8164 24.7891L98.7227 25.0469C98.707 25.0938 98.6523 25.1602 98.5586 25.2461L98.2188 25.5508L98.0898 25.4805L97.9961 25.7734H97.8789C97.8008 25.9453 97.6562 26.0312 97.4453 26.0312L97.3984 26.418H97.1875L96.9648 26.6758L96.6367 26.6289C96.582 26.7148 96.5078 26.8047 96.4141 26.8984L96.2031 26.582C96.3125 26.4961 96.3672 26.3945 96.3672 26.2773C96.3672 26.207 96.3281 26.1094 96.25 25.9844C96.3047 25.9609 96.3359 25.918 96.3438 25.8555C96.3594 25.793 96.3984 25.6367 96.4609 25.3867H96.4141C96.4766 25.2773 96.5078 25.1719 96.5078 25.0703C96.5078 24.9766 96.4922 24.8828 96.4609 24.7891H96.5312C96.5625 24.3438 96.6367 24.0156 96.7539 23.8047C96.707 23.7031 96.6836 23.6211 96.6836 23.5586L96.7539 23.1953V23.0312L96.918 22.5039H96.9648V22.3867L97.1406 21.6133L97.1875 21.6836L97.1406 21.3086L97.2344 21.0625L97.4453 20.9219L97.2344 20.582L97.4453 19.7734V19.5508C97.5234 19.5039 97.5625 19.4492 97.5625 19.3867L97.5156 19.1641V19.1172H97.6211L97.5625 18.4727V18.3086L97.6211 18.1797H97.5625L97.6211 17.7578C97.707 17.625 97.7695 17.4688 97.8086 17.2891C97.8555 17.1016 97.8789 17 97.8789 16.9844V16.668L98.0898 16.3867C98.1914 16.3633 98.2422 16.3125 98.2422 16.2344C98.2422 16.1172 98.1758 15.918 98.043 15.6367L98.2656 15.1328V14.6992L98.4297 14.2188L98.4766 14.2773L98.5469 13.8438L98.6289 13.5977L98.5938 13.5039C98.5938 13.4102 98.6523 13.2812 98.7695 13.1172H98.6992C98.6992 13.0547 98.7227 13 98.7695 12.9531L98.6992 12.9062C98.8086 12.7422 98.8633 12.6289 98.8633 12.5664V12.4727H98.9336C98.9648 12.2773 99.0117 12.1484 99.0742 12.0859L99.25 12.0391V11.7578C99.3125 11.5 99.3438 11.2891 99.3438 11.125V10.7383C99.3438 10.6445 99.3672 10.5508 99.4141 10.457L99.5312 10.4102V9.95312L99.6602 9.58984C99.7852 9.44141 99.8477 9.25 99.8477 9.01562V8.875L100.059 8.27734C100.059 8.17578 100.102 8.08594 100.188 8.00781H100.234L100.492 7.23438C100.664 6.96875 100.777 6.8125 100.832 6.76562C101.254 6.71094 101.543 6.46875 101.699 6.03906C101.832 6.03906 101.941 5.98437 102.027 5.875L102.461 5.78125L102.801 5.82812L103.012 5.69922L103.059 5.82812ZM116.758 13.8906L117.121 14.3242C116.934 14.668 116.789 14.9805 116.688 15.2617L116.254 15.5195L116.16 15.7891L116.254 15.8594V16.0703L116.301 16.1641L116.207 16.293V16.5508L116.043 16.9375L115.879 17.0547C115.754 17.3906 115.664 17.6797 115.609 17.9219L115.352 18.1328L115.27 18.5195L115.352 18.5664L115.059 18.9062V19.1641L114.965 19.293L115.105 19.9375L114.965 20.4883L115.059 21.1328L115.176 21.6133V22.0469L115.27 22.5977L115.176 22.8203V23.4648C115.402 23.3711 115.562 23.2656 115.656 23.1484L115.879 23.1953V23.0312L116.43 22.5039L116.688 22.3398V22.2109L117.121 21.8359L117.238 21.4492C117.426 21.3555 117.57 21.25 117.672 21.1328L117.719 21.2266V21.0156L117.965 20.8047V20.9219L118.059 20.7578H118.223V20.6289L118.27 20.5352H118.492L118.539 20.3711L118.492 20.1016L119.301 19.4336C119.387 19.3711 119.441 19.3047 119.465 19.2344L119.594 18.9531C119.742 18.8672 119.887 18.8125 120.027 18.7891L120.074 18.6133L120.191 18.5195H120.344V18.3086L120.414 18.4727V18.2617C120.484 18.1289 120.555 18.0469 120.625 18.0156L120.672 17.875L121.223 17.2773H121.445L121.656 17.0547L121.879 16.5977C122.254 16.1836 122.469 15.9141 122.523 15.7891L122.863 15.7305L123.168 15.1797L123.074 15.4727L123.508 15.1328L123.766 15.3086L124.105 15.0859H124.539L124.75 15.2617L124.832 15.6836L124.633 15.8711C124.57 15.9258 124.484 16.082 124.375 16.3398L124.445 16.5508L124.328 16.9375V17.1016L124.152 17.2773V17.582L123.941 17.6523V18.2617L123.895 18.5195L123.941 18.7891L123.719 19L123.848 19.293L123.719 19.5039L123.848 20.0312L123.719 20.3242V22.3867L123.848 22.8203L124.059 22.9844L124.492 22.9375L124.703 23.1484L124.656 23.418L124.375 23.5352L124.27 23.8047L124.059 23.8516L123.895 24.1328H123.719L123.625 24.4023L123.121 24.5664L122.957 24.8828L122.301 25L122.043 25.2695L121.492 25.3867L121.223 25.2109L121.012 24.5195L121.223 24.2266L121.105 24.0156L121.27 23.8047L121.492 23.7578L121.75 22.1172V21.9062L121.609 21.6133L121.832 21.5195L121.75 21.3086L121.832 21.0156L121.609 20.9219L121.492 20.7578L121.703 20.582V20.3242L121.832 20.0312C121.621 19.8672 121.477 19.7812 121.398 19.7734L121.328 19.2109H121.105L120.941 19.1172L120.719 19.5039L119.523 20.8047L119.301 20.9688L119.254 21.1328L118.328 22.2109L118.223 22.4336L117.238 23.582L116.043 24.8828L115.68 25.082C115.633 25.1055 115.555 25.207 115.445 25.3867C115.109 25.5117 114.926 25.582 114.895 25.5977V25.7148L114.742 25.6445V25.9844L114.414 26.1953L113.98 26.1484L113.547 26.4648L113.477 26.3008L113.207 26.1484L113.16 25.8672C113.043 25.7812 112.949 25.6523 112.879 25.4805L112.609 25.3867L112.516 25.1172L112.352 23.2422L112.516 22.5508H112.609V22.0469L112.879 21.8359L112.832 21.6133L112.996 21.2266H113.207L113.254 21.0859L113.207 20.7578L113.383 20.6992L113.43 20.3242L113.477 20.2773L113.336 20.1016L113.477 19.7734V19.3867L113.547 18.5664H113.641V18.1797L113.863 17.9219L113.688 17.6992L113.863 17.418L113.805 17.2773L114.027 16.8438L113.688 16.457L113.477 16.5039L113.43 16.7148L113.113 16.7734L112.996 17.0547H112.609L112.445 16.8438L111.145 17.2773L110.805 16.7148L111.238 16.293C111.465 16.1992 111.609 16.0547 111.672 15.8594L112.059 15.7891V15.6836H112.398L112.832 15.6367L113.113 15.1328L113.547 15.2617L114.027 15.1328C114.051 15.0703 114.105 15.0078 114.191 14.9453H114.578L114.531 14.875L114.625 14.8281H114.895L114.965 14.6992C115.137 14.6367 115.312 14.5117 115.492 14.3242H115.703L115.879 14.1016L116.043 14.0547L116.207 14.1016L116.43 13.9844L116.547 14.1016L116.641 13.8906H116.758ZM135.203 21.9766C135.141 21.9766 135.109 22.1055 135.109 22.3633C135 22.4883 134.895 22.6133 134.793 22.7383C134.699 22.8633 134.605 22.9531 134.512 23.0078L134.336 22.9609C134.219 23.0547 134.148 23.168 134.125 23.3008C134.109 23.332 134.07 23.3477 134.008 23.3477C133.961 23.3477 133.926 23.3047 133.902 23.2188C133.809 23.4141 133.684 23.5117 133.527 23.5117V23.6289H133.422L133.305 23.5586C133.164 23.6602 133.094 23.7734 133.094 23.8984H132.918L132.965 23.8281H132.871V23.9453L132.707 24.1562H132.496V24.2031H132.367V24.2852L132.156 24.332V24.3789L132.062 24.332L132.016 24.4258L131.934 24.332L131.453 24.5898L131.512 24.6367H131.406C131.375 24.7852 131.281 24.8594 131.125 24.8594C131.078 24.9688 131.004 25.0234 130.902 25.0234L130.855 25.0938C130.676 25.0938 130.512 25.1875 130.363 25.375C130.223 25.5625 130.102 25.668 130 25.6914L129.918 25.5742L129.871 25.6914L130 25.7383H129.824V25.7969C129.684 25.8281 129.5 25.9531 129.273 26.1719C129.102 26.125 128.988 26.0547 128.934 25.9609L128.242 24.5898C128.305 24.5508 128.336 24.4883 128.336 24.4023C128.336 24.2852 128.305 24.1641 128.242 24.0391H128.289L128.078 23.4414H128.195L128.078 23.3008L128.125 23.2188C128.172 23.2188 128.195 23.1953 128.195 23.1484V23.0781L128.289 23.125V23.0078L128.336 22.8438L128.582 22.7383L128.512 22.6914C128.613 22.5273 128.676 22.3008 128.699 22.0117C128.723 21.7227 128.754 21.5508 128.793 21.4961L128.676 21.2852V20.9922L128.793 20.6055L128.84 20.6758C128.902 20.582 128.961 20.4375 129.016 20.2422C129 20.2188 128.992 20.1719 128.992 20.1016C128.992 20.0234 128.996 19.9766 129.004 19.9609L129.227 19.7383L129.156 19.4805L129.32 19.2695V19.1875L129.391 19.2695V19.0469L129.32 18.9766H129.391L129.543 18.543V18.4961L129.613 18.543L129.707 17.8516H129.754L130 17.125L129.918 17.1719L130.305 16.1406H130.258L130.645 15.6133V15.332L130.738 15.0625C130.676 15.0469 130.605 14.9766 130.527 14.8516L130.855 14.3008V13.7383L130.645 13.5977C130.645 13.5586 130.676 13.4883 130.738 13.3867C130.699 13.2539 130.668 13.1719 130.645 13.1406L130.094 12.332L130 12.2852C129.875 12.2852 129.762 12.3242 129.66 12.4023H129.59C129.395 12.4023 129.25 12.3047 129.156 12.1094L129.273 11.7227L129.227 11.582L129.543 11.3711L129.496 11.3008C129.746 11.2461 129.922 11.1289 130.023 10.9492C130.133 10.7695 130.227 10.6289 130.305 10.5273C130.406 10.5273 130.492 10.5117 130.562 10.4805C130.641 10.4492 130.699 10.4062 130.738 10.3516C130.777 10.2891 130.816 10.2266 130.855 10.1641H131.031L131.242 9.83594V9.70703L131.406 9.56641C131.508 9.56641 131.582 9.49609 131.629 9.35547L131.559 9.22656L131.676 9.28516L131.84 9.17969C131.879 9.0625 131.953 8.98047 132.062 8.93359C132.18 8.87891 132.34 8.79297 132.543 8.67578C132.566 8.58203 132.66 8.51172 132.824 8.46484V8.41797L133.094 8.37109V8.30078L133.949 7.82031V7.77344C134.02 7.65625 134.117 7.59766 134.242 7.59766C134.453 7.59766 134.559 7.80469 134.559 8.21875V8.46484H134.512V8.62891C134.512 8.99609 134.367 9.25391 134.078 9.40234C134.062 9.51172 134.008 9.60156 133.914 9.67188C133.828 9.74219 133.699 9.88281 133.527 10.0938H133.574C133.449 10.1719 133.371 10.3398 133.34 10.5977C133.316 10.8555 133.266 11.0898 133.188 11.3008L133.141 11.2422L133.188 11.4648H133.141L133.094 11.5117L133.188 11.6055C133.102 11.6836 133.055 11.7734 133.047 11.875C133.039 11.9688 133.023 12.0156 133 12.0156H132.965L132.754 12.2852C132.895 12.3789 132.965 12.4805 132.965 12.5898C132.965 12.6523 132.918 12.6914 132.824 12.707V12.8359L132.754 12.7891V13.3867H132.543L132.438 13.7383L132.496 14.0781L132.367 14.3477V14.418H132.273L132.32 14.6758L132.227 14.6289L132.062 15.6602L131.723 16.7383L131.629 17.1719C131.512 17.3125 131.453 17.4258 131.453 17.5117C131.453 17.582 131.473 17.6953 131.512 17.8516C131.246 18.4219 131.086 18.9805 131.031 19.5273L130.902 19.5742L130.855 19.6445C130.832 19.8008 130.793 19.9219 130.738 20.0078L130.691 21.0625L130.809 21.4258L130.738 22.1406L131.078 22.8438C130.938 22.8438 130.848 22.8984 130.809 23.0078H130.738L130.949 23.2188L130.902 23.3945H131.031L131.242 23.6055L131.453 23.3945L131.723 23.2773C131.801 23.2383 131.914 23.1484 132.062 23.0078H132.32V22.9141L132.367 22.9609C132.602 22.7188 132.844 22.5898 133.094 22.5742L133.047 22.5273L133.422 22.4102V22.3164C133.648 22.2695 133.824 22.1562 133.949 21.9766C134.23 21.9297 134.418 21.8242 134.512 21.6602H134.605L134.934 21.4258L135.203 21.9766Z" fill="white"/>
<defs>
<filter id="filter0_ii_619_1462" x="-3" y="-2" width="45" height="44" filterUnits="userSpaceOnUse" color-interpolation-filters="sRGB">
<feFlood flood-opacity="0" result="BackgroundImageFix"/>
<feBlend mode="normal" in="SourceGraphic" in2="BackgroundImageFix" result="shape"/>
<feColorMatrix in="SourceAlpha" type="matrix" values="0 0 0 0 0 0 0 0 0 0 0 0 0 0 0 0 0 0 127 0" result="hardAlpha"/>
<feOffset dx="2" dy="2"/>
<feGaussianBlur stdDeviation="2"/>
<feComposite in2="hardAlpha" operator="arithmetic" k2="-1" k3="1"/>
<feColorMatrix type="matrix" values="0 0 0 0 1 0 0 0 0 1 0 0 0 0 1 0 0 0 0.25 0"/>
<feBlend mode="normal" in2="shape" result="effect1_innerShadow_619_1462"/>
<feColorMatrix in="SourceAlpha" type="matrix" values="0 0 0 0 0 0 0 0 0 0 0 0 0 0 0 0 0 0 127 0" result="hardAlpha"/>
<feOffset dx="-3" dy="-2"/>
<feGaussianBlur stdDeviation="2"/>
<feComposite in2="hardAlpha" operator="arithmetic" k2="-1" k3="1"/>
<feColorMatrix type="matrix" values="0 0 0 0 0 0 0 0 0 0 0 0 0 0 0 0 0 0 0.25 0"/>
<feBlend mode="normal" in2="effect1_innerShadow_619_1462" result="effect2_innerShadow_619_1462"/>
</filter>
</defs>
</svg>
