<svg width="40" height="40" viewBox="0 0 40 40" fill="none" xmlns="http://www.w3.org/2000/svg">
<rect width="40" height="40" rx="8" fill="#8A2BE2"/>
<path d="M8.6053 19.3951V31.0003H5.1053C4.36846 31.0003 4.06144 30.2635 4.00004 29.8951V17.0003C9.95618 16.9389 22.1632 16.8529 23.3421 17.0003C24.8158 17.1845 26.6579 18.2898 26.8421 20.6845C26.9895 22.6003 25.5527 24.1845 24.8158 24.7372L28.5 31.0003H23.8948C23.4527 31.0003 22.8509 30.3863 22.6053 30.0793L20.7632 26.9477H16.3421V24.5529H20.3948C22.9737 22.7109 20.9474 19.3951 20.3948 19.3951H8.6053Z" fill="white"/>
<path d="M10.6315 29.526V20.3154H15.2368V30.8154C14.5613 30.8768 12.9526 30.9628 11.921 30.8154C10.8894 30.6681 10.6315 29.8944 10.6315 29.526Z" fill="white"/>
<path d="M10.6315 10V15.8947H15.421V14.7895H25.5526C27.7631 15.8947 28.6841 16.2632 29.6052 19.2105C30.342 21.5684 28.1929 23.7544 27.0263 24.5526C27.8859 26.0877 29.7157 29.3421 30.1578 30.0789C30.5999 30.8158 31.3245 31 31.6315 31H36.0526L31.6315 23.2632C32.921 22.5263 35.242 20.0211 34.2105 15.8947C33.1789 11.7684 29.3596 10.2456 27.5789 10H10.6315Z" fill="white"/>
</svg>
