<svg width="744" height="1133" viewBox="0 0 744 1133" fill="none" xmlns="http://www.w3.org/2000/svg">
<g clip-path="url(#clip0_1324_1687)">
<rect width="744" height="1133" fill="#3B3345"/>
<path d="M270.305 349.728C276.226 349.804 283.557 349.315 289.415 349.616C289.497 349.62 289.58 349.624 289.662 349.628C290.907 349.692 292.165 349.771 293.5 349.862C294.732 349.946 296.031 350.041 297.447 350.144C297.823 350.171 298.209 350.2 298.602 350.228C302.101 350.482 306.399 350.785 312.256 351.123C331.923 352.258 347.43 351.504 352.253 351.269C361.927 350.798 372.246 350.788 386.327 350.775C387.615 350.774 388.934 350.774 390.287 350.773C391.383 350.771 392.291 351.153 392.316 351.626C392.34 352.099 391.473 352.484 390.376 352.485C389.051 352.487 387.76 352.488 386.502 352.489C386.496 352.489 386.49 352.489 386.485 352.489C372.315 352.503 362.22 352.513 352.775 352.973C347.846 353.213 331.959 353.983 311.806 352.821C305.887 352.48 301.541 352.174 298.02 351.919C297.635 351.891 297.259 351.864 296.894 351.837C296.886 351.836 296.877 351.836 296.869 351.835C295.653 351.747 294.544 351.666 293.5 351.593C291.993 351.488 290.623 351.4 289.269 351.33C289.22 351.328 289.172 351.326 289.123 351.324C283.199 351.02 276.008 351.514 270.265 351.44C269.169 351.426 268.288 351.03 268.299 350.557C268.311 350.085 269.209 349.714 270.305 349.728ZM670.139 344.105C675.856 343.477 683.462 343.547 690.178 343.826C696.94 344.107 703.06 344.613 705.941 344.924C708.756 345.228 711.885 345.326 715.618 345.386C716.474 345.4 717.361 345.412 718.28 345.424C721.313 345.465 724.688 345.511 728.392 345.646C742 346.143 750.872 346.164 757.208 346.119C758.511 346.11 759.724 346.097 760.858 346.085C760.86 346.085 760.862 346.085 760.864 346.085C765.148 346.041 768.344 346.008 771.283 346.204C776.515 346.551 780.787 346.859 785.943 347.46C793.054 348.289 803.182 348.191 809.773 347.62C810.135 347.589 810.504 347.556 810.879 347.523C815.657 347.107 821.54 346.596 830.361 346.214C837.691 345.897 844.078 345.922 849.732 346.011C851.353 346.037 852.899 346.069 854.383 346.098C858.13 346.172 861.483 346.238 864.642 346.199C884.23 345.96 895.527 346.27 902.627 346.736C908.087 347.094 911.138 347.555 913.338 347.889C914.003 347.989 914.591 348.08 915.143 348.15C920.074 348.782 924.601 349.065 930.047 349.407C931.256 349.482 932.513 349.562 933.827 349.647C938.22 349.935 941.495 349.885 944.062 349.764C945.185 349.71 946.173 349.645 947.105 349.582C947.123 349.581 947.14 349.579 947.157 349.578C947.287 349.569 947.416 349.561 947.544 349.552C947.64 349.546 947.737 349.538 947.833 349.531C947.871 349.523 947.905 349.517 947.931 349.512C947.951 349.508 947.967 349.506 947.977 349.504C947.978 349.503 947.98 349.502 947.982 349.502C948.165 349.469 948.323 349.456 948.355 349.453C948.411 349.448 948.461 349.446 948.487 349.445C948.621 349.437 948.795 349.432 948.911 349.43C949.207 349.424 949.724 349.417 950.521 349.409C951.215 349.384 951.882 349.342 952.716 349.288C952.769 349.285 952.821 349.281 952.874 349.278C953.687 349.226 954.639 349.166 955.834 349.107C956.921 349.053 957.92 349.391 958.066 349.861C958.211 350.331 957.448 350.755 956.361 350.809C955.235 350.864 954.344 350.921 953.53 350.973C953.478 350.977 953.427 350.98 953.375 350.984C952.526 351.038 951.722 351.089 950.856 351.119C950.566 351.129 950.267 351.137 949.988 351.142C949.485 351.164 948.913 351.2 948.229 351.246C948.091 351.255 947.95 351.263 947.805 351.273C946.874 351.336 945.791 351.41 944.569 351.467C941.71 351.603 938.087 351.653 933.305 351.341C932.051 351.259 930.836 351.183 929.649 351.109C924.182 350.767 919.317 350.463 914.083 349.793C913.365 349.701 912.676 349.596 911.94 349.485C909.757 349.155 907.151 348.76 902.102 348.429C895.339 347.985 884.311 347.674 864.834 347.912C861.518 347.952 857.941 347.881 854.131 347.806C852.676 347.778 851.185 347.75 849.664 347.726C844.098 347.638 837.911 347.614 830.834 347.92C822.21 348.293 816.487 348.79 811.73 349.204C811.566 349.219 811.401 349.234 811.237 349.248C811.033 349.266 810.83 349.284 810.63 349.301C803.606 349.909 792.83 350.029 784.975 349.113C780.045 348.538 775.956 348.242 770.753 347.897C768.194 347.727 765.46 347.755 761.262 347.798C760.084 347.81 758.789 347.821 757.351 347.831C750.902 347.877 741.894 347.857 728.134 347.354C724.547 347.223 721.319 347.179 718.303 347.139C717.366 347.126 716.447 347.113 715.546 347.099C711.795 347.038 708.304 346.939 705.05 346.588C702.374 346.299 696.451 345.806 689.874 345.532C683.249 345.257 676.216 345.215 671.191 345.766C670.668 345.824 670.141 345.88 669.615 345.937C665.081 346.429 660.459 346.93 656.737 347.764C640.056 353.004 609.844 351.008 589.913 350.693C589.652 350.688 589.39 350.684 589.128 350.68C566.124 350.316 549.405 350.362 543.707 350.378C543.441 350.379 543.199 350.38 542.982 350.38C542.788 350.381 542.612 350.382 542.457 350.382C540.136 350.387 538.082 350.447 535.93 350.511C535.812 350.515 535.695 350.518 535.577 350.522C533.303 350.589 530.916 350.654 528.096 350.648C517.606 350.627 509.054 350.705 501.655 350.788C500.286 350.803 498.954 350.817 497.655 350.832C497.651 350.832 497.648 350.832 497.644 350.832C491.945 350.898 486.89 350.958 482.093 350.959C473.344 350.959 467.435 351.068 462.839 351.185C461.398 351.221 460.069 351.259 458.816 351.294C456.106 351.372 453.738 351.44 451.297 351.463C446.705 351.508 442.479 351.625 438.316 351.74C437.945 351.75 437.575 351.759 437.204 351.769C432.692 351.893 428.223 352.007 423.498 352.01C422.402 352.011 421.493 351.626 421.47 351.153C421.448 350.68 422.32 350.296 423.415 350.296C428.004 350.293 432.363 350.182 436.875 350.059C437.247 350.049 437.621 350.038 437.995 350.027C442.148 349.913 446.451 349.796 451.128 349.751C453.482 349.728 455.718 349.664 458.375 349.588C459.643 349.552 461.008 349.513 462.527 349.474C467.193 349.356 473.18 349.245 482.012 349.244C486.752 349.244 491.742 349.186 497.437 349.12C498.744 349.104 500.088 349.089 501.475 349.073C508.892 348.99 517.488 348.912 528.035 348.934C530.701 348.939 532.963 348.878 535.228 348.811C535.355 348.808 535.482 348.804 535.609 348.801C537.742 348.738 539.911 348.672 542.363 348.668C542.691 348.667 543.109 348.667 543.612 348.666C549.319 348.65 566.105 348.602 589.194 348.967C589.266 348.969 589.337 348.97 589.409 348.972C604.879 349.217 613.607 349.355 620.179 348.932C625.365 348.598 629.242 348.512 632.423 348.471C633.03 348.463 633.604 348.456 634.151 348.45C636.516 348.425 638.384 348.404 640.252 348.285C645.901 347.926 649.953 347.338 654.854 346.239C659.01 345.308 664.101 344.758 668.56 344.276C668.567 344.275 668.574 344.274 668.58 344.274C669.109 344.216 669.63 344.161 670.139 344.105ZM971.571 347.969C972.667 347.983 973.547 348.377 973.537 348.849C973.526 349.322 972.628 349.695 971.531 349.681C968.919 349.647 966.306 349.614 963.694 349.58C962.598 349.566 961.718 349.172 961.728 348.699C961.739 348.226 962.638 347.854 963.734 347.867C966.346 347.901 968.959 347.935 971.571 347.969ZM665.566 335.581C666.635 335.485 667.701 335.784 667.944 336.248C668.186 336.711 667.514 337.163 666.445 337.259C665.88 337.31 664.951 337.402 663.7 337.525C654.694 338.416 628.978 340.961 601.716 341.704C599.42 341.767 597.363 341.828 595.404 341.888C587.021 342.141 580.291 343.358 564.258 343.309C496.842 343.101 429.479 340.926 362.171 342.418C342.731 342.849 323.352 342.913 303.898 342.884C300.833 342.88 297.285 342.845 293.5 342.79C277.258 342.556 256.638 341.965 250.966 341.892C249.869 341.878 248.989 341.482 249 341.009C249.012 340.536 249.91 340.165 251.006 340.179C256.653 340.252 277.297 340.846 293.5 341.078C297.222 341.131 300.711 341.165 303.729 341.17C323.146 341.198 342.485 341.135 361.887 340.705C429.273 339.211 496.853 339.31 564.347 339.519C580.224 339.568 586.687 340.432 595.04 340.179C597.004 340.12 599.072 340.057 601.39 339.994C628.27 339.261 653.595 336.758 662.709 335.857C663.999 335.73 664.968 335.634 665.566 335.581ZM716.563 336.296C728.806 336.167 746.209 336.398 761.417 336.6C768.834 336.699 775.729 336.793 781.249 336.833C789.802 336.894 795.186 337.304 800.526 337.711C800.583 337.715 800.64 337.72 800.698 337.724C806.033 338.13 811.374 338.531 820.06 338.594C828.818 338.657 840.936 338.379 853.159 338.097C853.169 338.097 853.178 338.097 853.188 338.097C865.346 337.818 877.679 336.667 886.591 336.733C917.648 336.964 936.798 338.141 946.481 339.065C963.418 340.681 982.628 338.868 999.931 340.912C1001.84 341.365 998.621 342.668 995.103 342.293C994.976 342.282 994.849 342.272 994.722 342.261C993.512 342.163 992.453 342.083 990.962 342.019C988.802 341.966 987.194 341.962 985.727 341.959C981.877 341.953 955.152 341.641 945.696 340.739C936.506 339.862 917.758 340.755 886.503 340.524C877.755 340.459 865.67 339.529 853.446 339.81C853.413 339.811 853.379 339.811 853.346 339.812C841.212 340.091 828.975 340.373 820.071 340.308C811.071 340.243 805.487 339.823 800.082 339.411C800.029 339.407 799.976 339.402 799.924 339.398C794.634 338.995 789.498 338.604 781.261 338.545C775.619 338.505 768.644 338.413 761.179 338.313C746.036 338.111 728.876 337.88 716.738 338.009C715.643 338.02 714.715 337.646 714.666 337.173C714.619 336.7 715.468 336.308 716.563 336.296ZM716.815 325.623C751.215 323.724 785.807 324.257 819.728 326.263C828.581 326.327 840.936 326.46 853.274 326.594C853.414 326.596 853.553 326.598 853.693 326.6C865.897 326.733 878.048 326.865 886.772 326.93C917.828 327.16 937.05 327.469 946.733 328.393C955.761 329.255 958.268 329.257 961.983 329.263C962.084 329.264 962.186 329.264 962.287 329.265C962.294 329.264 962.3 329.262 962.307 329.261C962.434 329.239 962.541 329.226 962.596 329.221C962.709 329.21 962.8 329.205 962.834 329.204C962.913 329.2 962.98 329.2 963.003 329.2C963.1 329.198 963.21 329.199 963.281 329.2C963.943 329.208 966.015 329.26 967.657 329.331C969.339 329.403 970.539 329.496 971.803 329.599C971.931 329.609 972.059 329.62 972.187 329.63C973.327 329.723 974.567 329.825 976.354 329.934C977.442 330.002 978.215 330.435 978.082 330.904C977.947 331.372 976.957 331.697 975.869 331.63C973.99 331.514 972.671 331.407 971.525 331.313C971.398 331.303 971.271 331.292 971.144 331.282C969.934 331.183 968.873 331.104 967.382 331.039C965.222 330.986 963.616 330.982 962.149 330.98C958.303 330.973 955.406 330.968 945.951 330.065C936.761 329.189 918.041 328.874 886.783 328.642C878.043 328.577 865.878 328.446 853.684 328.313C853.541 328.311 853.397 328.31 853.254 328.309C840.909 328.174 828.572 328.039 819.739 327.975C785.309 327.725 751.592 328.583 716.993 327.335C710.627 327.403 704.808 327.429 699.416 327.453C683.55 327.525 671.373 327.581 659.766 328.621C657.221 328.849 650.551 329.043 640.911 329.284C638.086 329.355 634.987 329.429 631.638 329.51C623.428 329.709 613.701 329.944 602.742 330.243C600.446 330.305 598.389 330.367 596.429 330.426C588.047 330.68 581.43 330.881 565.396 330.832C545.668 330.771 512.614 330.346 494.936 330.019C486.082 329.855 481.084 329.704 477.548 329.578C476.563 329.542 475.697 329.508 474.903 329.478C472.827 329.4 471.216 329.339 469.103 329.299C453.891 329.008 443.242 329.208 425.794 329.626C424.7 329.652 423.747 329.29 423.665 328.817C423.583 328.345 424.402 327.94 425.496 327.914C442.969 327.495 453.782 327.291 469.201 327.586C471.406 327.629 473.132 327.694 475.244 327.774C476.027 327.804 476.863 327.836 477.797 327.869C481.274 327.993 486.22 328.144 495.027 328.306C512.674 328.633 545.68 329.057 565.347 329.117C581.224 329.166 587.713 328.971 596.066 328.718C598.029 328.659 600.096 328.596 602.413 328.532C613.387 328.233 623.14 327.997 631.354 327.798C634.699 327.717 637.791 327.642 640.604 327.572C650.438 327.326 656.706 327.138 658.886 326.942C670.901 325.866 683.606 325.808 699.619 325.737C704.952 325.713 710.653 325.688 716.815 325.623ZM362.913 329.244C364.007 329.22 364.956 329.584 365.033 330.057C365.111 330.529 364.288 330.932 363.194 330.956C357.416 331.084 353.262 331.19 350.015 331.273C344.005 331.427 341.101 331.502 336.751 331.488C325.521 331.455 314.678 331.437 304.923 331.423C300.916 331.417 297.092 331.411 293.5 331.405C282.557 331.385 273.765 331.358 268.5 331.29C267.403 331.276 266.523 330.88 266.534 330.407C266.546 329.935 267.444 329.564 268.54 329.578C273.787 329.645 282.558 329.673 293.5 329.693C297.039 329.699 300.806 329.705 304.754 329.711C314.521 329.725 325.399 329.74 336.699 329.774C340.918 329.787 343.66 329.717 349.537 329.567C352.781 329.484 356.981 329.375 362.913 329.244Z" fill="white"/>
<path d="M603.973 30.1775C603.897 39.1205 604.386 50.192 604.085 59.0398C604.081 59.1638 604.077 59.2879 604.072 59.412C604.008 61.2927 603.93 63.192 603.839 65.2089C603.755 67.07 603.66 69.0313 603.557 71.1707C603.53 71.7385 603.501 72.3204 603.473 72.9148C603.219 78.1994 602.915 84.691 602.577 93.5369C601.443 123.24 602.197 146.66 602.432 153.945C602.903 168.555 602.913 184.14 602.926 205.407C602.927 207.352 602.926 209.344 602.928 211.388C602.929 213.043 602.548 214.414 602.075 214.452C601.602 214.489 601.217 213.178 601.216 211.522C601.214 209.521 601.213 207.571 601.211 205.671C601.211 205.662 601.211 205.653 601.211 205.645C601.198 184.245 601.188 168.998 600.728 154.732C600.488 147.289 599.717 123.294 600.88 92.8574C601.221 83.9174 601.526 77.3529 601.781 72.0362C601.809 71.4542 601.837 70.8869 601.864 70.3354C601.864 70.3224 601.865 70.3094 601.866 70.2964C601.954 68.4606 602.035 66.785 602.108 65.2089C602.213 62.9327 602.301 60.8639 602.371 58.8191C602.373 58.7455 602.375 58.6719 602.377 58.5983C602.681 49.6509 602.187 38.7906 602.261 30.1169C602.275 28.4611 602.67 27.1311 603.143 27.148C603.616 27.1659 603.987 28.5226 603.973 30.1775ZM609.596 634.052C610.223 642.687 610.154 654.173 609.875 664.316C609.593 674.529 609.087 683.773 608.777 688.123C608.473 692.376 608.375 697.101 608.314 702.739C608.301 704.031 608.289 705.372 608.276 706.759C608.236 711.34 608.19 716.437 608.055 722.032C607.558 742.584 607.537 755.983 607.582 765.553C607.591 767.521 607.604 769.352 607.615 771.066C607.615 771.069 607.615 771.072 607.615 771.075C607.66 777.544 607.692 782.372 607.497 786.811C607.15 794.713 606.842 801.165 606.241 808.952C605.412 819.691 605.51 834.988 606.08 844.942C606.112 845.488 606.145 846.047 606.178 846.613C606.594 853.829 607.105 862.714 607.487 876.038C607.804 887.107 607.779 896.755 607.689 905.294C607.664 907.741 607.632 910.076 607.603 912.318C607.529 917.976 607.463 923.041 607.501 927.811C607.741 957.396 607.431 974.458 606.965 985.181C606.607 993.428 606.145 998.035 605.812 1001.36C605.712 1002.36 605.621 1003.25 605.55 1004.08C604.919 1011.53 604.635 1018.37 604.294 1026.59C604.218 1028.42 604.139 1030.32 604.053 1032.3C603.766 1038.94 603.816 1043.88 603.937 1047.76C603.99 1049.46 604.056 1050.95 604.119 1052.36C604.12 1052.38 604.122 1052.41 604.123 1052.44C604.132 1052.63 604.14 1052.83 604.148 1053.02C604.155 1053.17 604.163 1053.31 604.17 1053.46C604.178 1053.51 604.184 1053.57 604.189 1053.6C604.192 1053.63 604.195 1053.66 604.197 1053.67C604.198 1053.68 604.198 1053.68 604.199 1053.68C604.232 1053.96 604.245 1054.2 604.248 1054.24C604.252 1054.33 604.255 1054.41 604.256 1054.44C604.264 1054.65 604.268 1054.91 604.271 1055.08C604.277 1055.53 604.284 1056.31 604.292 1057.52C604.317 1058.56 604.359 1059.57 604.412 1060.83C604.416 1060.91 604.419 1060.99 604.423 1061.07C604.475 1062.3 604.535 1063.74 604.594 1065.54C604.647 1067.18 604.31 1068.69 603.84 1068.91C603.37 1069.13 602.946 1067.98 602.892 1066.34C602.837 1064.64 602.78 1063.29 602.727 1062.06C602.724 1061.98 602.72 1061.9 602.717 1061.83C602.662 1060.54 602.611 1059.33 602.582 1058.02C602.572 1057.58 602.564 1057.13 602.558 1056.71C602.537 1055.95 602.501 1055.09 602.455 1054.05C602.446 1053.85 602.437 1053.63 602.428 1053.41C602.364 1052.01 602.291 1050.37 602.233 1048.53C602.098 1044.21 602.047 1038.74 602.36 1031.51C602.442 1029.62 602.518 1027.79 602.592 1025.99C602.934 1017.74 603.238 1010.39 603.908 1002.48C604 1001.4 604.105 1000.36 604.216 999.246C604.546 995.95 604.94 992.013 605.272 984.389C605.716 974.174 606.027 957.518 605.789 928.101C605.749 923.094 605.82 917.692 605.895 911.937C605.923 909.74 605.951 907.488 605.975 905.19C606.063 896.783 606.087 887.44 605.781 876.752C605.408 863.726 604.911 855.083 604.497 847.898C604.482 847.65 604.467 847.402 604.452 847.154C604.435 846.846 604.417 846.539 604.4 846.236C603.792 835.629 603.671 819.353 604.588 807.489C605.162 800.044 605.458 793.868 605.804 786.01C605.974 782.146 605.946 778.016 605.903 771.676C605.891 769.897 605.88 767.94 605.869 765.769C605.823 756.028 605.844 742.425 606.346 721.642C606.478 716.224 606.521 711.349 606.562 706.794C606.574 705.379 606.587 703.99 606.602 702.63C606.663 696.965 606.762 691.693 607.113 686.778C607.402 682.737 607.895 673.791 608.169 663.857C608.444 653.852 608.486 643.23 607.934 635.64C607.877 634.851 607.82 634.055 607.763 633.26C607.272 626.412 606.771 619.431 605.937 613.81C600.697 588.617 602.692 542.987 603.008 512.886C603.012 512.49 603.017 512.095 603.021 511.7C603.385 476.956 603.339 451.706 603.323 443.099C603.322 442.698 603.321 442.333 603.321 442.005C603.32 441.711 603.319 441.446 603.319 441.213C603.314 437.706 603.253 434.604 603.19 431.354C603.186 431.176 603.183 430.999 603.179 430.821C603.112 427.387 603.047 423.782 603.053 419.521C603.074 403.678 602.996 390.763 602.913 379.589C602.898 377.52 602.884 375.508 602.869 373.547C602.869 373.541 602.869 373.535 602.869 373.53C602.802 364.923 602.743 357.288 602.742 350.043C602.741 336.83 602.633 327.906 602.516 320.964C602.48 318.787 602.442 316.781 602.406 314.888C602.329 310.794 602.261 307.219 602.238 303.531C602.193 296.596 602.075 290.214 601.961 283.926C601.951 283.366 601.941 282.806 601.931 282.247C601.808 275.432 601.694 268.683 601.691 261.547C601.69 259.891 602.075 258.518 602.548 258.483C603.021 258.45 603.404 259.767 603.405 261.422C603.408 268.353 603.518 274.936 603.642 281.75C603.652 282.312 603.663 282.876 603.673 283.442C603.788 289.713 603.905 296.213 603.95 303.276C603.973 306.831 604.037 310.209 604.113 314.221C604.149 316.136 604.188 318.198 604.227 320.492C604.345 327.539 604.456 336.582 604.457 349.921C604.457 357.08 604.515 364.617 604.581 373.218C604.597 375.192 604.612 377.222 604.628 379.316C604.711 390.519 604.789 403.5 604.767 419.431C604.762 423.456 604.823 426.873 604.89 430.293C604.893 430.485 604.897 430.677 604.9 430.869C604.963 434.091 605.029 437.366 605.033 441.07C605.034 441.565 605.034 442.196 605.035 442.957C605.051 451.576 605.099 476.929 604.733 511.799C604.732 511.908 604.73 512.016 604.729 512.124C604.484 535.489 604.346 548.671 604.769 558.596C605.103 566.43 605.189 572.284 605.23 577.089C605.237 578.005 605.245 578.872 605.251 579.699C605.276 583.27 605.297 586.092 605.415 588.912C605.775 597.445 606.363 603.564 607.461 610.967C608.392 617.243 608.943 624.932 609.425 631.667C609.426 631.677 609.426 631.687 609.427 631.697C609.484 632.497 609.54 633.283 609.596 634.052ZM605.732 1089.31C605.718 1090.96 605.324 1092.29 604.852 1092.28C604.379 1092.26 604.006 1090.9 604.02 1089.25C604.053 1085.3 604.087 1081.36 604.121 1077.41C604.135 1075.76 604.529 1074.43 605.001 1074.44C605.474 1074.46 605.847 1075.82 605.833 1077.47C605.8 1081.42 605.766 1085.36 605.732 1089.31ZM618.12 627.144C618.216 628.76 617.916 630.369 617.453 630.737C616.99 631.101 616.537 630.087 616.442 628.473C616.391 627.619 616.299 626.216 616.176 624.327C615.285 610.725 612.74 571.886 611.997 530.712C611.934 527.244 611.872 524.138 611.813 521.178C611.56 508.517 610.343 498.354 610.392 474.139C610.6 372.319 612.775 270.58 611.283 168.923C610.852 139.563 610.788 110.295 610.817 80.9126C610.821 76.2837 610.856 70.9259 610.911 65.2089C611.144 40.679 611.736 9.53515 611.809 0.969046C611.823 -0.687425 612.219 -2.01676 612.692 -1.99984C613.164 -1.98214 613.535 -0.626077 613.521 1.02964C613.449 9.5582 612.855 40.7373 612.623 65.2089C612.57 70.8311 612.536 76.0992 612.531 80.6572C612.502 109.983 612.566 139.191 612.996 168.495C614.489 270.269 614.391 372.336 614.182 474.273C614.133 498.252 613.269 508.013 613.521 520.628C613.581 523.595 613.644 526.719 613.707 530.219C614.44 570.816 616.943 609.065 617.844 622.83C617.971 624.778 618.067 626.242 618.12 627.144ZM617.404 704.167C617.534 722.657 617.303 748.941 617.1 771.91C617.001 783.112 616.908 793.526 616.868 801.863C616.807 814.78 616.397 822.912 615.99 830.976C615.985 831.063 615.981 831.149 615.977 831.236C615.57 839.295 615.17 847.36 615.107 860.479C615.044 873.706 615.322 892.008 615.603 910.47C615.603 910.484 615.603 910.499 615.603 910.513C615.883 928.876 617.033 947.502 616.967 960.962C616.737 1007.87 615.56 1036.79 614.636 1051.41C613.02 1076.99 614.833 1106.01 612.789 1132.14C612.336 1135.02 611.033 1130.16 611.408 1124.85C611.418 1124.66 611.429 1124.46 611.439 1124.27C611.538 1122.45 611.617 1120.85 611.682 1118.59C611.735 1115.33 611.739 1112.9 611.741 1110.69C611.748 1104.87 612.059 1064.51 612.962 1050.23C613.838 1036.35 612.946 1008.03 613.177 960.828C613.242 947.617 614.172 929.364 613.891 910.903C613.89 910.852 613.889 910.801 613.889 910.751C613.61 892.425 613.328 873.944 613.393 860.496C613.458 846.903 613.878 838.47 614.29 830.305C614.294 830.226 614.298 830.147 614.303 830.067C614.706 822.078 615.096 814.321 615.156 801.88C615.196 793.36 615.288 782.824 615.388 771.551C615.59 748.68 615.82 722.763 615.692 704.431C615.681 702.776 616.055 701.375 616.528 701.302C617.001 701.23 617.393 702.513 617.404 704.167ZM628.078 704.548C629.977 756.502 629.444 808.746 627.438 859.977C627.374 873.349 627.241 892.008 627.107 910.643C627.105 910.853 627.103 911.064 627.1 911.275C626.968 929.707 626.836 948.059 626.771 961.235C626.541 1008.14 626.232 1037.17 625.308 1051.79C624.446 1065.43 624.444 1069.22 624.438 1074.83C624.437 1074.98 624.436 1075.13 624.436 1075.29C624.437 1075.3 624.438 1075.31 624.44 1075.32C624.462 1075.51 624.475 1075.67 624.48 1075.75C624.491 1075.92 624.495 1076.06 624.497 1076.11C624.501 1076.23 624.501 1076.33 624.501 1076.37C624.502 1076.51 624.502 1076.68 624.501 1076.79C624.493 1077.79 624.441 1080.92 624.37 1083.4C624.298 1085.94 624.205 1087.75 624.102 1089.66C624.091 1089.85 624.081 1090.05 624.07 1090.24C623.977 1091.96 623.876 1093.83 623.766 1096.53C623.699 1098.18 623.266 1099.34 622.797 1099.14C622.329 1098.94 622.004 1097.44 622.071 1095.8C622.186 1092.96 622.294 1090.97 622.388 1089.24C622.398 1089.05 622.409 1088.86 622.419 1088.66C622.517 1086.84 622.597 1085.23 622.662 1082.98C622.715 1079.72 622.719 1077.29 622.721 1075.08C622.728 1069.27 622.733 1064.89 623.635 1050.61C624.512 1036.73 624.827 1008.46 625.059 961.252C625.123 948.052 625.255 929.679 625.388 911.262C625.389 911.045 625.391 910.829 625.392 910.613C625.527 891.968 625.662 873.335 625.726 859.994C625.976 807.995 625.118 757.07 626.366 704.816C626.298 695.201 626.272 686.412 626.247 678.269C626.176 654.306 626.12 635.916 625.08 618.385C624.852 614.541 624.658 604.467 624.417 589.908C624.346 585.641 624.272 580.961 624.191 575.903C623.992 563.503 623.757 548.813 623.458 532.261C623.395 528.794 623.334 525.687 623.274 522.727C623.021 510.066 622.819 500.073 622.869 475.857C622.93 446.061 623.355 396.139 623.682 369.44C623.846 356.068 623.997 348.519 624.123 343.179C624.158 341.692 624.192 340.384 624.222 339.184C624.301 336.049 624.361 333.615 624.402 330.425C624.693 307.45 624.493 291.365 624.075 265.014C624.049 263.363 624.411 261.923 624.883 261.798C625.356 261.674 625.761 262.913 625.787 264.564C626.206 290.954 626.41 307.284 626.114 330.572C626.072 333.903 626.007 336.509 625.926 339.699C625.897 340.882 625.865 342.145 625.831 343.555C625.707 348.807 625.557 356.277 625.394 369.578C625.068 396.23 624.644 446.079 624.584 475.783C624.535 499.763 624.73 509.562 624.983 522.177C625.042 525.143 625.105 528.265 625.168 531.764C625.468 548.338 625.704 563.068 625.903 575.475C625.984 580.526 626.059 585.195 626.129 589.445C626.375 604.297 626.563 613.764 626.758 617.056C627.835 635.202 627.893 654.391 627.964 678.576C627.988 686.63 628.013 695.24 628.078 704.548ZM624.457 170.044C624.481 171.696 624.116 173.129 623.644 173.247C623.171 173.363 622.769 172.12 622.744 170.468C622.616 161.742 622.511 155.469 622.428 150.565C622.274 141.488 622.199 137.101 622.212 130.531C622.246 113.571 622.263 97.195 622.278 82.462C622.284 76.4098 622.289 70.6343 622.296 65.2089C622.315 48.6811 622.343 35.4029 622.411 27.451C622.425 25.7948 622.82 24.4652 623.293 24.4821C623.766 24.5006 624.137 25.8566 624.123 27.5116C624.056 35.4362 624.028 48.6824 624.008 65.2089C624.002 70.5546 623.996 76.2435 623.99 82.2066C623.976 96.9569 623.961 113.387 623.927 130.453C623.914 136.825 623.983 140.967 624.134 149.842C624.217 154.741 624.325 161.085 624.457 170.044Z" fill="white"/>
</g>
<defs>
<clipPath id="clip0_1324_1687">
<rect width="744" height="1133" fill="white"/>
</clipPath>
</defs>
</svg>
