<svg width="24" height="24" viewBox="0 0 24 24" fill="none" xmlns="http://www.w3.org/2000/svg">
<path d="M20.364 12.7071C20.5515 12.5195 20.6568 12.2652 20.6568 12.0001C20.6568 11.7349 20.5515 11.4806 20.364 11.2931L14.707 5.63606C14.5184 5.45391 14.2658 5.35311 14.0036 5.35539C13.7414 5.35767 13.4906 5.46284 13.3052 5.64825C13.1198 5.83365 13.0146 6.08447 13.0123 6.34666C13.0101 6.60886 13.1109 6.86146 13.293 7.05006L17.243 11.0001L4.00001 11.0001C3.7348 11.0001 3.48044 11.1054 3.29291 11.293C3.10537 11.4805 3.00001 11.7348 3.00001 12.0001C3.00001 12.2653 3.10537 12.5196 3.29291 12.7072C3.48044 12.8947 3.7348 13.0001 4.00001 13.0001L17.243 13.0001L13.293 16.9501C13.1109 17.1387 13.0101 17.3913 13.0123 17.6535C13.0146 17.9157 13.1198 18.1665 13.3052 18.3519C13.4906 18.5373 13.7414 18.6425 14.0036 18.6447C14.2658 18.647 14.5184 18.5462 14.707 18.3641L20.364 12.7071Z" fill="#8A2BE2"/>
</svg>
