<svg width="24" height="24" viewBox="0 0 24 24" fill="none" xmlns="http://www.w3.org/2000/svg">
<path d="M3 12C3 11.6022 3.15804 11.2206 3.43934 10.9393C3.72064 10.658 4.10218 10.5 4.5 10.5H16.38L12.44 6.56C12.175 6.27565 12.0308 5.89956 12.0377 5.51095C12.0445 5.12235 12.2019 4.75158 12.4768 4.47675C12.7516 4.20193 13.1224 4.0445 13.511 4.03765C13.8996 4.03079 14.2757 4.17504 14.56 4.44L21.06 10.94C21.3409 11.2212 21.4987 11.6025 21.4987 12C21.4987 12.3975 21.3409 12.7787 21.06 13.06L14.56 19.56C14.2757 19.825 13.8996 19.9692 13.511 19.9623C13.1224 19.9555 12.7516 19.7981 12.4768 19.5232C12.2019 19.2484 12.0445 18.8776 12.0377 18.489C12.0308 18.1004 12.175 17.7243 12.44 17.44L16.38 13.5H4.5C4.10218 13.5 3.72064 13.342 3.43934 13.0607C3.15804 12.7794 3 12.3978 3 12Z" fill="white"/>
</svg>
