<svg width="40" height="40" viewBox="0 0 40 40" fill="none" xmlns="http://www.w3.org/2000/svg">
<path d="M12.3515 10.6771C12.3512 11.3868 12.0689 12.0672 11.5669 12.5688C11.0648 13.0703 10.3841 13.3519 9.67442 13.3515C8.96477 13.3512 8.28432 13.0689 7.78277 12.5669C7.28121 12.0648 6.99965 11.3841 7 10.6744C7.00036 9.96477 7.28261 9.28432 7.78466 8.78277C8.28671 8.28121 8.96744 7.99965 9.6771 8C10.3868 8.00036 11.0672 8.28261 11.5688 8.78466C12.0703 9.28671 12.3519 9.96744 12.3515 10.6771ZM12.4318 15.3329H7.08027V32.0832H12.4318V15.3329ZM20.8872 15.3329H15.5624V32.0832H20.8337V23.2933C20.8337 18.3967 27.2154 17.9418 27.2154 23.2933V32.0832H32.5V21.4738C32.5 13.2191 23.0546 13.5268 20.8337 17.5806L20.8872 15.3329Z" fill="white"/>
</svg>
