<svg width="40" height="40" viewBox="0 0 40 40" fill="none" xmlns="http://www.w3.org/2000/svg">
<mask id="mask0_518_1227" style="mask-type:luminance" maskUnits="userSpaceOnUse" x="5" y="5" width="30" height="30">
<path d="M27.0833 7.25H12.9167C11.4138 7.25 9.97243 7.84702 8.90973 8.90973C7.84702 9.97243 7.25 11.4138 7.25 12.9167V27.0833C7.25 28.5862 7.84702 30.0276 8.90973 31.0903C9.97243 32.153 11.4138 32.75 12.9167 32.75H27.0833C28.5862 32.75 30.0276 32.153 31.0903 31.0903C32.153 30.0276 32.75 28.5862 32.75 27.0833V12.9167C32.75 11.4138 32.153 9.97243 31.0903 8.90973C30.0276 7.84702 28.5862 7.25 27.0833 7.25Z" fill="#555555" stroke="white" stroke-width="2.66667" stroke-linejoin="round"/>
<path d="M20 25.6668C21.5029 25.6668 22.9442 25.0698 24.0069 24.0071C25.0697 22.9444 25.6667 21.5031 25.6667 20.0002C25.6667 18.4973 25.0697 17.0559 24.0069 15.9932C22.9442 14.9305 21.5029 14.3335 20 14.3335C18.4971 14.3335 17.0558 14.9305 15.9931 15.9932C14.9304 17.0559 14.3333 18.4973 14.3333 20.0002C14.3333 21.5031 14.9304 22.9444 15.9931 24.0071C17.0558 25.0698 18.4971 25.6668 20 25.6668Z" fill="#555555" stroke="white" stroke-width="2.66667" stroke-linejoin="round"/>
<path d="M27.7917 13.6248C28.1674 13.6248 28.5277 13.4756 28.7934 13.2099C29.0591 12.9442 29.2083 12.5839 29.2083 12.2082C29.2083 11.8324 29.0591 11.4721 28.7934 11.2064C28.5277 10.9408 28.1674 10.7915 27.7917 10.7915C27.4159 10.7915 27.0556 10.9408 26.7899 11.2064C26.5243 11.4721 26.375 11.8324 26.375 12.2082C26.375 12.5839 26.5243 12.9442 26.7899 13.2099C27.0556 13.4756 27.4159 13.6248 27.7917 13.6248Z" fill="white"/>
</mask>
<g mask="url(#mask0_518_1227)">
<path d="M3 3H37V37H3V3Z" fill="white"/>
</g>
</svg>
