<svg width="60" height="60" viewBox="0 0 60 60" fill="none" xmlns="http://www.w3.org/2000/svg">
<path fill-rule="evenodd" clip-rule="evenodd" d="M31.1111 12.5473H22.7674V11.9424H31.1111V12.5473ZM35.3496 25.6029H18.593V13.4228H35.3496V25.6029ZM16.4414 12.8171V28.563C16.4414 29.573 17.8549 30.3801 19.6037 30.3801L34.2065 30.3793C35.9574 30.3793 37.4364 29.5722 37.4364 28.563V12.8171C37.4364 11.8071 35.9574 11 34.2065 11H19.6037C17.8549 11 16.4414 11.8071 16.4414 12.8171ZM26.9396 26.8142C28.0158 26.8142 29.0258 27.2854 29.0258 27.9587C29.0258 28.6313 28.0158 29.1694 26.9396 29.1694C25.7951 29.1694 24.852 28.6306 24.852 27.9587C24.852 27.2847 25.7951 26.8142 26.9396 26.8142Z" fill="#7F7F7E"/>
<path fill-rule="evenodd" clip-rule="evenodd" d="M22.0935 16.2482H25.5939C25.8622 16.2482 26.0636 16.1806 26.0636 15.9785V14.2297C26.0636 14.0952 25.8615 13.9607 25.5939 13.9607H22.0935C21.8252 13.9607 21.623 14.0959 21.623 14.2297V15.9785C21.623 16.1806 21.8252 16.2482 22.0935 16.2482Z" fill="#B3B4B3"/>
<path fill-rule="evenodd" clip-rule="evenodd" d="M27.8135 14.2305V15.9792C27.8135 16.1806 28.0156 16.249 28.2832 16.249H31.7836C32.0533 16.249 32.3209 16.1813 32.3209 15.9792V14.2305C32.3209 14.096 32.0533 13.9614 31.7836 13.9614H28.2846C28.0156 13.9607 27.8135 14.096 27.8135 14.2305Z" fill="#B3B4B3"/>
<path fill-rule="evenodd" clip-rule="evenodd" d="M32.9933 17.7288H20.8147C20.6802 17.7288 20.5449 17.7971 20.5449 17.864V18.7373C20.5449 18.8049 20.6802 18.8725 20.8147 18.8725H32.9933C33.1278 18.8725 33.2631 18.8056 33.2631 18.738V17.864C33.2631 17.7971 33.1278 17.7288 32.9933 17.7288Z" fill="#A6B5B6"/>
<path fill-rule="evenodd" clip-rule="evenodd" d="M32.9933 19.4114H20.8147C20.6802 19.4114 20.5449 19.479 20.5449 19.5466V20.4213C20.5449 20.4882 20.6802 20.5559 20.8147 20.5559H32.9933C33.1278 20.5559 33.2631 20.4882 33.2631 20.4221V19.5466C33.2631 19.479 33.1278 19.4114 32.9933 19.4114Z" fill="#B3B4B3"/>
<path fill-rule="evenodd" clip-rule="evenodd" d="M32.9933 21.093H20.8147C20.6802 21.093 20.5449 21.1606 20.5449 21.2275V22.1023C20.5449 22.1692 20.6802 22.2368 20.8147 22.2368H32.9933C33.1278 22.2368 33.2631 22.1699 33.2631 22.1023V21.2275C33.2631 21.1606 33.1278 21.093 32.9933 21.093Z" fill="#A6B5B6"/>
<path fill-rule="evenodd" clip-rule="evenodd" d="M33.1954 24.5928H20.6809C20.6133 24.5928 20.6133 24.6604 20.6133 24.6604V25.1308C20.6133 25.1985 20.6133 25.1985 20.6809 25.1985H33.1954C33.2638 25.1985 33.33 25.1985 33.33 25.1308V24.6604C33.33 24.6604 33.2638 24.5935 33.1954 24.5935V24.5928Z" fill="#A6B5B6"/>
<path fill-rule="evenodd" clip-rule="evenodd" d="M20.681 24.0554H33.1956C33.2639 24.0554 33.3301 24.0554 33.3301 23.9885V23.5828C33.3301 23.5166 33.2639 23.5166 33.1956 23.5166H20.681C20.6134 23.5166 20.6134 23.5166 20.6134 23.5835V23.9885C20.6127 24.0554 20.6127 24.0554 20.681 24.0554Z" fill="#B3B4B3"/>
<path fill-rule="evenodd" clip-rule="evenodd" d="M7.89468 38.0519V20.6904H15.1608V18.2676H6.88543C5.94307 18.2676 5 18.9409 5 19.748V40.8106C5 41.6192 5.94307 41.8882 6.88543 41.8882H39.1858V38.0519H7.89468Z" fill="#626C79"/>
<path fill-rule="evenodd" clip-rule="evenodd" d="M45.9817 20.6899V26.4094H48.8772V19.7475C48.8772 18.9404 47.865 18.2671 46.9248 18.2671H38.7148V20.6899H45.9817Z" fill="#626C79"/>
<path fill-rule="evenodd" clip-rule="evenodd" d="M47.732 45.7907C48.6074 45.7907 49.28 46.3281 49.28 47.069C49.28 47.7416 48.6074 48.3473 47.732 48.3473C46.8572 48.3473 46.1854 47.7416 46.1854 47.069C46.1854 46.3288 46.8572 45.7907 47.732 45.7907ZM42.2814 28.968C42.4828 28.968 42.6843 29.1032 42.6843 29.3039C42.6843 29.506 42.4836 29.6406 42.2814 29.6406C42.08 29.6406 41.8772 29.506 41.8772 29.3039C41.8772 29.1025 42.0793 28.968 42.2814 28.968ZM43.495 29.0356C43.695 29.0356 43.8978 29.1694 43.8978 29.3039C43.8978 29.4384 43.6957 29.5729 43.4935 29.5729C43.29 29.5729 43.1554 29.4377 43.1554 29.3039C43.1554 29.1694 43.29 29.0356 43.4935 29.0356H43.495ZM44.6373 29.1025C44.7719 29.1025 44.9056 29.2363 44.9056 29.3708C44.9056 29.4377 44.7711 29.5729 44.6373 29.5729C44.5028 29.5729 44.3676 29.4377 44.3676 29.3708C44.3676 29.2363 44.5028 29.1032 44.6373 29.1025ZM45.5099 29.2363C45.5775 29.2363 45.6459 29.3039 45.6459 29.3708C45.6459 29.4377 45.5775 29.4377 45.5099 29.4377C45.443 29.4377 45.443 29.4377 45.443 29.3708C45.443 29.3039 45.443 29.2363 45.5099 29.2363ZM48.9434 29.2363C49.0786 29.2363 49.1455 29.3039 49.1455 29.3708C49.1455 29.506 49.0786 29.5729 48.9434 29.5729H46.3868C46.2523 29.5729 46.1854 29.506 46.1854 29.3708C46.1854 29.3032 46.253 29.2363 46.3868 29.2363H48.9434ZM41.6089 30.8505H53.8558V45.4548H41.6089V30.8505ZM53.9911 27.4861H41.4743C40.937 27.4861 40.4629 27.8242 40.4629 28.2946V48.0114C40.4629 48.4818 40.9363 48.8861 41.4743 48.8861H53.9911C54.5953 48.8861 54.9996 48.4818 54.9996 48.0114V28.2939C54.9996 27.8235 54.5953 27.4861 53.9911 27.4861Z" fill="#7F7F7E"/>
<path fill-rule="evenodd" clip-rule="evenodd" d="M51.5009 31.7266H48.8091C48.6077 31.7266 48.4033 31.8611 48.4033 31.9956V34.0148C48.4033 34.2162 48.6069 34.3508 48.8091 34.3508H51.5009C51.7016 34.3508 51.9052 34.2162 51.9052 34.0148V31.9949C51.9052 31.8611 51.7023 31.7266 51.5009 31.7266Z" fill="#B3B4B3"/>
<path fill-rule="evenodd" clip-rule="evenodd" d="M47.1276 34.0148V31.9949C47.1276 31.8611 46.9262 31.7266 46.724 31.7266H43.9639C43.7617 31.7266 43.6279 31.8611 43.6279 31.9956V34.0148C43.6279 34.2162 43.7617 34.3508 43.9639 34.3508H46.724C46.9254 34.3508 47.1276 34.2162 47.1276 34.0148Z" fill="#B3B4B3"/>
<path fill-rule="evenodd" clip-rule="evenodd" d="M52.4436 36.0325H42.9539C42.8855 36.0325 42.8193 36.1001 42.8193 36.1677V37.1777C42.8193 37.2446 42.8855 37.3115 42.9539 37.3115H52.4436C52.5781 37.3115 52.6435 37.2446 52.6435 37.1777V36.1677C52.6435 36.0994 52.5773 36.0332 52.4421 36.0332L52.4436 36.0325Z" fill="#A6B5B6"/>
<path fill-rule="evenodd" clip-rule="evenodd" d="M52.4436 37.9841H42.9539C42.8855 37.9841 42.8193 38.051 42.8193 38.1194V39.1294C42.8193 39.1955 42.8855 39.2639 42.9539 39.2639L52.4436 39.2631C52.5781 39.2631 52.6435 39.1962 52.6435 39.1294V38.1194C52.6435 38.0517 52.5773 37.9849 52.4421 37.9849L52.4436 37.9841Z" fill="#B3B4B3"/>
<path fill-rule="evenodd" clip-rule="evenodd" d="M52.4436 39.8682H42.9539C42.8855 39.8682 42.8193 40.0034 42.8193 40.0703V41.0796C42.8193 41.1464 42.8855 41.2148 42.9539 41.2148L52.4436 41.2141C52.5781 41.2141 52.6435 41.1472 52.6435 41.0796V40.0703C52.6435 40.0034 52.5773 39.8689 52.4421 39.8689L52.4436 39.8682Z" fill="#A6B5B6"/>
<path fill-rule="evenodd" clip-rule="evenodd" d="M52.5783 43.9739H42.9548C42.8865 43.9739 42.8203 44.0422 42.8203 44.0422V44.5803C42.8203 44.6465 42.8865 44.6465 42.9548 44.6465H52.5783C52.6445 44.6465 52.7114 44.6465 52.7114 44.5803V44.0422C52.7114 44.0422 52.6445 43.9739 52.5783 43.9739Z" fill="#A6B5B6"/>
<path fill-rule="evenodd" clip-rule="evenodd" d="M42.9548 43.3686H52.5783C52.6445 43.3686 52.7114 43.301 52.7114 43.2334V42.7615C52.7114 42.6946 52.6445 42.6946 52.5783 42.6946H42.9548C42.8865 42.6946 42.8203 42.6946 42.8203 42.7615V43.2334C42.8203 43.301 42.8865 43.3686 42.9548 43.3686Z" fill="#B3B4B3"/>
<path fill-rule="evenodd" clip-rule="evenodd" d="M32.5241 46.3957C31.7839 45.9252 31.7163 45.0505 31.7163 45.0505L31.448 43.301H22.4302L22.1619 45.0505C22.1619 45.0505 22.0259 45.8583 21.2857 46.2612C20.5455 46.7331 19.9398 47.2042 20.5455 47.2719C21.1512 47.3387 26.5355 47.2719 26.9391 47.2719C27.3412 47.2719 32.7255 47.3387 33.3298 47.2719C33.8715 47.2042 33.2636 46.8676 32.5241 46.3957Z" fill="#666766"/>
</svg>
