<svg width="60" height="60" viewBox="0 0 60 60" fill="none" xmlns="http://www.w3.org/2000/svg">
<path fill-rule="evenodd" clip-rule="evenodd" d="M5 27.113V33.9079C5 34.3285 5.4197 34.6649 5.92552 34.6649H14.1455C14.6477 34.6649 15.0711 34.3285 15.0711 33.9079V27.113C15.0711 26.609 14.6477 26.2744 14.1446 26.2744H5.92646C5.41973 26.2744 5 26.609 5 27.113Z" fill="#366373"/>
<path fill-rule="evenodd" clip-rule="evenodd" d="M16.4102 28.8751V31.56H22.4518V46.1553C22.4518 46.7455 22.8707 47.2495 23.5415 47.4172C23.624 47.5015 23.7907 47.5015 23.875 47.5015H32.4341V50.3533L40.2362 45.5707L32.4341 40.7908V43.6426H25.64V16.7962H32.5174V19.6489L40.237 14.8645L32.5174 10.0846V12.9382H31.93V12.8539H24.0418C23.1209 12.8539 22.451 13.5247 22.451 14.1955V28.8769H16.4102V28.8751Z" fill="#8E725E"/>
<path fill-rule="evenodd" clip-rule="evenodd" d="M44.8496 10.8385V17.6326C44.8496 18.0514 45.3536 18.4738 45.854 18.4738H53.9942C54.5798 18.4738 54.9986 18.0514 54.9986 17.6326V10.8385C54.9986 10.3345 54.5798 10 53.9942 10H45.854C45.3527 10 44.8496 10.3345 44.8496 10.8385Z" fill="#366373"/>
<path fill-rule="evenodd" clip-rule="evenodd" d="M53.9952 41.9619H45.8549C45.3537 41.9619 44.8506 42.2973 44.8506 42.717V49.5963C44.8506 50.0178 45.3546 50.3523 45.8549 50.3523H53.9952C54.5808 50.3523 54.9996 50.0178 54.9996 49.5963V42.717C54.9996 42.2973 54.5808 41.9619 53.9952 41.9619Z" fill="#366373"/>
</svg>
