<svg width="168" height="24" viewBox="0 0 168 24" fill="none" xmlns="http://www.w3.org/2000/svg">
<path d="M12.7596 1.35563L15.2833 7.11188C15.3783 7.32847 15.5296 7.51562 15.7216 7.65381C15.9135 7.79199 16.139 7.87615 16.3746 7.8975L22.5227 8.44875C23.2183 8.55 23.4958 9.40312 22.9914 9.89437L18.3602 13.785C17.9852 14.1 17.8146 14.595 17.9177 15.0731L19.2639 21.375C19.3821 22.0669 18.6564 22.5956 18.0339 22.2675L12.6677 19.125C12.4653 19.0062 12.2349 18.9435 12.0002 18.9435C11.7655 18.9435 11.5351 19.0062 11.3327 19.125L5.96644 22.2656C5.34581 22.5919 4.61831 22.065 4.73644 21.3731L6.08269 15.0712C6.18394 14.5931 6.01519 14.0981 5.64019 13.7831L1.00706 9.89625C0.50456 9.40687 0.78206 8.55188 1.47581 8.45062L7.62394 7.89937C7.85948 7.87802 8.08498 7.79386 8.27692 7.65568C8.46886 7.5175 8.62021 7.33035 8.71519 7.11375L11.2389 1.3575C11.5521 0.7275 12.4483 0.7275 12.7596 1.35563Z" fill="#FDD835"/>
<path d="M12.5758 7.45672L12.1483 3.21547C12.1314 2.97922 12.0827 2.57422 12.4614 2.57422C12.7614 2.57422 12.9246 3.19859 12.9246 3.19859L14.2071 6.60359C14.6908 7.89922 14.4921 8.34359 14.0252 8.60609C13.4889 8.90609 12.6977 8.67172 12.5758 7.45672Z" fill="#FFFF8D"/>
<path d="M17.8651 13.4079L21.5438 10.5373C21.7257 10.3854 22.0538 10.1435 21.7913 9.86789C21.5832 9.65039 21.0207 9.96351 21.0207 9.96351L17.8013 11.2216C16.8413 11.5535 16.2038 12.0448 16.1476 12.6635C16.0744 13.4885 16.8151 14.1241 17.8651 13.4079Z" fill="#F4B400"/>
<path d="M48.7596 1.35563L51.2833 7.11188C51.3783 7.32847 51.5296 7.51562 51.7216 7.65381C51.9135 7.79199 52.139 7.87615 52.3746 7.8975L58.5227 8.44875C59.2183 8.55 59.4958 9.40312 58.9914 9.89437L54.3602 13.785C53.9852 14.1 53.8146 14.595 53.9177 15.0731L55.2639 21.375C55.3821 22.0669 54.6564 22.5956 54.0339 22.2675L48.6677 19.125C48.4653 19.0062 48.2349 18.9435 48.0002 18.9435C47.7655 18.9435 47.5351 19.0062 47.3327 19.125L41.9664 22.2656C41.3458 22.5919 40.6183 22.065 40.7364 21.3731L42.0827 15.0712C42.1839 14.5931 42.0152 14.0981 41.6402 13.7831L37.0071 9.89625C36.5046 9.40687 36.7821 8.55188 37.4758 8.45062L43.6239 7.89937C43.8595 7.87802 44.085 7.79386 44.2769 7.65568C44.4689 7.5175 44.6202 7.33035 44.7152 7.11375L47.2389 1.3575C47.5521 0.7275 48.4483 0.7275 48.7596 1.35563Z" fill="#FDD835"/>
<path d="M48.5758 7.45672L48.1483 3.21547C48.1314 2.97922 48.0827 2.57422 48.4614 2.57422C48.7614 2.57422 48.9246 3.19859 48.9246 3.19859L50.2071 6.60359C50.6908 7.89922 50.4921 8.34359 50.0252 8.60609C49.4889 8.90609 48.6977 8.67172 48.5758 7.45672Z" fill="#FFFF8D"/>
<path d="M53.8651 13.4079L57.5438 10.5373C57.7257 10.3854 58.0538 10.1435 57.7913 9.86789C57.5832 9.65039 57.0207 9.96351 57.0207 9.96351L53.8013 11.2216C52.8413 11.5535 52.2038 12.0448 52.1476 12.6635C52.0744 13.4885 52.8151 14.1241 53.8651 13.4079Z" fill="#F4B400"/>
<path d="M84.7596 1.35563L87.2833 7.11188C87.3783 7.32847 87.5296 7.51562 87.7216 7.65381C87.9135 7.79199 88.139 7.87615 88.3746 7.8975L94.5227 8.44875C95.2183 8.55 95.4958 9.40312 94.9914 9.89437L90.3602 13.785C89.9852 14.1 89.8146 14.595 89.9177 15.0731L91.2639 21.375C91.3821 22.0669 90.6564 22.5956 90.0339 22.2675L84.6677 19.125C84.4653 19.0062 84.2349 18.9435 84.0002 18.9435C83.7655 18.9435 83.5351 19.0062 83.3327 19.125L77.9664 22.2656C77.3458 22.5919 76.6183 22.065 76.7364 21.3731L78.0827 15.0712C78.1839 14.5931 78.0152 14.0981 77.6402 13.7831L73.0071 9.89625C72.5046 9.40687 72.7821 8.55188 73.4758 8.45062L79.6239 7.89937C79.8595 7.87802 80.085 7.79386 80.2769 7.65568C80.4689 7.5175 80.6202 7.33035 80.7152 7.11375L83.2389 1.3575C83.5521 0.7275 84.4483 0.7275 84.7596 1.35563Z" fill="#FDD835"/>
<path d="M84.5758 7.45672L84.1483 3.21547C84.1314 2.97922 84.0827 2.57422 84.4614 2.57422C84.7614 2.57422 84.9246 3.19859 84.9246 3.19859L86.2071 6.60359C86.6908 7.89922 86.4921 8.34359 86.0252 8.60609C85.4889 8.90609 84.6977 8.67172 84.5758 7.45672Z" fill="#FFFF8D"/>
<path d="M89.8651 13.4079L93.5438 10.5373C93.7257 10.3854 94.0538 10.1435 93.7913 9.86789C93.5832 9.65039 93.0207 9.96351 93.0207 9.96351L89.8013 11.2216C88.8413 11.5535 88.2038 12.0448 88.1476 12.6635C88.0744 13.4885 88.8151 14.1241 89.8651 13.4079Z" fill="#F4B400"/>
<path d="M120.76 1.35563L123.283 7.11188C123.378 7.32847 123.53 7.51562 123.722 7.65381C123.914 7.79199 124.139 7.87615 124.375 7.8975L130.523 8.44875C131.218 8.55 131.496 9.40312 130.991 9.89437L126.36 13.785C125.985 14.1 125.815 14.595 125.918 15.0731L127.264 21.375C127.382 22.0669 126.656 22.5956 126.034 22.2675L120.668 19.125C120.465 19.0062 120.235 18.9435 120 18.9435C119.765 18.9435 119.535 19.0062 119.333 19.125L113.966 22.2656C113.346 22.5919 112.618 22.065 112.736 21.3731L114.083 15.0712C114.184 14.5931 114.015 14.0981 113.64 13.7831L109.007 9.89625C108.505 9.40687 108.782 8.55188 109.476 8.45062L115.624 7.89937C115.859 7.87802 116.085 7.79386 116.277 7.65568C116.469 7.5175 116.62 7.33035 116.715 7.11375L119.239 1.3575C119.552 0.7275 120.448 0.7275 120.76 1.35563Z" fill="#FDD835"/>
<path d="M120.576 7.45672L120.148 3.21547C120.131 2.97922 120.083 2.57422 120.461 2.57422C120.761 2.57422 120.925 3.19859 120.925 3.19859L122.207 6.60359C122.691 7.89922 122.492 8.34359 122.025 8.60609C121.489 8.90609 120.698 8.67172 120.576 7.45672Z" fill="#FFFF8D"/>
<path d="M125.865 13.4079L129.544 10.5373C129.726 10.3854 130.054 10.1435 129.791 9.86789C129.583 9.65039 129.021 9.96351 129.021 9.96351L125.801 11.2216C124.841 11.5535 124.204 12.0448 124.148 12.6635C124.074 13.4885 124.815 14.1241 125.865 13.4079Z" fill="#F4B400"/>
<path d="M155.687 1.58008C155.816 1.32114 156.177 1.32205 156.307 1.57031L158.826 7.3125C158.957 7.61096 159.165 7.86913 159.429 8.05957C159.661 8.22625 159.928 8.33636 160.208 8.38086L160.33 8.39551L166.453 8.94336C166.735 8.98593 166.847 9.32916 166.645 9.53125L162.039 13.4023C161.555 13.8088 161.317 14.434 161.407 15.0547L161.429 15.1787L162.77 21.459H162.771C162.819 21.7428 162.524 21.9573 162.27 21.8262L156.919 18.6934C156.641 18.53 156.324 18.4434 156 18.4434C155.717 18.4434 155.438 18.5094 155.186 18.6357L155.081 18.6934L149.729 21.8242C149.475 21.9535 149.181 21.7381 149.229 21.457L150.572 15.1758V15.1748C150.711 14.5172 150.479 13.8349 149.961 13.4004L145.35 9.53125C145.154 9.33066 145.266 8.98799 145.545 8.94531L151.668 8.39746H151.669C151.994 8.36799 152.304 8.25184 152.569 8.06152C152.833 7.87107 153.042 7.61298 153.173 7.31445L155.687 1.58008Z" stroke="white"/>
</svg>
