<svg width="74" height="60" viewBox="0 0 74 60" fill="none" xmlns="http://www.w3.org/2000/svg">
<mask id="path-1-inside-1_1154_528" fill="white">
<path d="M30.1907 33.8776V35.5103V37.1429V38.7756V40.4082V42.0409V43.6735V45.3062V46.9388V48.5715V50.2041V51.8368V53.4694V55.1021V56.7347V58.3674V60H28.3038H26.4169H24.53H22.6431H20.7561H18.8692H16.9823H15.0954H13.2085H11.3215H9.43461H7.54768H5.66076H3.77385H1.88692H0V58.7109V57.4219V56.1328V54.8438V53.5547V52.2656V50.9766V49.6875V48.3984V47.1094V45.8203V44.5313V43.2422V41.9531V40.664V39.375C0 38.6774 0.00665203 37.9912 0.0194499 37.3174C0.0322478 36.6436 0.0522076 35.9818 0.0783153 35.3323C0.104423 34.6828 0.13719 34.0447 0.176096 33.4195C0.215002 32.7938 0.260561 32.1805 0.312777 31.5786C0.364992 30.9772 0.423348 30.3877 0.488873 29.8101C0.553886 29.2325 0.625561 28.6673 0.703884 28.114C0.782208 27.5607 0.866675 27.0193 0.957796 26.4898C1.04892 25.9603 1.14669 25.4432 1.25112 24.9379C1.35555 24.4327 1.46612 23.9394 1.58335 23.4585C1.70058 22.9776 1.82447 22.5081 1.95501 22.0515C2.08555 21.5943 2.22223 21.1496 2.36556 20.7163C2.5089 20.2834 2.65889 19.8625 2.81554 19.4535C2.97218 19.0444 3.13497 18.6478 3.30441 18.2631C3.47385 17.8783 3.64996 17.5055 3.83271 17.1451C4.01547 16.7846 4.20437 16.4356 4.39992 16.0994C4.59547 15.7628 4.79768 15.4385 5.00654 15.1257C5.28041 14.7092 5.56401 14.2987 5.85734 13.8946C6.15117 13.4906 6.45475 13.0929 6.76804 12.7018C7.08185 12.3106 7.40538 11.9258 7.73864 11.5471C8.0724 11.1688 8.4159 10.7964 8.76912 10.4305C9.12234 10.0646 9.48632 9.70519 9.85951 9.35218C10.2332 8.99918 10.6166 8.65212 11.0098 8.31151C11.4034 7.9709 11.8068 7.63672 12.2199 7.309C12.6331 6.98128 13.0569 6.6595 13.49 6.34467C13.9236 6.02935 14.3669 5.72097 14.82 5.41854C15.2735 5.11611 15.7368 4.82012 16.2098 4.53008C16.6828 4.24054 17.1666 3.95693 17.6596 3.67978C18.1531 3.40263 18.6563 3.13193 19.1692 2.86767C19.6826 2.60341 20.2058 2.34512 20.7387 2.09375C21.2722 1.84189 21.8153 1.59696 22.3682 1.35799C22.9216 1.11901 23.4847 0.886507 24.0575 0.659929C24.6303 0.433847 25.2139 0.213687 25.8067 0L26.2367 0.546874L26.6667 1.09375L27.0967 1.64059L27.5267 2.18747L27.9568 2.73431L28.3868 3.28119L28.8168 3.82803L29.2468 4.3749L29.6768 4.92175L30.1068 5.46862L30.5368 6.01547L30.9668 6.56234L31.3968 7.10922L31.8269 7.65606L32.2568 8.20293L32.6869 8.74978C32.3285 8.86976 31.9758 8.99322 31.6292 9.12014C31.2827 9.24706 30.9417 9.37796 30.6069 9.51232C30.2721 9.64668 29.943 9.78501 29.62 9.9268C29.2969 10.0686 28.9796 10.2139 28.6683 10.3631C28.3571 10.5123 28.052 10.665 27.7525 10.8212C27.453 10.9774 27.1597 11.1375 26.872 11.3016C26.5843 11.4653 26.3028 11.6328 26.0268 11.8039C25.7509 11.9749 25.4811 12.1495 25.2175 12.3279C24.9538 12.5064 24.6953 12.6884 24.4435 12.8743C24.1916 13.0597 23.9454 13.2491 23.7048 13.4425C23.4642 13.6353 23.2302 13.8322 23.0014 14.0325C22.7726 14.2328 22.5504 14.437 22.3339 14.6443C22.1173 14.852 21.9064 15.0632 21.7017 15.2784C21.4969 15.4936 21.2977 15.7117 21.1048 15.9343C20.9118 16.1565 20.7244 16.3825 20.5432 16.6121C20.362 16.8416 20.1869 17.0752 20.0174 17.3117C19.848 17.5487 19.6832 17.7926 19.5229 18.0429C19.3627 18.2933 19.2071 18.5506 19.0566 18.8149C18.9061 19.0792 18.7597 19.3499 18.6184 19.627C18.4771 19.9047 18.3404 20.1887 18.2083 20.4798C18.0763 20.7708 17.9488 21.0688 17.8264 21.3732C17.7041 21.6776 17.5858 21.989 17.4727 22.3073C17.3596 22.6251 17.2511 22.9503 17.1471 23.2815C17.0432 23.6132 16.9439 23.9513 16.8497 24.2964C16.755 24.6415 16.6654 24.993 16.5804 25.3514C16.4955 25.7099 16.4151 26.0753 16.3393 26.4471C16.2636 26.819 16.1929 27.1978 16.1264 27.5835C16.0598 27.9692 15.9984 28.3614 15.9416 28.7605C15.8847 29.1596 15.8325 29.5652 15.7849 29.9782C15.7373 30.3907 15.6943 30.8101 15.6564 31.236C15.618 31.6619 15.5848 32.0947 15.5561 32.5345C15.5274 32.9743 15.5034 33.4205 15.4834 33.8736H16.4023H17.3212H18.2401H19.159H20.0779H20.9967H21.9156H22.8345H23.7534H24.6723H25.5912H26.5101H27.429H28.3479H29.2667H30.1907V33.8776Z"/>
</mask>
<path d="M30.1907 33.8776V35.5103V37.1429V38.7756V40.4082V42.0409V43.6735V45.3062V46.9388V48.5715V50.2041V51.8368V53.4694V55.1021V56.7347V58.3674V60H28.3038H26.4169H24.53H22.6431H20.7561H18.8692H16.9823H15.0954H13.2085H11.3215H9.43461H7.54768H5.66076H3.77385H1.88692H0V58.7109V57.4219V56.1328V54.8438V53.5547V52.2656V50.9766V49.6875V48.3984V47.1094V45.8203V44.5313V43.2422V41.9531V40.664V39.375C0 38.6774 0.00665203 37.9912 0.0194499 37.3174C0.0322478 36.6436 0.0522076 35.9818 0.0783153 35.3323C0.104423 34.6828 0.13719 34.0447 0.176096 33.4195C0.215002 32.7938 0.260561 32.1805 0.312777 31.5786C0.364992 30.9772 0.423348 30.3877 0.488873 29.8101C0.553886 29.2325 0.625561 28.6673 0.703884 28.114C0.782208 27.5607 0.866675 27.0193 0.957796 26.4898C1.04892 25.9603 1.14669 25.4432 1.25112 24.9379C1.35555 24.4327 1.46612 23.9394 1.58335 23.4585C1.70058 22.9776 1.82447 22.5081 1.95501 22.0515C2.08555 21.5943 2.22223 21.1496 2.36556 20.7163C2.5089 20.2834 2.65889 19.8625 2.81554 19.4535C2.97218 19.0444 3.13497 18.6478 3.30441 18.2631C3.47385 17.8783 3.64996 17.5055 3.83271 17.1451C4.01547 16.7846 4.20437 16.4356 4.39992 16.0994C4.59547 15.7628 4.79768 15.4385 5.00654 15.1257C5.28041 14.7092 5.56401 14.2987 5.85734 13.8946C6.15117 13.4906 6.45475 13.0929 6.76804 12.7018C7.08185 12.3106 7.40538 11.9258 7.73864 11.5471C8.0724 11.1688 8.4159 10.7964 8.76912 10.4305C9.12234 10.0646 9.48632 9.70519 9.85951 9.35218C10.2332 8.99918 10.6166 8.65212 11.0098 8.31151C11.4034 7.9709 11.8068 7.63672 12.2199 7.309C12.6331 6.98128 13.0569 6.6595 13.49 6.34467C13.9236 6.02935 14.3669 5.72097 14.82 5.41854C15.2735 5.11611 15.7368 4.82012 16.2098 4.53008C16.6828 4.24054 17.1666 3.95693 17.6596 3.67978C18.1531 3.40263 18.6563 3.13193 19.1692 2.86767C19.6826 2.60341 20.2058 2.34512 20.7387 2.09375C21.2722 1.84189 21.8153 1.59696 22.3682 1.35799C22.9216 1.11901 23.4847 0.886507 24.0575 0.659929C24.6303 0.433847 25.2139 0.213687 25.8067 0L26.2367 0.546874L26.6667 1.09375L27.0967 1.64059L27.5267 2.18747L27.9568 2.73431L28.3868 3.28119L28.8168 3.82803L29.2468 4.3749L29.6768 4.92175L30.1068 5.46862L30.5368 6.01547L30.9668 6.56234L31.3968 7.10922L31.8269 7.65606L32.2568 8.20293L32.6869 8.74978C32.3285 8.86976 31.9758 8.99322 31.6292 9.12014C31.2827 9.24706 30.9417 9.37796 30.6069 9.51232C30.2721 9.64668 29.943 9.78501 29.62 9.9268C29.2969 10.0686 28.9796 10.2139 28.6683 10.3631C28.3571 10.5123 28.052 10.665 27.7525 10.8212C27.453 10.9774 27.1597 11.1375 26.872 11.3016C26.5843 11.4653 26.3028 11.6328 26.0268 11.8039C25.7509 11.9749 25.4811 12.1495 25.2175 12.3279C24.9538 12.5064 24.6953 12.6884 24.4435 12.8743C24.1916 13.0597 23.9454 13.2491 23.7048 13.4425C23.4642 13.6353 23.2302 13.8322 23.0014 14.0325C22.7726 14.2328 22.5504 14.437 22.3339 14.6443C22.1173 14.852 21.9064 15.0632 21.7017 15.2784C21.4969 15.4936 21.2977 15.7117 21.1048 15.9343C20.9118 16.1565 20.7244 16.3825 20.5432 16.6121C20.362 16.8416 20.1869 17.0752 20.0174 17.3117C19.848 17.5487 19.6832 17.7926 19.5229 18.0429C19.3627 18.2933 19.2071 18.5506 19.0566 18.8149C18.9061 19.0792 18.7597 19.3499 18.6184 19.627C18.4771 19.9047 18.3404 20.1887 18.2083 20.4798C18.0763 20.7708 17.9488 21.0688 17.8264 21.3732C17.7041 21.6776 17.5858 21.989 17.4727 22.3073C17.3596 22.6251 17.2511 22.9503 17.1471 23.2815C17.0432 23.6132 16.9439 23.9513 16.8497 24.2964C16.755 24.6415 16.6654 24.993 16.5804 25.3514C16.4955 25.7099 16.4151 26.0753 16.3393 26.4471C16.2636 26.819 16.1929 27.1978 16.1264 27.5835C16.0598 27.9692 15.9984 28.3614 15.9416 28.7605C15.8847 29.1596 15.8325 29.5652 15.7849 29.9782C15.7373 30.3907 15.6943 30.8101 15.6564 31.236C15.618 31.6619 15.5848 32.0947 15.5561 32.5345C15.5274 32.9743 15.5034 33.4205 15.4834 33.8736H16.4023H17.3212H18.2401H19.159H20.0779H20.9967H21.9156H22.8345H23.7534H24.6723H25.5912H26.5101H27.429H28.3479H29.2667H30.1907V33.8776Z" fill="url(#paint0_linear_1154_528)" stroke="white" stroke-width="6" mask="url(#path-1-inside-1_1154_528)"/>
<mask id="path-2-inside-2_1154_528" fill="white">
<path d="M71.506 33.8776V35.5103V37.1429V38.7756V40.4082V42.0409V43.6735V45.3062V46.9388V48.5715V50.2041V51.8368V53.4694V55.1021V56.7347V58.3674V60H69.619H67.7321H65.8452H63.9583H62.0713H60.1844H58.2975H56.4106H54.5236H52.6367H50.7498H48.8629H46.976H45.089H43.2021H41.3152V58.7109V57.4219V56.1328V54.8438V53.5547V52.2656V50.9766V49.6875V48.3984V47.1094V45.8203V44.5313V43.2422V41.9531V40.664V39.375C41.3152 38.6774 41.3219 37.9912 41.3347 37.3174C41.348 36.6436 41.3674 35.9818 41.3935 35.3323C41.4196 34.6828 41.4524 34.0447 41.4913 33.4195C41.5302 32.7938 41.5758 32.1805 41.628 31.5786C41.6802 30.9772 41.7385 30.3877 41.8036 29.8101C41.8686 29.2325 41.9403 28.6673 42.0186 28.114C42.0969 27.5607 42.1814 27.0193 42.2725 26.4898C42.3636 25.9603 42.4614 25.4432 42.5658 24.9379C42.6702 24.4327 42.7808 23.9394 42.898 23.4585C43.0153 22.9776 43.1391 22.5081 43.2697 22.0515C43.4002 21.5948 43.5369 21.1496 43.6802 20.7163C43.8236 20.2834 43.9736 19.8625 44.1297 19.4535C44.2863 19.0444 44.4491 18.6478 44.6186 18.2631C44.788 17.8783 44.9641 17.5055 45.1464 17.1451C45.3291 16.7846 45.518 16.4356 45.7136 16.0994C45.9091 15.7628 46.1113 15.4385 46.3197 15.1257C46.5936 14.7092 46.8772 14.2987 47.1705 13.8946C47.4643 13.4906 47.7679 13.0929 48.0812 12.7018C48.395 12.3106 48.7185 11.9258 49.0518 11.5471C49.3855 11.1688 49.729 10.7964 50.0823 10.4305C50.436 10.0646 50.7994 9.70519 51.1726 9.35218C51.5463 8.99918 51.9298 8.65212 52.3229 8.31151C52.7166 7.9709 53.12 7.63672 53.5331 7.309C53.9467 6.98128 54.3701 6.6595 54.8032 6.34467C55.2368 6.02935 55.6801 5.72097 56.1331 5.41854C56.5867 5.11611 57.05 4.82012 57.523 4.53008C57.9965 4.24054 58.4797 3.95693 58.9727 3.67978C59.4662 3.40263 59.9694 3.13193 60.4824 2.86767C60.9958 2.60341 61.519 2.34512 62.0519 2.09375C62.5853 1.84189 63.1279 1.59696 63.6813 1.35799C64.2342 1.11901 64.7978 0.886507 65.3706 0.659929C65.944 0.433847 66.5271 0.213687 67.1199 0L67.5499 0.546874L67.9799 1.09375L68.4099 1.64059L68.8399 2.18747L69.2699 2.73431L69.6999 3.28119L70.1299 3.82803L70.5599 4.3749L70.9899 4.92175L71.4199 5.46862L71.85 6.01547L72.28 6.56234L72.71 7.10922L73.14 7.65606L73.57 8.20293L74 8.74978C73.6417 8.86976 73.2889 8.99322 72.9424 9.12014C72.5958 9.24706 72.2549 9.37796 71.9201 9.51232C71.5853 9.64668 71.2561 9.78501 70.9331 9.9268C70.6101 10.0686 70.2932 10.2139 69.982 10.3631C69.6707 10.5123 69.3656 10.665 69.0662 10.8212C68.7667 10.9774 68.4734 11.1375 68.1857 11.3016C67.898 11.4653 67.6164 11.6328 67.3405 11.8039C67.0646 11.9749 66.7948 12.1495 66.5311 12.3279C66.2675 12.5064 66.009 12.6884 65.7571 12.8743C65.5053 13.0597 65.259 13.2491 65.0184 13.4425C64.7783 13.6353 64.5439 13.8322 64.3151 14.0325C64.0868 14.2328 63.8641 14.437 63.6475 14.6443C63.431 14.852 63.2201 15.0632 63.0153 15.2784C62.8106 15.4936 62.6114 15.7117 62.4184 15.9343C62.2254 16.1565 62.0381 16.3825 61.8569 16.6121C61.6756 16.8416 61.5005 17.0752 61.3311 17.3117C61.1616 17.5487 60.9968 17.7926 60.8366 18.0429C60.6764 18.2933 60.5213 18.5506 60.3703 18.8149C60.2197 19.0792 60.0733 19.3499 59.932 19.627C59.7908 19.9047 59.6541 20.1887 59.522 20.4798C59.3899 20.7708 59.263 21.0688 59.1401 21.3732C59.0173 21.6776 58.8995 21.989 58.7864 22.3073C58.6732 22.6251 58.5647 22.9503 58.4608 23.2815C58.3569 23.6132 58.2576 23.9513 58.1634 24.2964C58.0687 24.6415 57.9791 24.993 57.8941 25.3514C57.8091 25.7099 57.7287 26.0753 57.653 26.4471C57.5772 26.819 57.5061 27.1978 57.44 27.5835C57.3735 27.9692 57.3121 28.3614 57.2547 28.7605C57.1979 29.1596 57.1452 29.5652 57.0976 29.9782C57.05 30.3907 57.007 30.8101 56.9686 31.236C56.9302 31.6619 56.8969 32.0947 56.8677 32.5345C56.8385 32.9743 56.8145 33.4205 56.795 33.8736H57.7139H58.6328H59.5517H60.4706H61.3895H62.3083H63.2273H64.1461H65.065H65.9839H66.9028H67.8217H68.7406H69.6595H70.5784H71.506V33.8776Z"/>
</mask>
<path d="M71.506 33.8776V35.5103V37.1429V38.7756V40.4082V42.0409V43.6735V45.3062V46.9388V48.5715V50.2041V51.8368V53.4694V55.1021V56.7347V58.3674V60H69.619H67.7321H65.8452H63.9583H62.0713H60.1844H58.2975H56.4106H54.5236H52.6367H50.7498H48.8629H46.976H45.089H43.2021H41.3152V58.7109V57.4219V56.1328V54.8438V53.5547V52.2656V50.9766V49.6875V48.3984V47.1094V45.8203V44.5313V43.2422V41.9531V40.664V39.375C41.3152 38.6774 41.3219 37.9912 41.3347 37.3174C41.348 36.6436 41.3674 35.9818 41.3935 35.3323C41.4196 34.6828 41.4524 34.0447 41.4913 33.4195C41.5302 32.7938 41.5758 32.1805 41.628 31.5786C41.6802 30.9772 41.7385 30.3877 41.8036 29.8101C41.8686 29.2325 41.9403 28.6673 42.0186 28.114C42.0969 27.5607 42.1814 27.0193 42.2725 26.4898C42.3636 25.9603 42.4614 25.4432 42.5658 24.9379C42.6702 24.4327 42.7808 23.9394 42.898 23.4585C43.0153 22.9776 43.1391 22.5081 43.2697 22.0515C43.4002 21.5948 43.5369 21.1496 43.6802 20.7163C43.8236 20.2834 43.9736 19.8625 44.1297 19.4535C44.2863 19.0444 44.4491 18.6478 44.6186 18.2631C44.788 17.8783 44.9641 17.5055 45.1464 17.1451C45.3291 16.7846 45.518 16.4356 45.7136 16.0994C45.9091 15.7628 46.1113 15.4385 46.3197 15.1257C46.5936 14.7092 46.8772 14.2987 47.1705 13.8946C47.4643 13.4906 47.7679 13.0929 48.0812 12.7018C48.395 12.3106 48.7185 11.9258 49.0518 11.5471C49.3855 11.1688 49.729 10.7964 50.0823 10.4305C50.436 10.0646 50.7994 9.70519 51.1726 9.35218C51.5463 8.99918 51.9298 8.65212 52.3229 8.31151C52.7166 7.9709 53.12 7.63672 53.5331 7.309C53.9467 6.98128 54.3701 6.6595 54.8032 6.34467C55.2368 6.02935 55.6801 5.72097 56.1331 5.41854C56.5867 5.11611 57.05 4.82012 57.523 4.53008C57.9965 4.24054 58.4797 3.95693 58.9727 3.67978C59.4662 3.40263 59.9694 3.13193 60.4824 2.86767C60.9958 2.60341 61.519 2.34512 62.0519 2.09375C62.5853 1.84189 63.1279 1.59696 63.6813 1.35799C64.2342 1.11901 64.7978 0.886507 65.3706 0.659929C65.944 0.433847 66.5271 0.213687 67.1199 0L67.5499 0.546874L67.9799 1.09375L68.4099 1.64059L68.8399 2.18747L69.2699 2.73431L69.6999 3.28119L70.1299 3.82803L70.5599 4.3749L70.9899 4.92175L71.4199 5.46862L71.85 6.01547L72.28 6.56234L72.71 7.10922L73.14 7.65606L73.57 8.20293L74 8.74978C73.6417 8.86976 73.2889 8.99322 72.9424 9.12014C72.5958 9.24706 72.2549 9.37796 71.9201 9.51232C71.5853 9.64668 71.2561 9.78501 70.9331 9.9268C70.6101 10.0686 70.2932 10.2139 69.982 10.3631C69.6707 10.5123 69.3656 10.665 69.0662 10.8212C68.7667 10.9774 68.4734 11.1375 68.1857 11.3016C67.898 11.4653 67.6164 11.6328 67.3405 11.8039C67.0646 11.9749 66.7948 12.1495 66.5311 12.3279C66.2675 12.5064 66.009 12.6884 65.7571 12.8743C65.5053 13.0597 65.259 13.2491 65.0184 13.4425C64.7783 13.6353 64.5439 13.8322 64.3151 14.0325C64.0868 14.2328 63.8641 14.437 63.6475 14.6443C63.431 14.852 63.2201 15.0632 63.0153 15.2784C62.8106 15.4936 62.6114 15.7117 62.4184 15.9343C62.2254 16.1565 62.0381 16.3825 61.8569 16.6121C61.6756 16.8416 61.5005 17.0752 61.3311 17.3117C61.1616 17.5487 60.9968 17.7926 60.8366 18.0429C60.6764 18.2933 60.5213 18.5506 60.3703 18.8149C60.2197 19.0792 60.0733 19.3499 59.932 19.627C59.7908 19.9047 59.6541 20.1887 59.522 20.4798C59.3899 20.7708 59.263 21.0688 59.1401 21.3732C59.0173 21.6776 58.8995 21.989 58.7864 22.3073C58.6732 22.6251 58.5647 22.9503 58.4608 23.2815C58.3569 23.6132 58.2576 23.9513 58.1634 24.2964C58.0687 24.6415 57.9791 24.993 57.8941 25.3514C57.8091 25.7099 57.7287 26.0753 57.653 26.4471C57.5772 26.819 57.5061 27.1978 57.44 27.5835C57.3735 27.9692 57.3121 28.3614 57.2547 28.7605C57.1979 29.1596 57.1452 29.5652 57.0976 29.9782C57.05 30.3907 57.007 30.8101 56.9686 31.236C56.9302 31.6619 56.8969 32.0947 56.8677 32.5345C56.8385 32.9743 56.8145 33.4205 56.795 33.8736H57.7139H58.6328H59.5517H60.4706H61.3895H62.3083H63.2273H64.1461H65.065H65.9839H66.9028H67.8217H68.7406H69.6595H70.5784H71.506V33.8776Z" fill="url(#paint1_linear_1154_528)" stroke="white" stroke-width="6" mask="url(#path-2-inside-2_1154_528)"/>
<defs>
<linearGradient id="paint0_linear_1154_528" x1="16.3434" y1="0" x2="16.3434" y2="60" gradientUnits="userSpaceOnUse">
<stop stop-color="white"/>
<stop offset="1" stop-color="#262626"/>
</linearGradient>
<linearGradient id="paint1_linear_1154_528" x1="57.6576" y1="0" x2="57.6576" y2="60" gradientUnits="userSpaceOnUse">
<stop stop-color="white"/>
<stop offset="1" stop-color="#262626"/>
</linearGradient>
</defs>
</svg>
