<svg width="1440" height="80" viewBox="0 0 1440 80" fill="none" xmlns="http://www.w3.org/2000/svg">
<g clip-path="url(#clip0_789_1632)">
<path d="M1323.66 0.966638C1326.8 0.515679 1316.32 0.811293 1323.28 0.137821C1321.83 0.0923191 1320.37 0.0453906 1318.92 -0.000110942C1318.55 0.249306 1318.17 0.498116 1317.81 0.747533C1319.75 0.820979 1321.7 0.894412 1323.66 0.967858C1323.66 0.967451 1323.66 0.967044 1323.66 0.966638ZM1326.32 4.09026C1324.53 3.37887 1318.86 3.1892 1324.99 2.53272C1325.48 2.77687 1325.98 3.02096 1326.46 3.26511C1328.59 3.07575 1330.73 2.88644 1332.86 2.69812C1333.62 2.7912 1334.39 2.88438 1335.15 2.97642C1336.13 2.55216 1337.09 2.12676 1338.07 1.70146C1337.2 1.76356 1336.32 1.82674 1335.46 1.88883C1332.04 1.54431 1329 1.45009 1324.35 1.38593C1324.76 1.28554 1325.17 1.18604 1325.58 1.08565C1323.22 1.2564 1320.87 1.42757 1318.52 1.59832C1320.56 1.76593 1322.84 1.95233 1324.72 2.10855C1321.7 2.77377 1316.37 2.40354 1313.6 2.26479C1309.82 2.07541 1310.67 2.39171 1307.87 2.2593C1307.42 2.2386 1307.37 1.99067 1306.49 1.98649C1302.02 1.96682 1293.35 2.09824 1298.42 2.67676C1305.77 2.60224 1312.04 3.06681 1319.25 2.89708C1317.34 3.56602 1321.14 3.79365 1326.32 4.09026ZM1191.33 1.96025C1193.56 2.28514 1198.09 2.15403 1201.17 1.92851C1201.17 1.92851 1201.17 1.92851 1201.18 1.92851C1201.85 1.87884 1203.38 1.44708 1201.18 1.46467C1197.58 1.49482 1195.84 2.17447 1193.95 1.71307C1193.1 1.79897 1192.22 1.87539 1191.33 1.96025ZM1183.51 1.91997C1181.3 2.08659 1182.31 2.59871 1185.07 2.46011C1185.07 2.46051 1185.07 2.46092 1185.07 2.46133C1186.22 2.40337 1183.96 1.99858 1188.1 2.40945C1188.94 2.0898 1189.77 1.79899 1190.61 1.48969C1189.59 1.48452 1188.67 1.47613 1187.61 1.472C1188.32 1.9974 1185.72 1.75466 1183.51 1.91997ZM1294.69 2.38747C1294.35 1.9148 1295.8 1.91778 1298.27 1.58978C1295.94 1.6053 1293.6 1.62186 1291.27 1.63738C1292.42 1.88773 1293.55 2.13713 1294.69 2.38747ZM1349.58 2.31422C1349.58 2.31422 1349.59 2.31422 1349.59 2.31422C1350.36 2.38873 1351.12 2.46352 1351.88 2.53699C1352.34 2.3683 1352.79 2.20034 1353.25 2.03165C1355.95 2.18999 1358.67 2.34832 1361.38 2.5077C1361.05 1.9924 1356.19 2.07624 1353.52 1.71611C1349.54 1.87136 1347.62 2.17047 1347.37 2.60718C1348.1 2.50994 1348.84 2.41147 1349.58 2.31422ZM699.156 4.36862C698.251 4.22585 697.358 4.08295 696.453 3.94018C697.656 3.87501 698.849 3.82528 700.062 3.74976C703.233 4.37063 703.531 3.82143 707.686 3.85961C720.423 3.97759 717.044 4.94191 728.547 3.52943C719.311 3.59662 722.861 2.93292 717.293 2.4217C716.139 2.81083 721.657 3.68845 717.918 3.8706C711.476 3.45877 705.281 3.0752 698.133 2.80925C698.342 2.74199 698.55 2.6745 698.758 2.60724C699.892 2.64967 701.016 2.69236 702.149 2.73479C700.926 2.55472 699.731 2.3762 698.488 2.19405C700.059 2.6028 696.055 2.3744 696.591 2.84404C696.83 3.0531 698.599 3.34312 699.643 3.54286C696.949 3.6515 694.186 3.75102 691.462 3.85656C692.873 4.02312 694.284 4.18986 695.685 4.35642C696.838 4.36159 697.982 4.36528 699.134 4.37045C699.142 4.36984 699.148 4.36923 699.156 4.36862ZM119.297 2.19532C122.718 2.68173 128.934 2.76222 132.205 2.22095C127.9 2.21267 123.603 2.2036 119.297 2.19532ZM1347.11 2.96727C1347.49 2.88458 1347.87 2.80278 1348.26 2.72009C1346.55 2.56695 1344.83 2.41487 1343.12 2.26174C1342.79 2.5007 1342.45 2.73971 1342.11 2.97764C1343.78 2.97454 1345.45 2.97037 1347.11 2.96727ZM1237.71 2.70118C1238.96 2.71564 1239.07 2.7078 1240.63 2.67371C1240.63 2.67392 1240.63 2.67412 1240.63 2.67432C1241.24 2.66159 1246.41 2.52202 1245.83 2.33804C1243.27 2.33493 1240.53 2.33804 1237.91 2.33804C1237.83 2.45906 1237.81 2.57912 1237.71 2.70118ZM1267.91 2.59376C1267.91 2.59335 1267.92 2.59295 1267.92 2.59254C1268.85 2.56459 1269.74 2.5077 1270.7 2.49733C1267.23 2.20777 1266.68 2.72727 1263.53 2.58033C1260.38 2.43235 1258.43 2.14571 1255.76 2.85742C1256.75 2.96401 1257.82 3.11651 1258.85 3.2407C1263.32 2.95613 1264.53 3.22393 1268.11 3.50436C1268.04 3.20014 1267.98 2.89798 1267.91 2.59376ZM755.861 2.92887C756.716 3.28071 757.67 2.93547 757.769 2.93131C757.767 2.9309 757.765 2.9305 757.764 2.93009C765.337 3.25593 756.778 2.73533 763.926 2.68047C762.862 2.59253 761.816 2.49968 760.763 2.41071C759.133 2.58039 757.451 2.77265 755.861 2.92887ZM1001.94 2.89589C1002.01 2.79343 1002.1 2.69075 1002.17 2.58829C997.872 2.61209 996.776 2.20875 993.207 2.57608C996.12 2.68369 999.032 2.79054 1001.94 2.89711C1001.94 2.89671 1001.94 2.8963 1001.94 2.89589ZM1216.06 3.44638C1220.82 3.64198 1224.35 3.72817 1228.92 3.4177C1228.92 3.41729 1228.93 3.41688 1228.93 3.41648C1229.2 3.39737 1227.92 3.18301 1228.26 3.12901C1229.21 3.16107 1230.18 3.21036 1231.14 3.24864C1231.27 3.07698 1231.39 2.90537 1231.52 2.73475C1228.83 2.78338 1226.15 2.83198 1223.45 2.88061C1223.85 2.78023 1224.26 2.68072 1224.66 2.58034C1222.37 2.5286 1220.09 2.47705 1217.8 2.42531C1218.6 2.70671 1219.39 2.98818 1220.18 3.27061C1218.81 3.32957 1217.43 3.38638 1216.06 3.44638ZM930.435 4.01706C931.19 3.90529 929.791 3.71782 930.964 3.62157C932.138 3.52654 934.301 3.73512 933.794 3.41955C932.214 3.37715 930.555 3.32853 928.946 3.28406C934.126 2.71501 939.294 3.22994 939.373 2.52726C934.402 2.7094 930.314 2.62479 925.502 2.43022C925.701 2.98799 930.514 3.47025 927.483 3.99387C928.457 4.00111 929.48 4.0117 930.424 4.01584C930.427 4.01624 930.431 4.01665 930.435 4.01706ZM1416.69 9.96154C1419.63 9.91911 1426.37 10.1467 1430.09 9.82178C1431.01 9.7417 1434.06 8.70431 1434.04 8.56757C1433.95 8.10704 1430.23 8.04435 1434.22 7.74425C1432.87 7.74113 1431.57 7.72384 1430.24 7.71556C1430.48 7.40612 1430.72 7.0975 1430.95 6.78909C1432.57 6.83566 1434.19 6.88247 1435.81 6.93008C1435.89 6.82762 1435.97 6.72493 1436.05 6.62248C1430.22 6.62041 1433.66 6.22496 1430.64 5.85652C1433.42 5.67028 1436.23 5.48493 1439 5.29869C1437.4 5.32145 1435.51 5.33831 1434.1 5.36521C1433.91 4.84056 1437.28 4.96564 1437.86 4.86841C1441.11 4.31891 1424.55 4.59625 1423.2 3.8327C1425.84 3.74785 1428.62 3.66505 1431.32 3.58124C1430.55 3.48707 1429.76 3.39284 1428.99 3.29867C1422.85 3.8253 1415.97 4.01186 1408.82 4.33988C1408.18 4.31816 1407.53 4.29587 1406.9 4.27518C1407.08 4.03828 1407.26 3.80228 1407.45 3.56538C1406.48 3.53744 1405.49 3.50971 1404.52 3.48176C1407.39 4.26202 1403.41 4.25138 1398.61 4.72743C1401.16 5.00163 1404.32 4.83539 1404.1 5.3463C1395.33 4.95322 1385.06 5.50873 1376.53 5.06494C1374.41 4.95526 1374.42 4.29619 1369.44 4.35697C1369.61 4.42941 1369.64 4.5602 1369.75 4.65542C1361.14 4.33976 1355.91 4.15107 1346.96 4.47293C1347.48 4.23605 1347.99 3.99818 1348.51 3.7613C1350.4 3.87928 1352.31 3.99913 1354.2 4.11711C1355.49 3.72595 1353.58 3.55331 1359.25 3.55745C1363.89 3.56055 1361.12 3.73327 1362.39 3.84918C1364.1 4.00742 1365.6 3.69613 1367.44 3.87298C1368.86 4.00856 1367.32 4.33131 1371.03 4.24955C1369.54 3.83144 1368.02 3.39971 1366.52 2.97642C1365.61 3.0706 1364.71 3.16623 1363.81 3.26144C1364.72 3.37321 1365.62 3.48352 1366.54 3.59529C1363.32 3.39453 1360.27 3.20517 1356.94 2.99717C1358.02 3.60157 1354.58 3.37497 1352.71 3.30356C1349.8 3.1919 1352.3 3.60786 1350.39 3.53853C1348.48 3.46812 1346.42 3.00341 1342.97 3.10276C1344.82 3.3718 1342.3 3.61305 1342.79 3.86139C1343.27 4.10972 1346.92 4.1647 1343.42 4.4357C1336.68 4.22976 1343.99 3.28405 1339.44 3.13084C1333.97 2.94664 1332.67 4.48821 1334.3 4.8196C1335.58 5.0804 1340 5.02794 1341.29 5.28771C1333.38 5.75651 1333.32 4.83104 1331.96 4.64993C1327.05 3.99074 1330.35 5.75016 1324.53 5.11377C1324.64 5.44279 1324.73 5.73871 1324.84 6.05428C1323.84 5.99426 1323.17 5.91449 1321.96 5.86691C1325.53 5.22584 1322.61 5.25332 1321.11 5.25231C1318.74 5.25024 1322.39 4.93755 1321.77 4.85683C1320.08 4.64081 1317.4 4.7389 1319.04 4.45646C1318.31 4.58789 1317.51 4.71971 1316.76 4.85011C1313.99 4.68634 1307.49 3.31308 1313.68 3.59041C1313.1 3.08019 1311.1 3.32542 1309.54 3.40304C1307.98 3.48059 1308.01 3.15565 1306.64 3.21567C1301.18 3.45579 1304.75 4.01161 1305.61 4.4473C1298.4 4.14719 1305.46 3.94864 1295.07 3.74787C1294.07 3.3929 1298.87 3.01412 1294.87 2.8092C1294.14 3.42589 1291.19 3.8689 1285.46 4.07379C1284.9 3.932 1284.34 3.78896 1283.79 3.64717C1280.66 4.21638 1282.26 4.80828 1276.46 4.10247C1279.57 5.40127 1277.43 4.57036 1272.24 5.09913C1271.19 5.20572 1273.62 5.47519 1272.15 5.6118C1271.48 5.67341 1269.87 5.47 1268.24 5.62706C1267.44 5.70467 1263.72 6.20547 1261.15 5.96762C1263.04 5.33838 1258.14 4.80309 1262.34 4.28252C1254.58 4.41085 1249.16 4.10874 1257.85 4.96669C1255.88 5.15712 1253.91 5.34673 1251.94 5.53612C1250.57 5.38605 1249.18 5.23717 1247.8 5.08814C1247.59 5.6053 1247.8 5.75038 1242.4 5.6594C1244.74 5.78147 1247.08 5.90555 1249.43 6.02865C1249.51 6.13308 1249.84 6.24162 1249.76 6.34296C1246.88 6.14434 1238.75 6.05885 1236.78 5.92123C1234.81 5.78359 1238.62 5.74592 1238.05 5.61241C1233.33 4.51151 1233.7 5.32347 1230.31 5.13453C1228.33 5.02276 1233.07 4.90139 1232.01 4.85378C1228.07 4.6793 1226.24 5.26439 1222.74 5.27185C1223.98 4.93974 1225.21 4.60247 1226.43 4.26726C1222.76 4.28486 1218.67 4.28781 1215.26 4.18121C1213.92 4.13959 1214.93 3.8926 1214.71 3.87605C1213.63 3.79118 1209.21 3.65676 1208.74 3.65572C1205.23 3.65375 1205.13 3.99586 1201.71 4.01459C1203.05 4.04356 1204.31 4.06966 1205.62 4.0976C1206.22 4.65225 1206.83 5.20687 1207.42 5.76255C1204.07 5.80291 1200.72 5.84243 1197.36 5.88279C1199.82 5.69757 1202.28 5.51322 1204.74 5.328C1200.9 4.8799 1197.06 4.43077 1193.22 3.98164C1191.23 4.25691 1189.24 4.53213 1187.24 4.8074C1181.81 4.73478 1182.9 3.61735 1180.33 4.59623C1178.73 4.51348 1177.13 4.43077 1175.53 4.34905C1175.76 4.48872 1175.98 4.62867 1176.21 4.76834C1174.28 4.68244 1172.35 4.59711 1170.42 4.51018C1172.45 4.01554 1174.44 3.49503 1176.45 3.01489C1172.65 2.9074 1172.58 3.32702 1172.01 3.43174C1170.51 3.7091 1167.53 3.33498 1166.34 3.59164C1165.94 3.67976 1169.66 3.956 1168.37 4.27459C1168.12 4.33635 1163.14 5.50748 1159.96 5.23707C1160.02 5.02491 1160.27 4.76477 1160.4 4.53398C1156.13 4.40512 1153.95 5.51256 1154.51 5.82298C1152.24 5.60566 1148.91 5.5875 1148.44 5.24806C1147.28 5.23978 1146.12 5.23192 1144.96 5.22364C1146.17 6.05036 1141.32 5.89919 1141 5.18825C1143 5.17065 1145 5.15213 1147 5.13454C1145.49 4.26314 1151.56 3.73717 1138.92 4.54436C1136.51 4.99765 1143.22 4.4826 1141.25 4.82205C1137.83 5.01963 1134.62 4.85432 1131.37 5.16994C1127.32 5.56422 1132.3 5.94344 1122.87 5.44153C1143.67 4.18412 1120.02 4.5921 1110.26 4.20197C1107.57 5.44388 1099.33 5.83724 1087.97 5.46778C1089.16 5.12214 1092.73 5.30021 1094.79 5.18642C1096.84 5.07259 1094.62 4.86753 1097.18 4.7061C1099.75 4.5447 1105.19 4.32528 1107.79 4.08113C1105.59 3.8855 1094.74 3.42301 1101.91 3.97859C1096.56 4.32108 1094.04 4.67302 1087.4 4.73722C1085.41 4.19805 1085.56 3.86232 1079.09 3.84677C1082.91 4.59599 1075.56 5.11671 1077.18 5.89073C1081.77 5.71045 1079.2 4.95815 1081.86 4.59807C1082.13 4.56208 1086.41 4.75067 1087.4 4.73722C1083.09 5.41303 1081.59 5.66457 1084.25 6.4687C1081.2 6.39833 1079.3 6.49929 1079.02 6.11533C1078.38 6.2819 1077.74 6.44861 1077.12 6.61518C1076.12 6.61104 1075.23 6.59561 1074.18 6.5987C1075.63 6.01953 1072.81 6.37607 1070.82 6.1135C1068.82 5.85063 1071.5 5.39343 1066.01 5.38722C1067.84 5.25164 1069.51 5.13532 1071.28 5.00699C1067.74 4.85798 1064.19 4.70802 1060.65 4.55901C1063.14 4.20513 1068.53 3.67947 1068.38 3.21386C1066.75 3.38965 1061.16 3.08071 1060.55 3.068C1058.19 3.02039 1059.48 3.31404 1059.3 3.32128C1055.58 3.46398 1052.52 3.364 1051.1 3.80893C1048.31 3.60818 1046.2 3.72263 1043.24 3.71128C1041.61 3.70507 1041.93 3.37827 1040.97 3.44029C1034.63 3.85424 1040.67 4.27654 1028.44 3.47264C1029.92 3.24499 1031.38 3.01209 1032.86 2.78237C1031.48 2.69647 1030.11 2.6101 1028.72 2.5242C1027.8 2.5656 1026.88 2.60731 1025.96 2.64871C1025.98 3.14232 1026 3.63696 1026.02 4.13057C1025.01 4.15748 1023.99 4.18361 1022.97 4.21052C1024.71 4.25916 1026.46 4.30775 1028.2 4.35639C1028.36 4.44324 1028.51 4.53014 1028.67 4.617C1026.08 4.75154 1023.5 4.88728 1020.92 5.02286C1020.87 4.85115 1020.82 4.67824 1020.77 4.50653C1014.94 4.74559 1014.81 4.89095 1009.27 4.41803C1005 4.42321 1001.53 3.70527 999.062 3.40307C998.177 3.49929 997.292 3.59675 996.397 3.69297C995.83 3.55015 995.257 3.40796 994.691 3.26514C993.567 3.46382 992.428 3.66255 991.305 3.8602C990.679 3.40922 990.354 3.26842 994.738 3.11011C993.237 2.54921 985.519 2.79665 982.377 2.985C979.993 3.12793 982.638 3.59578 982.34 3.65269C981.344 3.84603 977.416 3.67921 976.591 3.71128C973.101 3.84478 970.655 3.82141 967.504 3.9249C966.89 3.94561 965.175 4.24211 965.029 4.25142C963.896 4.30213 961.098 4.44624 960.78 4.45038C944.367 4.67172 961.904 3.38533 946.643 3.52087C947.1 3.35122 947.52 3.18272 947.968 3.01308C946.815 3.00273 945.65 2.9929 944.497 2.98256C943.035 3.12434 944.804 3.38218 941.901 3.1742C942.09 3.38325 942.279 3.59238 942.478 3.80039C941.216 3.68759 939.998 3.57569 938.706 3.46289C936.677 4.18834 929.272 4.35309 929.799 5.20474C929.978 5.49452 935.227 5.79186 932.453 6.1013C930.199 6.16222 931.725 5.81613 930.805 5.79797C924.163 5.67172 924.549 6.15682 921.835 6.02746C921.408 5.81955 920.958 5.60758 920.521 5.39761C919.497 5.45863 918.471 5.51967 917.437 5.5807C917.198 5.44099 916.95 5.30113 916.711 5.16141C917.676 5.1521 918.762 5.14265 919.647 5.13334C918.413 4.5922 907.081 4.34912 911.402 4.81048C913.162 4.99777 916.385 4.9182 914.348 5.55751C911.316 5.46541 907.875 5.37131 904.683 5.2792C904.584 5.41685 904.491 5.55475 904.392 5.69239C900.091 5.60329 904.002 5.05296 903.995 4.75799C903.01 4.74972 902.016 4.74246 901.033 4.73419C900.616 4.86756 900.219 5.00715 899.782 5.13639C899.742 4.92415 899.191 4.43082 896.259 4.61395C894.373 4.73315 897.342 5.26863 893.747 5.19437C894.016 4.86326 895.315 4.45998 891.31 4.35335C890.912 4.69892 890.362 5.01551 890.054 5.37869C885.073 5.0467 882.807 5.58036 876.961 5.19437C873.252 4.95012 868.172 4.0831 865.776 5.41897C863.063 5.45414 863.924 5.12147 863.121 5.04668C859.333 4.69273 856.515 5.32618 855.809 5.36343C851.307 5.60226 849.288 5.38299 845.62 5.68202C845.819 5.43467 845.927 5.20054 846.086 4.9594C849.447 5.3299 851.149 5.31251 855.862 5.23282C854.281 5.18316 852.7 5.13235 851.12 5.08269C851.378 4.88197 851.634 4.6812 851.883 4.48152C866.459 5.2722 863.059 4.02296 850.839 3.74974C849.785 4.12121 848.693 4.49169 847.649 4.86419C840.59 4.30122 837.268 4.78994 829.284 4.90692C828.335 4.92029 824.878 4.70631 823.392 4.69574C823.417 4.69432 823.442 4.6929 823.466 4.69147C822.542 4.34069 823.794 4.17924 823.943 3.86571C823.138 3.82639 822.332 3.78723 821.527 3.74792C819.729 3.98692 820.361 4.18322 816.822 4.12632C817.299 3.88831 817.77 3.65024 818.247 3.41224C814.369 3.40396 811.832 3.66255 808.222 3.55078C808.829 3.64082 809.428 3.73112 810.034 3.82116C802.179 4.05091 808.431 5.45023 802.494 4.75373C802.117 4.8758 801.749 4.99907 801.371 5.12114C803.817 5.15115 806.263 5.18024 808.699 5.21025C808.749 5.38301 808.802 5.55504 808.842 5.7278C806.227 5.67605 803.599 5.62269 800.984 5.57095C802.893 5.68686 804.814 5.80292 806.723 5.91883C803.69 6.00161 800.657 6.08445 797.625 6.16723C800.845 5.53194 796.67 5.45425 797.455 4.82513C792.086 5.34881 787.869 6.0391 779.546 5.59719C777.896 5.50916 778.792 5.06952 774.11 5.60452C775.243 4.90501 769.377 4.57675 770.13 3.91149C771.761 3.94356 773.451 3.96373 775.032 4.00303C773.232 4.23381 772.934 4.86866 775.668 5.05706C779.157 5.29715 784.248 4.85716 784.039 5.56179C785.431 5.52869 786.725 5.50916 788.077 5.48123C787.52 5.30644 786.976 5.13054 786.429 4.95574C790.275 5.22979 792.692 5.14067 794.541 4.70002C789.958 4.59861 785.385 4.49828 780.802 4.39791C781.477 4.36794 782.161 4.33774 782.837 4.3088C779.366 3.85861 782.946 3.4322 776.473 3.33595C776.513 3.54185 776.544 3.74789 776.584 3.95482C774.228 3.40424 767.776 3.40722 769.834 2.77385C767.885 2.96839 767.488 3.09144 766.384 2.75005C761.244 3.23129 757.942 3.83984 759.772 4.56636C757.863 4.44944 755.953 4.33235 754.055 4.21543C755.158 4.01676 756.263 3.81903 757.366 3.62036C754.045 3.63278 750.7 3.64499 747.389 3.65637C747.071 4.24412 753.781 3.83469 751.845 4.36007C751.458 4.46553 749.67 4.23964 749.201 4.29904C744.25 4.94167 752.022 4.47739 750.563 4.96979C743.185 5.12192 749.089 5.94698 738.927 5.25359C738.659 5.42327 738.37 5.59638 738.122 5.76503C734.594 5.77522 734.88 5.39193 731.848 5.3195C729.949 5.27444 727.566 5.94749 725.469 5.48917C725.095 5.40467 728.623 4.58204 721.208 4.61824C715.454 4.6463 717.849 5.22765 714.739 5.43363C711.627 5.63958 704.507 4.8335 702.409 5.74734C704.039 5.6263 706.116 5.561 707.925 5.46171C708.661 5.63969 709.377 5.81574 710.103 5.99269C705.966 5.76295 701.691 6.03372 698.907 5.60941C693.388 6.2583 687.216 5.65613 688.887 4.92341C690.703 5.02905 688.727 5.34855 691.25 5.14495C691.509 4.97419 691.781 4.80427 692.04 4.6335C687.744 4.6542 684.761 4.64941 686.72 5.16998C686.054 5.1824 685.394 5.19479 684.728 5.20721C684.608 4.83049 684.502 4.45238 684.383 4.07567C683.588 4.03324 682.789 3.99115 681.993 3.94872C681.109 4.03147 680.223 4.11518 679.328 4.19896C680.531 4.79507 682.581 4.81476 675.799 5.14801C675.779 4.94205 675.75 4.73692 675.731 4.53097C670.053 4.79279 669.903 5.29169 662.775 5.27312C668.244 5.98816 671.236 4.72066 671.216 6.15504C672.588 6.06086 673.972 5.96541 675.344 5.87124C675.552 6.07926 675.76 6.28757 675.958 6.49559C668.591 6.38587 656.353 5.01783 651.421 5.92495C650.824 5.81425 650.225 5.71802 649.619 5.59903C644.787 6.14651 642.7 4.91739 637.798 5.62528C637.292 5.69957 638.35 6.85435 631.969 6.81297C632.128 6.66288 632.211 6.41027 632.34 6.22095C630.959 6.31303 629.584 6.40939 628.213 6.50353C627.964 6.36491 627.703 6.22634 627.455 6.08668C629.812 6.03287 632.161 5.97815 634.518 5.92434C632.56 5.87675 630.589 5.82911 628.631 5.78152C631.186 5.55496 632.338 5.55255 630.798 5.18951C628.581 5.16778 626.361 5.14472 624.143 5.12299C623.915 5.02997 623.688 4.93587 623.46 4.84285C624.534 4.56551 625.618 4.29429 626.692 4.01281C620.915 4.23945 615.893 4.25176 611.458 4.79708C610.703 4.88918 613.375 5.2505 608.226 4.92463C608.147 5.11599 608.008 5.27138 607.919 5.44829C601.615 4.9122 599.544 5.07221 592.972 5.45928C597.227 5.09809 593.43 5.333 592.346 5.13947C591.604 5.00613 594.502 5.02583 594.174 4.88618C593.846 4.74752 590.08 4.18758 593.3 4.12023C601.195 5.26796 603.346 3.89575 613.488 4.44736C611.927 4.29937 610.354 4.15104 608.793 4.00305C609.528 3.90274 610.187 3.81174 610.982 3.70521C605.325 3.92975 608.076 3.78388 605.752 3.60695C603.425 3.42998 599.197 3.27963 596.363 3.23099C595.47 3.21571 596.411 3.47313 594.397 3.49709C593.025 3.51365 589.275 3.13204 588.409 3.58193C587.843 3.87479 593.867 4.68121 585.538 4.67929C583.97 4.96639 587.963 4.87722 588.049 4.91182C588.775 5.25334 583.655 5.51013 581.288 5.24933C581.097 5.22683 582.965 4.9607 580.933 4.85628C576.111 4.60686 573.326 4.91207 570.203 5.32501C569.866 4.84066 565.807 4.26222 560.756 4.44126C560.498 4.30266 560.251 4.16283 559.993 4.02319C560.777 4.09656 561.561 4.16893 562.346 4.2423C563.201 4.15536 564.107 4.09208 564.942 3.98963C559.862 3.87052 559.144 3.20301 556.708 2.95879C548.372 2.12452 553.424 3.88929 554.928 4.19347C556.011 4.07032 557.059 3.93284 558.133 3.80348C558.014 3.97217 557.893 4.14215 557.784 4.31188C545.305 4.30672 555.883 5.40692 549.55 5.7205C547.919 4.89054 543.267 4.81055 537.342 5.33722C536.685 5.33308 536.027 5.33202 535.37 5.32684C535.261 5.20583 535.263 5.02085 535.084 4.94112C527.945 4.80037 526.673 6.07852 525.997 6.1996C522.995 6.73664 520.656 5.99358 519.771 5.98721C516.043 5.96134 514.959 6.29128 511.41 6.14956C507.593 5.99642 510.203 5.74326 509.042 5.51665C508.11 5.3367 505.098 5.30464 503.854 5.11811C504.349 5.27068 504.898 5.42028 505.391 5.57341C501.435 5.7814 498.201 5.98412 493.708 6.03482C488.637 4.91854 484.323 6.80156 486.072 5.27436C490.328 5.16983 492.708 4.9958 494.984 4.60667C492.191 4.557 489.395 4.50863 486.602 4.45897C485.787 4.62658 485.208 4.78993 484.244 4.96065C482.157 4.60471 477.317 4.75745 475.417 4.65305C466.518 4.16354 469.271 3.55641 461.148 4.57676C467.002 4.67618 466.993 5.17176 472.799 5.10347C471.546 5.45741 468.596 5.38407 470.505 5.80839C464.888 5.70388 466.704 5.32505 464.517 4.98873C462.632 4.6988 458.835 4.68256 459.049 4.30578C458.661 4.51294 458.361 4.71348 457.974 4.92037C454.335 4.91831 450.697 4.91817 447.059 4.9161C448.609 5.13237 450.16 5.34903 451.711 5.56426C450.539 5.64595 449.365 5.72732 448.193 5.809C439.244 5.13632 423.812 6.36918 426.277 4.6793C421.962 4.62549 421.423 4.83744 419.077 5.15718C418.818 5.02889 418.567 4.92218 418.308 4.77939C415.525 4.91369 413.388 4.43203 410.933 4.55724C408.477 4.68148 407.868 5.13644 407.51 4.3717C405.919 4.59106 404.338 4.77329 402.757 4.97714C401.803 4.80341 400.85 4.63168 399.906 4.45898C398.415 4.55004 396.92 4.64073 395.429 4.73179C394.632 4.36674 388.768 4.52409 386.183 4.27893C383.729 4.67244 383.796 5.9114 378.023 5.68939C378.172 5.3821 378.319 5.0757 378.468 4.76841C377.146 4.83256 375.821 4.89651 374.489 4.96066C374.409 5.06096 374.341 5.16126 374.261 5.26155C374.937 5.23051 375.604 5.19964 376.28 5.16756C375.693 5.33729 375.119 5.50623 374.542 5.67596C372.524 5.42452 370.503 5.17305 368.475 4.9216C371.209 4.73122 373.944 4.54072 376.677 4.35034C373.247 4.12473 370.859 4.34977 367.876 4.09828C365.282 4.52253 366.24 4.76698 367.293 5.22737C366.329 5.18806 365.354 5.15011 364.39 5.1108C365.026 5.57126 363.395 5.84562 369.031 5.8084C368.644 5.93973 368.249 6.06495 367.871 6.20145C366.946 6.18075 366.347 6.29176 365.333 6.24112C362.569 6.10244 360.449 5.29367 360.638 5.0101C360.74 4.86156 363.466 5.14563 363.357 4.93564C363.087 4.42356 356.835 4.65348 365.852 4.13917C362.859 3.81318 362.191 4.05903 358.89 4.15321C359.148 3.98257 359.399 3.81301 359.647 3.64237C358.117 3.72099 356.584 3.79933 355.054 3.87795C357.181 4.75449 345.896 5.08372 356.055 5.85051C353.053 5.88983 350.061 5.92936 347.069 5.97075C347.685 6.06077 348.301 6.14988 348.918 6.2399C350.27 6.1923 351.614 6.14548 352.966 6.09891C351.376 6.26342 349.782 6.42694 348.192 6.59144C344.434 6.38756 342.96 6.074 341.24 5.68695C345.614 5.4045 344.185 5.79032 347.593 5.86699C347.474 5.62187 347.631 5.39641 347.334 5.13888C345.572 5.6466 339.828 5.27723 338.495 5.2524C334.441 5.17698 337.62 5.67585 334.908 5.68634C332.194 5.69669 328.992 5.39976 326.775 5.89446C326.815 5.61719 326.992 5.33031 327.151 5.07785C322.925 4.98678 323.768 5.31433 323.331 5.35677C316.351 6.05428 312.563 5.46541 304.579 5.394C305.593 5.30811 306.618 5.23058 307.642 5.14987C301.618 4.56116 305.676 4.74142 310.906 4.54687C306.004 4.60586 303.196 4.1045 299.736 3.95547C296.276 3.8067 290.343 4.0642 288.175 4.2649C293.136 4.5878 298.488 4.37486 303.996 4.46387C303.37 4.74633 302.761 4.98538 302.115 5.29574C298.765 4.7029 296.823 5.0993 295.72 5.17794C292.479 5.40862 292.581 4.89979 290.623 5.4471C290.702 5.25882 290.76 5.10051 290.84 4.92466C284.148 5.00331 276.931 5.33617 272.576 4.64086C272.178 5.09308 271.878 5.52876 271.42 5.99028C268.587 5.64988 266.161 5.99847 263.775 5.91888C261.398 5.83919 262.303 5.47373 259.509 5.33297C258.992 5.3071 257.915 5.53584 256.643 5.36715C255.357 5.19756 250.618 3.93665 250.051 5.03818C247.655 5.04336 245.387 5.08364 243.041 5.10227C245.328 5.16436 247.615 5.2245 249.892 5.28659C247.944 5.55356 246.007 5.81974 244.058 6.08672C243.81 5.84868 243.561 5.60635 243.322 5.37142C238.072 5.08165 234.262 5.47083 228.963 5.37875C228.078 5.36322 230.165 4.89261 226.239 5.01255C222.312 5.1326 219.397 6.01097 212.707 5.6717C212.368 5.65411 210.387 4.98139 207.991 5.4471C207.446 5.55265 209.741 5.70884 208.489 5.84747C207.236 5.98615 201.646 6.10019 201.209 6.43033C201.268 6.31342 201.617 6.19228 201.786 6.07329C200.832 6.01742 199.868 5.96151 198.904 5.90668C198.814 6.1126 198.718 6.31882 198.628 6.52371C193.14 6.04456 190.303 5.26294 182.171 5.52156C184.457 5.2225 186.745 4.92224 189.022 4.62317C189.648 4.83326 190.276 5.04476 190.892 5.25485C194.64 5.17104 198.399 5.08783 202.146 5.00401C202.763 5.24308 203.369 5.48146 203.985 5.72053C204.979 5.68949 205.964 5.65941 206.958 5.62837C206.709 5.45555 206.458 5.28364 206.2 5.11082C208.168 5.15324 210.139 5.19656 212.097 5.23898C208.11 4.21886 200.963 5.32575 201.479 4.47242C200.594 4.60482 199.709 4.73814 198.824 4.87157C198.436 4.4578 196.638 4.57689 193.467 4.64209C194.193 4.43821 194.995 4.23711 195.661 4.03116C192.579 4.31883 187.111 4.2909 183.919 4.40163C182.517 4.45026 183.918 4.75025 183.501 4.78552C181.363 4.96973 177.277 4.44628 176.422 4.48768C171.311 4.73403 167.99 5.72642 162.412 5.07237C168.169 4.91092 165.037 4.97911 167.086 4.61585C167.727 4.50196 175.164 4.26437 165.851 4.36989C164.759 4.38309 147.86 5.06876 153.415 5.5942C150.681 5.42654 148.54 5.23268 146.034 5.05467C139.909 6.4394 142.029 5.13855 143.809 4.42238C142.805 4.41928 141.849 4.412 140.815 4.412C143.013 5.1644 131.817 5.21111 128.019 4.8313C126.746 4.70504 130.305 4.46421 127.362 4.35036C125.961 4.40313 124.371 4.47145 122.89 4.53041C125.037 4.05438 120.823 3.87093 120.882 3.38667C118.187 3.81819 116.126 4.73286 117.607 5.22862C115.38 5.02788 113.142 4.82739 110.915 4.62562C111.949 4.51075 112.997 4.39688 114.031 4.28201C106.752 4.58628 97.3936 3.89392 95.8723 4.91125C94.9078 4.90401 93.9331 4.89774 92.9687 4.8905C92.6704 4.7187 92.3821 4.54658 92.0838 4.37478C87.7198 4.52377 83.3656 4.67376 79.0016 4.82276C82.8873 4.92937 83.8123 5.1739 87.8873 4.97534C86.317 5.17292 84.7174 5.37159 83.1768 5.56918C77.042 5.03724 76.2051 4.68763 66.9684 4.84595C66.5508 4.85319 59.5718 5.29928 59.3331 5.34275C58.2398 5.54144 59.8994 5.83009 59.4126 5.93049C58.0603 6.21199 49.8432 6.91881 50.0023 7.02541C52.0108 8.33355 79.6576 8.35089 87.1349 8.41816C164.691 9.11565 240.539 8.18248 317.608 8.34185C318.401 8.34431 318.055 8.53742 318.393 8.54569C320.49 8.5942 322.55 8.29323 323.326 8.28082C324.983 8.25522 324.07 8.53329 325.281 8.53349C337.789 8.53038 349.593 8.36687 362.111 8.41447C362.927 8.41758 362.094 8.1951 363.526 8.23443C364.265 8.25596 366.579 8.59728 368.247 8.60245C374.074 8.62004 378.968 8.51061 385.113 8.51578C388.473 8.51887 393.515 8.48986 397.273 8.49503C398.932 8.49723 400.662 8.65338 402.301 8.6586C404.628 8.66584 404.153 8.3493 404.511 8.32963C406.082 8.24375 406.299 8.59118 407.791 8.58292C410.565 8.56636 410.714 8.33439 414.234 8.35405C416.749 8.36853 422.507 8.55168 425.679 8.6055C433.096 8.33644 442.443 8.44326 449.363 8.53226C453.46 8.58502 453.839 8.26024 455.51 8.26127C461.395 8.26756 465.862 8.68237 471.39 8.69582C478.726 8.71335 485.228 8.43906 492.335 8.41934C493.488 8.41624 493.223 8.71382 494.354 8.72145C498.54 8.7494 503.893 8.80355 507.622 8.76112C511.777 8.71449 513.31 8.28255 517.376 8.37052C518.569 8.39663 518.918 8.77536 520.916 8.82398C524.107 8.90045 527.606 8.56647 529.833 8.5292C532.886 8.47952 530.231 8.86535 534.348 8.81361C534.517 8.81137 535.133 8.53557 536.017 8.54873C538.592 8.58598 538.337 8.80318 542.105 8.78248C542.467 8.77962 547.463 8.51682 547.96 8.51577C550.883 8.51163 556.768 8.41962 558.499 8.47549C564.684 8.67419 559.815 9.08902 565.074 8.18864C567.39 8.40902 569.688 8.63239 572.143 8.84656C570.504 8.64682 577.154 8.3586 577.622 8.37722C581.487 8.52732 579.185 8.87765 584.086 8.81971C577.613 8.01039 590.409 8.71539 593.263 8.73609C607.004 8.83645 619.494 8.63448 633.305 8.63966C637.928 8.64178 644.124 8.81285 649.015 8.80871C650.155 8.80847 649.294 8.61694 650.297 8.6128C651.298 8.60996 650.188 8.82497 651.33 8.8136C658.439 8.73906 664.009 8.33336 670.522 8.84045C670.839 8.76713 670.829 8.7092 671.354 8.62867C676.683 9.08296 686.947 8.47203 690.805 8.3882C696.839 8.25788 698.38 8.56495 702.764 8.50294C708.561 8.42015 717.264 7.82025 713.377 8.81054C717.354 8.84157 721.182 8.85014 725.198 8.75805C725.645 8.74761 725.337 8.4959 725.516 8.49073C726.649 8.45459 727.018 8.67996 727.784 8.69031C729.86 8.71814 726.472 8.4483 729.432 8.52369C730.993 8.56405 731.879 8.76061 736.214 8.76476C762.345 8.78649 790.713 8.71609 817.5 8.68297C819.34 8.6809 818.129 8.92432 820.436 8.90879C828.449 8.85493 842.795 8.44528 849.705 8.5011C856.615 8.55698 855.056 8.91293 859.38 9.06198C860.215 9.09096 859.531 8.88809 860.286 8.88499C865.367 8.86634 871.425 8.54992 875.541 8.50231C878.263 8.47042 878.045 8.78956 879.933 8.81236C882.747 8.84547 885.644 8.52304 887.145 8.51269C894.203 8.46722 899.056 8.72693 905.648 8.59447C905.39 8.66471 905.219 8.72972 905.001 8.79893C912.806 8.78754 920.601 8.77613 928.405 8.76475C928.037 8.82891 927.682 8.89363 927.314 8.95883C936.471 8.92362 935.426 8.22818 934.62 9.69671C935.286 9.74844 935.992 9.80841 936.629 9.856C936.37 9.09952 941.909 8.54592 948.958 8.35339C949.475 8.3389 952.945 9.07649 952.567 8.20508C953.472 8.41827 954.011 8.56523 954.776 8.75254C956.267 8.48871 957.779 8.22801 959.27 7.96522C960.075 8.00454 960.891 8.04248 961.696 8.08179C961.816 8.25256 961.724 8.42986 961.982 8.59752C965.721 8.62339 973.388 8.41228 976.342 8.43395C983.68 8.4888 991.15 8.95048 996.858 8.45165C999.638 8.5025 996.877 8.83766 1001.01 8.79526C1001.48 8.62557 1001.92 8.46293 1002.41 8.28808C1005.78 9.04624 1006.49 8.58503 1011.12 8.42662C1014.25 8.319 1016.3 8.5043 1019.29 8.46812C1020.04 8.45881 1019.94 8.23628 1020.45 8.24352C1022.18 8.26647 1027.12 8.57276 1028.35 8.58103C1039.42 8.66174 1048.94 8.62738 1059.49 8.54563C1060.62 8.53735 1059.15 8.75696 1060.32 8.74765C1062.21 8.73302 1061.1 8.39557 1062.19 8.37901C1065.25 8.33473 1065.27 8.69057 1069.52 8.7092C1083.53 8.77021 1099.64 8.5029 1114.27 8.4791C1114.73 8.4791 1114.71 8.68759 1115.2 8.68966C1118.44 8.69985 1121.72 8.41803 1124.67 8.42112C1129.55 8.42526 1133.22 8.71816 1138.04 8.71712C1147.47 8.71609 1155.89 8.56611 1165.58 8.55783C1173.52 8.55058 1180.41 8.57839 1189.11 8.57736C1227.11 8.57321 1265.89 9.23499 1304.15 8.88312C1305.12 8.87381 1304.73 8.6896 1305.02 8.69758C1307.85 8.77726 1308.1 9.02581 1309.1 8.50533C1312.7 8.6079 1313.84 8.99894 1318.18 8.971C1320.5 8.95636 1318.77 8.35028 1322.69 8.66279C1326.22 8.9453 1322.32 9.27745 1332.84 8.93804C1333.12 8.92871 1334.49 8.55929 1336.67 8.65546C1338.87 8.75068 1336.33 9.01521 1341.62 9.09489C1354.04 9.28116 1369.75 8.96183 1384.19 9.0601C1385.1 9.06631 1393.81 9.26381 1395.53 9.35489C1398.86 9.53185 1398.16 9.80638 1402.49 9.87366C1405.83 9.92541 1408.58 9.61443 1412.51 9.67653C1412.97 9.68407 1413.74 10.0039 1416.69 9.96154ZM684.738 3.74854C683.923 3.43469 682.451 2.27949 677.521 2.63104C677.054 2.66415 679.577 3.45858 676.854 3.58497C679.518 3.6688 682.113 3.69595 684.738 3.74976C684.738 3.74935 684.738 3.74894 684.738 3.74854ZM1438.06 2.59558C1434.37 2.65353 1430.67 2.71095 1426.98 2.76891C1429.52 2.90862 1432.07 3.04806 1434.61 3.18881C1435.76 2.99118 1436.9 2.79321 1438.06 2.59558ZM978.848 3.14429C978.851 3.14429 978.855 3.14429 978.858 3.14429C974.981 2.99527 971.101 2.84596 967.223 2.69693C967.63 2.80663 968.039 2.9168 968.447 3.0265C971.509 3.1993 974.572 3.37187 977.624 3.54467C978.032 3.41119 978.44 3.27777 978.848 3.14429ZM1009.48 4.30573C1011.96 4.17533 1011.35 3.95541 1012.72 3.74119C1012.72 3.74159 1012.72 3.742 1012.72 3.74241C1013.08 3.68664 1014.75 3.63784 1015.4 3.6295C1015.16 3.76714 1014.85 3.90302 1014.59 4.03963C1020.37 4.37288 1031.67 3.18867 1017.04 2.71157C1017.26 2.8854 1017.47 3.05835 1017.69 3.23218C1010.42 3.18354 1002.32 3.56059 1009.48 4.30573ZM626.294 3.24808C620.09 2.67887 618.101 2.55886 610.574 2.94902C611.637 3.11036 612.7 3.27167 613.763 3.43301C615.006 3.26846 616.24 3.10503 617.483 2.94048C617.486 2.94048 617.49 2.94048 617.494 2.94048C617.742 3.1133 617.991 3.28643 618.23 3.45925C620.914 3.38888 623.61 3.31845 626.294 3.24808ZM1246.99 3.89436C1248.72 2.75753 1248.22 3.41832 1243.28 3.16197C1241.57 3.07297 1243.24 2.87406 1242.17 2.84094C1236.43 2.66005 1235.97 3.42172 1237.25 3.81807C1240.5 3.84497 1243.79 3.86952 1246.98 3.89436C1246.98 3.89436 1246.99 3.89436 1246.99 3.89436ZM1396.05 4.13054C1396.06 4.13054 1396.06 4.13054 1396.07 4.13054C1396.21 3.85325 1393.9 3.77866 1396.51 3.51594C1394.52 3.51698 1392.54 3.51918 1390.54 3.52022C1391.12 3.54605 1391.72 3.57067 1392.31 3.59651C1391.79 3.69172 1391.27 3.78814 1390.76 3.88336C1390.05 3.56463 1389.39 3.7499 1387.31 3.8565C1387.88 3.51603 1388.46 3.1753 1389.03 2.83483C1386.61 2.93622 1384.17 3.03798 1381.75 3.13938C1381.72 3.22518 1381.69 3.31113 1381.66 3.39693C1380.74 3.28727 1379.84 3.17641 1378.92 3.06675C1378.68 3.16918 1378.44 3.27069 1378.19 3.37313C1377.08 3.29554 1375.98 3.218 1374.88 3.13938C1374.54 3.38752 1376.97 3.49476 1372.66 3.43172C1373.98 3.68628 1375.3 3.94007 1376.64 4.19462C1383.11 4.17392 1389.58 4.15227 1396.05 4.13054ZM1202.05 3.54465C1209.18 3.59225 1207.17 3.41241 1205.52 2.84949C1204.37 3.08124 1203.2 3.31289 1202.05 3.54465ZM834.763 4.04575C832.695 3.66179 830.618 3.28167 828.5 2.91116C824.284 2.69694 820.066 3.39676 823.238 3.67101C827.057 4.00008 831.044 3.63179 834.763 4.04575ZM738.742 3.87487C743.9 3.69683 739.046 3.2406 737.883 2.97465C736.456 3.40207 734.466 3.36437 731.271 3.41408C734.272 3.44179 737.889 3.9051 738.742 3.87609C738.742 3.87568 738.742 3.87528 738.742 3.87487ZM917.771 3.61425C919.838 3.62573 921.894 3.73296 923.742 3.60265C923.185 3.23551 919.488 3.56953 922.132 3.02529C920.81 3.01597 919.486 3.00695 918.174 2.9966C919.007 3.2221 917.886 3.39062 917.776 3.61303C917.774 3.61343 917.773 3.61384 917.771 3.61425ZM1132.98 3.11193C1128.92 3.5466 1128.15 3.36061 1124.07 3.05945C1123.49 3.41335 1128.36 4.00616 1131.42 4.13666C1131.93 3.79517 1132.45 3.45343 1132.98 3.11193ZM173.417 3.29328C174.392 3.74438 181.578 3.80321 185.149 3.66985C184.723 3.60294 184.297 3.53515 183.872 3.46722C180.391 3.40927 176.897 3.35124 173.417 3.29328ZM729.75 3.44459C730.285 3.43138 730.792 3.42152 731.271 3.41408C730.738 3.40916 730.225 3.41685 729.75 3.44459ZM513.757 5.40252C515.457 5.82783 510.405 5.97072 516.539 5.80411C516.539 5.80452 516.539 5.80493 516.539 5.80534C520.596 5.69563 521.492 5.66634 525.25 5.63322C523.897 5.08687 516.272 4.89157 526.781 4.77877C526.92 4.77827 526.644 5.10338 528.323 5.05891C528.841 5.04509 530.5 4.77827 533.023 4.70065C533.839 4.67581 539.965 4.59353 531.614 4.58835C531.862 4.2075 531.414 3.82201 531.434 3.45255C528.174 3.34517 525.668 4.09093 522.219 4.07263C517.099 4.04366 514.493 3.28953 513.508 4.27892C517.814 4.522 525.208 4.52785 526.172 3.93287C530.338 3.92563 531.534 4.41309 528.175 4.65427C513.787 4.34793 524.225 5.37785 511.627 4.98873C511.478 4.85113 510.96 4.70304 511.039 4.57371C507.194 5.05794 513.151 5.25041 513.757 5.40252ZM543.843 4.35033C541.357 4.05951 538.88 3.76637 536.404 3.47452C536.404 3.9485 537.769 4.37384 541.686 4.64084C542.402 4.54364 543.128 4.4465 543.843 4.35033ZM334.739 4.22584C334.381 3.96815 333.427 3.73201 332.731 3.48674C331.975 3.70407 314.077 3.91256 323.182 4.12575C324.505 4.1568 332.571 3.70113 334.739 4.22584ZM1161.15 3.5001C1159.04 3.67293 1156.94 3.84604 1154.84 4.01887C1158.07 4.1285 1161.3 4.24101 1164.53 4.35271C1163.4 4.06858 1162.28 3.78423 1161.15 3.5001ZM800.449 4.498C801.339 4.48833 798.382 4.13393 801.89 4.18979C799.275 3.96314 796.826 3.7713 794.271 3.55811C793.505 3.72577 792.732 3.89274 791.966 4.0604C791.369 3.95277 790.761 3.84579 790.165 3.73815C790.522 3.9824 790.841 4.22094 791.219 4.46932C795.524 3.94565 796.512 4.5394 800.449 4.498ZM928.469 5.45314C929.243 4.92233 923.009 4.60667 929.142 4.52179C927.978 4.17305 926.108 3.99012 922.518 3.95908C921.942 4.09245 921.367 4.22485 920.791 4.35823C920.711 4.00133 919.788 3.86867 917.771 3.61425C917.769 3.61465 917.767 3.61506 917.766 3.61547C912.309 3.58963 912.635 3.70863 911.323 4.29537C917.099 3.96419 917.272 4.50026 921.21 4.81902C923.914 5.03821 927.445 4.93894 928.469 5.45314ZM353.808 4.23194C349.723 3.78386 353.389 3.36592 346.141 3.84195C346.609 3.95579 347.078 4.06866 347.545 4.18251C349.633 4.2001 351.721 4.21642 353.808 4.23194ZM948.63 3.63377C948.163 4.45545 944.316 5.09506 943.66 3.75828C947.408 3.4861 945.578 4.24331 948.63 3.63377ZM740.501 5.16143C747.709 5.12309 746.346 4.19569 743.383 3.73205C742.926 3.90075 742.469 4.06974 742.021 4.2374C740.759 4.16082 739.496 4.08408 738.233 4.00853C738.989 4.39248 739.745 4.77747 740.501 5.16143ZM1075.71 4.53643C1070.2 3.94963 1081.65 4.21008 1077.8 3.84371C1074.73 3.55086 1070.68 4.14213 1072.21 4.51263C1073.28 4.52298 1074.46 4.53022 1075.7 4.53643C1075.7 4.53643 1075.7 4.53643 1075.71 4.53643ZM1043.83 4.36859C1044.73 3.74163 1043.43 3.92438 1047.78 4.03719C1049.03 4.06927 1058.9 3.8338 1054.76 4.35333C1051.23 4.35333 1047.5 4.36238 1043.83 4.36859ZM657.18 4.24412C657.114 4.51715 664.719 5.11667 665.695 4.96674C665.695 4.96715 665.695 4.96755 665.695 4.96796C668.33 4.55917 660.308 4.50109 663.787 3.94018C656.082 4.43375 653.777 3.23989 654.314 4.81294C658.853 4.88195 656.704 4.55768 657.18 4.24412ZM79.0598 4.57863C79.0563 4.57863 79.0528 4.57863 79.0492 4.57863C79.5599 4.56579 83.7681 4.16508 83.2563 4.02629C78.1958 4.14529 79.0977 4.40905 74.3865 3.97563C74.1282 4.11523 73.9069 4.25063 73.6288 4.39126C75.4981 4.47405 76.5343 4.64176 79.0598 4.57863ZM315.388 4.77635C317.248 4.84776 320.641 4.55186 322.759 4.56945C316.017 3.43312 307.961 4.49276 315.388 4.77635ZM1326.34 4.09148C1326.33 4.09108 1326.33 4.09067 1326.32 4.09026C1326.32 4.09088 1326.32 4.09147 1326.33 4.09209C1326.33 4.09189 1326.33 4.09169 1326.34 4.09148ZM459.473 4.09461C459.233 4.16837 459.098 4.23245 459.049 4.28869C459.049 4.29398 459.049 4.29927 459.049 4.30456C459.179 4.23549 459.317 4.16564 459.473 4.09461ZM641.374 4.16173C638.207 4.5425 648.76 5.14786 652.173 5.00336C651.934 4.82957 651.897 4.672 651.341 4.47238C648.587 4.92244 641.901 4.09757 641.374 4.16173ZM881.984 4.30147C873.642 4.31182 884.498 5.81527 884.946 4.61579C884.929 4.59255 882.2 4.30352 881.984 4.30147ZM707.162 4.31919C709.287 4.77437 705.016 4.89524 711.846 4.8166C712.243 4.69869 712.641 4.58051 713.038 4.46261C711.08 4.41502 709.12 4.36678 707.162 4.31919ZM827.334 6.27526C816.835 6.02171 806.793 5.57441 813.632 4.31918C814.427 4.3595 815.232 4.39848 816.027 4.4388C816.146 5.0512 819.079 4.71691 823.371 4.69696C823.983 4.94009 826.363 4.99631 826.81 5.20292C827.673 5.6023 824.938 5.88308 827.334 6.27526ZM1270.61 5.27856C1270.44 5.17403 1270.28 5.06896 1270.11 4.96547C1268.45 4.84749 1266.78 4.73007 1265.12 4.61209C1265.39 4.81269 1265.66 5.01327 1265.93 5.21387C1267.49 5.23559 1269.04 5.25745 1270.6 5.27917C1270.6 5.27897 1270.61 5.27877 1270.61 5.27856ZM554.075 5.64238C553.121 4.49186 556.454 4.70376 563.215 5.28534C560.172 5.40435 557.117 5.52336 554.075 5.64238ZM996.052 5.80895C996.271 5.4821 996.486 5.15625 996.715 4.82939C1000.3 5.16988 999.638 5.54419 997.918 5.97679C997.292 5.92096 996.678 5.86478 996.052 5.80895ZM1047.76 5.9481C1046.27 6.01629 1047.03 5.75239 1046.87 5.75768C1043.1 5.89636 1042.57 6.01742 1037.95 5.81872C1037.38 5.74939 1036.82 5.6765 1036.26 5.6051C1038.4 4.9202 1039.95 5.29349 1044.47 4.89103C1043.66 5.12596 1042.84 5.36121 1042.03 5.59717C1044.54 5.54751 1047.05 5.49853 1049.56 5.44886C1049.86 5.52131 1050.16 5.59308 1050.46 5.66552C1049.56 5.75864 1048.64 5.86328 1047.76 5.9481ZM1289.81 4.98133C1292.26 4.95443 1294.72 4.92646 1297.16 4.89955C1297.25 5.06823 1297.34 5.23805 1297.43 5.40673C1294.89 5.26498 1292.35 5.12308 1289.81 4.98133ZM503.854 5.11811C503.66 5.05828 503.471 4.99808 503.303 4.93685C503.32 5.01147 503.532 5.06972 503.854 5.11811ZM72.6061 5.50388C69.8325 5.62184 65.8355 5.54438 62.7931 5.56918C63.0323 5.14601 70.765 5.26298 73.4804 5.00646C73.9167 5.08239 73.7786 5.45424 72.6061 5.50388ZM750.473 5.1242C751.169 5.33529 751.864 5.54539 752.55 5.75649C754.23 5.73372 755.914 5.70968 757.605 5.68691C757.654 5.85974 757.703 6.03407 757.753 6.20691C750.307 5.98237 752.024 6.48074 748.337 6.97225C749.053 6.35659 749.757 5.74089 750.473 5.1242ZM1367.64 6.07746C1362.26 5.96052 1360.35 5.74209 1363.38 5.22362C1365.28 5.3426 1367.19 5.46169 1369.09 5.58066C1368.6 5.74621 1368.12 5.91192 1367.64 6.07746ZM405.888 5.50873C401.387 5.315 401.312 6.01082 396.913 5.62225C399.269 5.49395 401.624 5.36422 403.97 5.23592C404.604 5.32663 405.254 5.418 405.888 5.50873ZM626.66 7.41963C624.761 7.66169 621.211 6.51104 615.872 7.36043C614.6 7.10692 613.802 6.86478 612.709 6.61644C612.072 6.88656 611.35 7.16013 610.743 7.42817C610.74 7.42817 610.736 7.42817 610.733 7.42817C605.89 7.3371 609.03 6.99833 608.92 6.71165C608.869 6.59281 605.275 6.79147 606.398 6.53283C608.337 6.08885 615.582 6.34415 615.602 5.80289C613.057 5.97978 608.086 5.83196 609.556 5.47087C611.167 5.07453 615.851 5.73875 618.834 5.40984C614.56 6.27493 623.388 6.00771 624.392 5.34331C629.573 5.85352 624.811 6.06165 619.502 6.03786C622.743 6.54703 617.972 6.27194 617.186 6.69517C620.529 6.95066 631.999 6.73769 626.66 7.41963ZM871.064 6.48154C867.483 6.44871 861.89 6.73974 859.439 6.31004C858.011 6.05969 863.617 5.86583 859.751 5.47268C863.239 5.51101 864.035 5.66459 863.439 6.00915C864.234 6.05052 865.039 6.09088 865.834 6.13122C866.202 6.06399 866.579 5.99765 866.947 5.93042C867.364 6.07219 867.784 6.21283 868.192 6.35459C869.036 6.32667 869.891 6.29871 870.735 6.26976C870.835 6.34104 871.003 6.40308 871.064 6.48154ZM276.64 5.48738C277.634 5.49152 278.618 5.49563 279.612 5.50081C279.503 5.58472 279.372 5.67211 279.246 5.75836C279.156 5.82651 279.066 5.89467 278.976 5.96282C279.552 5.71932 284.288 5.31462 286.283 5.57465C287.286 5.7051 285.004 6.16822 289.256 6.24906C286.174 6.22524 283.32 6.16204 280.327 6.12272C280.596 6.26037 280.854 6.39949 281.122 6.53713C281.12 6.53733 281.119 6.53754 281.117 6.53774C280.123 6.56878 279.117 6.6013 278.123 6.63234C277.626 6.25045 277.137 5.86927 276.64 5.48738ZM993.138 6.45529C989.747 6.18517 988.613 6.0449 990.213 5.60816C990.217 5.60796 990.22 5.60775 990.224 5.60755C991.487 5.80105 992.75 5.99447 994.013 6.18796C993.724 6.27697 993.437 6.36628 993.138 6.45529ZM474.648 6.5597C467.44 4.90077 483.674 5.91771 480.583 6.48279C480.444 6.50867 475.325 6.37651 474.648 6.5597ZM739.176 5.67166C741.155 5.68511 743.138 5.69726 745.126 5.71072C744.669 5.9146 744.201 6.11777 743.743 6.32165C742.222 6.10535 740.697 5.88795 739.176 5.67166ZM1344.22 6.8306C1342.14 7.28598 1336.79 7.45096 1334.18 6.95572C1335.55 6.89776 1336.92 6.83973 1338.29 6.78178C1335.7 6.72488 1333.14 6.66225 1330.52 6.60845C1330.38 5.97404 1333.39 6.34209 1337.93 6.16718C1338.63 6.13898 1343.12 5.35149 1344.67 5.94503C1344.98 6.06702 1340.21 6.14997 1343.52 6.50469C1342.07 6.53261 1340.82 6.52642 1339.45 6.54192C1339.35 6.69302 1339.25 6.84429 1339.14 6.99539C1340.84 6.94068 1342.52 6.88531 1344.22 6.8306ZM850.219 6.43211C845.301 6.46712 844.694 6.21363 843.67 5.76564C845.957 5.81635 848.245 5.86628 850.532 5.91699C850.422 6.08834 850.328 6.25973 850.219 6.43211ZM1300.26 6.97586C1297.57 7.04914 1298.72 6.68449 1297.64 6.61516C1293.54 6.35441 1290.75 6.61502 1286.7 6.4516C1286.97 6.52197 1287.22 6.58775 1287.48 6.65606C1287.47 6.65606 1287.47 6.65606 1287.47 6.65606C1268.31 6.96339 1278.37 6.1364 1289.83 6.27094C1290.1 6.13537 1290.36 5.99962 1290.63 5.86508C1295.76 6.10206 1300.49 6.3301 1300.26 6.97586ZM538.693 6.61645C538.474 6.70131 540.333 7.24061 536.843 6.98814C534.08 6.20074 538.612 6.59155 539.747 6.28871C538.803 6.21316 537.836 6.13966 536.902 6.06411C542.55 5.8416 543.374 6.02882 541.315 6.60424C541.169 6.64291 538.912 6.53186 538.693 6.61645ZM501.576 7.00462C500.8 5.84447 507.928 6.36616 507.669 6.72631C506.685 6.74067 505.921 6.54424 504.877 6.6311C503.823 6.71802 503.554 6.98901 501.576 7.00462ZM705.779 6.7208C705.57 6.72597 703.472 7.21357 703.681 6.83188C706.276 5.92839 711.505 6.50994 710.59 6.82455C708.861 6.80899 707.707 6.67342 705.779 6.72202C705.779 6.72161 705.779 6.72121 705.779 6.7208ZM1376.66 7.10402C1376.56 7.13639 1371.32 7.33238 1370.65 7.15041C1370.09 6.94553 1369.82 6.72596 1369.4 6.51384C1372.28 6.71048 1378.12 6.56069 1376.65 7.10402C1376.65 7.10402 1376.65 7.10402 1376.66 7.10402Z" fill="white"/>
<path d="M115.34 79.0331C112.202 79.4841 122.678 79.1885 115.722 79.862C117.172 79.9075 118.632 79.9544 120.082 79.9999C120.45 79.7505 120.827 79.5017 121.195 79.2522C119.247 79.1788 117.298 79.1054 115.34 79.0319C115.34 79.0323 115.34 79.0327 115.34 79.0331ZM112.68 75.9095C114.465 76.6209 120.138 76.8106 114.01 77.4671C113.523 77.2229 113.024 76.9788 112.537 76.7347C110.41 76.924 108.269 77.1133 106.142 77.3017C105.377 77.2086 104.612 77.1154 103.847 77.0234C102.873 77.4476 101.907 77.873 100.933 78.2983C101.798 78.2362 102.675 78.173 103.54 78.1109C106.96 78.4555 110.003 78.5497 114.646 78.6138C114.239 78.7142 113.83 78.8137 113.422 78.9141C115.778 78.7434 118.133 78.5722 120.48 78.4015C118.442 78.2338 116.163 78.0474 114.275 77.8912C117.297 77.226 122.628 77.5962 125.402 77.735C129.181 77.9244 128.326 77.6081 131.13 77.7405C131.577 77.7612 131.628 78.0091 132.513 78.0133C136.978 78.033 145.648 77.9015 140.577 77.323C133.229 77.3975 126.963 76.933 119.754 77.1027C121.661 76.4338 117.863 76.2061 112.68 75.9095ZM247.667 78.0395C245.441 77.7147 240.906 77.8458 237.833 78.0713C237.829 78.0713 237.826 78.0713 237.823 78.0713C237.146 78.121 235.615 78.5527 237.823 78.5351C241.421 78.505 243.161 77.8253 245.05 78.2867C245.895 78.2008 246.783 78.1244 247.667 78.0395ZM255.488 78.0798C257.695 77.9132 256.694 77.4011 253.93 77.5397C253.93 77.5393 253.93 77.5389 253.93 77.5385C252.777 77.5964 255.041 78.0012 250.905 77.5904C250.06 77.91 249.228 78.2008 248.393 78.5101C249.406 78.5153 250.33 78.5237 251.392 78.5278C250.678 78.0024 253.281 78.2451 255.488 78.0798ZM144.307 77.6123C144.655 78.085 143.201 78.082 140.726 78.41C143.062 78.3945 145.399 78.3779 147.725 78.3624C146.582 78.1121 145.451 77.8627 144.307 77.6123ZM89.4193 77.6855C89.4155 77.6855 89.4125 77.6855 89.4087 77.6855C88.6432 77.611 87.8755 77.5363 87.1196 77.4628C86.6625 77.6315 86.2098 77.7994 85.7527 77.9681C83.0479 77.8098 80.3293 77.6515 77.6246 77.4921C77.9531 78.0074 82.808 77.9235 85.4824 78.2837C89.4594 78.1284 91.3754 77.8293 91.634 77.3926C90.8984 77.4898 90.1648 77.5883 89.4193 77.6855ZM739.844 75.6313C740.749 75.774 741.642 75.9169 742.547 76.0597C741.344 76.1249 740.151 76.1746 738.938 76.2501C735.767 75.6293 735.469 76.1785 731.314 76.1403C718.577 76.0223 721.956 75.058 710.453 76.4705C719.689 76.4033 716.139 77.067 721.707 77.5782C722.861 77.1891 717.343 76.3114 721.082 76.1293C727.524 76.5411 733.719 76.9247 740.867 77.1906C740.658 77.2579 740.45 77.3254 740.242 77.3927C739.108 77.3502 737.984 77.3075 736.851 77.2651C738.074 77.4452 739.269 77.6237 740.512 77.8058C738.941 77.3971 742.945 77.6255 742.409 77.1558C742.17 76.9468 740.401 76.6568 739.357 76.457C742.051 76.3484 744.814 76.2489 747.538 76.1433C746.127 75.9768 744.716 75.81 743.315 75.6435C742.162 75.6383 741.018 75.6346 739.866 75.6294C739.858 75.63 739.852 75.6307 739.844 75.6313ZM1319.7 77.8047C1316.28 77.3183 1310.07 77.2378 1306.8 77.779C1311.1 77.7873 1315.4 77.7964 1319.7 77.8047ZM91.8937 77.0325C91.5063 77.1152 91.1311 77.197 90.7439 77.2797C92.454 77.4328 94.1737 77.5849 95.8835 77.738C96.2115 77.4991 96.5471 77.2601 96.885 77.0221C95.2247 77.0252 93.554 77.0294 91.8937 77.0325ZM201.289 77.2986C200.038 77.2842 199.927 77.292 198.369 77.3261C198.371 77.3259 198.373 77.3257 198.375 77.3255C197.757 77.3382 192.59 77.4778 193.166 77.6618C195.731 77.6649 198.468 77.6618 201.093 77.6618C201.172 77.5407 201.189 77.4207 201.289 77.2986ZM171.092 77.406C171.089 77.4064 171.085 77.4068 171.081 77.4072C170.147 77.4352 169.263 77.4921 168.3 77.5025C171.769 77.792 172.317 77.2725 175.469 77.4195C178.62 77.5674 180.568 77.8541 183.242 77.1424C182.247 77.0358 181.177 76.8833 180.153 76.7591C175.679 77.0437 174.474 76.7759 170.885 76.4954C170.955 76.7996 171.023 77.1018 171.092 77.406ZM683.139 77.071C682.284 76.7192 681.33 77.0644 681.231 77.0686C681.233 77.069 681.235 77.0694 681.236 77.0698C673.663 76.7439 682.222 77.2645 675.074 77.3194C676.138 77.4073 677.184 77.5002 678.237 77.5892C679.867 77.4195 681.549 77.2272 683.139 77.071ZM437.055 77.1039C436.986 77.2064 436.903 77.3091 436.833 77.4115C441.128 77.3877 442.224 77.7911 445.793 77.4238C442.88 77.3161 439.968 77.2093 437.055 77.1027C437.055 77.1031 437.055 77.1035 437.055 77.1039ZM222.939 76.5534C218.176 76.3578 214.653 76.2716 210.079 76.5821C210.075 76.5825 210.072 76.5829 210.068 76.5833C209.805 76.6024 211.08 76.8168 210.736 76.8708C209.793 76.8387 208.818 76.7894 207.864 76.7512C207.735 76.9228 207.612 77.0944 207.483 77.265C210.167 77.2164 212.853 77.1678 215.547 77.1192C215.15 77.2196 214.742 77.3191 214.344 77.4195C216.631 77.4712 218.909 77.5227 221.196 77.5745C220.4 77.2931 219.607 77.0116 218.822 76.7292C220.193 76.6702 221.567 76.6134 222.939 76.5534ZM508.565 75.9828C507.81 76.0946 509.209 76.282 508.036 76.3783C506.862 76.4733 504.699 76.2647 505.206 76.5803C506.786 76.6227 508.445 76.6713 510.054 76.7158C504.874 77.2848 499.706 76.7699 499.627 77.4726C504.598 77.2904 508.686 77.3751 513.498 77.5696C513.299 77.0119 508.486 76.5296 511.517 76.006C510.543 75.9987 509.52 75.9882 508.576 75.984C508.573 75.9836 508.569 75.9832 508.565 75.9828ZM22.3124 70.0382C19.3694 70.0806 12.6256 69.853 8.90698 70.178C7.99194 70.2581 4.94385 71.2954 4.95947 71.4322C5.04883 71.8927 8.77136 71.9554 4.78467 72.2555C6.12586 72.2586 7.42737 72.2759 8.75855 72.2842C8.5199 72.5936 8.28272 72.9023 8.05383 73.2107C6.43323 73.1641 4.81043 73.1173 3.18982 73.0697C3.11011 73.1721 3.03101 73.2748 2.95129 73.3773C8.77808 73.3794 5.33838 73.7748 8.36121 74.1432C5.57764 74.3295 2.77356 74.5148 4.63237e-07 74.7011C1.60059 74.6783 3.4895 74.6614 4.90125 74.6345C5.09009 75.1592 1.72168 75.0341 1.14453 75.1313C-2.10669 75.6808 14.4459 75.4035 15.8004 76.1671C13.1563 76.2519 10.3813 76.3347 7.67773 76.4185C8.453 76.5127 9.23877 76.6069 10.0144 76.7011C16.1484 76.1745 23.0277 75.9879 30.1755 75.6599C30.8213 75.6816 31.4686 75.7039 32.1042 75.7246C31.9154 75.9615 31.7368 76.1975 31.5479 76.4344C32.5225 76.4623 33.5089 76.4901 34.4833 76.518C31.6104 75.7377 35.5887 75.7484 40.3912 75.2723C37.8364 74.9981 34.6843 75.1644 34.9019 74.6535C43.6709 75.0465 53.9403 74.491 62.4706 74.9348C64.588 75.0445 64.5814 75.7036 69.5601 75.6428C69.3912 75.5704 69.3619 75.4396 69.2528 75.3444C77.8635 75.66 83.0878 75.8487 92.0367 75.5268C91.5201 75.7637 91.0115 76.0016 90.4949 76.2385C88.5958 76.1205 86.6934 76.0006 84.8042 75.8827C83.512 76.2738 85.4216 76.4465 79.7546 76.4423C75.1112 76.4392 77.8752 76.2665 76.6125 76.1506C74.9028 75.9923 73.4019 76.3036 71.563 76.1268C70.1411 75.9912 71.6793 75.6685 67.9705 75.7502C69.4622 76.1683 70.9834 76.6001 72.485 77.0233C73.3896 76.9292 74.2878 76.8335 75.1925 76.7383C74.2781 76.6266 73.3783 76.5163 72.4637 76.4045C75.6848 76.6052 78.729 76.7946 82.0594 77.0026C80.976 76.3982 84.4181 76.6248 86.2878 76.6962C89.1998 76.8079 86.705 76.3919 88.6139 76.4612C90.5231 76.5316 92.5817 76.9964 96.032 76.897C94.1829 76.628 96.6984 76.3867 96.212 76.1384C95.7251 75.8901 92.0754 75.8351 95.5815 75.5641C102.323 75.77 95.0077 76.7157 99.5608 76.8689C105.029 77.0531 106.33 75.5116 104.7 75.1802C103.418 74.9194 99.0043 74.9718 97.7115 74.7121C105.616 74.2433 105.685 75.1687 107.037 75.3499C111.949 76.009 108.649 74.2496 114.466 74.886C114.356 74.557 114.268 74.2611 114.158 73.9455C115.162 74.0055 115.828 74.0853 117.041 74.1329C113.465 74.7739 116.392 74.7465 117.894 74.7475C120.261 74.7495 116.605 75.0622 117.232 75.143C118.922 75.359 121.595 75.2609 119.955 75.5433C120.691 75.4119 121.488 75.2801 122.244 75.1497C125.009 75.3134 131.507 76.6867 125.323 76.4094C125.899 76.9196 127.9 76.6744 129.461 76.5967C131.022 76.5192 130.992 76.8441 132.365 76.7841C137.823 76.544 134.252 75.9882 133.387 75.5525C140.595 75.8526 133.538 76.0511 143.926 76.2519C144.93 76.6069 140.131 76.9857 144.127 77.1906C144.864 76.5739 147.806 76.1309 153.543 75.926C154.1 76.0678 154.655 76.2108 155.212 76.3526C158.344 75.7834 156.743 75.1915 162.54 75.8973C159.428 74.5985 161.568 75.4294 166.758 74.9007C167.812 74.7941 165.376 74.5246 166.848 74.388C167.515 74.3264 169.134 74.5298 170.763 74.3727C171.559 74.2951 175.277 73.7943 177.853 74.0322C175.964 74.6614 180.857 75.1967 176.661 75.7173C184.417 75.5889 189.844 75.8911 181.154 75.0331C183.123 74.8427 185.093 74.6531 187.062 74.4637C188.434 74.6137 189.818 74.7626 191.2 74.9116C191.409 74.3945 191.199 74.2494 196.605 74.3404C194.259 74.2183 191.924 74.0942 189.568 73.9711C189.489 73.8667 189.161 73.7582 189.24 73.6568C192.125 73.8555 200.248 73.9409 202.216 74.0786C204.185 74.2162 200.383 74.2539 200.95 74.3874C205.672 75.4883 205.297 74.6763 208.686 74.8653C210.674 74.977 205.926 75.0984 206.99 75.146C210.935 75.3205 212.765 74.7354 216.263 74.7279C215.02 75.06 213.787 75.3973 212.575 75.7325C216.244 75.7149 220.334 75.712 223.744 75.8186C225.083 75.8602 224.072 76.1072 224.29 76.1237C225.375 76.2086 229.789 76.343 230.256 76.3441C233.774 76.346 233.875 76.0039 237.293 75.9852C235.951 75.9562 234.689 75.9301 233.377 75.9022C232.781 75.3476 232.172 74.7929 231.576 74.2372C234.926 74.1969 238.278 74.1574 241.638 74.117C239.182 74.3022 236.718 74.4866 234.262 74.6718C238.1 75.1199 241.938 75.569 245.776 76.0182C247.774 75.7429 249.765 75.4677 251.763 75.1924C257.19 75.265 256.098 76.3824 258.673 75.4036C260.273 75.4863 261.873 75.569 263.473 75.6508C263.245 75.5111 263.018 75.3711 262.79 75.2315C264.718 75.3174 266.647 75.4027 268.576 75.4896C266.548 75.9843 264.559 76.5048 262.551 76.9849C266.347 77.0924 266.42 76.6728 266.986 76.5681C268.488 76.2907 271.468 76.6648 272.661 76.4082C273.064 76.32 269.344 76.0438 270.626 75.7252C270.877 75.6635 275.857 74.4923 279.035 74.7627C278.976 74.9749 278.73 75.235 278.601 75.4658C282.875 75.5947 285.054 74.4872 284.487 74.1768C286.764 74.3941 290.092 74.4123 290.56 74.7518C291.723 74.76 292.878 74.7679 294.041 74.7762C292.829 73.9495 297.681 74.1006 297.999 74.8116C296 74.8292 293.999 74.8477 292.001 74.8653C293.512 75.7367 287.439 76.2626 300.076 75.4555C302.492 75.0022 295.781 75.5172 297.75 75.1778C301.17 74.9802 304.381 75.1455 307.632 74.8299C311.677 74.4356 306.7 74.0564 316.125 74.5583C295.335 75.8157 318.977 75.4077 328.741 75.7978C331.426 74.5559 339.672 74.1626 351.027 74.532C349.844 74.8777 346.272 74.6996 344.213 74.8134C342.155 74.9272 344.382 75.1323 341.818 75.2937C339.254 75.4551 333.807 75.6745 331.211 75.9187C333.41 76.1143 344.263 76.5768 337.087 76.0212C342.444 75.6787 344.96 75.3268 351.6 75.2626C353.588 75.8018 353.441 76.1375 359.913 76.1531C356.085 75.4038 363.44 74.8831 361.821 74.1091C357.231 74.2894 359.796 75.0417 357.142 75.4017C356.87 75.4377 352.594 75.2491 351.6 75.2626C355.915 74.5868 357.407 74.3352 354.752 73.5311C357.805 73.6015 359.704 73.5005 359.982 73.8845C360.618 73.7179 361.258 73.5512 361.884 73.3846C362.877 73.3888 363.772 73.4042 364.825 73.4011C363.375 73.9803 366.186 73.6238 368.184 73.8863C370.183 74.1492 367.501 74.6064 372.99 74.6126C371.16 74.7482 369.488 74.8645 367.718 74.9928C371.257 75.1418 374.808 75.2918 378.347 75.4408C375.861 75.7947 370.474 76.3204 370.622 76.786C372.252 76.6102 377.836 76.9191 378.448 76.9318C380.814 76.9794 379.524 76.6858 379.703 76.6785C383.421 76.5358 386.483 76.6358 387.895 76.1909C390.689 76.3916 392.796 76.2772 395.758 76.2885C397.389 76.2948 397.072 76.6216 398.026 76.5595C404.369 76.1456 398.326 75.7233 410.562 76.5272C409.081 76.7548 407.619 76.9877 406.138 77.2175C407.52 77.3034 408.894 77.3897 410.276 77.4756C411.201 77.4342 412.117 77.3925 413.042 77.3511C413.022 76.8575 412.998 76.3629 412.979 75.8693C413.993 75.8424 415.011 75.8162 416.025 75.7893C414.285 75.7407 412.541 75.6921 410.801 75.6434C410.642 75.5566 410.494 75.4697 410.335 75.3828C412.92 75.2483 415.496 75.1125 418.081 74.977C418.131 75.1487 418.18 75.3216 418.23 75.4933C424.056 75.2542 424.195 75.1089 429.733 75.5818C433.998 75.5766 437.472 76.2946 439.938 76.5968C440.823 76.5005 441.708 76.4031 442.603 76.3069C443.17 76.4497 443.743 76.5919 444.309 76.7347C445.433 76.536 446.572 76.3373 447.695 76.1396C448.321 76.5906 448.646 76.7314 444.262 76.8897C445.763 77.4506 453.481 77.2032 456.623 77.0148C459.007 76.8719 456.362 76.4041 456.66 76.3471C457.656 76.1538 461.584 76.3206 462.409 76.2886C465.899 76.1551 468.345 76.1784 471.496 76.0749C472.11 76.0542 473.825 75.7577 473.971 75.7484C475.104 75.6977 477.902 75.5536 478.22 75.5495C494.633 75.3281 477.096 76.6145 492.357 76.479C491.9 76.6486 491.48 76.8171 491.032 76.9868C492.185 76.9971 493.35 77.0069 494.503 77.0173C495.965 76.8755 494.196 76.6177 497.099 76.8256C496.91 76.6166 496.721 76.4075 496.522 76.1995C497.784 76.3123 499.002 76.4242 500.294 76.537C502.323 75.8115 509.728 75.6468 509.201 74.7951C509.022 74.5053 503.773 74.208 506.547 73.8985C508.801 73.8376 507.275 74.1837 508.195 74.2019C514.837 74.3281 514.451 73.843 517.165 73.9724C517.592 74.1803 518.042 74.3923 518.479 74.6022C519.503 74.5412 520.529 74.4802 521.563 74.4191C521.802 74.5589 522.05 74.6987 522.289 74.8384C521.324 74.8478 520.238 74.8572 519.353 74.8665C520.587 75.4077 531.919 75.6507 527.598 75.1894C525.838 75.0021 522.615 75.0816 524.652 74.4423C527.684 74.5344 531.125 74.6285 534.317 74.7206C534.416 74.583 534.509 74.4451 534.608 74.3075C538.909 74.3966 534.998 74.9469 535.005 75.2419C535.99 75.2501 536.984 75.2574 537.967 75.2657C538.384 75.1323 538.781 74.9927 539.218 74.8635C539.258 75.0757 539.809 75.569 542.741 75.3859C544.627 75.2667 541.658 74.7312 545.253 74.8055C544.984 75.1366 543.685 75.5399 547.69 75.6465C548.088 75.3009 548.638 74.9843 548.946 74.6212C553.927 74.9532 556.193 74.4195 562.039 74.8055C565.748 75.0497 570.828 75.9168 573.224 74.5809C575.937 74.5457 575.076 74.8784 575.879 74.9532C579.667 75.3071 582.485 74.6737 583.191 74.6364C587.693 74.3976 589.712 74.6169 593.38 74.3178C593.181 74.5652 593.073 74.7993 592.914 75.0405C589.553 74.67 587.851 74.6873 583.138 74.767C584.719 74.8167 586.3 74.8675 587.88 74.9172C587.622 75.1179 587.366 75.3187 587.117 75.5183C572.541 74.7277 575.941 75.9769 588.161 76.2501C589.215 75.8787 590.307 75.5082 591.351 75.1357C598.41 75.6986 601.732 75.2099 609.716 75.0929C610.665 75.0796 614.122 75.2936 615.608 75.3041C615.583 75.3055 615.558 75.307 615.534 75.3084C616.458 75.6592 615.206 75.8206 615.057 76.1342C615.862 76.1735 616.668 76.2126 617.473 76.2519C619.271 76.0129 618.639 75.8166 622.178 75.8736C621.701 76.1116 621.23 76.3496 620.753 76.5876C624.631 76.5959 627.168 76.3373 630.778 76.4491C630.171 76.359 629.572 76.2688 628.966 76.1787C636.821 75.949 630.569 74.5496 636.506 75.2461C636.883 75.1241 637.251 75.0008 637.629 74.8787C635.183 74.8487 632.737 74.8196 630.301 74.7896C630.251 74.6169 630.198 74.4448 630.158 74.2721C632.773 74.3238 635.401 74.3772 638.016 74.4289C636.107 74.313 634.186 74.1969 632.277 74.081C635.31 73.9983 638.343 73.9154 641.375 73.8326C638.155 74.4679 642.33 74.5456 641.545 75.1747C646.914 74.6511 651.131 73.9608 659.454 74.4027C661.104 74.4907 660.208 74.9303 664.89 74.3954C663.757 75.0949 669.623 75.4231 668.87 76.0884C667.239 76.0563 665.549 76.0361 663.968 75.9968C665.768 75.7661 666.066 75.1312 663.332 74.9428C659.843 74.7027 654.752 75.1427 654.961 74.4381C653.569 74.4712 652.275 74.4907 650.923 74.5186C651.48 74.6934 652.024 74.8693 652.571 75.0441C648.725 74.7701 646.308 74.8592 644.459 75.2999C649.042 75.4013 653.615 75.5016 658.198 75.602C657.523 75.6319 656.839 75.6621 656.163 75.6911C659.634 76.1413 656.054 76.5677 662.527 76.6639C662.487 76.458 662.456 76.252 662.416 76.0451C664.772 76.5956 671.224 76.5927 669.166 77.226C671.115 77.0315 671.512 76.9084 672.616 77.2498C677.756 76.7686 681.058 76.16 679.228 75.4335C681.137 75.5504 683.047 75.6675 684.945 75.7844C683.842 75.9831 682.737 76.1808 681.634 76.3795C684.955 76.3671 688.3 76.3549 691.611 76.3435C691.929 75.7558 685.219 76.1652 687.155 75.6398C687.542 75.5343 689.33 75.7602 689.799 75.7008C694.75 75.0582 686.978 75.5225 688.437 75.0301C695.815 74.878 689.911 74.0529 700.073 74.7463C700.341 74.5766 700.63 74.4035 700.878 74.2348C704.406 74.2247 704.12 74.6079 707.152 74.6804C709.051 74.7254 711.434 74.0524 713.531 74.5107C713.905 74.5952 710.377 75.4178 717.792 75.3816C723.546 75.3536 721.151 74.7722 724.261 74.5663C727.373 74.3603 734.493 75.1664 736.591 74.2525C734.961 74.3736 732.884 74.4389 731.075 74.5382C730.339 74.3602 729.623 74.1841 728.897 74.0072C733.034 74.2369 737.309 73.9662 740.093 74.3905C745.612 73.7416 751.784 74.3438 750.113 75.0765C748.297 74.9708 750.273 74.6513 747.75 74.8549C747.491 75.0257 747.219 75.1956 746.96 75.3664C751.256 75.3457 754.239 75.3505 752.28 74.8299C752.946 74.8175 753.606 74.8051 754.272 74.7927C754.392 75.1694 754.498 75.5475 754.617 75.9242C755.412 75.9666 756.211 76.0087 757.007 76.0512C757.891 75.9684 758.777 75.8847 759.672 75.8009C758.469 75.2048 756.419 75.1851 763.201 74.8519C763.221 75.0578 763.25 75.263 763.269 75.4689C768.947 75.2071 769.097 74.7082 776.225 74.7268C770.756 74.0117 767.764 75.2792 767.784 73.8449C766.412 73.939 765.028 74.0345 763.656 74.1287C763.448 73.9206 763.24 73.7123 763.042 73.5043C770.409 73.614 782.647 74.9821 787.579 74.0749C788.176 74.1856 788.775 74.2819 789.381 74.4009C794.213 73.8534 796.3 75.0825 801.202 74.3746C801.708 74.3003 800.65 73.1456 807.031 73.1869C806.872 73.337 806.789 73.5896 806.66 73.7789C808.041 73.6869 809.416 73.5905 810.787 73.4964C811.036 73.635 811.297 73.7736 811.545 73.9132C809.188 73.967 806.839 74.0217 804.482 74.0756C806.44 74.1231 808.411 74.1708 810.369 74.2184C807.814 74.4449 806.662 74.4473 808.202 74.8104C810.419 74.8321 812.639 74.8552 814.857 74.8769C815.085 74.9699 815.312 75.064 815.54 75.1571C814.466 75.4344 813.382 75.7056 812.308 75.9871C818.085 75.7605 823.107 75.7481 827.542 75.2028C828.297 75.1107 825.625 74.7494 830.774 75.0753C830.853 74.8839 830.992 74.7285 831.081 74.5516C837.385 75.0877 839.456 74.9277 846.028 74.5406C841.773 74.9018 845.57 74.6669 846.654 74.8604C847.396 74.9938 844.498 74.9741 844.826 75.1137C845.154 75.2524 848.92 75.8123 845.7 75.8797C837.805 74.7319 835.654 76.1042 825.512 75.5525C827.073 75.7005 828.646 75.8489 830.207 75.9969C829.472 76.0972 828.813 76.1882 828.018 76.2947C833.675 76.0702 830.924 76.216 833.248 76.393C835.575 76.5699 839.803 76.7203 842.637 76.7689C843.53 76.7842 842.589 76.5268 844.603 76.5028C845.975 76.4863 849.725 76.8679 850.591 76.418C851.157 76.1251 845.133 75.3187 853.462 75.3206C855.03 75.0335 851.037 75.1227 850.951 75.0881C850.225 74.7466 855.345 74.4898 857.712 74.7506C857.903 74.7731 856.035 75.0392 858.067 75.1436C862.889 75.393 865.674 75.0878 868.797 74.6749C869.134 75.1592 873.193 75.7377 878.244 75.5586C878.502 75.6973 878.749 75.8371 879.007 75.9767C878.223 75.9034 877.439 75.831 876.654 75.7576C875.799 75.8445 874.893 75.9078 874.058 76.0103C879.138 76.1294 879.856 76.7969 882.292 77.0411C890.628 77.8754 885.576 76.1106 884.072 75.8064C882.989 75.9296 881.941 76.0671 880.867 76.1964C880.986 76.0277 881.107 75.8578 881.216 75.688C893.695 75.6932 883.117 74.593 889.45 74.2794C891.081 75.1094 895.733 75.1894 901.658 74.6627C902.315 74.6668 902.973 74.6679 903.63 74.6731C903.739 74.7941 903.737 74.9791 903.916 75.0588C911.055 75.1995 912.327 73.9214 913.003 73.8003C916.005 73.2633 918.344 74.0063 919.229 74.0127C922.957 74.0386 924.041 73.7086 927.59 73.8504C931.407 74.0035 928.797 74.2567 929.958 74.4833C930.89 74.6632 933.902 74.6953 935.146 74.8818C934.651 74.7292 934.102 74.5796 933.609 74.4265C937.565 74.2185 940.799 74.0158 945.292 73.9651C950.363 75.0814 954.677 73.1984 952.928 74.7256C948.672 74.8301 946.292 75.0041 944.016 75.3933C946.809 75.4429 949.605 75.4913 952.398 75.541C953.213 75.3733 953.792 75.21 954.756 75.0393C956.843 75.3952 961.683 75.2425 963.583 75.3469C972.482 75.8364 969.729 76.4435 977.852 75.4232C971.998 75.3237 972.007 74.8282 966.201 74.8965C967.454 74.5425 970.404 74.6159 968.495 74.1915C974.112 74.296 972.296 74.6749 974.483 75.0112C976.368 75.3011 980.165 75.3174 979.951 75.6941C980.339 75.487 980.639 75.2864 981.026 75.0796C984.665 75.0816 988.303 75.0818 991.941 75.0838C990.391 74.8676 988.84 74.6509 987.289 74.4357C988.461 74.354 989.635 74.2726 990.807 74.1909C999.756 74.8636 1015.19 73.6308 1012.72 75.3206C1017.04 75.3744 1017.58 75.1625 1019.92 74.8428C1020.18 74.971 1020.43 75.0778 1020.69 75.2205C1023.48 75.0862 1025.61 75.5679 1028.07 75.4427C1030.52 75.3185 1031.13 74.8635 1031.49 75.6282C1033.08 75.4089 1034.66 75.2267 1036.24 75.0228C1037.2 75.1965 1038.15 75.3683 1039.09 75.541C1040.58 75.4499 1042.08 75.3592 1043.57 75.2681C1044.37 75.6332 1050.23 75.4758 1052.82 75.721C1055.27 75.3275 1055.2 74.0885 1060.98 74.3106C1060.83 74.6178 1060.68 74.9242 1060.53 75.2315C1061.85 75.1674 1063.18 75.1034 1064.51 75.0393C1064.59 74.939 1064.66 74.8387 1064.74 74.7384C1064.06 74.7694 1063.4 74.8003 1062.72 74.8324C1063.31 74.6627 1063.88 74.4937 1064.46 74.324C1066.48 74.5754 1068.5 74.8269 1070.53 75.0783C1067.79 75.2687 1065.06 75.4592 1062.32 75.6496C1065.75 75.8752 1068.14 75.6502 1071.12 75.9017C1073.72 75.4774 1072.76 75.233 1071.71 74.7726C1072.67 74.8119 1073.65 74.8498 1074.61 74.8891C1073.97 74.4287 1075.61 74.1543 1069.97 74.1915C1070.36 74.0602 1070.75 73.935 1071.13 73.7985C1072.05 73.8192 1072.65 73.7082 1073.67 73.7588C1076.43 73.8975 1078.55 74.7063 1078.36 74.9898C1078.26 75.1384 1075.53 74.8543 1075.64 75.0643C1075.91 75.5764 1082.17 75.3465 1073.15 75.8608C1076.14 76.1868 1076.81 75.9409 1080.11 75.8467C1079.85 76.0174 1079.6 76.1869 1079.35 76.3576C1080.88 76.279 1082.42 76.2006 1083.95 76.122C1081.82 75.2455 1093.1 74.9162 1082.94 74.1494C1085.95 74.1101 1088.94 74.0706 1091.93 74.0292C1091.32 73.9392 1090.7 73.8501 1090.08 73.76C1088.73 73.8076 1087.39 73.8545 1086.03 73.901C1087.62 73.7365 1089.22 73.573 1090.81 73.4085C1094.57 73.6124 1096.04 73.9259 1097.76 74.313C1093.39 74.5954 1094.81 74.2096 1091.41 74.133C1091.53 74.3781 1091.37 74.6035 1091.67 74.8611C1093.43 74.3533 1099.17 74.7227 1100.5 74.7476C1104.56 74.823 1101.38 74.3241 1104.09 74.3136C1106.81 74.3033 1110.01 74.6002 1112.23 74.1055C1112.19 74.3828 1112.01 74.6696 1111.85 74.9221C1116.07 75.0132 1115.23 74.6856 1115.67 74.6432C1122.65 73.9457 1126.44 74.5345 1134.42 74.606C1133.41 74.6918 1132.38 74.7694 1131.36 74.8501C1137.38 75.4388 1133.32 75.2585 1128.09 75.4531C1133 75.3941 1135.8 75.8955 1139.26 76.0445C1142.72 76.1933 1148.66 75.9358 1150.83 75.7351C1145.86 75.4122 1140.51 75.6251 1135 75.5361C1135.63 75.2536 1136.24 75.0146 1136.88 74.7042C1140.24 75.2971 1142.18 74.9007 1143.28 74.822C1146.52 74.5913 1146.42 75.1002 1148.38 74.5529C1148.3 74.7411 1148.24 74.8994 1148.16 75.0753C1154.85 74.9966 1162.07 74.6638 1166.42 75.3591C1166.82 74.9069 1167.12 74.4712 1167.58 74.0097C1170.41 74.3501 1172.84 74.0015 1175.23 74.0811C1177.6 74.1608 1176.7 74.5262 1179.49 74.667C1180.01 74.6929 1181.08 74.4641 1182.36 74.6328C1183.64 74.8024 1188.38 76.0633 1188.95 74.9618C1191.34 74.9566 1193.61 74.9163 1195.96 74.8977C1193.67 74.8356 1191.38 74.7755 1189.11 74.7134C1191.06 74.4464 1192.99 74.1802 1194.94 73.9132C1195.19 74.1513 1195.44 74.3936 1195.68 74.6285C1200.93 74.9183 1204.74 74.5291 1210.04 74.6212C1210.92 74.6367 1208.83 75.1074 1212.76 74.9874C1216.69 74.8674 1219.6 73.989 1226.29 74.3283C1226.63 74.3459 1228.61 75.0186 1231.01 74.5529C1231.55 74.4473 1229.26 74.2911 1230.51 74.1525C1231.76 74.0138 1237.35 73.8998 1237.79 73.5696C1237.73 73.6866 1237.38 73.8077 1237.21 73.9267C1238.17 73.9825 1239.13 74.0385 1240.1 74.0933C1240.19 73.8874 1240.28 73.6811 1240.37 73.4763C1245.86 73.9554 1248.7 74.737 1256.83 74.4784C1254.54 74.7775 1252.25 75.0777 1249.98 75.3768C1249.35 75.1667 1248.72 74.9552 1248.11 74.7451C1244.36 74.8289 1240.6 74.9121 1236.85 74.996C1236.24 74.7569 1235.63 74.5185 1235.01 74.2794C1234.02 74.3105 1233.04 74.3406 1232.04 74.3716C1232.29 74.5444 1232.54 74.7163 1232.8 74.8892C1230.83 74.8467 1228.86 74.8034 1226.9 74.761C1230.89 75.7811 1238.04 74.6742 1237.52 75.5276C1238.41 75.3952 1239.29 75.2618 1240.18 75.1284C1240.56 75.5422 1242.36 75.4231 1245.53 75.3579C1244.81 75.5618 1244.01 75.7629 1243.34 75.9688C1246.42 75.6811 1251.89 75.7091 1255.08 75.5984C1256.48 75.5497 1255.08 75.2497 1255.5 75.2145C1257.64 75.0302 1261.72 75.5537 1262.58 75.5123C1267.69 75.2659 1271.01 74.2736 1276.59 74.9276C1270.83 75.0891 1273.96 75.0209 1271.91 75.3841C1271.27 75.498 1263.84 75.7356 1273.15 75.6301C1274.24 75.6169 1291.14 74.9312 1285.58 74.4058C1288.32 74.5734 1290.46 74.7673 1292.97 74.9453C1299.09 73.5606 1296.97 74.8614 1295.19 75.5776C1296.2 75.5807 1297.15 75.588 1298.18 75.588C1295.99 74.8356 1307.18 74.7889 1310.98 75.1687C1312.25 75.2949 1308.7 75.5358 1311.64 75.6496C1313.04 75.5969 1314.63 75.5285 1316.11 75.4696C1313.96 75.9456 1318.18 76.1291 1318.12 76.6133C1320.81 76.1818 1322.87 75.2671 1321.39 74.7714C1323.62 74.9721 1325.86 75.1726 1328.08 75.3744C1327.05 75.4892 1326 75.6031 1324.97 75.718C1332.25 75.4137 1341.61 76.1061 1343.13 75.0887C1344.09 75.096 1345.07 75.1022 1346.03 75.1095C1346.33 75.2813 1346.62 75.4534 1346.92 75.6252C1351.28 75.4762 1355.63 75.3262 1360 75.1772C1356.11 75.0706 1355.19 74.8261 1351.11 75.0247C1352.68 74.8271 1354.28 74.6284 1355.82 74.4308C1361.96 74.9628 1362.79 75.3124 1372.03 75.154C1372.45 75.1468 1379.43 74.7007 1379.67 74.6572C1380.76 74.4586 1379.1 74.1699 1379.59 74.0695C1380.94 73.788 1389.16 73.0812 1389 72.9746C1386.99 71.6664 1359.34 71.6491 1351.87 71.5818C1274.31 70.8843 1198.46 71.8175 1121.39 71.6581C1120.6 71.6556 1120.95 71.4625 1120.61 71.4543C1118.51 71.4058 1116.45 71.7067 1115.67 71.7191C1114.02 71.7447 1114.93 71.4667 1113.72 71.4665C1101.21 71.4696 1089.41 71.6331 1076.89 71.5855C1076.07 71.5824 1076.91 71.8048 1075.47 71.7655C1074.73 71.744 1072.42 71.4027 1070.75 71.3975C1064.93 71.3799 1060.03 71.4893 1053.89 71.4842C1050.53 71.4811 1045.48 71.5101 1041.73 71.5049C1040.07 71.5027 1038.34 71.3466 1036.7 71.3413C1034.37 71.3341 1034.85 71.6506 1034.49 71.6703C1032.92 71.7562 1032.7 71.4088 1031.21 71.417C1028.44 71.4336 1028.29 71.6655 1024.77 71.6459C1022.25 71.6314 1016.49 71.4483 1013.32 71.3944C1005.9 71.6635 996.557 71.5567 989.637 71.4677C985.54 71.4149 985.161 71.7397 983.49 71.7387C977.605 71.7324 973.138 71.3176 967.61 71.3041C960.274 71.2866 953.772 71.5609 946.665 71.5806C945.512 71.5837 945.777 71.2861 944.646 71.2785C940.46 71.2505 935.107 71.1964 931.378 71.2388C927.223 71.2854 925.69 71.7174 921.624 71.6294C920.431 71.6033 920.082 71.2246 918.084 71.1759C914.893 71.0995 911.394 71.4334 909.167 71.4707C906.114 71.5204 908.769 71.1346 904.652 71.1863C904.483 71.1885 903.867 71.4643 902.983 71.4512C900.408 71.4139 900.663 71.1967 896.895 71.2174C896.533 71.2203 891.537 71.4831 891.04 71.4841C888.117 71.4883 882.232 71.5803 880.501 71.5244C874.316 71.3257 879.185 70.9109 873.926 71.8113C871.61 71.5909 869.312 71.3675 866.857 71.1533C868.496 71.3531 861.846 71.6413 861.378 71.6227C857.513 71.4726 859.815 71.1223 854.914 71.1802C861.387 71.9895 848.591 71.2845 845.737 71.2638C831.996 71.1635 819.506 71.3654 805.695 71.3602C801.072 71.3581 794.876 71.187 789.985 71.1912C788.845 71.1914 789.706 71.383 788.703 71.3871C787.702 71.3899 788.812 71.1749 787.67 71.1863C780.561 71.2608 774.991 71.6665 768.478 71.1594C768.161 71.2328 768.171 71.2907 767.646 71.3712C762.317 70.9169 752.053 71.5279 748.195 71.6117C742.161 71.742 740.62 71.4349 736.236 71.4969C730.439 71.5797 721.736 72.1796 725.623 71.1893C721.646 71.1583 717.818 71.1497 713.802 71.2418C713.355 71.2523 713.663 71.504 713.484 71.5092C712.351 71.5453 711.982 71.3199 711.216 71.3096C709.14 71.2817 712.528 71.5516 709.568 71.4762C708.007 71.4358 707.121 71.2393 702.786 71.2351C676.655 71.2134 648.287 71.2838 621.5 71.3169C619.66 71.319 620.871 71.0755 618.564 71.0911C610.551 71.1449 596.205 71.5546 589.295 71.4988C582.385 71.4429 583.944 71.0869 579.62 70.9379C578.785 70.9089 579.469 71.1118 578.714 71.1149C573.633 71.1335 567.575 71.4499 563.459 71.4975C560.737 71.5294 560.955 71.2103 559.067 71.1875C556.253 71.1544 553.356 71.4768 551.855 71.4872C544.797 71.5326 539.944 71.2729 533.352 71.4054C533.61 71.3351 533.781 71.2701 533.999 71.2009C526.194 71.2123 518.399 71.2237 510.595 71.2351C510.963 71.1709 511.318 71.1062 511.686 71.041C502.529 71.0762 503.574 71.7717 504.38 70.3031C503.714 70.2514 503.008 70.1914 502.371 70.1438C502.63 70.9003 497.091 71.4539 490.042 71.6465C489.525 71.6609 486.055 70.9234 486.433 71.7948C485.528 71.5816 484.989 71.4346 484.224 71.2473C482.733 71.5111 481.221 71.7718 479.73 72.0346C478.925 71.9953 478.109 71.9574 477.304 71.918C477.184 71.7473 477.276 71.57 477.018 71.4023C473.279 71.3765 465.612 71.5876 462.658 71.5659C455.32 71.511 447.85 71.0494 442.142 71.5482C439.362 71.4973 442.123 71.1622 437.988 71.2046C437.521 71.3743 437.082 71.5369 436.594 71.7118C433.215 70.9536 432.509 71.4148 427.878 71.5732C424.747 71.6808 422.695 71.4955 419.713 71.5317C418.958 71.541 419.064 71.7635 418.547 71.7563C416.816 71.7334 411.875 71.4271 410.653 71.4188C399.577 71.3381 390.062 71.3724 379.513 71.4542C378.379 71.4625 379.849 71.2429 378.675 71.2522C376.788 71.2668 377.898 71.6043 376.805 71.6208C373.755 71.6651 373.732 71.3093 369.477 71.2906C355.468 71.2296 339.361 71.4969 324.725 71.5207C324.268 71.5207 324.295 71.3122 323.798 71.3102C320.557 71.3 317.277 71.5818 314.334 71.5787C309.452 71.5746 305.783 71.2817 300.961 71.2827C291.535 71.2837 283.113 71.4337 273.419 71.442C265.484 71.4492 258.593 71.4214 249.893 71.4224C211.89 71.4266 173.111 70.7648 134.849 71.1167C133.876 71.126 134.272 71.3102 133.975 71.3022C131.151 71.2225 130.9 70.974 129.895 71.4945C126.298 71.3919 125.163 71.0008 120.819 71.0288C118.503 71.0434 120.232 71.6495 116.315 71.337C112.778 71.0545 116.681 70.7223 106.163 71.0617C105.884 71.0711 104.514 71.4405 102.327 71.3443C100.129 71.2491 102.673 70.9846 97.3831 70.9049C84.9646 70.7186 69.2454 71.0379 54.8088 70.9397C53.9038 70.9335 45.1901 70.736 43.4697 70.6449C40.141 70.4679 40.8363 70.1934 36.5127 70.1261C33.1718 70.0744 30.4153 70.3853 26.4877 70.3232C26.0302 70.3157 25.2639 69.9958 22.3124 70.0382ZM754.262 76.2514C755.077 76.5652 756.549 77.7204 761.479 77.3688C761.946 77.3357 759.423 76.5413 762.146 76.4149C759.482 76.3311 756.887 76.3039 754.262 76.2501C754.262 76.2505 754.262 76.2509 754.262 76.2514ZM0.943115 77.4042C4.63184 77.3462 8.33386 77.2888 12.0226 77.2309C9.47717 77.0911 6.92798 76.9517 4.39258 76.811C3.2395 77.0086 2.09619 77.2066 0.943115 77.4042ZM460.152 76.8555C460.149 76.8555 460.145 76.8555 460.142 76.8555C464.019 77.0046 467.899 77.1539 471.777 77.3029C471.37 77.1932 470.961 77.083 470.553 76.9733C467.491 76.8005 464.428 76.628 461.376 76.4552C460.968 76.5886 460.56 76.7221 460.152 76.8555ZM429.516 75.6941C427.04 75.8245 427.646 76.0444 426.283 76.2586C426.283 76.2582 426.283 76.2578 426.283 76.2574C425.924 76.3132 424.249 76.362 423.602 76.3703C423.841 76.2327 424.149 76.0968 424.408 75.9602C418.631 75.627 407.333 76.8112 421.96 77.2883C421.741 77.1144 421.532 76.9415 421.313 76.7677C428.582 76.8163 436.685 76.4392 429.516 75.6941ZM812.706 76.7518C818.91 77.321 820.899 77.441 828.426 77.0509C827.363 76.8895 826.3 76.7282 825.237 76.5669C823.994 76.7314 822.76 76.8949 821.517 77.0594C821.514 77.0594 821.51 77.0594 821.506 77.0594C821.258 76.8866 821.009 76.7135 820.77 76.5406C818.086 76.611 815.39 76.6815 812.706 76.7518ZM192.011 76.1054C190.281 77.2423 190.781 76.5815 195.72 76.8378C197.43 76.9268 195.763 77.1257 196.827 77.1589C202.573 77.3397 203.032 76.5781 201.75 76.1817C198.498 76.1548 195.213 76.1303 192.021 76.1054C192.018 76.1054 192.014 76.1054 192.011 76.1054ZM42.9452 75.8692C42.9417 75.8692 42.9381 75.8692 42.9346 75.8692C42.7855 76.1465 45.1016 76.2211 42.4895 76.4838C44.4768 76.4828 46.4637 76.4806 48.4611 76.4795C47.8752 76.4537 47.2771 76.4291 46.6913 76.4033C47.2085 76.308 47.7268 76.2116 48.2438 76.1164C48.9497 76.4351 49.6056 76.2499 51.6932 76.1433C51.1166 76.4837 50.5425 76.8245 49.9658 77.1649C52.3912 77.0635 54.8259 76.9618 57.2515 76.8604C57.2814 76.7746 57.3118 76.6886 57.3416 76.6028C58.2559 76.7125 59.1614 76.8234 60.0756 76.933C60.3245 76.8306 60.5634 76.7291 60.8121 76.6266C61.9154 76.7042 63.0205 76.7818 64.1238 76.8604C64.4595 76.6123 62.0281 76.505 66.3385 76.568C65.0165 76.3135 63.6967 76.0597 62.3646 75.8051C55.8916 75.8258 49.4181 75.8475 42.9452 75.8692ZM236.948 76.4552C229.82 76.4075 231.827 76.5874 233.478 77.1503C234.631 76.9186 235.795 76.6869 236.948 76.4552ZM604.237 75.9541C606.305 76.3381 608.382 76.7182 610.5 77.0887C614.716 77.3029 618.934 76.6031 615.762 76.3288C611.943 75.9998 607.956 76.3681 604.237 75.9541ZM700.258 76.125C695.1 76.3031 699.954 76.7593 701.117 77.0252C702.544 76.5978 704.534 76.6355 707.729 76.5858C704.728 76.5581 701.111 76.0948 700.258 76.1238C700.258 76.1242 700.258 76.1246 700.258 76.125ZM521.229 76.3856C519.162 76.3741 517.106 76.2669 515.258 76.3972C515.815 76.7643 519.512 76.4303 516.868 76.9746C518.19 76.9839 519.514 76.9929 520.826 77.0032C519.993 76.7778 521.114 76.6092 521.224 76.3868C521.226 76.3864 521.227 76.386 521.229 76.3856ZM306.021 76.8879C310.078 76.4532 310.846 76.6392 314.933 76.9404C315.509 76.5865 310.636 75.9936 307.584 75.8631C307.067 76.2046 306.548 76.5464 306.021 76.8879ZM1265.58 76.7067C1264.61 76.2556 1257.42 76.1968 1253.85 76.3301C1254.28 76.397 1254.7 76.4648 1255.13 76.5328C1258.61 76.5907 1262.1 76.6487 1265.58 76.7067ZM709.25 76.5553C708.715 76.5685 708.208 76.5784 707.729 76.5858C708.262 76.5907 708.775 76.583 709.25 76.5553ZM925.243 74.5974C923.543 74.1721 928.595 74.0292 922.461 74.1958C922.461 74.1954 922.461 74.195 922.461 74.1946C918.404 74.3043 917.508 74.3336 913.75 74.3667C915.103 74.9131 922.728 75.1083 912.219 75.2211C912.08 75.2216 912.356 74.8965 910.677 74.941C910.159 74.9548 908.5 75.2216 905.977 75.2993C905.161 75.3241 899.035 75.4064 907.386 75.4116C907.138 75.7924 907.586 76.1779 907.566 76.5474C910.826 76.6547 913.332 75.909 916.781 75.9273C921.901 75.9563 924.507 76.7104 925.492 75.721C921.186 75.4779 913.792 75.4721 912.828 76.067C908.662 76.0743 907.466 75.5868 910.825 75.3456C925.213 75.652 914.775 74.6221 927.373 75.0112C927.522 75.1488 928.04 75.2969 927.961 75.4262C931.806 74.942 925.849 74.7495 925.243 74.5974ZM895.157 75.6496C897.643 75.9404 900.12 76.2335 902.596 76.5254C902.596 76.0514 901.231 75.6261 897.314 75.3591C896.598 75.4563 895.872 75.5534 895.157 75.6496ZM1104.26 75.7741C1104.62 76.0318 1105.57 76.2679 1106.27 76.5132C1107.03 76.2959 1124.92 76.0874 1115.82 75.8742C1114.5 75.8432 1106.43 76.2988 1104.26 75.7741ZM277.854 76.4997C279.962 76.3269 282.061 76.1538 284.159 75.9809C280.929 75.8713 277.697 75.7588 274.468 75.6471C275.6 75.9312 276.722 76.2156 277.854 76.4997ZM638.551 75.5019C637.661 75.5115 640.618 75.8659 637.11 75.8101C639.725 76.0367 642.174 76.2286 644.729 76.4418C645.495 76.2741 646.268 76.1071 647.034 75.9395C647.631 76.0471 648.239 76.1541 648.835 76.2617C648.478 76.0175 648.159 75.7789 647.781 75.5306C643.476 76.0542 642.488 75.4605 638.551 75.5019ZM510.531 74.5467C509.757 75.0775 515.991 75.3932 509.858 75.4781C511.022 75.8268 512.892 76.0097 516.482 76.0408C517.058 75.9074 517.633 75.775 518.209 75.6416C518.289 75.9985 519.212 76.1312 521.229 76.3856C521.231 76.3852 521.233 76.3848 521.234 76.3844C526.691 76.4102 526.365 76.2912 527.677 75.7045C521.901 76.0357 521.728 75.4996 517.79 75.1808C515.086 74.9616 511.555 75.0609 510.531 74.5467ZM1085.19 75.768C1089.28 76.2161 1085.61 76.634 1092.86 76.158C1092.39 76.0442 1091.92 75.9313 1091.45 75.8174C1089.37 75.7999 1087.28 75.7835 1085.19 75.768ZM490.37 76.3661C490.837 75.5444 494.684 74.9048 495.34 76.2416C491.592 76.5137 493.422 75.7565 490.37 76.3661ZM698.499 74.8385C691.291 74.8768 692.654 75.8042 695.617 76.2678C696.074 76.0991 696.531 75.9301 696.979 75.7625C698.241 75.8391 699.504 75.9158 700.767 75.9913C700.011 75.6074 699.255 75.2224 698.499 74.8385ZM363.294 75.4634C368.802 76.0502 357.347 75.7897 361.195 76.1561C364.268 76.449 368.317 75.8577 366.785 75.4872C365.721 75.4768 364.537 75.4696 363.304 75.4634C363.3 75.4634 363.297 75.4634 363.294 75.4634ZM395.17 75.6312C394.266 76.2582 395.569 76.0754 391.217 75.9626C389.974 75.9306 380.098 76.166 384.244 75.6465C387.773 75.6465 391.502 75.6374 395.17 75.6312ZM781.82 75.7558C781.886 75.4827 774.281 74.8832 773.305 75.0332C773.305 75.0327 773.305 75.0323 773.305 75.0319C770.67 75.4407 778.692 75.4988 775.213 76.0597C782.918 75.5661 785.223 76.76 784.686 75.187C780.147 75.1179 782.296 75.4422 781.82 75.7558ZM1359.94 75.4214C1359.94 75.4214 1359.95 75.4214 1359.95 75.4214C1359.44 75.4342 1355.23 75.8349 1355.74 75.9737C1360.8 75.8547 1359.9 75.5909 1364.61 76.0244C1364.87 75.8848 1365.09 75.7494 1365.37 75.6087C1363.5 75.5259 1362.47 75.3582 1359.94 75.4214ZM1123.61 75.2236C1121.75 75.1522 1118.36 75.4481 1116.24 75.4305C1122.98 76.5668 1131.04 75.5072 1123.61 75.2236ZM112.664 75.9083C112.67 75.9087 112.675 75.9091 112.68 75.9095C112.678 75.9089 112.677 75.9083 112.675 75.9077C112.672 75.9079 112.668 75.9081 112.664 75.9083ZM979.527 75.9053C979.767 75.8316 979.902 75.7675 979.951 75.7112C979.951 75.7059 979.951 75.7007 979.951 75.6954C979.821 75.7644 979.683 75.8343 979.527 75.9053ZM797.626 75.8382C800.793 75.4574 790.24 74.852 786.827 74.9965C787.066 75.1703 787.103 75.3279 787.659 75.5275C790.413 75.0775 797.099 75.9023 797.626 75.8382ZM557.016 75.6984C565.358 75.688 554.502 74.1846 554.054 75.3841C554.071 75.4073 556.8 75.6963 557.016 75.6984ZM731.838 75.6807C729.713 75.2255 733.984 75.1046 727.154 75.1833C726.757 75.3012 726.359 75.4194 725.962 75.5373C727.92 75.5849 729.88 75.6331 731.838 75.6807ZM611.666 73.7246C622.165 73.9782 632.207 74.4255 625.368 75.6807C624.573 75.6404 623.768 75.6014 622.973 75.5611C622.854 74.9487 619.921 75.283 615.629 75.3029C615.017 75.0598 612.637 75.0036 612.19 74.7969C611.327 74.3976 614.062 74.1168 611.666 73.7246ZM168.39 74.7212C168.559 74.8258 168.724 74.9308 168.893 75.0343C170.554 75.1523 172.218 75.2697 173.879 75.3877C173.611 75.1871 173.342 74.9865 173.074 74.7859C171.514 74.7642 169.961 74.7423 168.4 74.7206C168.397 74.7208 168.393 74.721 168.39 74.7212ZM884.925 74.3575C885.879 75.5081 882.546 75.2962 875.785 74.7146C878.828 74.5956 881.883 74.4765 884.925 74.3575ZM442.948 74.1909C442.729 74.5177 442.514 74.8436 442.285 75.1704C438.696 74.83 439.362 74.4556 441.082 74.023C441.708 74.0789 442.322 74.135 442.948 74.1909ZM391.244 74.0517C392.733 73.9835 391.973 74.2474 392.129 74.2421C395.897 74.1035 396.428 73.9824 401.051 74.1811C401.618 74.2504 402.175 74.3233 402.742 74.3947C400.604 75.0796 399.052 74.7063 394.529 75.1088C395.344 74.8739 396.156 74.6386 396.972 74.4027C394.456 74.4523 391.952 74.5013 389.437 74.551C389.139 74.4785 388.84 74.4067 388.541 74.3343C389.436 74.2412 390.359 74.1365 391.244 74.0517ZM149.188 75.0184C146.742 75.0454 144.284 75.0733 141.838 75.1002C141.749 74.9316 141.663 74.7617 141.573 74.5931C144.108 74.7348 146.653 74.8767 149.188 75.0184ZM935.146 74.8818C935.34 74.9416 935.529 75.0018 935.697 75.0631C935.68 74.9885 935.468 74.9302 935.146 74.8818ZM1366.39 74.4961C1369.17 74.3782 1373.16 74.4556 1376.21 74.4308C1375.97 74.854 1368.23 74.737 1365.52 74.9935C1365.08 74.9176 1365.22 74.5458 1366.39 74.4961ZM688.527 74.8757C687.831 74.6646 687.136 74.4545 686.45 74.2434C684.77 74.2662 683.086 74.2902 681.395 74.313C681.346 74.1401 681.297 73.9658 681.247 73.793C688.693 74.0175 686.976 73.5191 690.663 73.0276C689.947 73.6433 689.243 74.259 688.527 74.8757ZM71.3616 73.9223C76.7407 74.0392 78.6487 74.2577 75.6165 74.7761C73.7178 74.6572 71.8084 74.5381 69.9098 74.4191C70.397 74.2536 70.8844 74.0879 71.3616 73.9223ZM1033.11 74.4912C1037.61 74.6849 1037.69 73.9891 1042.09 74.3777C1039.73 74.506 1037.38 74.6357 1035.03 74.764C1034.4 74.6733 1033.75 74.5819 1033.11 74.4912ZM812.34 72.5803C814.239 72.3382 817.789 73.4889 823.128 72.6395C824.4 72.893 825.198 73.1351 826.291 73.3835C826.928 73.1133 827.65 72.8398 828.257 72.5717C828.26 72.5717 828.264 72.5717 828.267 72.5717C833.11 72.6628 829.97 73.0016 830.08 73.2882C830.131 73.4071 833.725 73.2084 832.602 73.4671C830.663 73.9111 823.418 73.6557 823.398 74.197C825.943 74.0201 830.914 74.1679 829.444 74.529C827.833 74.9254 823.149 74.2612 820.166 74.5901C824.44 73.725 815.612 73.9922 814.608 74.6566C809.427 74.1464 814.189 73.9382 819.498 73.962C816.257 73.4529 821.028 73.728 821.814 73.3047C818.471 73.0492 807.001 73.2622 812.34 72.5803ZM567.936 73.5183C571.517 73.5511 577.11 73.2601 579.561 73.6898C580.989 73.9402 575.383 74.134 579.249 74.5272C575.761 74.4888 574.965 74.3353 575.561 73.9907C574.766 73.9493 573.961 73.909 573.166 73.8686C572.798 73.9359 572.421 74.0022 572.053 74.0694C571.636 73.9277 571.216 73.787 570.808 73.6453C569.964 73.6732 569.109 73.7011 568.265 73.7301C568.165 73.6588 567.997 73.5968 567.936 73.5183ZM1162.36 74.5126C1161.37 74.5084 1160.38 74.5043 1159.39 74.4992C1159.5 74.4152 1159.63 74.3278 1159.75 74.2416C1159.84 74.1734 1159.93 74.1053 1160.02 74.0371C1159.45 74.2806 1154.71 74.6853 1152.72 74.4253C1151.71 74.2949 1154 73.8317 1149.74 73.7509C1152.83 73.7747 1155.68 73.8379 1158.67 73.8772C1158.4 73.7396 1158.15 73.6005 1157.88 73.4628C1157.88 73.4626 1157.88 73.4624 1157.88 73.4622C1158.88 73.4312 1159.88 73.3987 1160.88 73.3676C1161.37 73.7495 1161.86 74.1307 1162.36 74.5126ZM445.862 73.5445C449.253 73.8147 450.387 73.9549 448.787 74.3917C448.783 74.3919 448.78 74.3921 448.776 74.3923C447.513 74.1988 446.25 74.0054 444.987 73.8119C445.276 73.7229 445.563 73.6336 445.862 73.5445ZM964.352 73.4402C971.56 75.0992 955.326 74.0822 958.417 73.5171C958.556 73.4913 963.675 73.6234 964.352 73.4402ZM699.824 74.3282C697.845 74.3148 695.862 74.3026 693.874 74.2892C694.331 74.0853 694.799 73.8821 695.257 73.6782C696.778 73.8945 698.303 74.1119 699.824 74.3282ZM94.7815 73.1692C96.8639 72.7138 102.21 72.5488 104.822 73.0441C103.45 73.102 102.077 73.16 100.705 73.218C103.299 73.2749 105.865 73.3375 108.478 73.3913C108.617 74.0257 105.605 73.6577 101.071 73.8326C100.369 73.8608 95.8807 74.6483 94.3311 74.0547C94.0193 73.9328 98.7936 73.8498 95.4756 73.4951C96.9264 73.4672 98.179 73.4734 99.5502 73.4579C99.6494 73.3068 99.7483 73.1555 99.8575 73.0044C98.1617 73.0591 96.4772 73.1145 94.7815 73.1692ZM588.781 73.5678C593.699 73.5327 594.306 73.7862 595.33 74.2342C593.043 74.1835 590.755 74.1336 588.468 74.0829C588.578 73.9115 588.672 73.7401 588.781 73.5678ZM138.739 73.0239C141.431 72.9506 140.278 73.3153 141.361 73.3846C145.458 73.6454 148.252 73.3848 152.298 73.5482C152.03 73.4778 151.783 73.412 151.524 73.3437C151.528 73.3437 151.531 73.3437 151.535 73.3437C170.694 73.0364 160.631 73.8634 149.166 73.7288C148.898 73.8644 148.64 74.0002 148.372 74.1347C143.241 73.8977 138.51 73.6697 138.739 73.0239ZM900.307 73.3835C900.526 73.2986 898.667 72.7593 902.157 73.0118C904.92 73.7992 900.388 73.4084 899.253 73.7112C900.197 73.7868 901.164 73.8603 902.098 73.9358C896.45 74.1583 895.626 73.9711 897.685 73.3957C897.831 73.357 900.088 73.4681 900.307 73.3835ZM937.424 72.9953C938.2 74.1555 931.072 73.6338 931.331 73.2736C932.315 73.2593 933.079 73.4557 934.123 73.3688C935.177 73.2819 935.446 73.0109 937.424 72.9953ZM733.221 73.2791C733.43 73.2739 735.528 72.7863 735.319 73.168C732.724 74.0715 727.495 73.4899 728.41 73.1753C730.139 73.1909 731.293 73.3265 733.221 73.2779C733.221 73.2783 733.221 73.2787 733.221 73.2791ZM62.3434 72.8957C62.4425 72.8634 67.6766 72.6674 68.3521 72.8494C68.9087 73.0542 69.1848 73.2738 69.6025 73.4859C66.719 73.2893 60.8823 73.4391 62.354 72.8957C62.3502 72.8957 62.347 72.8957 62.3434 72.8957Z" fill="white"/>
<rect width="76" height="62" transform="translate(0 9)" fill="url(#paint0_linear_789_1632)"/>
<rect width="76" height="62" transform="matrix(-1 0 0 1 1440 9)" fill="url(#paint1_linear_789_1632)"/>
</g>
<defs>
<linearGradient id="paint0_linear_789_1632" x1="0" y1="31" x2="76" y2="31" gradientUnits="userSpaceOnUse">
<stop offset="0.408654" stop-color="#23272A"/>
<stop offset="1" stop-color="#23272A" stop-opacity="0.5"/>
</linearGradient>
<linearGradient id="paint1_linear_789_1632" x1="0" y1="31" x2="76" y2="31" gradientUnits="userSpaceOnUse">
<stop offset="0.408654" stop-color="#23272A"/>
<stop offset="1" stop-color="#23272A" stop-opacity="0.5"/>
</linearGradient>
<clipPath id="clip0_789_1632">
<rect width="1440" height="80" fill="white"/>
</clipPath>
</defs>
</svg>
