<svg width="1440" height="900" viewBox="0 0 1440 900" fill="none" xmlns="http://www.w3.org/2000/svg">
<g opacity="0.3">
<path d="M586.257 881.229C586.641 881.502 586.762 881.867 586.74 882.327C586.699 883.171 587.97 883.169 588.011 882.327C588.055 881.383 587.641 880.623 586.899 880.095C586.224 879.615 585.587 880.753 586.257 881.229Z" fill="black"/>
<path d="M27.1422 384.208L24.7098 401.279L39.3023 396.257L27.1422 384.208Z" fill="#FF6688"/>
<path opacity="0.5" d="M561.376 166.705C563.168 166.705 564.622 165.205 564.622 163.354C564.622 161.504 563.168 160.004 561.376 160.004C559.583 160.004 558.13 161.504 558.13 163.354C558.13 165.205 559.583 166.705 561.376 166.705Z" fill="white"/>
<path d="M140.396 849.507C143.096 849.507 145.285 847.247 145.285 844.46C145.285 841.673 143.096 839.414 140.396 839.414C137.696 839.414 135.508 841.673 135.508 844.46C135.508 847.247 137.696 849.507 140.396 849.507Z" fill="#F6A915"/>
<path d="M8.38023 0.108375L17.5706 1.45744L15.5264 8.43026L23.6015 9.81257L22.4676 17.4503L30.307 18.3777L28.7018 25.109" stroke="white" stroke-miterlimit="10"/>
<path d="M37.5516 684.861L43.3621 701.999" stroke="white" stroke-miterlimit="10"/>
<path d="M33.0138 697.108L48.1283 690.583" stroke="white" stroke-miterlimit="10"/>
<path d="M554.045 48.6206L559.855 65.7578" stroke="white" stroke-miterlimit="10"/>
<path d="M549.507 60.8654L564.622 54.3405" stroke="white" stroke-miterlimit="10"/>
<path d="M571.897 734.247L577.707 751.384" stroke="#4B53E4" stroke-miterlimit="10"/>
<path d="M567.359 746.493L582.474 739.968" stroke="#4B53E4" stroke-miterlimit="10"/>
<path opacity="0.14" d="M-2.89455e-05 167.204L12.5075 180.115L49.459 141.97" stroke="white" stroke-width="4.6663" stroke-miterlimit="10"/>
</g>
<g opacity="0.3">
<path d="M891.798 881.229C891.413 881.502 891.293 881.867 891.315 882.327C891.355 883.171 890.084 883.169 890.043 882.327C889.999 881.383 890.413 880.623 891.155 880.095C891.83 879.615 892.467 880.753 891.798 881.229Z" fill="black"/>
<path d="M754.373 822.458L756.806 839.529L742.213 834.507L754.373 822.458Z" fill="#FF6688"/>
<path d="M1268.6 838.909C1265.9 838.909 1263.71 836.65 1263.71 833.863C1263.71 831.076 1265.9 828.817 1268.6 828.817C1271.3 828.817 1273.49 831.076 1273.49 833.863C1273.49 836.65 1271.3 838.909 1268.6 838.909Z" fill="#F6A915"/>
<path d="M1429.36 -6.25L1420.17 -4.90093L1422.21 2.07188L1414.14 3.45419L1415.27 11.0919L1407.43 12.0193L1409.04 18.7506" stroke="white" stroke-miterlimit="10"/>
<path d="M1428.64 882.863L1422.83 900" stroke="white" stroke-miterlimit="10"/>
<path d="M1440 794.012L1424.89 787.487" stroke="white" stroke-miterlimit="10"/>
<path d="M656.659 82.7673L650.848 99.9045" stroke="white" stroke-miterlimit="10"/>
<path d="M658.777 97.77L643.662 91.2451" stroke="white" stroke-miterlimit="10"/>
<path d="M906.158 734.247L900.347 751.384" stroke="#4B53E4" stroke-miterlimit="10"/>
<path d="M910.695 746.493L895.581 739.968" stroke="#4B53E4" stroke-miterlimit="10"/>
<path opacity="0.14" d="M1178.69 31.7001L1166.18 44.6116L1129.23 6.46675" stroke="white" stroke-width="4.6663" stroke-miterlimit="10"/>
</g>
<path opacity="0.5" d="M840.931 54.4978C839.138 54.4978 837.685 52.9976 837.685 51.147C837.685 49.2964 839.138 47.7962 840.931 47.7962C842.724 47.7962 844.177 49.2964 844.177 51.147C844.177 52.9976 842.724 54.4978 840.931 54.4978Z" fill="white"/>
</svg>
