<svg width="560" height="560" viewBox="0 0 560 560" fill="none" xmlns="http://www.w3.org/2000/svg">
<path fill-rule="evenodd" clip-rule="evenodd" d="M186.507 477.064C182.535 475.946 178.094 473.897 177.892 469.439C177.679 464.747 181.654 461.497 185.727 459.876C189.916 458.209 194.995 457.736 197.692 461.56C200.387 465.38 198.84 470.748 196.087 474.564C193.843 477.675 190.009 478.051 186.507 477.064Z" fill="#FD70FD"/>
<path fill-rule="evenodd" clip-rule="evenodd" d="M132.807 422.282C127.764 420.853 123.833 417.185 123.144 413.457C122.441 409.655 124.933 406.276 129.758 405.787C133.951 405.363 137.802 408.691 140.741 411.677C143.133 414.107 144.345 416.931 142.783 419.019C140.862 421.587 137.284 423.55 132.807 422.282Z" fill="#FD70FD"/>
<path fill-rule="evenodd" clip-rule="evenodd" d="M105.959 451.157C104.58 450.729 104.39 448.645 104.408 446.843C104.427 444.951 104.583 442.65 106.051 441.941C107.515 441.233 108.711 442.858 109.499 444.383C110.114 445.573 110.057 447.096 109.382 448.388C108.563 449.955 107.326 451.582 105.959 451.157Z" fill="#FD70FD"/>
<path d="M124.574 453.035C124.574 464.511 133.877 473.815 145.353 473.815C156.829 473.815 166.132 464.511 166.132 453.035C166.132 441.558 156.829 432.255 145.353 432.255C133.877 432.255 124.574 441.558 124.574 453.035Z" fill="#30B47A"/>
<path d="M126.898 454.907C126.898 466.383 136.202 475.687 147.678 475.687C159.154 475.687 168.457 466.383 168.457 454.907C168.457 443.43 159.154 434.127 147.678 434.127C136.202 434.127 126.898 443.43 126.898 454.907Z" stroke="#0C8563" stroke-width="2" stroke-miterlimit="10"/>
<path d="M135.226 457.98L140.68 463.06L156.791 448.05" stroke="white" stroke-width="2" stroke-miterlimit="10"/>
<path fill-rule="evenodd" clip-rule="evenodd" d="M425.991 157.057C425.866 152.93 426.437 148.104 430.36 146.726C434.488 145.275 438.514 148.246 441.113 151.744C443.787 155.341 445.647 160.114 442.997 163.729C440.35 167.341 435.12 167.275 430.935 165.632C427.523 164.294 426.102 160.696 425.991 157.057Z" fill="#FD70FD"/>
<path fill-rule="evenodd" clip-rule="evenodd" d="M399.008 148.016C398.855 142.773 401.017 138.009 404.15 136.355C407.345 134.668 411.067 136.175 412.868 140.698C414.433 144.629 412.553 149.226 410.719 152.852C409.227 155.805 407.049 157.722 404.744 156.77C401.908 155.599 399.143 152.67 399.008 148.016Z" fill="#FD70FD"/>
<path fill-rule="evenodd" clip-rule="evenodd" d="M451.663 119.924C451.722 116.228 453.523 112.681 457.128 111.369C461.35 109.833 466.457 110.091 469.169 113.555C471.987 117.155 471.2 122.145 468.385 125.748C465.703 129.178 461.043 130.788 456.841 129.325C453.001 127.987 451.601 123.842 451.663 119.924Z" fill="#FD70FD"/>
<path fill-rule="evenodd" clip-rule="evenodd" d="M404.781 110.705C404.773 109.262 406.579 108.526 408.193 108.065C409.887 107.581 411.985 107.12 413.033 108.348C414.08 109.572 412.967 111.157 411.829 112.321C410.941 113.23 409.565 113.579 408.221 113.271C406.591 112.897 404.788 112.137 404.781 110.705Z" fill="#FD70FD"/>
<path d="M417.468 137.546C423.396 143.475 432.978 143.506 438.868 137.615C444.759 131.725 444.728 122.143 438.799 116.214C432.87 110.286 423.289 110.255 417.398 116.145C411.508 122.036 411.539 131.617 417.468 137.546Z" fill="#FF5940"/>
<path d="M419.562 137.253C425.491 143.182 435.072 143.213 440.963 137.323C446.854 131.432 446.823 121.851 440.894 115.922C434.965 109.993 425.384 109.962 419.493 115.853C413.603 121.743 413.634 131.325 419.562 137.253Z" stroke="#D15036" stroke-width="1.7593" stroke-miterlimit="10"/>
<path d="M429.092 130.09C432.186 130.173 434.761 127.749 434.843 124.676C434.926 121.602 432.485 119.043 429.392 118.96C426.299 118.877 423.724 121.301 423.641 124.374C423.558 127.448 425.999 130.007 429.092 130.09Z" stroke="white" stroke-width="2" stroke-miterlimit="10"/>
<path d="M433.373 128.471L437.894 133.211" stroke="white" stroke-width="2" stroke-miterlimit="10"/>
<path fill-rule="evenodd" clip-rule="evenodd" d="M406.031 466.387C405.875 461.171 408.08 456.43 411.274 454.784C414.531 453.106 418.326 454.605 420.162 459.106C421.758 463.017 419.841 467.591 417.972 471.2C416.451 474.137 414.23 476.045 411.879 475.098C408.988 473.933 406.169 471.018 406.031 466.387Z" fill="#FD70FD"/>
<path fill-rule="evenodd" clip-rule="evenodd" d="M444.906 399.118C444.967 395.439 446.802 391.91 450.477 390.605C454.783 389.076 459.99 389.334 462.754 392.78C465.628 396.362 464.826 401.328 461.955 404.912C459.221 408.325 454.47 409.928 450.185 408.472C446.27 407.141 444.843 403.016 444.906 399.118Z" fill="#FD70FD"/>
<path fill-rule="evenodd" clip-rule="evenodd" d="M405 409.363C404.992 407.927 406.834 407.194 408.479 406.736C410.206 406.254 412.345 405.796 413.414 407.017C414.481 408.236 413.347 409.813 412.187 410.971C411.281 411.875 409.878 412.223 408.508 411.916C406.846 411.544 405.008 410.787 405 409.363Z" fill="#FD70FD"/>
<path d="M412.162 432.747C412.162 443.697 421.199 452.573 432.347 452.573C443.494 452.573 452.531 443.697 452.531 432.747C452.531 421.797 443.494 412.921 432.347 412.921C421.199 412.921 412.162 421.797 412.162 432.747Z" fill="#7A7AFC"/>
<path d="M414.42 434.411C414.42 445.361 423.457 454.237 434.604 454.237C445.752 454.237 454.789 445.361 454.789 434.411C454.789 423.461 445.752 414.585 434.604 414.585C423.457 414.585 414.42 423.461 414.42 434.411Z" fill="#7A7AFC" stroke="#00008B" stroke-width="2" stroke-miterlimit="10"/>
<path d="M430.023 446.387C431.089 446.344 432.157 446.3 433.223 446.257C434.751 446.195 436.279 446.133 437.806 446.072C438.501 446.044 439.23 446.107 439.6 445.375C439.988 444.602 439.24 442.741 438.678 442.165C438.604 442.091 438.481 442.042 438.328 442.013C438.33 442.007 438.329 442 438.328 441.994C438.431 439.967 439.283 438.045 440.697 436.625C440.726 436.594 440.858 436.465 440.797 436.409C437.956 433.776 435.564 430.203 434.642 426.427C434.633 426.384 434.608 426.369 434.564 426.37C434.306 426.381 434.051 426.392 433.791 426.404L434.143 437.463C434.172 437.465 434.201 437.469 434.231 437.476C434.835 437.58 435.261 438.159 435.32 438.746C435.398 439.561 434.648 439.928 433.951 439.808C433.35 439.7 432.921 439.122 432.866 438.536C432.857 437.841 433.327 437.46 433.932 437.452L432.897 426.441C432.805 426.444 432.712 426.446 432.621 426.451C432.462 426.458 432.24 426.621 432.217 426.785C431.721 430.582 429.757 434.293 427.241 437.115C427.221 437.14 427.141 437.242 427.188 437.281C428.801 438.627 429.91 440.479 430.251 442.559L430.237 442.567C429.952 442.726 429.749 442.995 429.578 443.473C429.573 443.491 429.572 443.5 429.57 443.514C429.571 443.516 429.567 443.519 429.567 443.522C429.453 444.176 428.632 446.442 430.023 446.387Z" fill="#00008B"/>
<path d="M425.4 431.431C425.376 430.994 425.087 430.633 424.699 430.498C425.143 426.342 428.187 423.172 432.223 422.574C432.365 423.007 432.777 423.315 433.248 423.297C433.72 423.278 434.097 422.936 434.189 422.491C438.247 422.754 441.538 425.928 442.513 429.795C442.163 429.97 441.931 430.342 441.955 430.764C441.987 431.333 442.469 431.778 443.035 431.754C443.599 431.732 444.032 431.251 444.001 430.681C443.971 430.149 443.548 429.733 443.034 429.696C442.063 425.394 438.436 422.359 434.195 422.102C434.107 421.592 433.659 421.21 433.134 421.231C432.609 421.252 432.202 421.672 432.173 422.19C432.157 422.192 432.143 422.192 432.127 422.194C427.957 422.83 424.868 426.366 424.28 430.445C423.737 430.488 423.323 430.957 423.354 431.514C423.385 432.083 423.869 432.528 424.433 432.505C424.999 432.482 425.431 432 425.4 431.431Z" fill="#00008B"/>
<path d="M427.188 437.282C427.141 437.242 427.221 437.14 427.241 437.116C429.757 434.294 431.721 430.583 432.218 426.786C432.24 426.621 432.462 426.458 432.621 426.452C432.712 426.447 432.805 426.444 432.897 426.441L433.932 437.452C433.328 437.46 432.857 437.841 432.866 438.536C432.922 439.122 433.35 439.7 433.951 439.809C434.648 439.928 435.399 439.561 435.32 438.746C435.262 438.16 434.835 437.58 434.231 437.476C434.201 437.47 434.172 437.465 434.143 437.464L433.792 426.404C434.052 426.393 434.307 426.381 434.565 426.371C434.608 426.37 434.633 426.385 434.642 426.428C435.564 430.204 437.956 433.776 440.798 436.41C440.858 436.465 440.727 436.595 440.697 436.625C439.284 438.046 438.432 439.967 438.328 441.995L430.237 442.568L430.251 442.56C429.91 440.48 428.802 438.627 427.188 437.282Z" fill="white"/>
<path d="M442.057 431.3C441.754 430.774 441.926 430.105 442.443 429.807C442.96 429.509 443.625 429.693 443.929 430.219C444.233 430.745 444.06 431.414 443.543 431.712C443.027 432.01 442.361 431.826 442.057 431.3Z" fill="white"/>
<path d="M423.488 432.054C423.184 431.528 423.357 430.86 423.874 430.561C424.391 430.263 425.056 430.448 425.36 430.974C425.663 431.5 425.491 432.168 424.974 432.467C424.457 432.765 423.792 432.58 423.488 432.054Z" fill="white"/>
<path d="M432.255 422.803C431.951 422.277 432.124 421.609 432.641 421.31C433.158 421.012 433.823 421.197 434.127 421.723C434.431 422.249 434.258 422.917 433.741 423.216C433.224 423.514 432.559 423.329 432.255 422.803Z" fill="white"/>
<path fill-rule="evenodd" clip-rule="evenodd" d="M130.245 91.8409C130.119 87.7318 130.692 82.9268 134.622 81.5545C138.758 80.1103 142.793 83.0683 145.397 86.5503C148.077 90.1324 149.94 94.884 147.285 98.4838C144.633 102.08 139.393 102.014 135.198 100.379C131.779 99.046 130.356 95.464 130.245 91.8409Z" fill="#FD70FD"/>
<path fill-rule="evenodd" clip-rule="evenodd" d="M101.075 165.709C100.922 160.489 103.088 155.745 106.227 154.098C109.429 152.419 113.158 153.919 114.963 158.422C116.532 162.336 114.647 166.913 112.81 170.524C111.315 173.464 109.133 175.373 106.823 174.425C103.981 173.259 101.21 170.343 101.075 165.709Z" fill="#FD70FD"/>
<path fill-rule="evenodd" clip-rule="evenodd" d="M143.304 137.738C143.363 134.057 145.167 130.526 148.779 129.22C153.01 127.69 158.128 127.948 160.845 131.396C163.669 134.981 162.881 139.949 160.059 143.536C157.372 146.951 152.703 148.555 148.492 147.098C144.644 145.766 143.242 141.638 143.304 137.738Z" fill="#FD70FD"/>
<path fill-rule="evenodd" clip-rule="evenodd" d="M89 128.56C88.9921 127.123 90.8022 126.39 92.419 125.931C94.117 125.449 96.2188 124.991 97.2697 126.213C98.3181 127.432 97.2033 129.01 96.063 130.169C95.173 131.074 93.7943 131.422 92.4475 131.115C90.8139 130.743 89.0079 129.985 89 128.56Z" fill="#FD70FD"/>
<path d="M108.517 136.881C114.568 142.93 124.378 142.931 130.428 136.882C136.479 130.833 136.478 121.025 130.427 114.976C124.377 108.927 114.567 108.927 108.516 114.975C102.466 121.024 102.466 130.832 108.517 136.881Z" fill="#F6A915"/>
<path d="M110.73 136.268C116.781 142.319 126.591 142.32 132.642 136.269C138.692 130.219 138.692 120.409 132.641 114.358C126.59 108.307 116.78 108.307 110.73 114.357C104.679 120.407 104.68 130.217 110.73 136.268Z" stroke="#F67215" stroke-width="1.3979" stroke-miterlimit="10"/>
<path d="M127.629 123.895C127.629 126.72 126.379 129.084 124.054 130.336C123.008 130.9 122.052 135.206 122.052 135.206L117.517 135.115C117.517 135.115 116.771 130.539 115.977 129.986C114.052 128.645 112.793 126.417 112.793 123.895C112.793 119.798 116.114 116.478 120.211 116.478C124.308 116.478 127.629 119.799 127.629 123.895Z" stroke="white" stroke-miterlimit="10"/>
<path d="M118.153 129.947L116.974 123.236L119.876 124.868L122.687 123.236L121.599 129.947" stroke="white" stroke-miterlimit="10"/>
</svg>
