<svg width="560" height="560" viewBox="0 0 560 560" fill="none" xmlns="http://www.w3.org/2000/svg">
<path fill-rule="evenodd" clip-rule="evenodd" d="M352.872 484.976C349.272 486.994 344.684 488.686 341.388 485.676C337.92 482.509 338.433 477.4 340.167 473.374C341.95 469.233 345.207 465.307 349.818 466.104C354.424 466.9 357.126 471.789 357.878 476.434C358.491 480.221 356.045 483.198 352.872 484.976Z" fill="#FD70FD"/>
<path fill-rule="evenodd" clip-rule="evenodd" d="M276.164 484.211C271.587 486.767 266.214 486.953 263.09 484.804C259.904 482.612 259.278 478.46 262.344 474.704C265.009 471.439 270.085 471.069 274.275 471.102C277.685 471.129 280.538 472.269 280.91 474.85C281.367 478.024 280.226 481.942 276.164 484.211Z" fill="#FD70FD"/>
<path fill-rule="evenodd" clip-rule="evenodd" d="M277.597 523.613C276.319 524.285 274.711 522.946 273.45 521.659C272.125 520.308 270.608 518.571 271.145 517.031C271.68 515.495 273.675 515.799 275.31 516.32C276.586 516.727 277.623 517.844 278.059 519.235C278.588 520.922 278.864 522.947 277.597 523.613Z" fill="#FD70FD"/>
<path d="M286.323 495.989C286.323 507.466 295.626 516.769 307.102 516.769C318.578 516.769 327.881 507.466 327.881 495.989C327.881 484.513 318.578 475.209 307.102 475.209C295.626 475.209 286.323 484.513 286.323 495.989Z" fill="#30B47A"/>
<path d="M288.647 497.861C288.647 509.338 297.95 518.641 309.427 518.641C320.903 518.641 330.206 509.338 330.206 497.861C330.206 486.385 320.903 477.081 309.427 477.081C297.95 477.081 288.647 486.385 288.647 497.861Z" stroke="#0C8563" stroke-width="2" stroke-miterlimit="10"/>
<path d="M296.975 500.934L302.429 506.014L318.54 491.004" stroke="white" stroke-width="2" stroke-miterlimit="10"/>
<path fill-rule="evenodd" clip-rule="evenodd" d="M295.934 89.3564C292.927 86.5269 289.919 82.7103 291.717 78.9623C293.611 75.0177 298.558 74.2716 302.869 74.9065C307.304 75.5597 311.994 77.6192 312.676 82.0493C313.359 86.4755 309.614 90.126 305.493 91.9245C302.134 93.3906 298.585 91.8512 295.934 89.3564Z" fill="#FD70FD"/>
<path fill-rule="evenodd" clip-rule="evenodd" d="M270.461 102.044C266.645 98.4443 264.805 93.5468 265.851 90.162C266.917 86.7097 270.615 85.1438 275.086 87.0683C278.973 88.7411 280.894 93.3213 282.162 97.1821C283.194 100.325 283.01 103.221 280.707 104.178C277.873 105.355 273.847 105.239 270.461 102.044Z" fill="#FD70FD"/>
<path fill-rule="evenodd" clip-rule="evenodd" d="M287.83 44.9463C285.258 42.2906 284.023 38.5095 285.644 35.0331C287.543 30.961 291.338 27.5327 295.704 28.0644C300.243 28.617 303.215 32.7022 303.771 37.2404C304.301 41.5621 302.144 45.9958 298.138 47.9323C294.477 49.7021 290.556 47.7605 287.83 44.9463Z" fill="#FD70FD"/>
<path fill-rule="evenodd" clip-rule="evenodd" d="M248.16 71.5788C247.134 70.564 247.89 68.766 248.705 67.2991C249.561 65.7586 250.719 63.9497 252.329 64.0761C253.934 64.2022 254.268 66.1094 254.287 67.7373C254.301 69.008 253.575 70.2279 252.407 70.9604C250.99 71.8489 249.178 72.5854 248.16 71.5788Z" fill="#FD70FD"/>
<path d="M265.034 76.4714C270.963 82.4002 280.544 82.4312 286.435 76.5406C292.325 70.6501 292.295 61.0687 286.366 55.1399C280.437 49.2112 270.856 49.1802 264.965 55.0708C259.075 60.9613 259.106 70.5427 265.034 76.4714Z" fill="#FF5940"/>
<path d="M267.129 76.1787C273.058 82.1075 282.639 82.1384 288.53 76.2479C294.42 70.3574 294.389 60.776 288.461 54.8472C282.532 48.9185 272.95 48.8875 267.06 54.7781C261.169 60.6686 261.2 70.25 267.129 76.1787Z" stroke="#D15036" stroke-width="1.7593" stroke-miterlimit="10"/>
<path d="M276.659 69.0158C279.753 69.099 282.327 66.675 282.41 63.6015C282.493 60.528 280.052 57.9689 276.959 57.8856C273.865 57.8024 271.29 60.2264 271.208 63.2999C271.125 66.3735 273.566 68.9325 276.659 69.0158Z" stroke="white" stroke-width="2" stroke-miterlimit="10"/>
<path d="M280.939 67.3962L285.461 72.1367" stroke="white" stroke-width="2" stroke-miterlimit="10"/>
<path fill-rule="evenodd" clip-rule="evenodd" d="M500.549 322.2C496.75 318.621 494.957 313.71 496.052 310.288C497.168 306.797 500.912 305.175 505.393 307.058C509.287 308.696 511.166 313.286 512.396 317.159C513.397 320.312 513.176 323.231 510.844 324.224C507.975 325.444 503.921 325.377 500.549 322.2Z" fill="#FD70FD"/>
<path fill-rule="evenodd" clip-rule="evenodd" d="M480.472 247.144C477.913 244.501 476.716 240.707 478.392 237.185C480.355 233.06 484.219 229.56 488.61 230.042C493.176 230.543 496.12 234.622 496.624 239.186C497.104 243.533 494.878 248.026 490.819 250.025C487.109 251.853 483.183 249.945 480.472 247.144Z" fill="#FD70FD"/>
<path fill-rule="evenodd" clip-rule="evenodd" d="M459.498 282.606C458.477 281.597 459.261 279.776 460.1 278.289C460.981 276.727 462.169 274.89 463.789 274.998C465.405 275.105 465.718 277.022 465.717 278.662C465.716 279.942 464.97 281.179 463.784 281.931C462.345 282.844 460.511 283.608 459.498 282.606Z" fill="#FD70FD"/>
<path d="M475.588 276.981C474.671 287.892 482.933 297.494 494.041 298.427C505.149 299.361 514.897 291.272 515.814 280.361C516.731 269.45 508.47 259.848 497.361 258.914C486.253 257.981 476.505 266.069 475.588 276.981Z" fill="#7A7AFC"/>
<path d="M477.699 278.828C476.782 289.739 485.044 299.341 496.152 300.275C507.26 301.208 517.008 293.12 517.925 282.208C518.842 271.297 510.58 261.695 499.472 260.762C488.364 259.828 478.616 267.917 477.699 278.828Z" fill="#7A7AFC" stroke="#00008B" stroke-width="2" stroke-miterlimit="10"/>
<path d="M492.243 292.069C493.309 292.115 494.377 292.161 495.443 292.207C496.971 292.273 498.499 292.339 500.025 292.406C500.72 292.436 501.442 292.56 501.872 291.861C502.323 291.124 501.734 289.207 501.222 288.586C501.154 288.506 501.036 288.447 500.886 288.405C500.888 288.399 500.887 288.392 500.888 288.387C501.16 286.375 502.17 284.531 503.698 283.234C503.73 283.206 503.872 283.088 503.816 283.028C501.205 280.165 499.121 276.406 498.518 272.565C498.513 272.522 498.49 272.505 498.446 272.503C498.188 272.491 497.933 272.481 497.673 272.471L497.096 283.521C497.126 283.525 497.154 283.532 497.183 283.541C497.777 283.695 498.153 284.308 498.162 284.898C498.172 285.716 497.393 286.019 496.709 285.842C496.118 285.683 495.74 285.071 495.734 284.483C495.783 283.789 496.284 283.449 496.887 283.492L496.779 272.433C496.686 272.428 496.594 272.423 496.503 272.421C496.344 272.414 496.109 272.557 496.073 272.72C495.259 276.461 492.992 279.995 490.248 282.596C490.226 282.619 490.138 282.714 490.181 282.758C491.676 284.233 492.626 286.172 492.791 288.274L492.777 288.28C492.479 288.415 492.255 288.666 492.043 289.127C492.037 289.146 492.036 289.154 492.033 289.168C492.034 289.17 492.03 289.172 492.028 289.175C491.86 289.818 490.852 292.007 492.243 292.069Z" fill="#00008B"/>
<path d="M488.889 276.778C488.902 276.341 488.644 275.957 488.269 275.79C489.06 271.686 492.359 268.782 496.431 268.523C496.536 268.967 496.92 269.308 497.391 269.329C497.863 269.35 498.267 269.041 498.397 268.606C502.418 269.207 505.432 272.645 506.079 276.58C505.716 276.725 505.454 277.076 505.442 277.498C505.426 278.069 505.869 278.553 506.435 278.576C506.999 278.601 507.471 278.158 507.487 277.587C507.503 277.055 507.116 276.605 506.607 276.525C505.999 272.157 502.64 268.83 498.435 268.218C498.39 267.703 497.975 267.284 497.451 267.261C496.925 267.238 496.485 267.623 496.413 268.136C496.397 268.138 496.382 268.137 496.367 268.137C492.158 268.422 488.783 271.687 487.856 275.702C487.311 275.699 486.859 276.132 486.843 276.69C486.826 277.26 487.272 277.743 487.836 277.767C488.402 277.792 488.872 277.348 488.889 276.778Z" fill="#00008B"/>
<path d="M490.181 282.758C490.138 282.714 490.226 282.62 490.248 282.597C492.992 279.995 495.26 276.461 496.073 272.72C496.109 272.557 496.344 272.414 496.503 272.421C496.594 272.423 496.687 272.428 496.779 272.433L496.887 283.492C496.284 283.449 495.783 283.79 495.734 284.483C495.74 285.071 496.119 285.683 496.709 285.842C497.393 286.019 498.172 285.716 498.162 284.898C498.153 284.308 497.777 283.695 497.183 283.541C497.154 283.532 497.126 283.525 497.096 283.521L497.673 272.471C497.933 272.482 498.188 272.492 498.446 272.503C498.49 272.505 498.513 272.522 498.519 272.566C499.121 276.406 501.205 280.165 503.816 283.028C503.872 283.088 503.73 283.206 503.698 283.234C502.17 284.531 501.16 286.375 500.888 288.387L492.777 288.28L492.791 288.274C492.626 286.172 491.676 284.233 490.181 282.758Z" fill="white"/>
<path d="M505.499 278.042C505.241 277.493 505.469 276.841 506.009 276.587C506.549 276.333 507.196 276.573 507.455 277.122C507.713 277.672 507.485 278.323 506.945 278.577C506.405 278.831 505.758 278.592 505.499 278.042Z" fill="white"/>
<path d="M486.932 277.239C486.673 276.689 486.902 276.038 487.442 275.784C487.982 275.53 488.629 275.769 488.888 276.319C489.146 276.869 488.918 277.52 488.378 277.774C487.838 278.028 487.191 277.789 486.932 277.239Z" fill="white"/>
<path d="M496.443 268.755C496.184 268.205 496.412 267.554 496.952 267.299C497.492 267.045 498.14 267.285 498.398 267.835C498.657 268.384 498.429 269.036 497.889 269.29C497.349 269.544 496.702 269.304 496.443 268.755Z" fill="white"/>
<path fill-rule="evenodd" clip-rule="evenodd" d="M40.6949 252.365C37.7005 249.549 34.7077 245.746 36.5164 241.997C38.4201 238.051 43.3645 237.29 47.6683 237.91C52.0959 238.548 56.7734 240.591 57.4415 245.013C58.109 249.432 54.3567 253.091 50.2346 254.9C46.8747 256.375 43.3353 254.849 40.6949 252.365Z" fill="#FD70FD"/>
<path fill-rule="evenodd" clip-rule="evenodd" d="M72.3011 325.225C68.5018 321.642 66.6795 316.756 67.7347 313.371C68.8109 309.92 72.509 308.344 76.9694 310.252C80.8462 311.91 82.75 316.479 84.0044 320.331C85.0256 323.467 84.8325 326.36 82.5286 327.323C79.6947 328.508 75.6735 328.405 72.3011 325.225Z" fill="#FD70FD"/>
<path fill-rule="evenodd" clip-rule="evenodd" d="M82.3835 275.586C79.8227 272.941 78.6012 269.168 80.2319 265.691C82.142 261.617 85.9428 258.181 90.3023 258.698C94.8341 259.236 97.7901 263.307 98.331 267.838C98.8461 272.153 96.6782 276.588 92.6705 278.535C89.008 280.315 85.0973 278.388 82.3835 275.586Z" fill="#FD70FD"/>
<path fill-rule="evenodd" clip-rule="evenodd" d="M37.4945 307.494C36.4729 306.484 37.2344 304.686 38.0531 303.218C38.913 301.677 40.0749 299.866 41.6823 299.987C43.2857 300.108 43.6131 302.012 43.6265 303.638C43.6369 304.907 42.9081 306.128 41.7388 306.863C40.3205 307.755 38.5078 308.497 37.4945 307.494Z" fill="#FD70FD"/>
<path d="M45.0924 293.682C50.8056 300.053 60.6011 300.586 66.9713 294.874C73.3415 289.161 73.8741 279.365 68.161 272.995C62.4478 266.624 52.6523 266.091 46.2821 271.803C39.9119 277.516 39.3793 287.312 45.0924 293.682Z" fill="#F6A915"/>
<path d="M47.3363 293.182C53.0495 299.553 62.845 300.086 69.2152 294.374C75.5854 288.661 76.118 278.865 70.4049 272.495C64.6917 266.124 54.8962 265.591 48.526 271.303C42.1558 277.016 41.6232 286.812 47.3363 293.182Z" stroke="#F67215" stroke-width="1.3979" stroke-miterlimit="10"/>
<path d="M64.8825 281.745C64.7289 284.566 63.3516 286.859 60.9627 287.983C59.8873 288.489 58.6987 292.737 58.6987 292.737L54.1758 292.4C54.1758 292.4 53.6793 287.79 52.9161 287.194C51.0676 285.751 49.9311 283.458 50.0682 280.939C50.2908 276.849 53.7875 273.714 57.8777 273.936C61.9691 274.159 65.105 277.656 64.8825 281.745Z" stroke="white" stroke-miterlimit="10"/>
<path d="M55.0912 287.274L54.2791 280.509L57.0877 282.296L59.9836 280.819L58.5323 287.461" stroke="white" stroke-miterlimit="10"/>
</svg>
