<svg width="560" height="560" viewBox="0 0 560 560" fill="none" xmlns="http://www.w3.org/2000/svg">
<path fill-rule="evenodd" clip-rule="evenodd" d="M75.0238 352.872C73.0064 349.273 71.3146 344.684 74.324 341.389C77.4912 337.92 82.6002 338.433 86.6258 340.167C90.7672 341.95 94.693 345.207 93.8965 349.818C93.1006 354.424 88.2113 357.127 83.5659 357.878C79.7794 358.491 76.8026 356.046 75.0238 352.872Z" fill="#FD70FD"/>
<path fill-rule="evenodd" clip-rule="evenodd" d="M75.7896 276.164C73.2332 271.588 73.0477 266.214 75.1964 263.091C77.3881 259.905 81.5401 259.278 85.2965 262.344C88.5615 265.009 88.9313 270.086 88.8985 274.275C88.8717 277.685 87.7315 280.539 85.151 280.91C81.9766 281.368 78.0589 280.226 75.7896 276.164Z" fill="#FD70FD"/>
<path fill-rule="evenodd" clip-rule="evenodd" d="M36.3864 277.597C35.7144 276.319 37.0535 274.711 38.3404 273.45C39.6918 272.125 41.4285 270.608 42.9683 271.145C44.5043 271.68 44.2005 273.675 43.6795 275.31C43.2727 276.586 42.1554 277.623 40.7647 278.059C39.0778 278.588 37.0529 278.864 36.3864 277.597Z" fill="#FD70FD"/>
<path d="M41.1337 307.329C41.1337 318.805 50.4369 328.109 61.913 328.109C73.3891 328.109 82.6924 318.805 82.6924 307.329C82.6924 295.852 73.3891 286.549 61.913 286.549C50.4369 286.549 41.1337 295.852 41.1337 307.329Z" fill="#30B47A"/>
<path d="M43.4583 309.201C43.4583 320.677 52.7615 329.981 64.2376 329.981C75.7137 329.981 85.017 320.677 85.017 309.201C85.017 297.724 75.7137 288.421 64.2376 288.421C52.7615 288.421 43.4583 297.724 43.4583 309.201Z" stroke="#0C8563" stroke-width="2" stroke-miterlimit="10"/>
<path d="M51.7861 312.274L57.2397 317.354L73.3513 302.344" stroke="white" stroke-width="2" stroke-miterlimit="10"/>
<path fill-rule="evenodd" clip-rule="evenodd" d="M470.644 295.934C473.473 292.927 477.29 289.919 481.038 291.718C484.982 293.611 485.729 298.559 485.094 302.87C484.44 307.304 482.381 311.994 477.951 312.677C473.525 313.359 469.874 309.614 468.076 305.493C466.61 302.134 468.149 298.586 470.644 295.934Z" fill="#FD70FD"/>
<path fill-rule="evenodd" clip-rule="evenodd" d="M457.956 270.461C461.556 266.646 466.453 264.806 469.838 265.851C473.29 266.918 474.856 270.615 472.932 275.087C471.259 278.973 466.679 280.894 462.818 282.162C459.675 283.194 456.78 283.01 455.822 280.707C454.645 277.873 454.761 273.847 457.956 270.461Z" fill="#FD70FD"/>
<path fill-rule="evenodd" clip-rule="evenodd" d="M515.054 287.83C517.709 285.258 521.491 284.023 524.967 285.644C529.039 287.544 532.467 291.338 531.936 295.704C531.383 300.243 527.298 303.215 522.76 303.771C518.438 304.301 514.004 302.145 512.068 298.139C510.298 294.477 512.24 290.556 515.054 287.83Z" fill="#FD70FD"/>
<path fill-rule="evenodd" clip-rule="evenodd" d="M488.421 248.16C489.436 247.134 491.234 247.89 492.701 248.705C494.241 249.561 496.05 250.719 495.924 252.329C495.798 253.934 493.891 254.268 492.263 254.287C490.992 254.301 489.772 253.575 489.04 252.407C488.151 250.99 487.415 249.178 488.421 248.16Z" fill="#FD70FD"/>
<path d="M482.628 287.56C488.556 293.488 498.138 293.519 504.028 287.629C509.919 281.738 509.888 272.157 503.959 266.228C498.03 260.299 488.449 260.268 482.558 266.159C476.668 272.049 476.699 281.631 482.628 287.56Z" fill="#FF5940"/>
<path d="M484.722 287.267C490.651 293.195 500.232 293.226 506.123 287.336C512.013 281.445 511.983 271.864 506.054 265.935C500.125 260.006 490.544 259.975 484.653 265.866C478.763 271.756 478.794 281.338 484.722 287.267Z" stroke="#D15036" stroke-width="1.7593" stroke-miterlimit="10"/>
<path d="M494.252 280.104C497.346 280.187 499.921 277.763 500.003 274.689C500.086 271.616 497.646 269.057 494.552 268.974C491.459 268.89 488.884 271.314 488.801 274.388C488.718 277.461 491.159 280.02 494.252 280.104Z" stroke="white" stroke-width="2" stroke-miterlimit="10"/>
<path d="M498.533 278.484L503.054 283.225" stroke="white" stroke-width="2" stroke-miterlimit="10"/>
<path fill-rule="evenodd" clip-rule="evenodd" d="M237.8 500.55C241.379 496.751 246.29 494.957 249.712 496.052C253.203 497.169 254.825 500.912 252.942 505.393C251.304 509.287 246.714 511.166 242.841 512.396C239.688 513.397 236.769 513.176 235.776 510.844C234.556 507.976 234.623 503.922 237.8 500.55Z" fill="#FD70FD"/>
<path fill-rule="evenodd" clip-rule="evenodd" d="M312.856 480.472C315.499 477.914 319.293 476.716 322.815 478.392C326.94 480.355 330.44 484.219 329.958 488.611C329.457 493.176 325.378 496.12 320.814 496.624C316.467 497.105 311.974 494.878 309.975 490.819C308.147 487.109 310.055 483.183 312.856 480.472Z" fill="#FD70FD"/>
<path fill-rule="evenodd" clip-rule="evenodd" d="M277.394 459.498C278.403 458.477 280.224 459.261 281.711 460.1C283.273 460.981 285.11 462.169 285.002 463.789C284.895 465.405 282.978 465.718 281.338 465.717C280.059 465.716 278.821 464.969 278.069 463.784C277.156 462.345 276.392 460.511 277.394 459.498Z" fill="#FD70FD"/>
<path d="M259.092 495.924C259.092 506.874 268.129 515.75 279.276 515.75C290.424 515.75 299.46 506.874 299.46 495.924C299.46 484.975 290.424 476.098 279.276 476.098C268.129 476.098 259.092 484.975 259.092 495.924Z" fill="#7A7AFC"/>
<path d="M261.35 497.589C261.35 508.538 270.387 517.415 281.534 517.415C292.682 517.415 301.719 508.538 301.719 497.589C301.719 486.639 292.682 477.763 281.534 477.763C270.387 477.763 261.35 486.639 261.35 497.589Z" fill="#7A7AFC" stroke="#00008B" stroke-width="2" stroke-miterlimit="10"/>
<path d="M276.953 509.565C278.019 509.522 279.086 509.478 280.152 509.435C281.681 509.373 283.209 509.311 284.735 509.25C285.43 509.221 286.16 509.284 286.53 508.552C286.918 507.779 286.17 505.918 285.608 505.343C285.534 505.268 285.411 505.219 285.258 505.19C285.26 505.184 285.259 505.177 285.258 505.172C285.361 503.144 286.214 501.222 287.627 499.802C287.657 499.771 287.789 499.642 287.728 499.586C284.886 496.953 282.495 493.381 281.572 489.605C281.563 489.562 281.539 489.547 281.495 489.548C281.237 489.558 280.982 489.57 280.722 489.582L281.073 500.641C281.102 500.642 281.131 500.647 281.161 500.653C281.765 500.757 282.191 501.337 282.25 501.923C282.328 502.738 281.578 503.105 280.881 502.986C280.279 502.877 279.851 502.299 279.796 501.713C279.787 501.018 280.257 500.637 280.862 500.629L279.828 489.618C279.735 489.621 279.643 489.624 279.552 489.629C279.393 489.635 279.171 489.798 279.148 489.963C278.651 493.76 276.687 497.471 274.171 500.293C274.151 500.318 274.071 500.42 274.118 500.459C275.731 501.804 276.84 503.657 277.18 505.737L277.167 505.745C276.882 505.904 276.679 506.173 276.507 506.65C276.502 506.669 276.502 506.677 276.5 506.692C276.501 506.694 276.497 506.696 276.496 506.699C276.382 507.354 275.561 509.62 276.953 509.565Z" fill="#00008B"/>
<path d="M272.33 494.609C272.306 494.172 272.017 493.811 271.628 493.676C272.073 489.52 275.118 486.35 279.153 485.752C279.295 486.185 279.707 486.492 280.178 486.474C280.65 486.455 281.027 486.114 281.12 485.669C285.177 485.931 288.468 489.105 289.443 492.972C289.093 493.147 288.861 493.518 288.885 493.94C288.917 494.51 289.399 494.955 289.965 494.931C290.529 494.909 290.961 494.428 290.93 493.858C290.901 493.326 290.478 492.91 289.964 492.873C288.993 488.571 285.367 485.537 281.125 485.28C281.038 484.77 280.589 484.388 280.065 484.408C279.539 484.43 279.132 484.85 279.104 485.367C279.088 485.37 279.073 485.37 279.057 485.372C274.887 486.008 271.798 489.544 271.21 493.623C270.666 493.666 270.253 494.135 270.284 494.692C270.315 495.261 270.799 495.706 271.363 495.683C271.929 495.66 272.361 495.178 272.33 494.609Z" fill="#00008B"/>
<path d="M274.118 500.459C274.071 500.419 274.151 500.317 274.171 500.293C276.687 497.471 278.651 493.76 279.148 489.963C279.171 489.798 279.393 489.635 279.551 489.629C279.643 489.624 279.735 489.621 279.828 489.618L280.862 500.629C280.257 500.637 279.787 501.018 279.796 501.713C279.851 502.299 280.279 502.877 280.881 502.985C281.578 503.105 282.328 502.738 282.25 501.923C282.191 501.337 281.765 500.757 281.161 500.653C281.131 500.647 281.102 500.642 281.073 500.64L280.722 489.581C280.982 489.57 281.237 489.558 281.495 489.548C281.539 489.546 281.563 489.562 281.572 489.604C282.494 493.381 284.886 496.953 287.728 499.586C287.789 499.642 287.657 499.771 287.627 499.801C286.213 501.222 285.361 503.144 285.258 505.171L277.167 505.745L277.18 505.737C276.84 503.657 275.731 501.804 274.118 500.459Z" fill="white"/>
<path d="M288.987 494.478C288.684 493.952 288.856 493.283 289.373 492.985C289.89 492.686 290.555 492.871 290.859 493.397C291.163 493.923 290.99 494.591 290.473 494.89C289.956 495.188 289.291 495.004 288.987 494.478Z" fill="white"/>
<path d="M270.418 495.232C270.114 494.706 270.287 494.038 270.804 493.739C271.321 493.441 271.986 493.625 272.29 494.151C272.593 494.678 272.421 495.346 271.904 495.644C271.387 495.943 270.722 495.758 270.418 495.232Z" fill="white"/>
<path d="M279.185 485.981C278.881 485.455 279.054 484.787 279.571 484.488C280.088 484.19 280.753 484.374 281.057 484.901C281.36 485.427 281.188 486.095 280.671 486.393C280.154 486.692 279.489 486.507 279.185 485.981Z" fill="white"/>
<path fill-rule="evenodd" clip-rule="evenodd" d="M307.634 40.6949C310.451 37.7005 314.254 34.7077 318.003 36.5164C321.949 38.4201 322.71 43.3645 322.09 47.6683C321.451 52.0959 319.409 56.7734 314.986 57.4415C310.568 58.109 306.909 54.3567 305.1 50.2346C303.625 46.8747 305.151 43.3353 307.634 40.6949Z" fill="#FD70FD"/>
<path fill-rule="evenodd" clip-rule="evenodd" d="M234.775 72.3008C238.358 68.5016 243.244 66.6793 246.629 67.7344C250.08 68.8106 251.656 72.5088 249.748 76.9691C248.09 80.8459 243.521 82.7498 239.669 84.0042C236.533 85.0253 233.64 84.8322 232.677 82.5284C231.492 79.6944 231.595 75.6733 234.775 72.3008Z" fill="#FD70FD"/>
<path fill-rule="evenodd" clip-rule="evenodd" d="M284.414 82.3837C287.059 79.8228 290.832 78.6013 294.309 80.232C298.383 82.1421 301.819 85.9429 301.302 90.3024C300.764 94.8342 296.693 97.7902 292.162 98.3311C287.847 98.8463 283.412 96.6783 281.465 92.6706C279.685 89.0081 281.612 85.0974 284.414 82.3837Z" fill="#FD70FD"/>
<path fill-rule="evenodd" clip-rule="evenodd" d="M252.506 37.4947C253.516 36.4732 255.314 37.2346 256.782 38.0534C258.323 38.9132 260.134 40.0752 260.013 41.6825C259.892 43.2859 257.988 43.6133 256.362 43.6267C255.093 43.6371 253.872 42.9083 253.137 41.739C252.245 40.3207 251.503 38.508 252.506 37.4947Z" fill="#FD70FD"/>
<path d="M264.85 69.0135C270.901 75.0643 280.711 75.0647 286.761 69.0143C292.811 62.9639 292.811 53.1539 286.76 47.103C280.709 41.0522 270.899 41.0518 264.849 47.1022C258.799 53.1526 258.799 62.9626 264.85 69.0135Z" fill="#F6A915"/>
<path d="M267.063 68.3924C273.114 74.4432 282.924 74.4436 288.974 68.3932C295.025 62.3428 295.025 52.5328 288.974 46.4819C282.923 40.4311 273.113 40.4307 267.062 46.4811C261.012 52.5315 261.012 62.3415 267.063 68.3924Z" stroke="#F67215" stroke-width="1.3979" stroke-miterlimit="10"/>
<path d="M283.962 56.0194C283.962 58.8446 282.711 61.2082 280.387 62.4608C279.341 63.0246 278.385 67.3303 278.385 67.3303L273.85 67.2394C273.85 67.2394 273.104 62.6632 272.309 62.1101C270.385 60.7699 269.126 58.542 269.126 56.0194C269.126 51.9228 272.447 48.6025 276.543 48.6025C280.641 48.6025 283.962 51.9235 283.962 56.0194Z" stroke="white" stroke-miterlimit="10"/>
<path d="M274.486 62.071L273.307 55.3604L276.209 56.9924L279.02 55.3604L277.932 62.071" stroke="white" stroke-miterlimit="10"/>
</svg>
