<svg width="560" height="560" viewBox="0 0 560 560" fill="none" xmlns="http://www.w3.org/2000/svg">
<path fill-rule="evenodd" clip-rule="evenodd" d="M83.5234 186.518C84.6421 182.547 86.6904 178.106 91.1486 177.904C95.8406 177.691 99.0906 181.666 100.711 185.738C102.378 189.928 102.851 195.007 99.028 197.704C95.208 200.398 89.84 198.852 86.0236 196.099C82.9129 193.855 82.537 190.02 83.5234 186.518Z" fill="#FD70FD"/>
<path fill-rule="evenodd" clip-rule="evenodd" d="M138.306 132.819C139.734 127.776 143.402 123.845 147.13 123.156C150.933 122.453 154.312 124.945 154.8 129.77C155.224 133.963 151.896 137.814 148.911 140.753C146.48 143.145 143.656 144.357 141.569 142.795C139.001 140.874 137.038 137.296 138.306 132.819Z" fill="#FD70FD"/>
<path fill-rule="evenodd" clip-rule="evenodd" d="M109.43 105.97C109.858 104.592 111.942 104.401 113.744 104.419C115.637 104.438 117.937 104.594 118.647 106.062C119.354 107.526 117.729 108.722 116.204 109.51C115.014 110.125 113.491 110.068 112.199 109.393C110.632 108.574 109.005 107.338 109.43 105.97Z" fill="#FD70FD"/>
<path d="M91.7633 130.35C83.6482 138.465 83.648 151.622 91.7628 159.737C99.8776 167.852 113.035 167.852 121.15 159.737C129.265 151.622 129.265 138.465 121.15 130.35C113.035 122.235 99.8784 122.235 91.7633 130.35Z" fill="#30B47A"/>
<path d="M92.0833 133.318C83.9682 141.433 83.968 154.59 92.0829 162.705C100.198 170.82 113.355 170.82 121.47 162.704C129.585 154.589 129.585 141.432 121.47 133.318C113.355 125.203 100.198 125.203 92.0833 133.318Z" stroke="#0C8563" stroke-width="2" stroke-miterlimit="10"/>
<path d="M95.7989 141.38L96.0631 148.828L118.069 149.607" stroke="white" stroke-width="2" stroke-miterlimit="10"/>
<path fill-rule="evenodd" clip-rule="evenodd" d="M403.53 426.003C407.657 425.877 412.483 426.449 413.862 430.371C415.312 434.499 412.341 438.525 408.844 441.124C405.246 443.798 400.474 445.658 396.858 443.008C393.246 440.361 393.313 435.132 394.955 430.946C396.294 427.534 399.891 426.113 403.53 426.003Z" fill="#FD70FD"/>
<path fill-rule="evenodd" clip-rule="evenodd" d="M412.571 399.019C417.814 398.866 422.579 401.028 424.233 404.161C425.92 407.356 424.413 411.078 419.89 412.879C415.959 414.444 411.362 412.564 407.735 410.731C404.783 409.238 402.865 407.061 403.817 404.755C404.989 401.919 407.918 399.154 412.571 399.019Z" fill="#FD70FD"/>
<path fill-rule="evenodd" clip-rule="evenodd" d="M440.663 451.675C444.36 451.734 447.907 453.534 449.219 457.139C450.755 461.361 450.496 466.468 447.033 469.18C443.433 471.999 438.442 471.212 434.84 468.396C431.41 465.714 429.799 461.055 431.263 456.852C432.6 453.012 436.746 451.612 440.663 451.675Z" fill="#FD70FD"/>
<path fill-rule="evenodd" clip-rule="evenodd" d="M449.882 404.792C451.325 404.784 452.062 406.59 452.523 408.204C453.007 409.899 453.467 411.996 452.24 413.045C451.015 414.091 449.431 412.979 448.266 411.841C447.358 410.952 447.008 409.577 447.316 408.233C447.69 406.602 448.451 404.8 449.882 404.792Z" fill="#FD70FD"/>
<path d="M417.926 428.555C417.926 436.939 424.679 443.736 433.01 443.736C441.34 443.736 448.093 436.939 448.093 428.555C448.093 420.171 441.34 413.374 433.01 413.374C424.679 413.374 417.926 420.171 417.926 428.555Z" fill="#FF5940"/>
<path d="M419.614 429.829C419.614 438.213 426.367 445.01 434.698 445.01C443.028 445.01 449.782 438.213 449.782 429.829C449.782 421.444 443.028 414.647 434.698 414.647C426.367 414.647 419.614 421.444 419.614 429.829Z" stroke="#D15036" stroke-width="1.7593" stroke-miterlimit="10"/>
<path d="M431.418 431.503C433.547 433.749 437.081 433.856 439.313 431.741C441.545 429.626 441.629 426.091 439.5 423.845C437.372 421.598 433.837 421.492 431.605 423.607C429.373 425.721 429.29 429.257 431.418 431.503Z" stroke="white" stroke-width="2" stroke-miterlimit="10"/>
<path d="M435.59 433.384L435.435 439.933" stroke="white" stroke-width="2" stroke-miterlimit="10"/>
<path fill-rule="evenodd" clip-rule="evenodd" d="M94.2 406.042C99.4168 405.886 104.157 408.091 105.803 411.285C107.482 414.542 105.982 418.337 101.482 420.173C97.5703 421.769 92.9963 419.852 89.3876 417.983C86.4502 416.462 84.5421 414.241 85.4894 411.89C86.6548 408.999 89.5692 406.18 94.2 406.042Z" fill="#FD70FD"/>
<path fill-rule="evenodd" clip-rule="evenodd" d="M161.469 444.918C165.148 444.978 168.677 446.813 169.982 450.489C171.511 454.794 171.253 460.001 167.807 462.765C164.225 465.639 159.259 464.837 155.675 461.966C152.262 459.232 150.659 454.481 152.116 450.197C153.446 446.281 157.571 444.854 161.469 444.918Z" fill="#FD70FD"/>
<path fill-rule="evenodd" clip-rule="evenodd" d="M151.224 405.011C152.66 405.003 153.393 406.845 153.852 408.49C154.333 410.218 154.792 412.356 153.57 413.426C152.352 414.492 150.775 413.358 149.616 412.198C148.712 411.292 148.365 409.889 148.671 408.519C149.043 406.857 149.8 405.019 151.224 405.011Z" fill="#FD70FD"/>
<path d="M112.526 417.828C104.783 425.57 104.897 438.237 112.779 446.119C120.662 454.001 133.328 454.115 141.071 446.372C148.813 438.63 148.7 425.963 140.818 418.081C132.935 410.198 120.269 410.085 112.526 417.828Z" fill="#7A7AFC"/>
<path d="M112.946 420.601C105.203 428.344 105.317 441.01 113.199 448.893C121.081 456.775 133.748 456.888 141.491 449.146C149.233 441.403 149.12 428.737 141.237 420.854C133.355 412.972 120.688 412.858 112.946 420.601Z" fill="#7A7AFC" stroke="#00008B" stroke-width="2" stroke-miterlimit="10"/>
<path d="M115.51 440.102C116.294 440.825 117.08 441.549 117.864 442.272C118.989 443.309 120.113 444.346 121.236 445.382C121.747 445.853 122.218 446.414 122.998 446.157C123.819 445.885 124.606 444.041 124.615 443.236C124.615 443.131 124.564 443.01 124.476 442.881C124.482 442.878 124.486 442.872 124.489 442.868C125.996 441.507 127.957 440.751 129.961 440.746C130.004 440.745 130.188 440.747 130.185 440.665C130.038 436.794 130.872 432.577 132.89 429.254C132.914 429.218 132.908 429.19 132.876 429.16C132.686 428.985 132.498 428.812 132.305 428.637L124.733 436.705C124.753 436.727 124.77 436.75 124.787 436.776C125.14 437.277 125.032 437.988 124.659 438.444C124.138 439.076 123.348 438.804 122.939 438.227C122.591 437.725 122.697 437.014 123.072 436.56C123.557 436.062 124.159 436.126 124.593 436.548L131.647 428.031C131.58 427.967 131.512 427.904 131.444 427.843C131.328 427.735 131.055 427.693 130.923 427.794C127.887 430.127 123.874 431.363 120.099 431.578C120.067 431.582 119.939 431.598 119.943 431.659C120.133 433.751 119.607 435.844 118.377 437.556L118.362 437.552C118.048 437.463 117.714 437.51 117.255 437.726C117.239 437.736 117.233 437.741 117.221 437.75C117.22 437.752 117.216 437.751 117.213 437.753C116.67 438.135 114.487 439.157 115.51 440.102Z" fill="#00008B"/>
<path d="M122.816 426.257C123.108 425.932 123.159 425.472 122.98 425.102C126.233 422.478 130.627 422.389 133.904 424.82C133.698 425.227 133.772 425.735 134.118 426.055C134.465 426.376 134.973 426.4 135.353 426.152C138.037 429.206 138.12 433.777 136.074 437.201C135.704 437.077 135.277 437.176 134.995 437.491C134.615 437.917 134.641 438.572 135.058 438.955C135.473 439.339 136.119 439.304 136.5 438.879C136.855 438.483 136.85 437.889 136.513 437.499C138.868 433.771 138.45 429.061 135.632 425.881C135.931 425.458 135.884 424.87 135.498 424.514C135.112 424.157 134.527 424.167 134.141 424.513C134.128 424.503 134.117 424.493 134.105 424.484C130.706 421.984 126.021 422.3 122.722 424.769C122.307 424.415 121.683 424.454 121.311 424.87C120.93 425.294 120.958 425.951 121.373 426.334C121.789 426.717 122.436 426.682 122.816 426.257Z" fill="#00008B"/>
<path d="M119.944 431.658C119.939 431.597 120.067 431.582 120.099 431.578C123.874 431.363 127.887 430.127 130.923 427.793C131.055 427.693 131.328 427.735 131.444 427.843C131.512 427.904 131.58 427.967 131.647 428.031L124.593 436.547C124.159 436.126 123.557 436.062 123.072 436.56C122.697 437.014 122.591 437.725 122.94 438.227C123.348 438.804 124.138 439.076 124.659 438.444C125.032 437.988 125.141 437.277 124.787 436.776C124.77 436.75 124.753 436.727 124.733 436.705L132.306 428.637C132.498 428.812 132.686 428.985 132.876 429.16C132.908 429.19 132.914 429.218 132.89 429.254C130.872 432.576 130.038 436.794 130.185 440.665C130.189 440.747 130.004 440.745 129.961 440.746C127.957 440.751 125.996 441.507 124.489 442.868L118.362 437.552L118.377 437.556C119.608 435.844 120.133 433.751 119.944 431.658Z" fill="white"/>
<path d="M134.688 437.944C134.845 437.357 135.44 437.007 136.016 437.161C136.593 437.315 136.933 437.916 136.776 438.503C136.618 439.09 136.024 439.44 135.447 439.286C134.871 439.131 134.531 438.53 134.688 437.944Z" fill="white"/>
<path d="M121.024 425.347C121.181 424.76 121.776 424.409 122.352 424.564C122.929 424.718 123.269 425.319 123.112 425.906C122.954 426.493 122.36 426.843 121.783 426.689C121.207 426.534 120.867 425.933 121.024 425.347Z" fill="white"/>
<path d="M133.765 425.004C133.922 424.417 134.517 424.067 135.093 424.222C135.67 424.376 136.01 424.977 135.852 425.564C135.695 426.15 135.1 426.501 134.524 426.346C133.948 426.192 133.608 425.591 133.765 425.004Z" fill="white"/>
<path fill-rule="evenodd" clip-rule="evenodd" d="M468.747 130.256C472.856 130.13 477.661 130.703 479.033 134.633C480.477 138.77 477.519 142.804 474.037 145.409C470.455 148.088 465.704 149.951 462.104 147.296C458.507 144.644 458.574 139.404 460.209 135.209C461.542 131.791 465.124 130.367 468.747 130.256Z" fill="#FD70FD"/>
<path fill-rule="evenodd" clip-rule="evenodd" d="M394.879 101.086C400.099 100.933 404.842 103.099 406.489 106.238C408.169 109.44 406.668 113.169 402.165 114.974C398.251 116.543 393.674 114.658 390.063 112.821C387.124 111.326 385.215 109.144 386.163 106.834C387.329 103.992 390.245 101.221 394.879 101.086Z" fill="#FD70FD"/>
<path fill-rule="evenodd" clip-rule="evenodd" d="M422.849 143.315C426.53 143.375 430.061 145.179 431.367 148.791C432.897 153.022 432.639 158.139 429.191 160.856C425.607 163.681 420.638 162.892 417.051 160.071C413.636 157.384 412.032 152.714 413.49 148.504C414.821 144.656 418.949 143.253 422.849 143.315Z" fill="#FD70FD"/>
<path fill-rule="evenodd" clip-rule="evenodd" d="M432.028 89.0113C433.464 89.0033 434.198 90.8134 434.657 92.4302C435.138 94.1282 435.597 96.23 434.375 97.2809C433.156 98.3293 431.578 97.2145 430.419 96.0742C429.514 95.1842 429.166 93.8056 429.473 92.4588C429.845 90.8251 430.602 89.0191 432.028 89.0113Z" fill="#FD70FD"/>
<path d="M418.469 120.027C418.469 128.585 425.405 135.522 433.962 135.522C442.518 135.522 449.455 128.585 449.455 120.027C449.455 111.47 442.518 104.533 433.962 104.533C425.405 104.533 418.469 111.47 418.469 120.027Z" fill="#F6A915"/>
<path d="M420.473 121.153C420.473 129.711 427.41 136.648 435.966 136.648C444.523 136.648 451.459 129.711 451.459 121.153C451.459 112.596 444.523 105.659 435.966 105.659C427.41 105.659 420.473 112.596 420.473 121.153Z" stroke="#F67215" stroke-width="1.3979" stroke-miterlimit="10"/>
<path d="M441.172 124.353C439.174 126.351 436.618 127.138 434.089 126.38C432.95 126.039 429.23 128.408 429.23 128.408L426.088 125.137C426.088 125.137 428.796 121.373 428.625 120.421C428.212 118.112 428.897 115.646 430.681 113.863C433.578 110.966 438.274 110.967 441.17 113.863C444.068 116.76 444.068 121.457 441.172 124.353Z" stroke="white" stroke-miterlimit="10"/>
<path d="M430.191 121.932L434.103 116.353L435.001 119.559L438.143 120.393L432.628 124.368" stroke="white" stroke-miterlimit="10"/>
</svg>
