<svg width="560" height="560" viewBox="0 0 560 560" fill="none" xmlns="http://www.w3.org/2000/svg">
<path fill-rule="evenodd" clip-rule="evenodd" d="M484.976 207.128C486.994 210.728 488.686 215.316 485.676 218.612C482.509 222.08 477.4 221.567 473.374 219.833C469.233 218.05 465.307 214.793 466.104 210.182C466.9 205.576 471.789 202.874 476.434 202.122C480.221 201.509 483.198 203.955 484.976 207.128Z" fill="#FD70FD"/>
<path fill-rule="evenodd" clip-rule="evenodd" d="M484.211 283.837C486.767 288.413 486.953 293.786 484.804 296.91C482.612 300.096 478.46 300.722 474.704 297.656C471.439 294.991 471.069 289.915 471.102 285.725C471.129 282.315 472.269 279.462 474.849 279.09C478.024 278.633 481.941 279.774 484.211 283.837Z" fill="#FD70FD"/>
<path fill-rule="evenodd" clip-rule="evenodd" d="M523.613 282.403C524.285 283.681 522.946 285.289 521.659 286.55C520.308 287.875 518.571 289.392 517.031 288.855C515.495 288.32 515.799 286.325 516.32 284.69C516.727 283.414 517.844 282.377 519.235 281.941C520.922 281.412 522.947 281.136 523.613 282.403Z" fill="#FD70FD"/>
<path d="M474.984 250.8C474.984 262.276 484.287 271.58 495.763 271.58C507.239 271.58 516.542 262.276 516.542 250.8C516.542 239.323 507.239 230.02 495.763 230.02C484.287 230.02 474.984 239.323 474.984 250.8Z" fill="#30B47A"/>
<path d="M477.308 252.672C477.308 264.148 486.611 273.452 498.088 273.452C509.564 273.452 518.867 264.148 518.867 252.672C518.867 241.195 509.564 231.892 498.088 231.892C486.611 231.892 477.308 241.195 477.308 252.672Z" stroke="#0C8563" stroke-width="2" stroke-miterlimit="10"/>
<path d="M485.636 255.745L491.09 260.825L507.201 245.815" stroke="white" stroke-width="2" stroke-miterlimit="10"/>
<path fill-rule="evenodd" clip-rule="evenodd" d="M89.3562 264.066C86.5268 267.073 82.7102 270.081 78.9622 268.282C75.0176 266.389 74.2715 261.441 74.9064 257.131C75.5596 252.696 77.6191 248.006 82.0492 247.323C86.4754 246.641 90.1258 250.386 91.9244 254.507C93.3905 257.866 91.8511 261.415 89.3562 264.066Z" fill="#FD70FD"/>
<path fill-rule="evenodd" clip-rule="evenodd" d="M102.044 289.54C98.4442 293.355 93.5466 295.195 90.1619 294.149C86.7096 293.083 85.1436 289.385 87.0682 284.914C88.7409 281.027 93.3212 279.106 97.1819 277.838C100.325 276.806 103.22 276.99 104.178 279.293C105.355 282.127 105.239 286.153 102.044 289.54Z" fill="#FD70FD"/>
<path fill-rule="evenodd" clip-rule="evenodd" d="M44.9463 272.17C42.2906 274.742 38.5095 275.977 35.0331 274.356C30.961 272.457 27.5327 268.662 28.0644 264.296C28.617 259.757 32.7022 256.785 37.2404 256.229C41.5621 255.699 45.9958 257.856 47.9323 261.862C49.7021 265.523 47.7605 269.444 44.9463 272.17Z" fill="#FD70FD"/>
<path fill-rule="evenodd" clip-rule="evenodd" d="M71.5788 311.84C70.564 312.866 68.766 312.11 67.2991 311.295C65.7586 310.439 63.9497 309.281 64.0761 307.671C64.2022 306.066 66.1094 305.732 67.7373 305.713C69.008 305.699 70.2279 306.425 70.9604 307.593C71.8489 309.01 72.5854 310.822 71.5788 311.84Z" fill="#FD70FD"/>
<path d="M53.9461 294.065C59.8749 299.994 69.4563 300.025 75.3468 294.134C81.2373 288.244 81.2064 278.662 75.2776 272.733C69.3489 266.805 59.7675 266.774 53.877 272.664C47.9864 278.555 48.0174 288.136 53.9461 294.065Z" fill="#FF5940"/>
<path d="M56.0409 293.772C61.9696 299.701 71.551 299.732 77.4415 293.841C83.3321 287.951 83.3011 278.369 77.3724 272.44C71.4436 266.512 61.8622 266.481 55.9717 272.371C50.0812 278.262 50.1121 287.843 56.0409 293.772Z" stroke="#D15036" stroke-width="1.7593" stroke-miterlimit="10"/>
<path d="M65.5711 286.609C68.6645 286.692 71.2393 284.268 71.3221 281.195C71.4048 278.121 68.9641 275.562 65.8707 275.479C62.7772 275.396 60.2025 277.82 60.1197 280.893C60.037 283.967 62.4777 286.526 65.5711 286.609Z" stroke="white" stroke-width="2" stroke-miterlimit="10"/>
<path d="M69.8513 284.99L74.3725 289.73" stroke="white" stroke-width="2" stroke-miterlimit="10"/>
<path fill-rule="evenodd" clip-rule="evenodd" d="M322.2 59.4507C318.621 63.2495 313.71 65.0429 310.288 63.9482C306.797 62.8316 305.175 59.088 307.058 54.6073C308.696 50.7129 313.286 48.8344 317.159 47.6043C320.312 46.603 323.231 46.8239 324.224 49.1559C325.444 52.0245 325.377 56.0786 322.2 59.4507Z" fill="#FD70FD"/>
<path fill-rule="evenodd" clip-rule="evenodd" d="M247.144 79.5282C244.501 82.0866 240.707 83.2842 237.185 81.6083C233.06 79.6452 229.56 75.7812 230.042 71.3896C230.543 66.8244 234.622 63.8804 239.186 63.376C243.533 62.8956 248.026 65.1221 250.025 69.1812C251.853 72.8907 249.945 76.817 247.144 79.5282Z" fill="#FD70FD"/>
<path fill-rule="evenodd" clip-rule="evenodd" d="M282.606 100.502C281.597 101.523 279.776 100.739 278.289 99.8999C276.727 99.0188 274.89 97.8307 274.998 96.2109C275.105 94.595 277.022 94.2821 278.662 94.2834C279.941 94.2844 281.179 95.0304 281.931 96.2162C282.844 97.6546 283.608 99.4892 282.606 100.502Z" fill="#FD70FD"/>
<path d="M258.281 62.4116C258.281 73.3612 267.318 82.2377 278.465 82.2377C289.613 82.2377 298.65 73.3612 298.65 62.4116C298.65 51.4619 289.613 42.5854 278.465 42.5854C267.318 42.5854 258.281 51.4619 258.281 62.4116Z" fill="#7A7AFC"/>
<path d="M260.539 64.0756C260.539 75.0253 269.576 83.9018 280.723 83.9018C291.871 83.9018 300.908 75.0253 300.908 64.0756C300.908 53.126 291.871 44.2495 280.723 44.2495C269.576 44.2495 260.539 53.126 260.539 64.0756Z" fill="#7A7AFC" stroke="#00008B" stroke-width="2" stroke-miterlimit="10"/>
<path d="M276.142 76.0522C277.207 76.0093 278.275 75.9653 279.341 75.9223C280.87 75.8602 282.398 75.798 283.924 75.737C284.619 75.7085 285.349 75.7718 285.719 75.0392C286.107 74.2665 285.359 72.4053 284.797 71.8299C284.723 71.7557 284.6 71.7066 284.447 71.6776C284.449 71.6713 284.447 71.6642 284.447 71.6591C284.55 69.6316 285.403 67.7096 286.816 66.289C286.846 66.2586 286.978 66.1292 286.917 66.0738C284.075 63.4403 281.684 59.8682 280.761 56.092C280.752 56.0492 280.728 56.0341 280.684 56.0353C280.426 56.0459 280.171 56.0573 279.911 56.069L280.262 67.128C280.291 67.1295 280.32 67.1342 280.35 67.1408C280.954 67.2448 281.38 67.8242 281.439 68.4108C281.517 69.2258 280.767 69.5926 280.07 69.473C279.468 69.3648 279.04 68.7865 278.985 68.2008C278.976 67.5056 279.446 67.1247 280.051 67.1165L279.017 56.1059C278.924 56.1087 278.832 56.1115 278.741 56.1164C278.582 56.1227 278.36 56.2857 278.337 56.4505C277.84 60.2471 275.876 63.9586 273.36 66.7804C273.34 66.8051 273.26 66.907 273.307 66.9468C274.92 68.2919 276.029 70.1443 276.369 72.2245L276.356 72.2324C276.071 72.3916 275.868 72.6606 275.696 73.1378C275.691 73.1566 275.691 73.1649 275.689 73.1794C275.69 73.1814 275.686 73.1837 275.685 73.1868C275.571 73.8411 274.75 76.1071 276.142 76.0522Z" fill="#00008B"/>
<path d="M271.519 61.096C271.495 60.6595 271.206 60.2984 270.818 60.1635C271.262 56.0072 274.307 52.8373 278.342 52.239C278.484 52.6725 278.896 52.9796 279.367 52.9617C279.839 52.9427 280.216 52.6008 280.309 52.1564C284.366 52.4185 287.657 55.592 288.632 59.4593C288.282 59.6339 288.05 60.0058 288.074 60.4277C288.106 60.9974 288.588 61.4424 289.154 61.4183C289.718 61.3965 290.151 60.9151 290.119 60.3448C290.09 59.8136 289.667 59.3973 289.153 59.3601C288.182 55.0584 284.556 52.0241 280.315 51.7671C280.227 51.2574 279.778 50.8749 279.254 50.8958C278.728 50.9169 278.322 51.3374 278.293 51.8547C278.277 51.8571 278.262 51.8575 278.246 51.8596C274.076 52.4954 270.987 56.0316 270.399 60.11C269.855 60.1532 269.442 60.622 269.473 61.1792C269.504 61.7486 269.988 62.1933 270.552 62.1701C271.118 62.1473 271.55 61.6655 271.519 61.096Z" fill="#00008B"/>
<path d="M273.307 66.9469C273.26 66.9071 273.34 66.8052 273.36 66.7804C275.876 63.9587 277.84 60.2472 278.337 56.4506C278.36 56.2858 278.582 56.1228 278.741 56.1165C278.832 56.1116 278.924 56.1088 279.017 56.106L280.051 67.1166C279.446 67.1248 278.976 67.5057 278.985 68.2009C279.04 68.7866 279.468 69.3649 280.07 69.4731C280.767 69.5927 281.517 69.2258 281.439 68.4109C281.38 67.8243 280.954 67.2448 280.35 67.1409C280.32 67.1343 280.291 67.1296 280.262 67.1281L279.911 56.069C280.171 56.0574 280.426 56.046 280.684 56.0354C280.728 56.0341 280.752 56.0493 280.761 56.0921C281.684 59.8683 284.075 63.4403 286.917 66.0738C286.978 66.1293 286.846 66.2587 286.816 66.2891C285.403 67.7097 284.55 69.6317 284.447 71.6592L276.356 72.2325L276.369 72.2246C276.029 70.1444 274.92 68.292 273.307 66.9469Z" fill="white"/>
<path d="M288.176 60.9649C287.873 60.4388 288.045 59.7705 288.562 59.4721C289.079 59.1737 289.744 59.3582 290.048 59.8843C290.352 60.4104 290.179 61.0787 289.662 61.3771C289.146 61.6754 288.48 61.491 288.176 60.9649Z" fill="white"/>
<path d="M269.607 61.7193C269.303 61.1932 269.476 60.5249 269.993 60.2265C270.51 59.928 271.175 60.1126 271.479 60.6387C271.782 61.1648 271.61 61.8331 271.093 62.1315C270.576 62.4299 269.911 62.2454 269.607 61.7193Z" fill="white"/>
<path d="M278.374 52.4682C278.07 51.9421 278.243 51.2738 278.76 50.9754C279.277 50.677 279.942 50.8615 280.246 51.3876C280.549 51.9137 280.377 52.582 279.86 52.8804C279.343 53.1787 278.678 52.9943 278.374 52.4682Z" fill="white"/>
<path fill-rule="evenodd" clip-rule="evenodd" d="M252.366 519.305C249.549 522.3 245.746 525.293 241.997 523.484C238.051 521.58 237.29 516.636 237.91 512.332C238.549 507.904 240.591 503.227 245.014 502.559C249.432 501.891 253.091 505.644 254.9 509.766C256.375 513.126 254.849 516.665 252.366 519.305Z" fill="#FD70FD"/>
<path fill-rule="evenodd" clip-rule="evenodd" d="M325.225 487.699C321.642 491.498 316.756 493.321 313.371 492.266C309.92 491.189 308.344 487.491 310.252 483.031C311.91 479.154 316.479 477.25 320.331 475.996C323.467 474.975 326.36 475.168 327.323 477.472C328.508 480.306 328.405 484.327 325.225 487.699Z" fill="#FD70FD"/>
<path fill-rule="evenodd" clip-rule="evenodd" d="M275.586 477.617C272.941 480.177 269.168 481.399 265.691 479.768C261.617 477.858 258.181 474.057 258.698 469.698C259.236 465.166 263.307 462.21 267.838 461.669C272.153 461.154 276.588 463.322 278.535 467.33C280.315 470.992 278.388 474.903 275.586 477.617Z" fill="#FD70FD"/>
<path fill-rule="evenodd" clip-rule="evenodd" d="M307.494 522.506C306.484 523.527 304.686 522.766 303.218 521.947C301.677 521.087 299.866 519.925 299.987 518.318C300.108 516.715 302.012 516.387 303.638 516.374C304.907 516.363 306.128 517.092 306.863 518.261C307.755 519.68 308.497 521.492 307.494 522.506Z" fill="#FD70FD"/>
<path d="M271.027 513.518C277.078 519.568 286.888 519.569 292.938 513.518C298.988 507.468 298.988 497.658 292.937 491.607C286.886 485.556 277.076 485.556 271.026 491.606C264.976 497.657 264.976 507.467 271.027 513.518Z" fill="#F6A915"/>
<path d="M273.24 512.897C279.291 518.947 289.101 518.948 295.151 512.897C301.202 506.847 301.202 497.037 295.151 490.986C289.1 484.935 279.29 484.935 273.239 490.985C267.189 497.036 267.189 506.846 273.24 512.897Z" stroke="#F67215" stroke-width="1.3979" stroke-miterlimit="10"/>
<path d="M290.139 500.523C290.139 503.348 288.888 505.712 286.564 506.965C285.518 507.529 284.562 511.834 284.562 511.834L280.027 511.743C280.027 511.743 279.281 507.167 278.486 506.614C276.562 505.274 275.303 503.046 275.303 500.523C275.303 496.427 278.624 493.106 282.72 493.106C286.818 493.106 290.139 496.427 290.139 500.523Z" stroke="white" stroke-miterlimit="10"/>
<path d="M280.663 506.575L279.484 499.865L282.386 501.497L285.197 499.865L284.109 506.575" stroke="white" stroke-miterlimit="10"/>
</svg>
