<svg width="560" height="560" viewBox="0 0 560 560" fill="none" xmlns="http://www.w3.org/2000/svg">
<path fill-rule="evenodd" clip-rule="evenodd" d="M476.064 373.493C474.946 377.465 472.897 381.906 468.439 382.108C463.747 382.321 460.497 378.346 458.876 374.273C457.209 370.084 456.736 365.005 460.56 362.308C464.38 359.613 469.748 361.16 473.564 363.913C476.675 366.157 477.051 369.991 476.064 373.493Z" fill="#FD70FD"/>
<path fill-rule="evenodd" clip-rule="evenodd" d="M421.282 427.193C419.854 432.236 416.185 436.167 412.457 436.856C408.655 437.559 405.276 435.067 404.788 430.242C404.363 426.049 407.691 422.198 410.677 419.259C413.107 416.867 415.931 415.655 418.019 417.217C420.587 419.138 422.55 422.716 421.282 427.193Z" fill="#FD70FD"/>
<path fill-rule="evenodd" clip-rule="evenodd" d="M450.157 454.041C449.729 455.419 447.645 455.61 445.843 455.592C443.951 455.573 441.65 455.417 440.941 453.949C440.233 452.485 441.859 451.289 443.383 450.501C444.573 449.886 446.097 449.943 447.388 450.618C448.955 451.437 450.582 452.673 450.157 454.041Z" fill="#FD70FD"/>
<path d="M431.029 412.549C431.029 424.025 440.333 433.329 451.809 433.329C463.285 433.329 472.588 424.025 472.588 412.549C472.588 401.072 463.285 391.769 451.809 391.769C440.333 391.769 431.029 401.072 431.029 412.549Z" fill="#30B47A"/>
<path d="M433.354 414.421C433.354 425.897 442.657 435.201 454.133 435.201C465.61 435.201 474.913 425.897 474.913 414.421C474.913 402.944 465.61 393.641 454.133 393.641C442.657 393.641 433.354 402.944 433.354 414.421Z" stroke="#0C8563" stroke-width="2" stroke-miterlimit="10"/>
<path d="M441.682 417.494L447.135 422.574L463.247 407.564" stroke="white" stroke-width="2" stroke-miterlimit="10"/>
<path fill-rule="evenodd" clip-rule="evenodd" d="M156.057 134.009C151.93 134.134 147.104 133.563 145.726 129.641C144.276 125.513 147.247 121.486 150.744 118.887C154.342 116.213 159.114 114.354 162.729 117.003C166.342 119.65 166.275 124.88 164.633 129.066C163.294 132.477 159.696 133.898 156.057 134.009Z" fill="#FD70FD"/>
<path fill-rule="evenodd" clip-rule="evenodd" d="M147.016 160.992C141.773 161.145 137.009 158.983 135.355 155.85C133.668 152.655 135.175 148.933 139.698 147.132C143.629 145.567 148.226 147.447 151.853 149.281C154.805 150.773 156.722 152.951 155.77 155.256C154.599 158.092 151.67 160.857 147.016 160.992Z" fill="#FD70FD"/>
<path fill-rule="evenodd" clip-rule="evenodd" d="M118.924 108.337C115.228 108.278 111.681 106.477 110.369 102.873C108.833 98.6501 109.091 93.543 112.555 90.8316C116.155 88.0129 121.145 88.7998 124.748 91.6156C128.178 94.2971 129.788 98.9569 128.325 103.159C126.987 106.999 122.842 108.399 118.924 108.337Z" fill="#FD70FD"/>
<path fill-rule="evenodd" clip-rule="evenodd" d="M109.705 155.219C108.262 155.227 107.526 153.421 107.065 151.807C106.581 150.113 106.12 148.015 107.348 146.967C108.572 145.92 110.157 147.033 111.321 148.171C112.23 149.059 112.58 150.435 112.271 151.779C111.898 153.409 111.137 155.212 109.705 155.219Z" fill="#FD70FD"/>
<path d="M114.021 141.632C119.95 147.56 129.531 147.591 135.422 141.701C141.312 135.81 141.281 126.229 135.352 120.3C129.424 114.371 119.842 114.34 113.952 120.231C108.061 126.121 108.092 135.703 114.021 141.632Z" fill="#FF5940"/>
<path d="M116.116 141.339C122.044 147.267 131.626 147.298 137.516 141.408C143.407 135.517 143.376 125.936 137.447 120.007C131.518 114.078 121.937 114.047 116.046 119.938C110.156 125.829 110.187 135.41 116.116 141.339Z" stroke="#D15036" stroke-width="1.7593" stroke-miterlimit="10"/>
<path d="M125.646 134.176C128.739 134.259 131.314 131.835 131.397 128.761C131.479 125.688 129.039 123.129 125.945 123.046C122.852 122.962 120.277 125.386 120.194 128.46C120.112 131.533 122.552 134.092 125.646 134.176Z" stroke="white" stroke-width="2" stroke-miterlimit="10"/>
<path d="M129.926 132.556L134.447 137.297" stroke="white" stroke-width="2" stroke-miterlimit="10"/>
<path fill-rule="evenodd" clip-rule="evenodd" d="M465.388 153.969C460.171 154.125 455.43 151.92 453.784 148.726C452.106 145.469 453.605 141.674 458.106 139.838C462.017 138.242 466.591 140.159 470.2 142.028C473.137 143.549 475.046 145.77 474.098 148.121C472.933 151.012 470.018 153.831 465.388 153.969Z" fill="#FD70FD"/>
<path fill-rule="evenodd" clip-rule="evenodd" d="M398.118 115.093C394.44 115.033 390.911 113.198 389.606 109.522C388.077 105.217 388.334 100.01 391.78 97.2458C395.363 94.372 400.328 95.1742 403.913 98.0452C407.326 100.779 408.928 105.53 407.472 109.814C406.141 113.73 402.016 115.157 398.118 115.093Z" fill="#FD70FD"/>
<path fill-rule="evenodd" clip-rule="evenodd" d="M408.363 155C406.927 155.008 406.194 153.166 405.736 151.521C405.254 149.794 404.796 147.655 406.017 146.586C407.236 145.519 408.813 146.653 409.971 147.813C410.875 148.719 411.223 150.122 410.916 151.492C410.544 153.154 409.787 154.992 408.363 155Z" fill="#FD70FD"/>
<path d="M411.266 125.692C411.266 136.642 420.303 145.518 431.45 145.518C442.598 145.518 451.634 136.642 451.634 125.692C451.634 114.743 442.598 105.866 431.45 105.866C420.303 105.866 411.266 114.743 411.266 125.692Z" fill="#7A7AFC"/>
<path d="M413.524 127.356C413.524 138.306 422.561 147.183 433.708 147.183C444.856 147.183 453.892 138.306 453.892 127.356C453.892 116.407 444.856 107.53 433.708 107.53C422.561 107.53 413.524 116.407 413.524 127.356Z" fill="#7A7AFC" stroke="#00008B" stroke-width="2" stroke-miterlimit="10"/>
<path d="M429.126 139.333C430.192 139.29 431.259 139.246 432.325 139.203C433.854 139.14 435.382 139.078 436.908 139.017C437.604 138.989 438.333 139.052 438.703 138.319C439.091 137.546 438.344 135.685 437.781 135.11C437.707 135.036 437.585 134.987 437.432 134.958C437.433 134.951 437.432 134.944 437.432 134.939C437.535 132.912 438.387 130.99 439.801 129.569C439.831 129.539 439.962 129.409 439.902 129.354C437.06 126.72 434.669 123.149 433.747 119.372C433.738 119.33 433.713 119.314 433.67 119.316C433.412 119.326 433.157 119.338 432.896 119.349L433.246 130.408C433.276 130.41 433.305 130.415 433.335 130.421C433.939 130.525 434.365 131.105 434.424 131.691C434.502 132.506 433.751 132.873 433.054 132.753C432.453 132.645 432.025 132.067 431.969 131.481C431.96 130.786 432.431 130.405 433.036 130.397L432.002 119.386C431.91 119.389 431.817 119.392 431.726 119.397C431.567 119.403 431.345 119.566 431.322 119.731C430.825 123.528 428.861 127.239 426.344 130.061C426.324 130.086 426.245 130.188 426.291 130.228C427.905 131.573 429.013 133.425 429.354 135.505L429.34 135.513C429.055 135.672 428.852 135.941 428.68 136.418C428.675 136.437 428.675 136.445 428.673 136.46C428.674 136.462 428.67 136.464 428.669 136.467C428.555 137.122 427.734 139.388 429.126 139.333Z" fill="#00008B"/>
<path d="M424.503 124.377C424.479 123.941 424.19 123.58 423.802 123.445C424.247 119.289 427.292 116.119 431.327 115.52C431.469 115.953 431.881 116.261 432.352 116.243C432.824 116.224 433.201 115.882 433.294 115.437C437.352 115.699 440.642 118.872 441.616 122.739C441.267 122.914 441.035 123.286 441.058 123.708C441.091 124.278 441.572 124.723 442.138 124.698C442.703 124.677 443.135 124.195 443.104 123.625C443.075 123.094 442.652 122.677 442.138 122.64C441.167 118.339 437.541 115.305 433.3 115.048C433.212 114.538 432.763 114.156 432.239 114.177C431.713 114.198 431.307 114.618 431.278 115.136C431.262 115.138 431.247 115.139 431.231 115.141C427.061 115.777 423.972 119.313 423.384 123.391C422.84 123.435 422.426 123.903 422.457 124.461C422.488 125.03 422.972 125.475 423.536 125.451C424.102 125.429 424.534 124.947 424.503 124.377Z" fill="#00008B"/>
<path d="M426.291 130.228C426.245 130.188 426.324 130.086 426.344 130.061C428.861 127.239 430.825 123.528 431.322 119.731C431.345 119.566 431.567 119.403 431.726 119.397C431.817 119.392 431.91 119.389 432.002 119.387L433.036 130.397C432.431 130.405 431.96 130.786 431.969 131.481C432.025 132.067 432.453 132.645 433.054 132.754C433.751 132.873 434.502 132.506 434.424 131.691C434.365 131.105 433.939 130.525 433.335 130.421C433.305 130.415 433.276 130.41 433.246 130.409L432.896 119.35C433.156 119.338 433.411 119.327 433.67 119.316C433.713 119.315 433.738 119.33 433.747 119.373C434.669 123.149 437.06 126.721 439.902 129.354C439.962 129.409 439.83 129.539 439.801 129.569C438.387 130.99 437.535 132.912 437.432 134.939L429.34 135.513L429.354 135.505C429.013 133.425 427.905 131.573 426.291 130.228Z" fill="white"/>
<path d="M441.161 124.245C440.858 123.719 441.03 123.05 441.547 122.752C442.064 122.454 442.729 122.638 443.033 123.165C443.336 123.691 443.164 124.359 442.647 124.658C442.13 124.956 441.465 124.771 441.161 124.245Z" fill="white"/>
<path d="M422.592 124.999C422.288 124.473 422.461 123.805 422.978 123.506C423.494 123.208 424.159 123.393 424.463 123.919C424.767 124.445 424.594 125.113 424.078 125.412C423.561 125.71 422.896 125.525 422.592 124.999Z" fill="white"/>
<path d="M431.359 115.748C431.055 115.222 431.228 114.554 431.745 114.255C432.261 113.957 432.927 114.142 433.23 114.668C433.534 115.194 433.362 115.862 432.845 116.161C432.328 116.459 431.663 116.274 431.359 115.748Z" fill="white"/>
<path fill-rule="evenodd" clip-rule="evenodd" d="M90.841 429.755C86.732 429.881 81.9269 429.308 80.5546 425.378C79.1104 421.242 82.0685 417.207 85.5504 414.603C89.1326 411.923 93.8841 410.06 97.4839 412.715C101.081 415.367 101.014 420.607 99.3789 424.802C98.0461 428.221 94.4641 429.644 90.841 429.755Z" fill="#FD70FD"/>
<path fill-rule="evenodd" clip-rule="evenodd" d="M164.709 458.925C159.489 459.078 154.745 456.912 153.099 453.773C151.419 450.571 152.919 446.842 157.423 445.037C161.337 443.468 165.913 445.353 169.524 447.19C172.464 448.685 174.373 450.867 173.425 453.177C172.259 456.019 169.343 458.79 164.709 458.925Z" fill="#FD70FD"/>
<path fill-rule="evenodd" clip-rule="evenodd" d="M136.738 416.696C133.058 416.637 129.526 414.833 128.22 411.221C126.691 406.99 126.948 401.872 130.396 399.155C133.981 396.331 138.95 397.119 142.536 399.941C145.952 402.628 147.555 407.297 146.098 411.508C144.767 415.356 140.639 416.758 136.738 416.696Z" fill="#FD70FD"/>
<path fill-rule="evenodd" clip-rule="evenodd" d="M127.56 471C126.123 471.008 125.39 469.198 124.931 467.581C124.449 465.883 123.991 463.781 125.213 462.73C126.432 461.682 128.01 462.797 129.169 463.937C130.074 464.827 130.422 466.206 130.115 467.552C129.743 469.186 128.985 470.992 127.56 471Z" fill="#FD70FD"/>
<path d="M112.56 450.687C118.609 456.737 128.416 456.738 134.465 450.687C140.514 444.637 140.514 434.827 134.464 428.776C128.415 422.725 118.608 422.725 112.559 428.775C106.51 434.826 106.51 444.636 112.56 450.687Z" fill="#F6A915"/>
<path d="M114.776 450.065C120.827 456.116 130.637 456.117 136.687 450.066C142.737 444.016 142.737 434.206 136.686 428.155C130.635 422.104 120.825 422.104 114.775 428.154C108.724 434.205 108.725 444.015 114.776 450.065Z" stroke="#F67215" stroke-width="1.3979" stroke-miterlimit="10"/>
<path d="M131.675 437.692C131.675 440.517 130.424 442.881 128.1 444.134C127.053 444.697 126.097 449.003 126.097 449.003L121.563 448.912C121.563 448.912 120.816 444.336 120.022 443.783C118.098 442.443 116.839 440.215 116.839 437.692C116.839 433.596 120.16 430.275 124.256 430.275C128.353 430.275 131.675 433.596 131.675 437.692Z" stroke="white" stroke-miterlimit="10"/>
<path d="M122.198 443.744L121.02 437.033L123.921 438.666L126.733 437.033L125.644 443.744" stroke="white" stroke-miterlimit="10"/>
</svg>
