<svg width="280" height="320" viewBox="0 0 280 320" fill="none" xmlns="http://www.w3.org/2000/svg">
<path d="M210 44C210 58.3594 221.641 70 236 70H280V290C280 306.569 266.569 320 250 320H30C13.4315 320 0 306.569 0 290V30C0 13.4315 13.4315 1.61065e-07 30 0H210V44Z" fill="#B4FFF3"/>
<path d="M220 0H263C272.389 0 280 7.61116 280 17V60H237C227.611 60 220 52.3888 220 43V0Z" fill="#189580"/>
<path d="M241.875 19.1818H258.125V22.2727H261.375V16.0909C261.375 14.3909 259.913 13.0155 258.125 13.0155L241.875 13C240.087 13 238.625 14.3909 238.625 16.0909V22.2727H241.875V19.1818ZM255.541 37.0936L263 30L255.541 22.9064L253.25 25.1009L258.401 30L253.25 34.8991L255.541 37.0936ZM246.75 34.8991L241.599 30L246.75 25.1009L244.459 22.9064L237 30L244.459 37.0936L246.75 34.8991ZM258.125 40.8182H241.875V37.7273H238.625V43.9091C238.625 45.6091 240.087 47 241.875 47H258.125C259.913 47 261.375 45.6091 261.375 43.9091V37.7273H258.125V40.8182Z" fill="white"/>
</svg>
