<svg width="1440" height="747" viewBox="0 0 1440 747" fill="none" xmlns="http://www.w3.org/2000/svg">
<g clip-path="url(#clip0_1168_2548)">
<rect width="1440" height="747" fill="#3B3345"/>
<path d="M895.305 245.782C901.226 245.858 908.557 245.369 914.415 245.67C914.497 245.674 914.58 245.678 914.662 245.683C915.907 245.747 917.165 245.825 918.5 245.916C919.732 246 921.031 246.095 922.447 246.198C922.823 246.225 923.209 246.254 923.602 246.282C927.101 246.536 931.399 246.84 937.256 247.178C956.923 248.312 972.43 247.558 977.253 247.323C986.927 246.852 997.246 246.842 1011.33 246.829C1012.61 246.828 1013.93 246.829 1015.29 246.827C1016.38 246.826 1017.29 247.207 1017.32 247.68C1017.34 248.153 1016.47 248.538 1015.38 248.539C1014.05 248.541 1012.76 248.542 1011.5 248.544C1011.5 248.544 1011.49 248.544 1011.48 248.544C997.315 248.557 987.22 248.567 977.775 249.027C972.846 249.267 956.959 250.038 936.806 248.875C930.887 248.534 926.541 248.229 923.02 247.974C922.635 247.946 922.259 247.918 921.894 247.891C921.886 247.891 921.877 247.89 921.869 247.889C920.653 247.801 919.544 247.72 918.5 247.647C916.993 247.542 915.623 247.454 914.269 247.384C914.22 247.382 914.172 247.38 914.123 247.378C908.199 247.074 901.008 247.568 895.265 247.494C894.169 247.48 893.288 247.085 893.299 246.612C893.311 246.139 894.209 245.768 895.305 245.782ZM1295.14 240.159C1300.86 239.532 1308.46 239.601 1315.18 239.88C1321.94 240.161 1328.06 240.667 1330.94 240.978C1333.76 241.282 1336.88 241.38 1340.62 241.441C1341.47 241.454 1342.36 241.466 1343.28 241.479C1346.31 241.519 1349.69 241.565 1353.39 241.7C1367 242.197 1375.87 242.218 1382.21 242.173C1383.51 242.164 1384.72 242.151 1385.86 242.139C1385.86 242.139 1385.86 242.139 1385.86 242.139C1390.15 242.095 1393.34 242.063 1396.28 242.258C1401.52 242.605 1405.79 242.913 1410.94 243.514C1418.05 244.343 1428.18 244.245 1434.77 243.675C1435.13 243.643 1435.5 243.61 1435.88 243.577C1440.66 243.161 1446.54 242.65 1455.36 242.268C1462.69 241.951 1469.08 241.976 1474.73 242.066C1476.35 242.091 1477.9 242.123 1479.38 242.152C1483.13 242.226 1486.48 242.292 1489.64 242.254C1509.23 242.014 1520.53 242.324 1527.63 242.79C1533.09 243.148 1536.14 243.61 1538.34 243.943C1539 244.043 1539.59 244.134 1540.14 244.205C1545.07 244.836 1549.6 245.12 1555.05 245.461C1556.26 245.537 1557.51 245.616 1558.83 245.702C1563.22 245.989 1566.49 245.939 1569.06 245.818C1570.19 245.765 1571.17 245.699 1572.11 245.636C1572.12 245.635 1572.14 245.633 1572.16 245.632C1572.29 245.623 1572.42 245.615 1572.54 245.607C1572.64 245.6 1572.74 245.592 1572.83 245.585C1572.87 245.577 1572.91 245.571 1572.93 245.566C1572.95 245.563 1572.97 245.56 1572.98 245.558C1572.98 245.557 1572.98 245.557 1572.98 245.556C1573.17 245.523 1573.32 245.51 1573.35 245.507C1573.41 245.502 1573.46 245.5 1573.49 245.499C1573.62 245.491 1573.8 245.486 1573.91 245.484C1574.21 245.478 1574.72 245.471 1575.52 245.463C1576.22 245.438 1576.88 245.396 1577.72 245.343C1577.77 245.339 1577.82 245.336 1577.87 245.332C1578.69 245.28 1579.64 245.22 1580.83 245.161C1581.92 245.108 1582.92 245.445 1583.07 245.915C1583.21 246.385 1582.45 246.809 1581.36 246.863C1580.24 246.918 1579.34 246.975 1578.53 247.028C1578.48 247.031 1578.43 247.035 1578.38 247.038C1577.53 247.093 1576.72 247.144 1575.86 247.173C1575.57 247.183 1575.27 247.191 1574.99 247.197C1574.49 247.218 1573.91 247.254 1573.23 247.3C1573.09 247.309 1572.95 247.318 1572.8 247.327C1571.87 247.39 1570.79 247.464 1569.57 247.522C1566.71 247.657 1563.09 247.708 1558.31 247.395C1557.05 247.313 1555.84 247.237 1554.65 247.163C1549.18 246.821 1544.32 246.517 1539.08 245.847C1538.37 245.755 1537.68 245.65 1536.94 245.539C1534.76 245.209 1532.15 244.815 1527.1 244.483C1520.34 244.039 1509.31 243.728 1489.83 243.966C1486.52 244.006 1482.94 243.935 1479.13 243.86C1477.68 243.832 1476.19 243.804 1474.66 243.78C1469.1 243.692 1462.91 243.668 1455.83 243.974C1447.21 244.347 1441.49 244.844 1436.73 245.258C1436.57 245.273 1436.4 245.288 1436.24 245.303C1436.03 245.32 1435.83 245.338 1435.63 245.355C1428.61 245.963 1417.83 246.083 1409.97 245.167C1405.05 244.593 1400.96 244.297 1395.75 243.951C1393.19 243.781 1390.46 243.809 1386.26 243.852C1385.08 243.864 1383.79 243.875 1382.35 243.886C1375.9 243.932 1366.89 243.911 1353.13 243.408C1349.55 243.277 1346.32 243.234 1343.3 243.193C1342.37 243.181 1341.45 243.168 1340.55 243.153C1336.8 243.092 1333.3 242.993 1330.05 242.642C1327.37 242.353 1321.45 241.86 1314.87 241.586C1308.25 241.311 1301.22 241.269 1296.19 241.821C1295.67 241.878 1295.14 241.935 1294.61 241.992C1290.08 242.483 1285.46 242.984 1281.74 243.818C1265.06 249.058 1234.84 247.063 1214.91 246.747C1214.65 246.743 1214.39 246.738 1214.13 246.734C1191.12 246.37 1174.41 246.416 1168.71 246.432C1168.44 246.433 1168.2 246.434 1167.98 246.434C1167.79 246.435 1167.61 246.436 1167.46 246.436C1165.14 246.441 1163.08 246.502 1160.93 246.565C1160.81 246.569 1160.69 246.572 1160.58 246.576C1158.3 246.643 1155.92 246.708 1153.1 246.702C1142.61 246.681 1134.05 246.759 1126.66 246.842C1125.29 246.857 1123.95 246.871 1122.66 246.886C1122.65 246.886 1122.65 246.886 1122.64 246.886C1116.95 246.953 1111.89 247.012 1107.09 247.013C1098.34 247.014 1092.44 247.122 1087.84 247.239C1086.4 247.275 1085.07 247.313 1083.82 247.349C1081.11 247.426 1078.74 247.494 1076.3 247.517C1071.7 247.562 1067.48 247.68 1063.32 247.794C1062.95 247.804 1062.57 247.814 1062.2 247.824C1057.69 247.947 1053.22 248.061 1048.5 248.064C1047.4 248.065 1046.49 247.68 1046.47 247.207C1046.45 246.734 1047.32 246.351 1048.42 246.35C1053 246.347 1057.36 246.237 1061.87 246.113C1062.25 246.103 1062.62 246.092 1063 246.082C1067.15 245.967 1071.45 245.85 1076.13 245.805C1078.48 245.782 1080.72 245.718 1083.37 245.642C1084.64 245.606 1086.01 245.567 1087.53 245.528C1092.19 245.41 1098.18 245.299 1107.01 245.298C1111.75 245.298 1116.74 245.24 1122.44 245.174C1123.74 245.158 1125.09 245.143 1126.47 245.127C1133.89 245.044 1142.49 244.966 1153.04 244.988C1155.7 244.993 1157.96 244.932 1160.23 244.865C1160.35 244.862 1160.48 244.858 1160.61 244.855C1162.74 244.792 1164.91 244.726 1167.36 244.722C1167.69 244.721 1168.11 244.721 1168.61 244.72C1174.32 244.704 1191.11 244.656 1214.19 245.022C1214.27 245.023 1214.34 245.024 1214.41 245.026C1229.88 245.271 1238.61 245.409 1245.18 244.986C1250.37 244.652 1254.24 244.566 1257.42 244.525C1258.03 244.518 1258.6 244.51 1259.15 244.504C1261.52 244.479 1263.38 244.458 1265.25 244.34C1270.9 243.98 1274.95 243.392 1279.85 242.294C1284.01 241.363 1289.1 240.812 1293.56 240.33C1293.57 240.329 1293.57 240.329 1293.58 240.328C1294.11 240.271 1294.63 240.215 1295.14 240.159ZM1596.57 244.023C1597.67 244.037 1598.55 244.431 1598.54 244.903C1598.53 245.376 1597.63 245.749 1596.53 245.735C1593.92 245.702 1591.31 245.668 1588.69 245.634C1587.6 245.62 1586.72 245.226 1586.73 244.754C1586.74 244.281 1587.64 243.908 1588.73 243.922C1591.35 243.955 1593.96 243.989 1596.57 244.023ZM1290.57 231.635C1291.64 231.539 1292.7 231.839 1292.94 232.302C1293.19 232.765 1292.51 233.218 1291.45 233.313C1290.88 233.364 1289.95 233.456 1288.7 233.579C1279.69 234.47 1253.98 237.015 1226.72 237.758C1224.42 237.821 1222.36 237.883 1220.4 237.942C1212.02 238.195 1205.29 239.412 1189.26 239.363C1121.84 239.155 1054.48 236.98 987.171 238.472C967.731 238.903 948.352 238.967 928.898 238.938C925.833 238.934 922.285 238.899 918.5 238.844C902.258 238.611 881.638 238.019 875.966 237.946C874.869 237.932 873.989 237.536 874 237.063C874.012 236.591 874.91 236.22 876.006 236.234C881.653 236.306 902.297 236.9 918.5 237.132C922.222 237.185 925.711 237.219 928.729 237.224C948.146 237.253 967.485 237.189 986.887 236.759C1054.27 235.266 1121.85 235.364 1189.35 235.573C1205.22 235.622 1211.69 236.486 1220.04 236.234C1222 236.174 1224.07 236.111 1226.39 236.048C1253.27 235.315 1278.59 232.812 1287.71 231.911C1289 231.784 1289.97 231.688 1290.57 231.635ZM1341.56 232.351C1353.81 232.221 1371.21 232.452 1386.42 232.655C1393.83 232.754 1400.73 232.847 1406.25 232.887C1414.8 232.948 1420.19 233.358 1425.53 233.765C1425.58 233.77 1425.64 233.774 1425.7 233.778C1431.03 234.185 1436.37 234.585 1445.06 234.648C1453.82 234.711 1465.94 234.433 1478.16 234.152C1478.17 234.152 1478.18 234.152 1478.19 234.152C1490.35 233.872 1502.68 232.722 1511.59 232.788C1542.65 233.018 1561.8 234.195 1571.48 235.119C1588.42 236.735 1607.63 234.922 1624.93 236.966C1626.84 237.419 1623.62 238.722 1620.1 238.347C1619.98 238.337 1619.85 238.326 1619.72 238.316C1618.51 238.217 1617.45 238.137 1615.96 238.073C1613.8 238.02 1612.19 238.016 1610.73 238.014C1606.88 238.007 1580.15 237.695 1570.7 236.793C1561.51 235.916 1542.76 236.809 1511.5 236.578C1502.76 236.513 1490.67 235.583 1478.45 235.864C1478.41 235.865 1478.38 235.866 1478.35 235.866C1466.21 236.145 1453.98 236.427 1445.07 236.362C1436.07 236.297 1430.49 235.877 1425.08 235.465C1425.03 235.461 1424.98 235.457 1424.92 235.452C1419.63 235.049 1414.5 234.659 1406.26 234.599C1400.62 234.559 1393.64 234.467 1386.18 234.367C1371.04 234.165 1353.88 233.935 1341.74 234.063C1340.64 234.074 1339.71 233.7 1339.67 233.227C1339.62 232.754 1340.47 232.362 1341.56 232.351ZM1341.82 221.677C1376.22 219.778 1410.81 220.311 1444.73 222.317C1453.58 222.381 1465.94 222.514 1478.27 222.648C1478.41 222.65 1478.55 222.652 1478.69 222.655C1490.9 222.787 1503.05 222.919 1511.77 222.984C1542.83 223.214 1562.05 223.523 1571.73 224.447C1580.76 225.309 1583.27 225.311 1586.98 225.317C1587.08 225.318 1587.19 225.319 1587.29 225.319C1587.29 225.318 1587.3 225.316 1587.31 225.315C1587.43 225.293 1587.54 225.28 1587.6 225.275C1587.71 225.264 1587.8 225.26 1587.83 225.258C1587.91 225.254 1587.98 225.254 1588 225.254C1588.1 225.253 1588.21 225.253 1588.28 225.254C1588.94 225.262 1591.02 225.314 1592.66 225.385C1594.34 225.457 1595.54 225.55 1596.8 225.653C1596.93 225.663 1597.06 225.674 1597.19 225.685C1598.33 225.778 1599.57 225.879 1601.35 225.989C1602.44 226.056 1603.22 226.489 1603.08 226.958C1602.95 227.426 1601.96 227.751 1600.87 227.684C1598.99 227.569 1597.67 227.461 1596.53 227.367C1596.4 227.357 1596.27 227.346 1596.14 227.336C1594.93 227.237 1593.87 227.158 1592.38 227.093C1590.22 227.04 1588.62 227.036 1587.15 227.034C1583.3 227.027 1580.41 227.022 1570.95 226.12C1561.76 225.243 1543.04 224.928 1511.78 224.696C1503.04 224.632 1490.88 224.5 1478.68 224.367C1478.54 224.366 1478.4 224.364 1478.25 224.363C1465.91 224.228 1453.57 224.093 1444.74 224.029C1410.31 223.779 1376.59 224.637 1341.99 223.389C1335.63 223.457 1329.81 223.483 1324.42 223.508C1308.55 223.579 1296.37 223.635 1284.77 224.675C1282.22 224.903 1275.55 225.097 1265.91 225.338C1263.09 225.409 1259.99 225.483 1256.64 225.564C1248.43 225.763 1238.7 225.998 1227.74 226.297C1225.45 226.36 1223.39 226.421 1221.43 226.481C1213.05 226.734 1206.43 226.935 1190.4 226.886C1170.67 226.825 1137.61 226.4 1119.94 226.073C1111.08 225.909 1106.08 225.758 1102.55 225.632C1101.56 225.597 1100.7 225.563 1099.9 225.533C1097.83 225.454 1096.22 225.394 1094.1 225.353C1078.89 225.062 1068.24 225.262 1050.79 225.68C1049.7 225.706 1048.75 225.344 1048.66 224.872C1048.58 224.399 1049.4 223.994 1050.5 223.968C1067.97 223.549 1078.78 223.345 1094.2 223.641C1096.41 223.683 1098.13 223.748 1100.24 223.829C1101.03 223.858 1101.86 223.89 1102.8 223.924C1106.27 224.048 1111.22 224.198 1120.03 224.361C1137.67 224.687 1170.68 225.111 1190.35 225.171C1206.22 225.22 1212.71 225.025 1221.07 224.772C1223.03 224.713 1225.1 224.65 1227.41 224.587C1238.39 224.287 1248.14 224.051 1256.35 223.852C1259.7 223.771 1262.79 223.696 1265.6 223.626C1275.44 223.38 1281.71 223.192 1283.89 222.997C1295.9 221.92 1308.61 221.862 1324.62 221.791C1329.95 221.767 1335.65 221.742 1341.82 221.677ZM987.913 225.298C989.007 225.274 989.956 225.639 990.033 226.111C990.111 226.584 989.288 226.986 988.194 227.011C982.416 227.139 978.262 227.244 975.015 227.327C969.005 227.481 966.101 227.556 961.751 227.543C950.521 227.509 939.678 227.492 929.923 227.477C925.916 227.471 922.092 227.466 918.5 227.459C907.557 227.44 898.765 227.412 893.5 227.344C892.403 227.33 891.523 226.935 891.534 226.462C891.546 225.989 892.444 225.618 893.54 225.632C898.787 225.699 907.558 225.727 918.5 225.747C922.039 225.753 925.806 225.759 929.754 225.765C939.521 225.779 950.399 225.794 961.699 225.828C965.918 225.841 968.66 225.772 974.537 225.621C977.781 225.538 981.981 225.43 987.913 225.298Z" fill="white"/>
<path d="M1228.97 30.5601C1228.9 36.4813 1229.39 43.812 1229.09 49.6702C1229.08 49.7524 1229.08 49.8345 1229.07 49.9166C1229.01 51.1619 1228.93 52.4194 1228.84 53.7549C1228.75 54.9871 1228.66 56.2857 1228.56 57.7022C1228.53 58.0782 1228.5 58.4635 1228.47 58.857C1228.22 62.356 1227.92 66.6543 1227.58 72.5112C1226.44 92.1782 1227.2 107.685 1227.43 112.508C1227.9 122.182 1227.91 132.501 1227.93 146.582C1227.93 147.87 1227.93 149.189 1227.93 150.542C1227.93 151.638 1227.55 152.546 1227.07 152.571C1226.6 152.595 1226.22 151.727 1226.22 150.631C1226.21 149.306 1226.21 148.015 1226.21 146.757C1226.21 146.751 1226.21 146.745 1226.21 146.74C1226.2 132.57 1226.19 122.475 1225.73 113.03C1225.49 108.101 1224.72 92.2137 1225.88 72.0613C1226.22 66.142 1226.53 61.7956 1226.78 58.2753C1226.81 57.89 1226.84 57.5143 1226.86 57.1492C1226.86 57.1406 1226.87 57.132 1226.87 57.1234C1226.95 55.9079 1227.04 54.7985 1227.11 53.7549C1227.21 52.2478 1227.3 50.878 1227.37 49.5241C1227.37 49.4754 1227.37 49.4266 1227.38 49.3779C1227.68 43.4537 1227.19 36.2629 1227.26 30.52C1227.28 29.4236 1227.67 28.543 1228.14 28.5542C1228.62 28.566 1228.99 29.4643 1228.97 30.5601ZM1234.6 430.394C1235.22 436.111 1235.15 443.717 1234.87 450.432C1234.59 457.195 1234.09 463.315 1233.78 466.196C1233.47 469.011 1233.37 472.14 1233.31 475.873C1233.3 476.728 1233.29 477.616 1233.28 478.535C1233.24 481.568 1233.19 484.943 1233.05 488.647C1232.56 502.255 1232.54 511.127 1232.58 517.463C1232.59 518.766 1232.6 519.978 1232.62 521.113C1232.62 521.115 1232.62 521.117 1232.62 521.119C1232.66 525.403 1232.69 528.599 1232.5 531.538C1232.15 536.77 1231.84 541.042 1231.24 546.198C1230.41 553.309 1230.51 563.437 1231.08 570.028C1231.11 570.389 1231.14 570.759 1231.18 571.134C1231.59 575.912 1232.11 581.795 1232.49 590.616C1232.8 597.946 1232.78 604.333 1232.69 609.987C1232.66 611.607 1232.63 613.154 1232.6 614.638C1232.53 618.384 1232.46 621.738 1232.5 624.896C1232.74 644.485 1232.43 655.782 1231.97 662.882C1231.61 668.342 1231.15 671.393 1230.81 673.593C1230.71 674.258 1230.62 674.845 1230.55 675.398C1229.92 680.329 1229.64 684.856 1229.29 690.302C1229.22 691.51 1229.14 692.768 1229.05 694.081C1228.77 698.475 1228.82 701.75 1228.94 704.317C1228.99 705.44 1229.06 706.428 1229.12 707.36C1229.12 707.377 1229.12 707.395 1229.12 707.412C1229.13 707.542 1229.14 707.671 1229.15 707.799C1229.15 707.895 1229.16 707.992 1229.17 708.088C1229.18 708.126 1229.18 708.16 1229.19 708.186C1229.19 708.206 1229.2 708.221 1229.2 708.231C1229.2 708.233 1229.2 708.235 1229.2 708.237C1229.23 708.42 1229.24 708.577 1229.25 708.61C1229.25 708.666 1229.25 708.716 1229.26 708.741C1229.26 708.876 1229.27 709.05 1229.27 709.166C1229.28 709.462 1229.28 709.978 1229.29 710.776C1229.32 711.47 1229.36 712.137 1229.41 712.971C1229.42 713.024 1229.42 713.076 1229.42 713.129C1229.48 713.942 1229.54 714.894 1229.59 716.089C1229.65 717.176 1229.31 718.175 1228.84 718.321C1228.37 718.466 1227.95 717.703 1227.89 716.616C1227.84 715.49 1227.78 714.599 1227.73 713.785C1227.72 713.733 1227.72 713.682 1227.72 713.63C1227.66 712.781 1227.61 711.977 1227.58 711.111C1227.57 710.821 1227.56 710.522 1227.56 710.243C1227.54 709.74 1227.5 709.168 1227.45 708.484C1227.45 708.346 1227.44 708.204 1227.43 708.059C1227.36 707.129 1227.29 706.046 1227.23 704.824C1227.1 701.965 1227.05 698.342 1227.36 693.56C1227.44 692.306 1227.52 691.091 1227.59 689.904C1227.93 684.436 1228.24 679.572 1228.91 674.338C1229 673.62 1229.1 672.931 1229.22 672.195C1229.55 670.012 1229.94 667.406 1230.27 662.357C1230.72 655.594 1231.03 644.566 1230.79 625.089C1230.75 621.773 1230.82 618.196 1230.89 614.386C1230.92 612.931 1230.95 611.44 1230.97 609.918C1231.06 604.352 1231.09 598.166 1230.78 591.089C1230.41 582.465 1229.91 576.742 1229.5 571.985C1229.48 571.821 1229.47 571.656 1229.45 571.492C1229.43 571.288 1229.42 571.085 1229.4 570.884C1228.79 563.861 1228.67 553.085 1229.59 545.229C1230.16 540.3 1230.46 536.211 1230.8 531.008C1230.97 528.449 1230.95 525.715 1230.9 521.517C1230.89 520.339 1230.88 519.043 1230.87 517.606C1230.82 511.156 1230.84 502.149 1231.35 488.389C1231.48 484.802 1231.52 481.574 1231.56 478.557C1231.57 477.621 1231.59 476.701 1231.6 475.801C1231.66 472.05 1231.76 468.559 1232.11 465.305C1232.4 462.629 1232.9 456.706 1233.17 450.129C1233.44 443.504 1233.49 436.471 1232.93 431.446C1232.88 430.923 1232.82 430.396 1232.76 429.87C1232.27 425.336 1231.77 420.714 1230.94 416.992C1225.7 400.311 1227.69 370.098 1228.01 350.168C1228.01 349.906 1228.02 349.645 1228.02 349.383C1228.39 326.379 1228.34 309.66 1228.32 303.962C1228.32 303.696 1228.32 303.454 1228.32 303.237C1228.32 303.043 1228.32 302.867 1228.32 302.712C1228.31 300.391 1228.25 298.337 1228.19 296.185C1228.19 296.067 1228.18 295.95 1228.18 295.832C1228.11 293.558 1228.05 291.171 1228.05 288.35C1228.07 277.86 1228 269.309 1227.91 261.91C1227.9 260.54 1227.88 259.209 1227.87 257.91C1227.87 257.906 1227.87 257.902 1227.87 257.899C1227.8 252.2 1227.74 247.145 1227.74 242.347C1227.74 233.599 1227.63 227.69 1227.52 223.094C1227.48 221.653 1227.44 220.324 1227.41 219.071C1227.33 216.36 1227.26 213.993 1227.24 211.552C1227.19 206.96 1227.08 202.734 1226.96 198.571C1226.95 198.2 1226.94 197.829 1226.93 197.459C1226.81 192.947 1226.69 188.478 1226.69 183.753C1226.69 182.657 1227.07 181.748 1227.55 181.725C1228.02 181.703 1228.4 182.574 1228.41 183.67C1228.41 188.259 1228.52 192.618 1228.64 197.13C1228.65 197.502 1228.66 197.876 1228.67 198.25C1228.79 202.402 1228.9 206.706 1228.95 211.383C1228.97 213.737 1229.04 215.973 1229.11 218.63C1229.15 219.897 1229.19 221.263 1229.23 222.782C1229.35 227.448 1229.46 233.435 1229.46 242.267C1229.46 247.007 1229.51 251.997 1229.58 257.692C1229.6 258.999 1229.61 260.343 1229.63 261.73C1229.71 269.147 1229.79 277.743 1229.77 288.29C1229.76 290.956 1229.82 293.218 1229.89 295.483C1229.89 295.61 1229.9 295.737 1229.9 295.864C1229.96 297.997 1230.03 300.165 1230.03 302.618C1230.03 302.945 1230.03 303.364 1230.04 303.867C1230.05 309.574 1230.1 326.36 1229.73 349.449C1229.73 349.521 1229.73 349.592 1229.73 349.664C1229.48 365.134 1229.35 373.862 1229.77 380.434C1230.1 385.62 1230.19 389.497 1230.23 392.678C1230.24 393.285 1230.24 393.859 1230.25 394.406C1230.28 396.771 1230.3 398.639 1230.42 400.507C1230.77 406.156 1231.36 410.207 1232.46 415.109C1233.39 419.265 1233.94 424.355 1234.43 428.815C1234.43 428.822 1234.43 428.828 1234.43 428.835C1234.48 429.364 1234.54 429.885 1234.6 430.394ZM1230.73 731.826C1230.72 732.922 1230.32 733.802 1229.85 733.792C1229.38 733.781 1229.01 732.882 1229.02 731.786C1229.05 729.174 1229.09 726.561 1229.12 723.949C1229.14 722.853 1229.53 721.973 1230 721.983C1230.47 721.994 1230.85 722.893 1230.83 723.989C1230.8 726.601 1230.77 729.214 1230.73 731.826ZM1243.12 425.821C1243.22 426.89 1242.92 427.956 1242.45 428.199C1241.99 428.44 1241.54 427.769 1241.44 426.7C1241.39 426.135 1241.3 425.206 1241.18 423.955C1240.28 414.949 1237.74 389.233 1237 361.971C1236.93 359.675 1236.87 357.618 1236.81 355.658C1236.56 347.276 1235.34 340.546 1235.39 324.513C1235.6 257.097 1237.78 189.734 1236.28 122.426C1235.85 102.986 1235.79 83.6072 1235.82 64.1525C1235.82 61.0876 1235.86 57.5402 1235.91 53.7549C1236.14 37.5133 1236.74 16.8925 1236.81 11.2207C1236.82 10.124 1237.22 9.24378 1237.69 9.25499C1238.16 9.26671 1238.54 10.1646 1238.52 11.2608C1238.45 16.9077 1237.86 37.5519 1237.62 53.7549C1237.57 57.4774 1237.54 60.9655 1237.53 63.9835C1237.5 83.4007 1237.57 102.74 1238 122.142C1239.49 189.528 1239.39 257.108 1239.18 324.602C1239.13 340.479 1238.27 346.942 1238.52 355.295C1238.58 357.259 1238.64 359.327 1238.71 361.645C1239.44 388.525 1241.94 413.85 1242.84 422.964C1242.97 424.254 1243.07 425.223 1243.12 425.821ZM1242.4 476.818C1242.53 489.061 1242.3 506.464 1242.1 521.672C1242 529.089 1241.91 535.984 1241.87 541.504C1241.81 550.057 1241.4 555.441 1240.99 560.781C1240.99 560.838 1240.98 560.895 1240.98 560.953C1240.57 566.288 1240.17 571.629 1240.11 580.315C1240.04 589.073 1240.32 601.191 1240.6 613.414C1240.6 613.424 1240.6 613.433 1240.6 613.443C1240.88 625.601 1242.03 637.934 1241.97 646.846C1241.74 677.903 1240.56 697.053 1239.64 706.736C1238.02 723.673 1239.83 742.883 1237.79 760.186C1237.34 762.094 1236.03 758.876 1236.41 755.358C1236.42 755.231 1236.43 755.104 1236.44 754.977C1236.54 753.766 1236.62 752.708 1236.68 751.217C1236.74 749.057 1236.74 747.449 1236.74 745.982C1236.75 742.132 1237.06 715.407 1237.96 705.95C1238.84 696.761 1237.95 678.013 1238.18 646.758C1238.24 638.01 1239.17 625.925 1238.89 613.701C1238.89 613.667 1238.89 613.634 1238.89 613.601C1238.61 601.467 1238.33 589.23 1238.39 580.326C1238.46 571.326 1238.88 565.742 1239.29 560.336C1239.29 560.284 1239.3 560.231 1239.3 560.179C1239.71 554.889 1240.1 549.753 1240.16 541.516C1240.2 535.874 1240.29 528.899 1240.39 521.434C1240.59 506.291 1240.82 489.131 1240.69 476.993C1240.68 475.898 1241.06 474.969 1241.53 474.921C1242 474.874 1242.39 475.723 1242.4 476.818ZM1253.08 477.07C1254.98 511.47 1254.44 546.061 1252.44 579.982C1252.37 588.836 1252.24 601.191 1252.11 613.529C1252.1 613.668 1252.1 613.808 1252.1 613.947C1251.97 626.152 1251.84 638.303 1251.77 647.027C1251.54 678.083 1251.23 697.305 1250.31 706.988C1249.45 716.016 1249.44 718.522 1249.44 722.238C1249.44 722.339 1249.44 722.44 1249.44 722.542C1249.44 722.549 1249.44 722.555 1249.44 722.562C1249.46 722.689 1249.47 722.796 1249.48 722.851C1249.49 722.964 1249.5 723.055 1249.5 723.089C1249.5 723.168 1249.5 723.235 1249.5 723.258C1249.5 723.355 1249.5 723.465 1249.5 723.536C1249.49 724.198 1249.44 726.27 1249.37 727.912C1249.3 729.594 1249.2 730.794 1249.1 732.058C1249.09 732.186 1249.08 732.314 1249.07 732.442C1248.98 733.582 1248.88 734.822 1248.77 736.609C1248.7 737.697 1248.27 738.47 1247.8 738.336C1247.33 738.202 1247 737.212 1247.07 736.124C1247.19 734.245 1247.29 732.925 1247.39 731.78C1247.4 731.653 1247.41 731.526 1247.42 731.399C1247.52 730.189 1247.6 729.128 1247.66 727.637C1247.71 725.477 1247.72 723.871 1247.72 722.404C1247.73 718.558 1247.73 715.661 1248.64 706.206C1249.51 697.016 1249.83 678.296 1250.06 647.038C1250.12 638.298 1250.26 626.133 1250.39 613.939C1250.39 613.795 1250.39 613.652 1250.39 613.509C1250.53 601.164 1250.66 588.827 1250.73 579.994C1250.98 545.564 1250.12 511.846 1251.37 477.248C1251.3 470.881 1251.27 465.062 1251.25 459.671C1251.18 443.805 1251.12 431.628 1250.08 420.021C1249.85 417.476 1249.66 410.805 1249.42 401.166C1249.35 398.341 1249.27 395.242 1249.19 391.893C1248.99 383.683 1248.76 373.956 1248.46 362.997C1248.4 360.701 1248.33 358.644 1248.27 356.684C1248.02 348.301 1247.82 341.685 1247.87 325.651C1247.93 305.923 1248.36 272.868 1248.68 255.191C1248.85 246.337 1249 241.339 1249.12 237.803C1249.16 236.818 1249.19 235.952 1249.22 235.158C1249.3 233.082 1249.36 231.471 1249.4 229.358C1249.69 214.146 1249.49 203.496 1249.07 186.049C1249.05 184.955 1249.41 184.002 1249.88 183.92C1250.36 183.837 1250.76 184.657 1250.79 185.751C1251.21 203.224 1251.41 214.036 1251.11 229.455C1251.07 231.661 1251.01 233.387 1250.93 235.499C1250.9 236.282 1250.86 237.118 1250.83 238.052C1250.71 241.529 1250.56 246.475 1250.39 255.282C1250.07 272.928 1249.64 305.935 1249.58 325.602C1249.53 341.479 1249.73 347.968 1249.98 356.32C1250.04 358.284 1250.11 360.351 1250.17 362.668C1250.47 373.641 1250.7 383.395 1250.9 391.609C1250.98 394.954 1251.06 398.046 1251.13 400.859C1251.38 410.693 1251.56 416.961 1251.76 419.141C1252.84 431.156 1252.89 443.861 1252.96 459.874C1252.99 465.207 1253.01 470.908 1253.08 477.07ZM1249.46 123.168C1249.48 124.262 1249.12 125.211 1248.64 125.288C1248.17 125.365 1247.77 124.542 1247.74 123.449C1247.62 117.671 1247.51 113.517 1247.43 110.27C1247.27 104.26 1247.2 101.356 1247.21 97.0057C1247.25 85.7761 1247.26 74.9333 1247.28 65.1784C1247.28 61.1711 1247.29 57.3471 1247.3 53.7549C1247.32 42.8116 1247.34 34.0199 1247.41 28.7548C1247.42 27.6582 1247.82 26.7779 1248.29 26.7891C1248.77 26.8013 1249.14 27.6992 1249.12 28.7949C1249.06 34.0419 1249.03 42.8124 1249.01 53.7549C1249 57.2944 1249 61.0611 1248.99 65.0093C1248.98 74.7757 1248.96 85.6541 1248.93 96.9541C1248.91 101.173 1248.98 103.915 1249.13 109.792C1249.22 113.036 1249.33 117.236 1249.46 123.168Z" fill="white"/>
</g>
<defs>
<clipPath id="clip0_1168_2548">
<rect width="1440" height="747" fill="white"/>
</clipPath>
</defs>
</svg>
