<svg width="402" height="874" viewBox="0 0 402 874" fill="none" xmlns="http://www.w3.org/2000/svg">
<g clip-path="url(#clip0_1324_1693)">
<rect width="402" height="874" fill="#3B3345"/>
<path d="M117.914 271.925C121.503 272.002 125.946 271.513 129.497 271.813C129.546 271.818 129.596 271.822 129.646 271.826C130.401 271.89 131.163 271.969 131.972 272.06C132.719 272.144 133.506 272.238 134.365 272.341C134.593 272.369 134.826 272.397 135.065 272.426C137.186 272.679 139.791 272.983 143.341 273.321C155.262 274.455 164.66 273.702 167.584 273.467C173.447 272.996 179.702 272.986 188.237 272.973C189.017 272.971 189.817 272.972 190.637 272.971C191.302 272.969 191.852 273.351 191.867 273.824C191.882 274.297 191.356 274.682 190.691 274.683C189.888 274.685 189.105 274.686 188.343 274.687C188.339 274.687 188.336 274.687 188.332 274.687C179.744 274.701 173.625 274.711 167.9 275.171C164.913 275.411 155.283 276.181 143.068 275.019C139.48 274.677 136.846 274.372 134.712 274.117C134.479 274.089 134.251 274.061 134.03 274.035C134.025 274.034 134.019 274.033 134.014 274.033C133.277 273.944 132.605 273.863 131.972 273.791C131.059 273.686 130.229 273.598 129.408 273.528C129.378 273.526 129.349 273.524 129.319 273.522C125.729 273.217 121.37 273.712 117.889 273.638C117.225 273.623 116.691 273.228 116.698 272.755C116.705 272.283 117.249 271.912 117.914 271.925ZM360.261 266.302C363.727 265.675 368.337 265.744 372.407 266.024C376.506 266.305 380.216 266.811 381.961 267.122C383.668 267.425 385.564 267.524 387.827 267.584C388.346 267.598 388.884 267.61 389.44 267.622C391.279 267.663 393.324 267.709 395.57 267.844C403.818 268.341 409.195 268.362 413.035 268.317C413.825 268.308 414.56 268.295 415.248 268.283C415.249 268.283 415.25 268.283 415.252 268.283C417.848 268.239 419.785 268.206 421.567 268.401C424.738 268.749 427.327 269.056 430.453 269.658C434.762 270.487 440.901 270.388 444.896 269.818C445.115 269.787 445.34 269.754 445.567 269.721C448.463 269.305 452.028 268.793 457.375 268.412C461.818 268.095 465.69 268.12 469.117 268.209C470.099 268.235 471.036 268.267 471.935 268.296C474.206 268.369 476.239 268.436 478.153 268.397C490.026 268.158 496.874 268.467 501.177 268.933C504.487 269.292 506.336 269.753 507.669 270.086C508.072 270.187 508.428 270.277 508.764 270.348C511.752 270.979 514.496 271.263 517.797 271.604C518.53 271.68 519.292 271.759 520.088 271.845C522.751 272.132 524.736 272.083 526.292 271.961C526.973 271.908 527.572 271.843 528.136 271.78C528.147 271.778 528.157 271.777 528.168 271.775C528.246 271.767 528.325 271.759 528.402 271.75C528.461 271.744 528.519 271.735 528.578 271.729C528.601 271.72 528.621 271.715 528.637 271.71C528.649 271.706 528.658 271.703 528.664 271.702C528.666 271.701 528.667 271.7 528.668 271.699C528.779 271.667 528.874 271.654 528.894 271.651C528.928 271.646 528.958 271.644 528.974 271.642C529.055 271.635 529.161 271.63 529.231 271.628C529.411 271.622 529.723 271.614 530.207 271.607C530.628 271.582 531.031 271.54 531.537 271.486C531.569 271.483 531.601 271.479 531.633 271.476C532.126 271.423 532.703 271.363 533.427 271.305C534.086 271.251 534.692 271.588 534.78 272.058C534.868 272.528 534.405 272.953 533.746 273.006C533.064 273.062 532.524 273.119 532.03 273.171C531.999 273.175 531.968 273.178 531.937 273.182C531.422 273.236 530.935 273.287 530.41 273.317C530.234 273.327 530.053 273.334 529.884 273.34C529.579 273.361 529.232 273.398 528.817 273.444C528.734 273.453 528.648 273.461 528.56 273.471C527.996 273.534 527.34 273.608 526.599 273.665C524.866 273.8 522.67 273.851 519.772 273.539C519.012 273.457 518.275 273.381 517.555 273.306C514.242 272.964 511.293 272.661 508.121 271.991C507.686 271.899 507.268 271.794 506.822 271.683C505.499 271.353 503.919 270.958 500.859 270.627C496.76 270.183 490.075 269.871 478.27 270.109C476.26 270.15 474.092 270.079 471.783 270.004C470.901 269.975 469.997 269.948 469.075 269.924C465.701 269.836 461.951 269.812 457.662 270.118C452.434 270.491 448.966 270.988 446.082 271.402C445.983 271.417 445.883 271.431 445.784 271.446C445.66 271.464 445.537 271.481 445.415 271.499C441.159 272.107 434.627 272.227 429.866 271.311C426.878 270.736 424.399 270.44 421.246 270.095C419.695 269.925 418.037 269.953 415.493 269.995C414.779 270.007 413.994 270.019 413.122 270.029C409.213 270.075 403.754 270.055 395.413 269.552C393.239 269.421 391.282 269.377 389.454 269.337C388.886 269.324 388.329 269.311 387.783 269.297C385.51 269.236 383.394 269.137 381.421 268.786C379.8 268.497 376.21 268.003 372.223 267.73C368.208 267.454 363.945 267.413 360.899 267.964C360.582 268.022 360.262 268.078 359.943 268.135C357.195 268.627 354.394 269.128 352.138 269.962C342.027 275.201 323.715 273.206 311.635 272.89C311.476 272.886 311.317 272.882 311.159 272.878C297.215 272.514 287.082 272.56 283.628 272.576C283.467 272.576 283.32 272.577 283.189 272.578C283.071 272.578 282.965 272.58 282.871 272.58C281.464 272.584 280.219 272.645 278.914 272.709C278.843 272.712 278.772 272.716 278.701 272.719C277.322 272.786 275.876 272.852 274.166 272.846C267.807 272.825 262.624 272.903 258.14 272.985C257.309 273.001 256.502 273.015 255.715 273.03C255.713 273.03 255.71 273.03 255.708 273.03C252.254 273.096 249.19 273.156 246.282 273.156C240.98 273.157 237.398 273.266 234.612 273.382C233.739 273.419 232.934 273.456 232.174 273.492C230.531 273.57 229.096 273.637 227.616 273.661C224.833 273.706 222.272 273.823 219.748 273.938C219.524 273.948 219.299 273.957 219.075 273.967C216.339 274.091 213.631 274.205 210.767 274.208C210.103 274.209 209.552 273.824 209.538 273.351C209.524 272.878 210.053 272.494 210.717 272.493C213.498 272.49 216.14 272.38 218.875 272.257C219.1 272.247 219.327 272.236 219.554 272.225C222.071 272.111 224.679 271.994 227.514 271.949C228.941 271.926 230.296 271.862 231.906 271.786C232.675 271.75 233.502 271.711 234.423 271.672C237.251 271.553 240.88 271.443 246.234 271.442C249.106 271.441 252.131 271.384 255.583 271.317C256.375 271.302 257.19 271.286 258.03 271.271C262.526 271.188 267.736 271.11 274.129 271.131C275.745 271.137 277.116 271.076 278.489 271.009C278.566 271.005 278.643 271.002 278.72 270.998C280.013 270.935 281.327 270.87 282.813 270.865C283.012 270.865 283.266 270.865 283.571 270.863C287.03 270.847 297.204 270.8 311.199 271.165C311.242 271.167 311.286 271.168 311.329 271.169C320.706 271.414 325.996 271.553 329.979 271.129C333.123 270.795 335.473 270.71 337.401 270.669C337.768 270.661 338.116 270.654 338.448 270.648C339.881 270.622 341.014 270.602 342.146 270.483C345.57 270.124 348.026 269.535 350.997 268.437C353.516 267.506 356.601 266.956 359.304 266.473C359.308 266.473 359.312 266.472 359.316 266.471C359.637 266.414 359.953 266.358 360.261 266.302ZM542.966 270.166C543.63 270.181 544.163 270.574 544.157 271.047C544.15 271.52 543.606 271.893 542.941 271.879C541.358 271.845 539.774 271.811 538.191 271.778C537.527 271.763 536.993 271.37 537 270.897C537.006 270.424 537.551 270.051 538.215 270.065C539.799 270.099 541.382 270.133 542.966 270.166ZM357.489 257.778C358.137 257.682 358.783 257.982 358.931 258.446C359.077 258.909 358.67 259.361 358.022 259.457C357.68 259.508 357.116 259.599 356.359 259.723C350.9 260.614 335.313 263.158 318.789 263.902C317.397 263.964 316.15 264.026 314.963 264.085C309.882 264.339 305.803 265.556 296.085 265.506C255.222 265.298 214.392 263.123 173.595 264.615C161.812 265.046 150.067 265.111 138.275 265.082C136.417 265.077 134.267 265.042 131.972 264.988C122.128 264.754 109.629 264.163 106.192 264.09C105.527 264.075 104.993 263.68 105 263.207C105.007 262.734 105.551 262.363 106.216 262.377C109.639 262.45 122.151 263.043 131.972 263.275C134.229 263.329 136.343 263.363 138.172 263.367C149.941 263.396 161.663 263.333 173.423 262.903C214.267 261.409 255.229 261.508 296.139 261.716C305.762 261.765 309.679 262.63 314.742 262.377C315.933 262.318 317.186 262.255 318.591 262.191C334.883 261.459 350.233 258.956 355.758 258.055C356.54 257.927 357.127 257.832 357.489 257.778ZM388.4 258.494C395.82 258.365 406.369 258.595 415.587 258.798C420.082 258.897 424.262 258.991 427.608 259.03C432.792 259.092 436.055 259.502 439.291 259.909C439.326 259.913 439.361 259.917 439.396 259.922C442.63 260.328 445.867 260.728 451.131 260.791C456.44 260.855 463.785 260.576 471.194 260.295C471.2 260.295 471.205 260.295 471.211 260.295C478.581 260.016 486.056 258.865 491.458 258.931C510.282 259.161 521.889 260.338 527.758 261.262C538.024 262.878 549.667 261.066 560.155 263.11C561.312 263.563 559.361 264.866 557.229 264.491C557.152 264.48 557.075 264.47 556.998 264.459C556.264 264.361 555.623 264.281 554.719 264.216C553.409 264.163 552.435 264.16 551.546 264.157C549.212 264.15 533.013 263.839 527.282 262.937C521.712 262.06 510.349 262.953 491.404 262.721C486.102 262.657 478.776 261.727 471.367 262.008C471.347 262.008 471.327 262.009 471.307 262.01C463.952 262.289 456.535 262.571 451.138 262.506C445.683 262.441 442.299 262.021 439.022 261.609C438.99 261.604 438.958 261.6 438.927 261.596C435.72 261.193 432.607 260.802 427.615 260.743C424.195 260.702 419.967 260.61 415.443 260.511C406.264 260.308 395.863 260.078 388.506 260.207C387.842 260.218 387.279 259.843 387.25 259.37C387.221 258.898 387.736 258.506 388.4 258.494ZM388.553 247.821C409.403 245.922 430.37 246.455 450.93 248.46C456.296 248.525 463.785 248.658 471.263 248.792C471.348 248.794 471.432 248.796 471.517 248.798C478.914 248.931 486.279 249.063 491.567 249.128C510.391 249.358 522.042 249.667 527.911 250.591C533.383 251.452 534.902 251.455 537.154 251.461C537.216 251.461 537.277 251.462 537.338 251.463C537.342 251.461 537.346 251.46 537.35 251.459C537.428 251.437 537.492 251.424 537.526 251.419C537.594 251.407 537.649 251.403 537.67 251.402C537.718 251.398 537.758 251.398 537.772 251.397C537.831 251.396 537.898 251.396 537.941 251.397C538.342 251.406 539.598 251.458 540.593 251.528C541.613 251.601 542.34 251.694 543.106 251.796C543.184 251.807 543.261 251.818 543.339 251.828C544.03 251.921 544.782 252.022 545.864 252.132C546.524 252.199 546.993 252.633 546.912 253.101C546.83 253.569 546.23 253.894 545.571 253.828C544.432 253.712 543.632 253.604 542.938 253.511C542.861 253.5 542.784 253.49 542.707 253.479C541.973 253.381 541.33 253.301 540.426 253.237C539.117 253.184 538.144 253.18 537.255 253.177C534.923 253.171 533.168 253.165 527.436 252.263C521.867 251.386 510.52 251.072 491.574 250.84C486.276 250.775 478.903 250.643 471.512 250.511C471.425 250.509 471.338 250.508 471.251 250.506C463.769 250.372 456.291 250.237 450.937 250.173C430.068 249.923 409.631 250.781 388.66 249.533C384.802 249.6 381.275 249.627 378.007 249.651C368.39 249.722 361.009 249.778 353.974 250.819C352.431 251.047 348.388 251.241 342.545 251.482C340.833 251.553 338.955 251.627 336.925 251.708C331.949 251.907 326.053 252.142 319.411 252.44C318.019 252.503 316.772 252.565 315.584 252.624C310.503 252.878 306.493 253.079 296.774 253.03C284.817 252.969 264.782 252.543 254.067 252.217C248.7 252.053 245.671 251.901 243.528 251.775C242.931 251.74 242.406 251.706 241.925 251.676C240.667 251.597 239.69 251.537 238.409 251.497C229.189 251.205 222.734 251.406 212.158 251.824C211.496 251.85 210.918 251.488 210.868 251.015C210.818 250.543 211.315 250.138 211.978 250.111C222.569 249.693 229.122 249.489 238.468 249.784C239.805 249.826 240.851 249.892 242.131 249.972C242.606 250.002 243.113 250.034 243.679 250.067C245.786 250.191 248.784 250.341 254.122 250.504C264.818 250.83 284.824 251.254 296.745 251.315C306.368 251.364 310.301 251.168 315.364 250.916C316.554 250.857 317.807 250.793 319.211 250.73C325.862 250.431 331.774 250.194 336.753 249.995C338.78 249.914 340.654 249.84 342.36 249.769C348.32 249.523 352.119 249.336 353.441 249.14C360.723 248.063 368.424 248.006 378.13 247.935C381.362 247.911 384.817 247.886 388.553 247.821ZM174.045 251.442C174.708 251.418 175.283 251.782 175.33 252.255C175.377 252.727 174.878 253.13 174.215 253.154C170.713 253.282 168.196 253.388 166.227 253.471C162.585 253.624 160.824 253.699 158.188 253.686C151.381 253.652 144.809 253.635 138.896 253.621C136.468 253.615 134.15 253.609 131.972 253.603C125.339 253.583 120.011 253.555 116.819 253.488C116.155 253.474 115.621 253.078 115.628 252.605C115.635 252.133 116.179 251.761 116.844 251.775C120.024 251.843 125.34 251.871 131.972 251.891C134.118 251.897 136.401 251.903 138.794 251.908C144.714 251.923 151.307 251.938 158.156 251.972C160.714 251.984 162.376 251.915 165.937 251.765C167.904 251.682 170.449 251.573 174.045 251.442Z" fill="white"/>
<path d="M315.91 22.8348C315.834 29.737 316.323 38.2821 316.022 45.1109C316.018 45.2066 316.013 45.3024 316.009 45.3981C315.945 46.8497 315.867 48.3156 315.776 49.8723C315.692 51.3086 315.597 52.8224 315.494 54.4736C315.467 54.9118 315.438 55.361 315.41 55.8197C315.156 59.8984 314.852 64.9087 314.514 71.7359C313.38 94.6611 314.134 112.737 314.369 118.359C314.84 129.635 314.85 141.664 314.863 158.078C314.864 159.579 314.863 161.117 314.865 162.694C314.866 163.972 314.485 165.03 314.012 165.059C313.539 165.088 313.154 164.076 313.152 162.798C313.151 161.253 313.149 159.748 313.148 158.282C313.148 158.275 313.148 158.268 313.148 158.262C313.135 141.745 313.124 129.977 312.665 118.967C312.425 113.222 311.654 94.7025 312.817 71.2115C313.158 64.3116 313.463 59.2451 313.718 55.1416C313.746 54.6924 313.774 54.2545 313.801 53.8289C313.801 53.8189 313.802 53.8089 313.803 53.7988C313.891 52.3819 313.972 51.0887 314.045 49.8723C314.15 48.1155 314.238 46.5187 314.307 44.9405C314.309 44.8837 314.312 44.827 314.314 44.7702C314.618 37.8645 314.124 29.4824 314.198 22.788C314.212 21.5101 314.607 20.4836 315.08 20.4966C315.553 20.5104 315.924 21.5575 315.91 22.8348ZM321.533 488.909C322.16 495.573 322.091 504.439 321.812 512.267C321.53 520.15 321.024 527.284 320.714 530.642C320.41 533.924 320.312 537.57 320.251 541.922C320.237 542.919 320.226 543.954 320.213 545.025C320.173 548.56 320.127 552.494 319.992 556.812C319.494 572.675 319.473 583.016 319.519 590.402C319.528 591.921 319.541 593.334 319.552 594.657C319.552 594.66 319.552 594.662 319.552 594.664C319.597 599.657 319.629 603.383 319.434 606.809C319.087 612.908 318.779 617.888 318.178 623.898C317.349 632.187 317.447 643.992 318.017 651.675C318.049 652.097 318.082 652.528 318.114 652.964C318.53 658.534 319.042 665.392 319.424 675.675C319.74 684.218 319.716 691.664 319.626 698.255C319.601 700.144 319.569 701.946 319.54 703.676C319.466 708.043 319.4 711.952 319.438 715.634C319.678 738.468 319.368 751.636 318.902 759.912C318.544 766.278 318.082 769.833 317.749 772.398C317.648 773.173 317.558 773.858 317.487 774.503C316.856 780.25 316.572 785.527 316.231 791.875C316.155 793.284 316.076 794.75 315.99 796.281C315.703 801.403 315.753 805.219 315.874 808.212C315.927 809.521 315.993 810.673 316.056 811.76C316.057 811.78 316.059 811.8 316.06 811.82C316.069 811.971 316.077 812.121 316.085 812.271C316.092 812.383 316.1 812.495 316.106 812.608C316.115 812.652 316.12 812.692 316.125 812.721C316.129 812.745 316.132 812.763 316.134 812.775C316.135 812.777 316.135 812.78 316.136 812.782C316.169 812.995 316.182 813.178 316.184 813.216C316.189 813.281 316.191 813.34 316.193 813.37C316.201 813.527 316.205 813.729 316.208 813.864C316.214 814.21 316.221 814.811 316.229 815.741C316.254 816.551 316.296 817.327 316.349 818.3C316.353 818.361 316.356 818.422 316.36 818.483C316.412 819.432 316.472 820.542 316.531 821.934C316.584 823.201 316.247 824.366 315.777 824.536C315.307 824.705 314.883 823.815 314.829 822.549C314.774 821.236 314.717 820.197 314.664 819.248C314.661 819.188 314.657 819.128 314.654 819.068C314.599 818.079 314.548 817.142 314.519 816.132C314.509 815.794 314.501 815.445 314.495 815.12C314.474 814.534 314.438 813.867 314.392 813.069C314.383 812.909 314.374 812.744 314.364 812.575C314.301 811.49 314.228 810.228 314.17 808.803C314.035 805.47 313.984 801.247 314.297 795.673C314.379 794.211 314.455 792.794 314.529 791.411C314.871 785.038 315.174 779.368 315.845 773.267C315.936 772.429 316.042 771.627 316.153 770.768C316.483 768.224 316.877 765.186 317.209 759.301C317.652 751.417 317.964 738.562 317.726 715.858C317.685 711.993 317.757 707.824 317.831 703.382C317.86 701.687 317.888 699.949 317.912 698.175C318 691.687 318.023 684.475 317.717 676.226C317.344 666.172 316.848 659.502 316.434 653.957C316.419 653.765 316.404 653.574 316.389 653.382C316.372 653.144 316.354 652.908 316.337 652.674C315.729 644.487 315.608 631.925 316.524 622.769C317.099 617.023 317.395 612.256 317.741 606.191C317.91 603.208 317.882 600.021 317.84 595.128C317.828 593.755 317.816 592.245 317.806 590.569C317.76 583.051 317.781 572.552 318.283 556.512C318.414 552.33 318.458 548.567 318.499 545.051C318.511 543.959 318.524 542.888 318.539 541.838C318.6 537.466 318.699 533.396 319.05 529.603C319.338 526.484 319.832 519.58 320.106 511.913C320.381 504.191 320.422 495.993 319.871 490.134C319.814 489.525 319.757 488.911 319.7 488.297C319.209 483.013 318.708 477.624 317.874 473.286C312.634 453.842 314.629 418.624 314.945 395.392C314.949 395.087 314.953 394.782 314.958 394.477C315.322 367.661 315.276 348.173 315.26 341.531C315.259 341.221 315.258 340.939 315.258 340.685C315.257 340.459 315.256 340.255 315.255 340.074C315.251 337.368 315.19 334.974 315.127 332.465C315.123 332.328 315.12 332.191 315.116 332.054C315.049 329.403 314.984 326.621 314.989 323.333C315.011 311.105 314.933 301.137 314.85 292.512C314.835 290.916 314.821 289.363 314.806 287.85C314.806 287.845 314.806 287.841 314.806 287.836C314.739 281.193 314.679 275.301 314.679 269.709C314.678 259.511 314.57 252.623 314.453 247.266C314.416 245.585 314.379 244.037 314.343 242.576C314.266 239.416 314.198 236.657 314.174 233.811C314.13 228.458 314.012 223.532 313.898 218.68C313.888 218.247 313.878 217.815 313.868 217.384C313.745 212.124 313.631 206.915 313.627 201.407C313.627 200.129 314.012 199.069 314.485 199.043C314.958 199.017 315.341 200.033 315.342 201.311C315.345 206.66 315.455 211.741 315.579 217C315.589 217.433 315.6 217.869 315.61 218.306C315.724 223.146 315.841 228.162 315.887 233.614C315.91 236.358 315.973 238.964 316.049 242.061C316.086 243.539 316.125 245.131 316.163 246.902C316.282 252.34 316.393 259.319 316.394 269.615C316.394 275.14 316.452 280.957 316.518 287.596C316.533 289.119 316.549 290.686 316.565 292.302C316.647 300.948 316.725 310.968 316.704 323.263C316.699 326.37 316.76 329.007 316.826 331.647C316.83 331.795 316.833 331.943 316.837 332.091C316.9 334.578 316.965 337.105 316.97 339.964C316.971 340.346 316.971 340.833 316.972 341.42C316.988 348.073 317.036 367.64 316.67 394.553C316.669 394.637 316.667 394.72 316.666 394.804C316.421 412.837 316.283 423.011 316.706 430.672C317.04 436.717 317.126 441.236 317.166 444.944C317.174 445.651 317.182 446.32 317.187 446.959C317.213 449.715 317.233 451.893 317.352 454.07C317.711 460.655 318.3 465.378 319.398 471.092C320.329 475.936 320.88 481.87 321.362 487.068C321.363 487.076 321.363 487.084 321.364 487.091C321.421 487.708 321.477 488.316 321.533 488.909ZM317.669 840.279C317.655 841.556 317.261 842.581 316.788 842.57C316.315 842.557 315.942 841.51 315.956 840.232C315.99 837.187 316.024 834.141 316.058 831.096C316.072 829.819 316.466 828.793 316.938 828.805C317.411 828.818 317.784 829.865 317.77 831.143C317.736 834.188 317.703 837.233 317.669 840.279ZM330.057 483.578C330.153 484.824 329.853 486.066 329.39 486.35C328.927 486.632 328.474 485.849 328.378 484.603C328.328 483.944 328.236 482.861 328.112 481.403C327.221 470.905 324.677 440.929 323.934 409.15C323.871 406.474 323.809 404.076 323.75 401.792C323.497 392.02 322.28 384.176 322.329 365.487C322.537 286.902 324.712 208.379 323.22 129.92C322.789 107.259 322.725 84.6702 322.753 61.9925C322.758 58.4198 322.793 54.2847 322.847 49.8723C323.081 30.9399 323.673 6.9029 323.746 0.291528C323.76 -0.986946 324.155 -2.01294 324.628 -1.99988C325.101 -1.98622 325.472 -0.939598 325.458 0.338292C325.386 6.92069 324.792 30.9849 324.56 49.8723C324.507 54.2115 324.472 58.2774 324.468 61.7954C324.439 84.4295 324.502 106.972 324.932 129.589C326.426 208.139 326.327 286.915 326.119 365.59C326.07 384.098 325.206 391.631 325.458 401.368C325.518 403.658 325.581 406.068 325.644 408.77C326.377 440.103 328.88 469.623 329.78 480.247C329.908 481.751 330.003 482.881 330.057 483.578ZM329.341 543.024C329.471 557.294 329.24 577.581 329.037 595.309C328.938 603.954 328.845 611.992 328.805 618.426C328.743 628.396 328.334 634.672 327.927 640.896C327.922 640.963 327.918 641.03 327.914 641.097C327.507 647.316 327.107 653.541 327.044 663.667C326.98 673.875 327.259 688.001 327.54 702.25C327.54 702.261 327.54 702.272 327.54 702.283C327.82 716.456 328.97 730.832 328.904 741.22C328.674 777.422 327.497 799.745 326.573 811.031C324.957 830.775 326.77 853.167 324.725 873.337C324.273 875.561 322.97 871.809 323.345 867.709C323.355 867.56 323.366 867.412 323.376 867.264C323.475 865.854 323.554 864.62 323.619 862.882C323.672 860.364 323.676 858.49 323.678 856.779C323.685 852.292 323.996 821.139 324.899 810.116C325.775 799.404 324.882 777.551 325.114 741.117C325.179 730.92 326.109 716.833 325.828 702.584C325.827 702.545 325.826 702.506 325.826 702.467C325.547 688.323 325.265 674.059 325.329 663.68C325.395 653.189 325.815 646.68 326.227 640.378C326.231 640.317 326.235 640.256 326.239 640.195C326.643 634.028 327.033 628.041 327.092 618.44C327.133 611.864 327.225 603.732 327.325 595.031C327.527 577.379 327.757 557.376 327.629 543.228C327.617 541.951 327.992 540.869 328.465 540.813C328.938 540.757 329.33 541.747 329.341 543.024ZM340.015 543.318C341.914 583.417 341.381 623.739 339.375 663.279C339.311 673.599 339.178 688.001 339.044 702.383C339.041 702.546 339.039 702.708 339.037 702.871C338.904 717.098 338.773 731.261 338.708 741.431C338.478 777.632 338.168 800.038 337.245 811.325C336.383 821.849 336.381 824.771 336.375 829.102C336.374 829.22 336.373 829.338 336.373 829.456C336.374 829.464 336.375 829.472 336.377 829.479C336.399 829.628 336.411 829.753 336.417 829.817C336.428 829.948 336.432 830.054 336.434 830.094C336.437 830.186 336.438 830.264 336.438 830.291C336.439 830.404 336.439 830.532 336.438 830.615C336.429 831.386 336.378 833.802 336.307 835.716C336.235 837.677 336.142 839.075 336.039 840.549C336.028 840.698 336.018 840.847 336.007 840.997C335.914 842.325 335.813 843.771 335.703 845.853C335.636 847.122 335.202 848.023 334.734 847.868C334.266 847.711 333.941 846.557 334.008 845.289C334.123 843.098 334.231 841.56 334.324 840.225C334.335 840.077 334.345 839.929 334.356 839.781C334.454 838.37 334.534 837.134 334.599 835.395C334.652 832.877 334.655 831.006 334.658 829.296C334.665 824.812 334.67 821.436 335.572 810.413C336.449 799.702 336.764 777.88 336.995 741.444C337.06 731.256 337.192 717.076 337.325 702.861C337.326 702.694 337.328 702.527 337.329 702.36C337.463 687.97 337.599 673.589 337.663 663.293C337.912 623.159 337.055 583.855 338.302 543.525C338.235 536.104 338.208 529.321 338.184 523.036C338.113 504.541 338.057 490.347 337.017 476.817C336.788 473.85 336.595 466.075 336.354 454.838C336.283 451.545 336.209 447.933 336.128 444.029C335.929 434.459 335.694 423.12 335.395 410.346C335.332 407.67 335.27 405.272 335.211 402.988C334.958 393.216 334.756 385.503 334.806 366.813C334.867 343.817 335.292 305.286 335.619 284.68C335.782 274.359 335.934 268.533 336.06 264.411C336.095 263.263 336.129 262.254 336.159 261.328C336.238 258.909 336.298 257.03 336.339 254.567C336.63 236.836 336.429 224.421 336.011 204.083C335.985 202.809 336.348 201.697 336.82 201.601C337.293 201.505 337.697 202.461 337.724 203.736C338.142 224.104 338.346 236.708 338.051 254.681C338.009 257.252 337.943 259.263 337.863 261.725C337.834 262.638 337.802 263.613 337.768 264.702C337.644 268.755 337.494 274.52 337.331 284.786C337.005 305.356 336.581 343.83 336.52 366.756C336.471 385.263 336.667 392.827 336.919 402.563C336.979 404.853 337.042 407.262 337.105 409.962C337.404 422.754 337.641 434.123 337.84 443.698C337.921 447.597 337.996 451.201 338.066 454.481C338.312 465.944 338.5 473.25 338.695 475.791C339.772 489.797 339.83 504.607 339.901 523.273C339.925 529.489 339.95 536.134 340.015 543.318ZM336.394 130.785C336.418 132.06 336.053 133.166 335.581 133.256C335.108 133.346 334.705 132.387 334.681 131.112C334.553 124.377 334.448 119.535 334.365 115.75C334.211 108.745 334.136 105.359 334.149 100.288C334.183 87.1984 334.2 74.5593 334.215 63.1883C334.221 58.5171 334.226 54.0596 334.233 49.8723C334.252 37.116 334.28 26.8678 334.348 20.7305C334.362 19.4522 334.757 18.426 335.23 18.4391C335.703 18.4533 336.074 19.4999 336.06 20.7772C335.993 26.8935 335.965 37.117 335.945 49.8723C335.938 53.9981 335.933 58.3889 335.927 62.9912C335.913 74.3756 335.898 87.0561 335.864 100.228C335.851 105.146 335.92 108.343 336.071 115.192C336.154 118.974 336.262 123.87 336.394 130.785Z" fill="white"/>
</g>
<defs>
<clipPath id="clip0_1324_1693">
<rect width="402" height="874" fill="white"/>
</clipPath>
</defs>
</svg>
